<?xml version="1.0" standalone="no"?>
<!DOCTYPE svg PUBLIC "-//W3C//DTD SVG 1.1//EN" "http://www.w3.org/Graphics/SVG/1.1/DTD/svg11.dtd" >
<svg xmlns="http://www.w3.org/2000/svg" xmlns:xlink="http://www.w3.org/1999/xlink" version="1.1">
<metadata>
Created by FontForge 20170731 at Wed Jul  7 09:45:43 2021
 By Aleksey,,,
BlackCatsMedia
</metadata>
<defs>
<font id="BeradonScript" horiz-adv-x="1320" >
  <font-face 
    font-family="Beradon Script"
    font-weight="400"
    font-stretch="normal"
    units-per-em="2048"
    panose-1="2 0 0 0 0 0 0 0 0 0"
    ascent="1536"
    descent="-512"
    x-height="831"
    cap-height="1573"
    bbox="-9446.36 -2554.03 7294.1 2886.05"
    underline-thickness="102"
    underline-position="-255"
    unicode-range="U+0020-FB00"
  />
<missing-glyph horiz-adv-x="468" 
 />
    <glyph glyph-name="e_s" unicode="es" horiz-adv-x="1036" 
d="M985 532q8 -4 8 -8q0 -8 -2 -12q0 -1 -1 -3.5t-1 -4.5q-2 -5 -6 -15.5t-6 -15.5q-10 -33 -27 -74l-61 -147q-7 -20 -25 -53q-2 -4 -6 -13.5t-6 -13.5q-39 -69 -84 -109q-27 -21 -57 -36q-30 -17 -58 -25h-4q-20 -4 -31 -4q-44 -3 -77 4q-63 18 -101 74q-26 45 -26 102
q1 3 6 23q9 13 20 2q7 -7 9 -13q2 -4 2 -12q3 -27 12 -51q21 -41 63 -55q34 -10 66 -2q38 9 55 41q16 24 23 59q4 46 4 68q0 46 -6 92q-6 28 -9 53l-4 29q-1 4 -3 13t-3 13q-1 5 -3 15.5t-3 15.5q-4 13 -8 39q-1 5 -4 18t-4 21l-13 49q-4 13 -8 39q-4 9 -8 31q-1 5 -3 14
t-3 14t-3 14.5t-3 14.5v4q-2 0 -2 4q-2 0 -2 2q-3 -10 -9.5 -29.5t-12 -35.5t-9.5 -31q-17 -64 -64 -199v-4q-2 -2 -2 -4q-21 -48 -47 -94q-37 -68 -80 -123q-58 -79 -141 -141q-37 -26 -65 -37l-17 -8q-42 -22 -74 -29q-71 -16 -131 18q-80 47 -104 134q-18 61 -12 122
q5 53 26 125q22 64 51 121q56 113 156 203q70 57 141 82q58 19 113 16q37 -4 53 -10q46 -19 52 -66q6 -40 0 -79q-12 -67 -60 -121q-48 -60 -125 -97q-54 -25 -106 -36q-51 -11 -86 -13q-10 0 -13 -8q-6 -22 -8 -27q-9 -34 -20 -92q-10 -66 -4 -123q7 -31 18 -53
q22 -31 57 -31q39 0 72 17q85 47 152 113q38 36 67 88q23 34 72 131q2 4 5 11t5 11q1 4 4 11.5t4 11.5q0 1 1 3t1 3t1 3t1 3q2 4 2 8l3 6q8 28 22 62q7 23 47 135q3 9 9.5 26.5t9.5 26.5q6 25 16 51l6 19q14 43 27 76q36 79 106 112q36 19 70 19q13 3 29 -4q24 -9 14 -35
q-2 -4 -6 -12.5t-6 -12.5q-1 -1 -3.5 -4t-3.5 -4l-12 -18q-19 -30 -31 -52q-22 -48 -16 -98q0 -10 2 -14v-17q8 -56 16 -86l9 -37q4 -20 6 -28q9 -28 20 -74q14 -43 17 -55q12 -44 16 -72q11 -39 14 -90q1 -4 3.5 -17.5t3.5 -21.5q1 2 3 5t3 5q0 3 4 11q6 12 18 40
q1 3 11.5 25.5t15.5 34.5q4 11 13 32.5t13 32.5q4 10 13.5 32t13.5 32q4 16 8 24l2 3q0 4 2 4v4q16 0 31 -11zM43 469q-3 -7 0 -10q4 -4 8 -4h4q20 4 31 4q48 6 88 24q112 50 164 154q18 30 18 68v10q-3 43 -45 43q-32 0 -59 -15q-46 -21 -80 -61q-85 -102 -129 -213z" />
    <glyph glyph-name="ff" unicode="ff" horiz-adv-x="567" 
d="M-2394 -1319h2h-2zM1948 6l18 -6q-15 -192 -151 -328q-116 -116 -265 -180q-254 -110 -522 -119q-168 -3 -336 0q-106 3 -248 13q-53 4 -163 20q-13 2 -39 5t-39 5q-30 3 -60 9q-7 1 -21.5 3t-21.5 3q-16 2 -52 7t-56 7q-36 7 -101 14q-4 2 -14 2q-6 1 -19.5 2t-19.5 2
l-33 5q-8 2 -20 6q-60 7 -262 35l-336 49l-78 12q-21 2 -78 10q-22 3 -65 9.5t-64 9.5q-19 2 -54.5 7t-53.5 7q-35 6 -105 14q-11 -32 -20 -53q-49 -112 -70 -154l-6 -12q-40 -78 -121 -221l-8 -12q-13 -25 -47 -74q-87 -161 -193 -256q-12 -9 -24 -21l-6 -6l-4 -4
q-138 -108 -267 -135q-20 -8 -32 -12q-77 -11 -146 -8q-65 6 -102 18l-39 10l-25 -16v4l-2 2l-2 -2h-2q-78 -37 -168 -55q-55 -11 -127 -4q-141 18 -203 151q-53 106 3 211q35 74 114 74q11 0 23 -4q8 -2 18 -15q-10 -6 -26 -14q-92 -41 -113 -141q-3 -50 31 -90
q50 -71 133 -95q130 -41 250 15l12 6q10 3 20 10l-6 6q6 6 12 15q-28 25 -77 125q-50 100 -47 235q5 48 32 121v-2q34 85 97 160q112 127 274 206q170 86 358 107q12 30 13 33l4 8q42 130 53 166q2 6 5 17t5 16q3 10 6.5 22t8.5 26t8 23q11 36 53 160q3 10 10.5 31.5
t10.5 31.5q2 5 5 14.5t5 14.5q20 55 37 113l149 428q4 14 10 29.5t13.5 35.5t11.5 31q40 98 66 176h-162l80 99h118q38 87 97 186q2 4 7 12t7 12l6 9q70 116 184 221q66 63 146 72q45 3 94 -13q34 -10 64 -45q23 -30 32 -59q29 31 88 90q66 63 146 72q50 3 96 -11
q33 -12 61 -47q29 -37 39 -69q22 -70 13 -123q-12 -67 -64 -119q-28 -24 -57 -27q-31 -3 -72 17q-33 20 -43 53q-12 34 4 59q2 4 13 15q7 5 24 8h4q27 3 45 -12q20 -17 23 -45v-7q2 -4 2 -10q25 17 41 49q15 30 12 60q-3 64 -39 100q-31 31 -94 25q-40 -3 -68 -25
q-89 -83 -149 -197l-2 -4q-46 -77 -74 -155q-1 -4 -4 -11.5t-4 -11.5q-4 -11 -27 -69h207q-36 -44 -67 -99h-177q-23 -72 -104 -311q-3 -9 -9 -27.5t-9 -27.5l-46 -134l-2 -2q-114 -334 -182 -522q-89 -248 -123 -317q35 -2 105 -10q23 -2 65 -6.5t60 -6.5q24 -2 67.5 -7
t63.5 -7q56 -7 334 -47q60 -10 266 -47l106 -21q2 0 7 -1t8 -1q2 0 6 -1t6 -1q5 -1 35 -6q5 -1 35 -6q2 -2 4 -2q1 0 3 -1t3 -1q16 -3 47.5 -9.5t48.5 -9.5q40 -7 120 -21.5t120 -21.5q216 -33 350 -47q106 -14 229 -14q167 -3 379 4q113 9 219 43q186 53 326 178
q118 103 170 246q15 44 18 82zM-1153 1198q-4 -8 -8 -24h262q2 6 6 14q48 120 111 223q2 3 5 9.5t5 9.5l6 8q17 32 43 65q-5 39 -35 72q-37 32 -96 27q-42 -6 -66 -27q-90 -84 -147 -186l-6 -13q-42 -77 -80 -178zM-2398 -1221q40 29 67 60l4 2l13 12q120 108 203 227
q103 156 190 353q39 86 80 196q-186 -27 -352 -108q-234 -117 -320 -361q-10 -27 -10 -108q0 -77 51 -182q1 -1 2 -3.5t2 -3.5t2 -3t2 -3q17 -25 66 -78zM-1497 -522q32 68 67 164q-57 8 -124 8q-90 0 -158 -8q-1 -4 -4 -11.5t-4 -11.5q-1 -3 -4.5 -10t-4.5 -10
q-5 -9 -8 -23q-3 -7 -9 -22.5t-9 -22.5q-36 -87 -72 -154q-46 -95 -125 -235q-56 -92 -114 -168q-33 -38 -86 -84q-5 -5 -11 -8l-12 -12q-16 -16 -20 -19q-64 -61 -123 -106q-1 -1 -4.5 -3.5t-4.5 -3.5q-6 -6 -10 -8q52 -21 113 -18q2 0 5 1t5 1t5 1t5 1q163 15 291 131
q131 119 215 254q83 133 131 233q20 39 70 144zM-1323 -49l16 53q3 8 8.5 25.5t8.5 25.5q6 19 25 75t28 85q3 8 8 23.5t8 23.5l17 45q9 28 43 129q5 14 16.5 50t18.5 57q12 43 36 121q0 1 1.5 2t1.5 2q1 2 3 5t3 5q60 163 71 192q4 12 13.5 37t13.5 37q20 63 49 131h-268
q-5 -13 -13.5 -34.5t-15.5 -39.5t-12 -34q-2 -5 -5 -14.5t-5 -14.5q-49 -149 -60 -188q-1 -3 -3 -8.5t-3 -8.5q0 -1 -1 -3t-1 -3t-1 -3t-1 -3l-16 -49l-7 -13q-6 -26 -18 -59v-4q0 -1 -1 -2t-1 -2l-18 -62v0h-2v-2q-32 -103 -150 -446q-87 -253 -141 -367q120 12 233 21
q18 2 51 2q6 21 15 39l2 8q24 65 53 166z" />
    <glyph glyph-name=".notdef" horiz-adv-x="468" 
 />
    <glyph glyph-name=".null" horiz-adv-x="0" 
 />
    <glyph glyph-name="nonmarkingreturn" horiz-adv-x="682" 
 />
    <glyph glyph-name="space" unicode=" " horiz-adv-x="468" 
 />
    <glyph glyph-name="exclam" unicode="!" horiz-adv-x="468" 
d="M524 1059q18 57 49 71q39 15 82 13q26 3 72 6q-54 -170 -100 -299q-18 -51 -65.5 -182.5t-72.5 -202.5q-14 -34 -35.5 -95.5t-23.5 -66.5q-16 -39 -20 -45q-7 -12 -23 -16q-8 -2 -37 -2h-53q9 38 37 135q13 47 45 166t51 186q80 285 94 332zM309 184q42 0 62 -26
q23 -23 20 -66q-3 -38 -33 -65q-27 -27 -65 -27t-62 27q-23 26 -20 65t33 66q26 26 65 26z" />
    <glyph glyph-name="quotedbl" unicode="&#x22;" horiz-adv-x="456" 
d="M532 1149q32 0 58 -23q28 -32 22 -79q-5 -36 -26 -80q-40 -74 -80 -117q-50 -53 -88 -74q-4 16 -4 19q-4 8 -4 12l4 8q4 8 10 14q59 62 80 136q-34 3 -53 28q-22 28 -19 64q6 41 33 65q30 27 67 27zM819 1126q31 -36 23 -79q-5 -33 -27 -80q-40 -74 -80 -117
q-50 -53 -88 -74q-4 16 -4 19q-4 8 -4 12l4 8q4 8 10 14q59 62 80 136q-31 3 -53 28q-21 27 -18 64q6 42 32 65q30 27 68 27q31 0 57 -23z" />
    <glyph glyph-name="numbersign" unicode="#" horiz-adv-x="978" 
d="M895 745h217q-1 -3 -4.5 -8t-3.5 -6q-3 -10 -8 -12q0 -1 -11 -6h-24h-174q-7 -26 -18 -65.5t-13 -45.5q-2 -10 -29 -104h203l-5 -10l-3 -7q-3 -9 -6 -12q-4 -4 -8 -4q-4 -2 -21 -2h-168l-55 -207q-6 -23 -12 -29q-8 -5 -27 -2h-25q54 152 74 238h-233l-56 -207
q-2 -5 -4.5 -13t-3.5 -10q-5 -8 -10 -8q-6 -3 -18 0h-23q34 104 63 224q1 2 2.5 7t2.5 7h-240l2 10q1 3 2 10t2 9q6 6 8 6h19h217q35 101 53 184q1 5 4 15.5t4 15.5h-239q8 12 10 16q3 10 8 12q4 4 8 4h23h200l43 177q5 16 17 24q9 3 24 0h19l-64 -201h240l45 177
q6 18 14 22q8 5 23 2h20zM786 498q41 129 52 178l8 37h-240q-4 -14 -9.5 -35.5t-9.5 -37.5l-7 -28q-2 -8 -31 -114h237z" />
    <glyph glyph-name="dollar" unicode="$" horiz-adv-x="858" 
d="M803 985q0 -61 -47 -76q-46 -15 -82 17q-35 28 -10 104q9 21 -13 37q-28 -87 -76 -229l-24 -72q9 -14 27.5 -43t27.5 -43q35 -50 92 -150q41 -78 56 -165q21 -227 -123 -332q-143 -110 -320 -101q-10 2 -26 2q-8 -26 -17.5 -52t-14.5 -41l-7 -21q-9 -22 -10 -23
q-2 -3 -11 -8h-16h-27q8 25 11 37q3 11 14.5 50.5t19.5 68.5q-170 46 -207 161q-36 114 27 216q61 98 186 86q-80 -100 -83 -220q-3 -121 100 -170q80 262 98 326q44 144 84 274l-12 21q-93 133 -119 260q-12 101 66 176q77 74 215 74h14q13 38 24 74t18 58t9 28q5 18 15 28
q8 8 20 11q8 2 29 2q20 0 32 2q-1 -4 -3.5 -13t-8 -27t-10.5 -34q-6 -19 -22 -66.5t-25 -76.5q71 -24 100 -66q29 -44 29 -84zM334 2q103 0 178 72q78 72 63 213q-20 137 -98 256q-59 -189 -86 -269q-71 -224 -86 -270h14q4 -2 15 -2zM477 952q4 -35 27 -94q41 130 53 166
q3 9 9 28.5t9 28.5q-116 -15 -98 -129z" />
    <glyph glyph-name="ampersand" unicode="&#x26;" horiz-adv-x="1140" 
d="M469 819q42 -117 104 -225q90 -156 213 -307q8 8 17 14l20 21q39 39 86 100q48 66 72 115q19 40 25 81q0 7 2 11v8q9 45 -19 86q-13 21 -45 35q-46 15 -94 6q-11 -3 -16 2q-6 6 -3 16q1 3 7 15q8 8 12 10q45 39 102 33q38 0 74 -25q36 -28 45 -76q11 -63 -14 -131
q-36 -98 -103 -190q-44 -61 -106 -123q-3 -2 -9.5 -7t-9.5 -7l-20 -17v-2q0 -1 1 -2t1 -2q47 -52 115 -92q20 -10 53 -21q27 -8 63 -8q33 -2 72 21l12 8l33 24l2 3q2 0 4 2q2 0 2 2l17 -25q-2 -3 -7.5 -8t-7.5 -8l-16 -17q-47 -52 -123 -96q-40 -24 -88 -33q-52 -6 -102 6
q-60 17 -113 60q-15 11 -49 41q-4 3 -11.5 9t-11.5 9q-1 -1 -3 -2t-3 -2l-8 -4q-75 -56 -156 -86q-40 -13 -77 -21q-42 -10 -70 -10q-36 -5 -80 -2q-80 0 -145 33q-115 52 -152 170q-17 60 -10 131q9 69 39 131q27 67 88 131q67 70 168 131q9 7 26 17l25 16l-18 68
q-1 5 -3.5 14t-3.5 14q-2 5 -8 27q-1 6 -3 18.5t-3 18.5l-8 37q-13 79 -8 145q7 69 22 115q37 113 137 178q42 26 95 39q56 13 104 10q81 0 143 -45q60 -45 66 -121q6 -83 -31 -156q-40 -82 -108 -147q-55 -57 -125 -109q-4 -3 -12.5 -9t-12.5 -9l-45 -33l-2 -2q-2 -2 -4 -2
zM313 727q-1 0 -2 -1t-2 -1q-2 -2 -4 -2l-22 -23q-18 -15 -33 -30q-78 -81 -105 -189q-12 -49 -12 -98q-3 -73 25 -143q42 -92 143 -127q34 -10 66 -13q61 -6 120 6q44 9 101 39l12 9q15 6 25 16q-202 255 -312 557zM457 856q1 0 2 1t2 1q2 2 4 2q46 37 86 80q62 68 104 145
q31 54 43 113q8 30 11 66q0 43 -19 86q-29 60 -100 63q-36 0 -70 -18q-67 -39 -88 -107q-23 -61 -29 -133q-6 -84 17 -180q3 -12 29 -98l4 -9q1 -2 2 -6t2 -6z" />
    <glyph glyph-name="quotesingle" unicode="'" horiz-adv-x="368" 
d="M532 1149q32 0 58 -23q28 -32 22 -79q-5 -36 -26 -80q-40 -74 -80 -117q-50 -53 -88 -74q-4 16 -4 19q-4 8 -4 12l4 8q4 8 10 14q59 62 80 136q-34 3 -53 28q-22 28 -19 64q6 41 33 65q30 27 67 27z" />
    <glyph glyph-name="parenleft" unicode="(" horiz-adv-x="417" 
d="M653 1323q4 -8 4 -12q1 -2 2 -3.5t2 -2.5t1 -2q0 -4 -3 -7l-8 -8l-4 -4q-154 -148 -250 -323q-94 -171 -155 -379q-60 -195 -60 -394q-3 -198 68 -393v-2q2 -3 3.5 -8t2.5 -6q0 -6 -2 -8q-6 -6 -8 -7q-4 -4 -13 -10q-96 190 -141 416q-44 223 14 438q66 218 209 396
q152 181 338 319z" />
    <glyph glyph-name="parenright" unicode=")" horiz-adv-x="509" 
d="M-109 -246q-4 8 -4 13l-4 8q0 4 2 6q7 7 9 8l4 4q157 151 249 324q96 175 156 379q59 192 59 393q3 201 -67 393v2q-2 3 -3.5 8t-2.5 6q0 7 2 9q4 4 8 6q6 6 12 10q98 -194 142 -416q43 -221 -15 -438q-66 -218 -209 -393q-151 -184 -338 -322z" />
    <glyph glyph-name="asterisk" unicode="*" horiz-adv-x="780" 
d="M1055 897q11 -14 8 -37q-3 -18 -14 -29q-13 -11 -43 -14q-28 -3 -58 6q-52 15 -108 27q-59 13 -62 14q8 -8 13 -18q16 -21 100 -150q12 -17 20 -41q3 -20 0 -28q-10 -15 -30 -25q-17 -6 -29 -2q-17 7 -31 29q-16 19 -20 51q-4 17 -13 50t-10 38q-11 40 -20 86
q-6 -17 -37 -80q-4 -8 -23.5 -47.5t-31.5 -64.5q-8 -16 -29 -41q-20 -17 -25 -17q-20 0 -32 12q-11 6 -19 23q0 20 12 47q19 30 39 45q13 13 38.5 37t37.5 37q14 14 34 33.5t26 25.5q-51 -9 -119 -16q-16 -1 -94 -10q-27 -3 -48 0q-20 6 -26 12q-8 18 -4 39q3 17 14 24
q18 14 43 17q31 3 55 -6q138 -31 148 -33q20 -4 28 -6q-2 2 -6 7t-6 7q-44 54 -102 150q-13 22 -19 41l-2 12l-1.5 9t-0.5 5q18 22 33 27q18 7 25 2q19 -6 34 -27q20 -23 23 -53q11 -57 20 -94l8 -28t8.5 -28t6.5 -20v-2q15 54 92 192q12 24 27 39q12 15 20 15q21 3 37 -9
q13 -13 16 -22q3 -47 -49 -90q-13 -13 -37 -38.5t-36 -37.5q-14 -14 -34 -32.5t-26 -24.5q5 1 18 2.5t28.5 3.5t31.5 4q19 2 64 7.5t71 8.5q33 0 45 -2q19 -6 21 -12z" />
    <glyph glyph-name="plus" unicode="+" horiz-adv-x="1064" 
d="M780 586h387q-15 -15 -24 -27q-15 -15 -31 -27q-13 -8 -53 -8h-299l-107 -370q-8 -35 -22 -45q-12 -6 -39 -3q-18 3 -45 3l125 415h-369q15 15 21 23q10 12 30 28q18 11 45 11h291l96 338q4 16 15 39q6 9 16 12q12 3 31 0q10 -2 43 -2z" />
    <glyph glyph-name="comma" unicode="," horiz-adv-x="368" 
d="M287 184q32 0 57 -22q29 -33 23 -80q-5 -33 -27 -80q-40 -74 -80 -117q-48 -51 -88 -73q-4 16 -4 18q-4 8 -4 12l4 8q5 10 10 15q59 62 80 135q-33 3 -53 29q-22 28 -19 63q6 42 33 66q29 26 68 26z" />
    <glyph glyph-name="hyphen" unicode="-" horiz-adv-x="757" 
d="M162 702h657l-39 -102h-657z" />
    <glyph glyph-name="period" unicode="." horiz-adv-x="348" 
d="M260 184q42 0 62 -26q23 -23 20 -66q-3 -38 -33 -65q-27 -27 -65 -27q-41 0 -62 27q-23 23 -20 65q3 39 33 66q26 26 65 26z" />
    <glyph glyph-name="slash" unicode="/" horiz-adv-x="442" 
d="M449 1274q12 45 28 53q17 10 60 4q18 -2 69 -2q-280 -778 -481 -1524q-8 -34 -33 -45q-21 -5 -69 -2q-16 2 -64 2q264 758 490 1514z" />
    <glyph glyph-name="zero" unicode="0" horiz-adv-x="827" 
d="M719 920q59 -53 84 -138q46 -154 8 -362q-41 -242 -139 -377q-40 -53 -82 -84q-48 -34 -111 -49q-27 -6 -51 -6q-80 0 -145 59q-57 60 -76 127q0 4 -4 16l-2 3v2q0 1 -1 2t-1 2v2l-15 100v2q0 5 1 14.5t1 14.5q0 4 1 13.5t1 14.5q0 46 11 125q25 150 69 252
q51 123 135 219q53 71 152 95q10 2 27 2q76 3 137 -49zM698 506q25 135 13 237q0 5 -2 5q0 10 -7 24q-12 46 -20 66q-24 49 -64 49h-8q-1 0 -4 -1t-4 -1q-40 -8 -63 -31q-52 -55 -97 -131q-108 -198 -131 -483q-16 -100 23 -207q24 -62 65 -62q21 0 45 15q69 39 117 118
q94 160 137 402z" />
    <glyph glyph-name="one" unicode="1" horiz-adv-x="505" 
d="M487 963q9 -9 9 -13q2 -6 2 -16q0 -2 -1 -5.5t-1 -4.5q-56 -203 -152 -525q-50 -167 -102 -333q-10 -29 -11 -37q-9 -35 -14 -49q-4 -12 -12 -17q-9 -6 -19 -6h-2q-27 0 -43 8q-28 12 -37 31q-10 20 -2 45q7 21 43 133q3 10 21.5 63t26.5 82q2 6 5 17.5t5 17.5
q48 153 98 328q16 60 33 109h-4q-52 -23 -72 -29h-2q-2 -2 -6 -2q-19 0 -41 14q-7 3 -10 10q-4 8 -4 13q0 4 -2 6v2q-3 3 0 10q0 3 6 6q122 41 231 131q1 0 2 1t2 1l2 2q6 6 8 7q4 4 9 4l4 2h6h10q6 -2 14 -6z" />
    <glyph glyph-name="two" unicode="2" horiz-adv-x="768" 
d="M549 948q80 -18 129 -88q46 -64 43 -153q-3 -100 -76 -185q-85 -101 -164 -180q-15 -18 -28 -29q-69 -75 -129 -133l-70 -69q78 -6 149 -9q55 -3 113 4q42 7 64 23h6l8 -4q31 -23 49 -39q24 -24 39 -45q10 -15 10 -31q-3 -14 -16 -20q-32 -14 -82 -17q-75 -3 -184 4
q-54 3 -101 9q-18 1 -51 3t-51 3h-19l-4 2h-6q-43 0 -67 6q-23 10 -31 18q-10 13 -10 23q0 8 4 20q4 11 6 13q26 26 41 47l12 12l100 111q65 72 201 221l39 43l6 6q86 86 123 201q9 34 6 63q-6 84 -92 96q-18 3 -33 3q-79 -3 -137 -58q-50 -50 -63 -119v-8q0 -6 2 -10
q0 -4 2 -6v-10q3 -12 0 -21q0 -8 -8 -12h-11q-8 0 -12 2q-4 0 -12 4q-31 18 -43 57q-14 35 -8 74q17 79 69 131q54 51 133 57q35 5 39 5q60 0 115 -15z" />
    <glyph glyph-name="three" unicode="3" horiz-adv-x="751" 
d="M549 952q84 -15 139 -82q55 -70 49 -159q-6 -120 -112 -215h-2q102 -68 102 -187q0 -82 -33 -147q-30 -65 -88 -117q-62 -56 -133 -86q-76 -33 -166 -33h-12q-75 3 -125 39q-54 42 -74 103q-9 28 -6 57v12q1 1 2 4.5t2 5.5t2 3q6 6 10 8q6 3 9 6q1 0 2 1t2 1h2h2
q7 0 10 -6l2 -2q0 -1 1 -2t1 -2l8 -9q1 -2 3.5 -5t3.5 -5q2 -2 2 -6q2 -2 2 -4q12 -68 77 -80q42 -10 74 -10q73 0 135 39q148 86 178 276q6 43 -14 66q-22 22 -57 22h-6q-4 -2 -9 -2q-22 -3 -47 -12l-6 -2q-18 -7 -35 -10q-18 -6 -38 -6q-13 0 -21 2q-12 3 -25 16
q-11 11 -18 25q-3 12 0 30q3 17 16 23q44 24 93 24q62 3 100 41q80 77 74 168q-3 76 -39 109q-31 28 -76 28q-28 0 -49 -8q-150 -50 -150 -200q0 -33 -26 -33q-5 0 -9 2q-6 0 -10 2q-43 15 -55 61q-24 97 55 176q86 86 205 86l2 -6l-2 6q37 3 78 -6z" />
    <glyph glyph-name="four" unicode="4" horiz-adv-x="759" 
d="M764 334q4 -12 4 -21q-3 -33 -27 -57q-24 -27 -59 -27q-12 -2 -49 -2h-80q-6 0 -8 -2q-4 -2 -6 -4q-10 -47 -27 -123.5t-23 -107.5q-2 -6 -2 -23v-6q4 -4 0 -8q0 -10 -10 -10h-2q-53 6 -92 51q-5 7 -8 20v23l4 20q4 20 29 117q1 3 2 9.5t2 9.5t2 9t2 9q2 6 6 22h-51
q-36 0 -66 3h-61q-11 0 -23 -3h-20q-47 0 -62 46q-11 34 -14 63q0 15 2 23q10 14 12 16q207 179 371 422q22 31 39 67q4 6 11 19.5t11 19.5q13 29 29 58q4 6 12 14l6 6q1 2 3 2q0 2 2 2h2h10h4l2 -2q4 0 12 -4q6 -5 25 -14q26 -20 35 -37q8 -24 0 -47q-12 -49 -27 -99
q-6 -25 -18 -71q-9 -37 -28 -108t-26 -97q-22 -78 -34 -133q-7 -27 -15 -49h17q16 -2 49 -2q59 0 94 18q2 2 8 2q2 2 6 2h9h4q2 -2 4 -2q4 -4 6 -8v-2q0 -1 1 -2t1 -2zM541 664q11 37 16 65q-169 -205 -324 -383q12 -2 37 -2q48 -4 144 -8h18q10 0 12 2q4 0 7 6q6 18 8 23
q10 36 38 138.5t44 158.5z" />
    <glyph glyph-name="five" unicode="5" horiz-adv-x="768" 
d="M838 913q25 -11 4 -49q-8 -16 -39 -47l-2 -2q-16 -14 -47 -37q-10 -7 -15 -4q-19 17 -63 23q-52 6 -111 6q-9 0 -26.5 -1t-26.5 -1l-53 -4v-2h2v0h-21q-8 -2 -24 -2l2 -2h-6h-9q-3 -3 -4 -3l-2 -2q-14 -30 -69 -172q-4 -8 -4 -10q-1 -2 -3.5 -6t-3.5 -6l68 22q6 2 22 7.5
t25 7.5q45 10 74 10q48 0 96 -23q52 -27 90 -88q33 -56 33 -125q0 -137 -90 -262q-30 -42 -88 -100q-54 -51 -127 -78q-50 -16 -84 -16q-40 0 -78 18q-73 34 -88 98q-2 4 -2 11q0 1 1 4.5t1 5.5q2 0 2 4q2 2 2 4v4l2 2l2 2q2 2 4 2h2h6q1 0 5 -4q1 0 2 -1t2 -1l2 -2
q4 -2 12 -10l6 -12q4 -12 10 -15q7 -5 23 -8h29q62 0 106 33q172 126 225 338q7 33 4 69q-3 35 -22 54q-15 15 -53 18h-9q-73 0 -149 -43q-30 -14 -68 -41q-11 -8 -24 -8q-7 0 -19 4q-9 2 -20 21q-22 36 -41 81q-4 17 -2 23q3 13 4 14q4 8 4 11l6 12q0 2 4 10t4 10
q1 2 3.5 6.5t3.5 6.5q1 1 2 4.5t2 5.5q4 8 4 10l6 12q1 1 2 5t2 6q4 8 4 10l6 12q0 1 1 3t1 3q1 1 2 3t2 3q0 1 1 3.5t1 3.5q3 6 5 8q0 1 1 3t1 3l6 12q24 55 47 84q20 26 39 41l16 10q15 1 45 3.5t45 3.5q16 1 45 3t45 3h6q80 8 179 4q52 -3 84 -17z" />
    <glyph glyph-name="six" unicode="6" horiz-adv-x="692" 
d="M623 397v-4q6 -117 -25 -219q-30 -103 -102 -182q-65 -68 -156 -68q-47 0 -96 19q-49 21 -88 57q-64 61 -78 158q-28 187 53 377q49 115 107 192q64 93 149 160q41 32 119 61q12 4 20 4q11 0 39 -4q1 0 4 -1t4 -1t4.5 -1t4.5 -1q6 -2 14 -10l8 -16q3 -3 0 -13
q-2 -4 -6 -8l-12 -6q-44 -9 -76 -35q-33 -26 -59 -55q-102 -111 -158 -219q47 14 94 14q50 0 111 -25q25 -11 39 -20q8 -4 20 -16q10 -10 12 -11l-2 -2q24 -27 35 -55q9 -17 12 -37q0 -2 1 -6t1 -6l5 -10q0 -2 1 -5.5t1 -5.5zM438 113q83 154 62 315q-3 38 -19 70
q-2 6 -10 14l-12 6q-4 3 -35 12q-24 6 -53 0q-28 -3 -66 -24q-37 -22 -72 -66q-19 -58 -28 -94q-34 -141 10 -250q16 -41 53 -78q20 -20 45 -20q21 0 41 14q55 36 84 101z" />
    <glyph glyph-name="seven" unicode="7" horiz-adv-x="610" 
d="M594 891l-53 -107q-24 -50 -39 -86l-33 -77q-132 -330 -240 -582q-11 -32 -12 -43q0 -1 -1 -3t-1 -3q-1 -3 -2 -9.5t-2 -9.5q-4 -12 -4 -14q-3 -9 -8 -14q-2 -3 -13 -9q-4 -2 -12 -2q-13 0 -35 11q-18 9 -30 24q-23 29 -17 56q2 6 5 18t5 18q19 73 45 134q82 184 121 276
q79 180 86 195l17 41q1 4 59 139l4 8q0 1 1 4t1 4q-2 0 -6 -1t-6 -1t-6 -1t-6 -1l-33 -4q-26 -5 -66 -8q-56 -6 -166 -10h-12q-45 0 -59 36q-18 44 -2 64q0 2 4 2q0 2 4 2h2q26 -4 37 -8q2 0 5 -1t5 -1q24 -6 51 -6l148 8q94 4 139 6q4 0 11.5 1t11.5 1q3 0 10 1t10 1
q8 0 12 2q2 2 4 2q4 2 11 2q4 2 10 2q1 0 2 1t2 1h2q14 0 20 -2q11 -3 17 -12q6 -12 6 -23q0 -10 -4 -22z" />
    <glyph glyph-name="eight" unicode="8" horiz-adv-x="759" 
d="M688 922q115 -115 51 -256q-47 -75 -108 -115l-4 -4q-1 -1 -3 -2t-3 -2l-50 -37q-8 -4 -12 -8l14 -21q2 -4 7.5 -11t7.5 -11q3 -5 10 -15.5t10 -15.5q33 -44 60 -94q38 -68 53 -140q15 -78 -12 -139q-23 -56 -93 -92q-65 -35 -139 -35q-83 0 -168 39q-85 40 -123 115
q-34 73 -10 160q47 128 150 194l41 33l24 18q12 6 23 17q-9 15 -19 35q-2 3 -5 9t-5 9q-21 37 -39 78q-28 67 -31 121q0 62 27 118q28 55 78 78q49 27 104 27q102 0 164 -53zM596 223q-38 97 -115 189l-18 24l-6 -6q-4 -2 -8 -6q-40 -35 -48 -43q-41 -38 -75 -90
q-35 -54 -41 -121q-3 -43 16 -82q15 -40 51 -59q44 -21 99 -21q78 0 122 35q66 66 23 180zM643 725q15 66 -2 123q-21 63 -78 63h-8q-1 0 -4 -1t-4 -1q-65 -12 -86 -73q-44 -122 53 -275q104 67 129 164z" />
    <glyph glyph-name="nine" unicode="9" horiz-adv-x="677" 
d="M668 745q34 -184 -45 -380q-49 -117 -107 -195q-68 -92 -156 -156q-39 -31 -122 -59q-6 -2 -21 -2q-20 0 -41 6q-4 0 -6 2h-8q-6 0 -12 6q-5 5 -9 13q-4 4 -4 8q-3 6 0 12q3 5 8 8q1 1 11 6q40 5 80 33q28 22 61 55q101 97 162 215q-41 -12 -94 -12q-53 -3 -113 25
q-23 7 -39 20q-3 2 -18 17q-1 1 -3.5 2t-3.5 2q-4 2 -8 6h2q-18 20 -35 55q-3 7 -8 33l-4 16q0 2 -1 5.5t-1 5.5q-1 2 -2 5t-2 5v4q-3 111 27 215q35 111 102 186q61 70 152 70q43 3 92 -16q47 -17 86 -56q65 -59 80 -160zM545 555q34 143 -13 252q-15 37 -53 78
q-21 18 -43 18q-21 0 -41 -14q-51 -34 -82 -103q-79 -152 -61 -313q3 -42 18 -72q1 -1 2 -3t2 -3t2.5 -3t2.5 -3l12 -6q12 -9 37 -12q19 -6 51 -2q31 3 65 24q38 21 74 66q22 68 27 96z" />
    <glyph glyph-name="colon" unicode=":" horiz-adv-x="458" 
d="M406 334q37 0 61 -27q23 -29 20 -67q-6 -43 -32 -66q-30 -27 -68 -27q-37 0 -61 27t-21 66q3 37 33 67q30 27 68 27zM502 676q37 0 61 -27t21 -65q-6 -41 -33 -68q-30 -27 -68 -27q-37 0 -61 27q-24 31 -21 68q6 41 33 65q30 27 68 27z" />
    <glyph glyph-name="semicolon" unicode=";" horiz-adv-x="501" 
d="M571 676q38 0 62 -27q23 -26 20 -65q-6 -42 -32 -68q-30 -27 -68 -27q-37 0 -61 27q-24 31 -21 68q6 41 33 65q30 27 67 27zM475 334q31 0 57 -23q29 -33 23 -80q-4 -32 -27 -79q-41 -77 -79 -117q-49 -52 -89 -74q-4 16 -4 19q-4 8 -4 12l4 8q3 6 11 14q57 60 79 136
q-34 3 -53 28q-21 27 -18 64q6 41 33 65q30 27 67 27z" />
    <glyph glyph-name="less" unicode="&#x3c;" horiz-adv-x="696" 
d="M535 569q38 -48 75 -147q32 -86 39 -166v-14q-1 -1 -2 -4.5t-2 -4.5q-4 -4 -8 -6q-4 -4 -8 -6q-43 118 -129 207q-95 95 -181 150q307 159 476 397l8 8q4 4 6 4h8q2 -2 10 -2q-88 -239 -292 -416z" />
    <glyph glyph-name="equal" unicode="=" horiz-adv-x="937" 
d="M1139 659q0 -11 -13 -18q-16 -4 -22 -4q-143 0 -309 -16l-54 -9q-58 -10 -104 -10q-11 0 -21 10q-8 15 -10 27q-4 16 -4 23q0 15 8 26q9 12 27 12h305q37 0 68 -2q40 0 88 -10q41 -9 41 -29zM1139 455q0 -13 -13 -19q-16 -4 -22 -4q-143 0 -309 -16l-54 -8
q-64 -11 -104 -11q-10 0 -21 11q-8 16 -10 26q-4 16 -4 23q0 15 8 26q10 13 27 13h305q37 0 68 -2q35 0 88 -11q41 -9 41 -28z" />
    <glyph glyph-name="greater" unicode="&#x3e;" horiz-adv-x="655" 
d="M530 643q-37 47 -75 148q-33 86 -39 165v15l4 8q4 4 8 6q4 4 8 6q45 -121 131 -207q81 -84 178 -149q-305 -158 -475 -397q-2 -2 -3.5 -4t-2.5 -3.5t-2 -1.5q-4 -4 -6 -4h-8q-2 2 -10 2q88 239 292 416z" />
    <glyph glyph-name="question" unicode="?" horiz-adv-x="700" 
d="M676 1149q130 -6 205 -78q76 -70 61 -172q-18 -77 -92 -158q-74 -79 -162 -153q-123 -105 -182 -191t57 -147q-76 -34 -153 -4q-74 30 -74 121q9 77 72 153q83 91 143 144q92 80 160 163q64 84 45 179q-9 33 -37 55q-26 20 -76 20q-92 0 -137 -57q-44 -56 -41 -121
q3 -66 55 -96q-75 -62 -135 -33q-60 26 -66 105q3 121 111 194q104 76 246 76zM430 186q42 0 62 -26q23 -26 20 -68q-3 -38 -33 -65q-27 -27 -65 -27t-62 27q-23 26 -20 65q3 38 33 68q26 26 65 26z" />
    <glyph glyph-name="at" unicode="@" horiz-adv-x="1392" 
d="M735 221q-2 -4 -6 -8q-3 -8 -16 -25q-25 -34 -70 -61q-38 -18 -78 -10q-100 27 -121 127q-20 64 -4 139q14 81 58 164q43 84 98 145q75 88 178 117q53 18 109 6q44 -12 65 -53q10 -20 13 -39q3 -21 -15 -21q-24 -3 -49 0l-10 5q-4 2 -8 10q-6 19 -29 26q-20 7 -39 0
q-71 -24 -115 -77q-58 -67 -100 -168q-29 -69 -45 -146q-14 -55 -8 -119q3 -21 12 -38q14 -24 29 -27q15 -6 34 0q1 0 2.5 1t2.5 1q7 1 28 14q38 24 78 82l2 2q18 29 23 54q0 2 1 5t1 5q2 6 6 18.5t6 18.5t6 17t6 17t4 13t5 14.5t4 11.5l24 82q1 4 4 13.5t4 13.5t4.5 13.5
t4.5 13.5q0 4 2 6q0 2 2 4q29 33 73 33q20 0 31 -11q10 -8 14 -26q3 -40 -12 -74l-33 -82q-6 -14 -17 -41t-17 -41q-14 -34 -23 -76q-4 -14 4 -22q8 -10 23 -10h2q33 4 49 10q80 30 143 90q52 47 92 115q40 70 62 149q18 62 12 127q0 34 -10 72q-34 129 -162 166
q-16 6 -53 10h-2q-56 5 -121 -4q-48 -8 -105 -31q-83 -30 -157 -80q-162 -106 -252 -262q-57 -92 -88 -201q-23 -81 -23 -153q0 -87 51 -166q51 -71 138 -103q63 -19 118 -22q75 -3 146 12q77 14 162 51q109 50 196 125q110 96 183 232q28 53 45 92q11 35 51 22h2l6 -6
q0 -4 -2 -8q-12 -35 -23 -53q-49 -108 -116 -189q-73 -95 -181 -167q-80 -55 -186 -95q-71 -23 -117 -32q-68 -19 -135 -19q-3 0 -8 -1t-8 -1q-14 -2 -43 -2q-17 0 -27 2q-38 0 -78 6q-115 17 -198 113q-44 56 -56 123q-11 52 -4 116q6 72 31 146q65 173 188 305
q98 110 228 178q70 40 149 62q78 24 119 32q68 15 139 9q4 -1 12 -2t11 -2q44 -6 74 -17q111 -36 157 -147q19 -43 19 -84q3 -61 -4 -105q-2 -9 -7.5 -28.5t-7.5 -28.5q-7 -17 -10 -33q-58 -182 -209 -309q-50 -43 -92 -66q-57 -33 -113 -49q-24 -6 -49 -6q-58 6 -71 64v2
q-1 2 -2.5 6t-2.5 6q-4 8 -8 12z" />
    <glyph glyph-name="A" unicode="A" horiz-adv-x="1902" 
d="M1077 868q-4 0 -11.5 1t-10.5 1q-4 0 -12.5 1t-12.5 1q-63 0 -143 17q-85 19 -152 55q-74 44 -114 119q-40 85 -37 180q6 77 43 141q57 94 143 156q36 27 51 37l21 12q11 8 28 8h9l6 -6q0 -4 -2 -6q0 -6 -2 -8l-9 -8q-3 -3 -9 -9.5t-9 -9.5q-11 -10 -47 -32
q-77 -56 -129 -138q-33 -54 -41 -104q-8 -34 -4 -78l4 -20q1 -4 2 -11.5t2 -11.5q14 -55 55 -102q35 -41 90 -66q64 -26 119 -37q88 -15 176 -12q9 0 13 2t12 2q11 0 14 10q15 26 46 78t46 78q10 17 60 100q11 20 33.5 58t33.5 57t33.5 57t34.5 58q1 2 72 118l69 117
q6 10 19.5 31t19.5 31t19.5 30.5t19.5 30.5l8 12q10 16 27 50q10 17 22 24q12 9 31 12q25 7 45 7q102 -9 111 -107q2 -46 -8 -111q-1 -4 -2 -13t-2 -13q-3 -25 -9 -53q-11 -59 -20 -95q-4 -20 -6 -28q-1 -5 -3 -15.5t-3 -15.5q-7 -34 -21 -90q-5 -25 -6 -29q-1 -5 -3 -15.5
t-3 -15.5q-8 -40 -21 -86q-1 -5 -3 -14t-3 -14t-3 -14.5t-3 -14.5l-18 -86q-10 -35 -13 -61q-1 -5 -3 -14.5t-3 -14.5v-12q6 2 19 2q20 3 34 8l41 8l99 19l61 12q27 0 41 -2q0 -4 -1 -12t-1 -11q0 -4 -1 -11t-1 -11q-6 -20 -27 -27q-27 -8 -43 -10q-59 -8 -86 -10
q-24 -3 -45 -6l-86 -9q-4 -2 -10 -2h-4q-2 -2 -4 -2q-6 0 -6 -2q-4 -4 -4 -8q-9 -42 -11 -57q-1 -6 -4 -19.5t-4 -19.5t-4 -19.5t-4 -19.5q-1 -8 -4 -23.5t-4 -23.5q-2 -8 -5 -23.5t-5 -23.5t-5.5 -25t-5.5 -25t-5 -24.5t-5 -24.5q-1 -5 -2 -15t-2 -15q-8 -27 -8 -64
q0 -6 -1 -18t-1 -17q-4 -50 -4 -67q0 -24 4 -74q0 -6 1 -18.5t1 -18.5q0 -15 4 -39q10 -99 47 -172q28 -54 68 -94q32 -32 81 -51q41 -14 68 -19q8 0 12 -2q2 -2 9 -2v-10q-1 -1 -3.5 -3t-3.5 -3q-21 -21 -51 -27q-42 -10 -78 -2q-32 5 -73 19q-95 36 -146 116
q-34 59 -49 109q-15 52 -24 108q-12 70 -15 144q0 84 6 170q0 5 1 14t1 14t1 14.5t1 14.5q1 5 2.5 15.5t2.5 15.5q5 46 8 63q5 41 8 54q0 10 4 30l8 49q1 6 4 17.5t4 17.5l9 33v4q4 26 8 35h-13q-12 0 -33.5 -1t-31.5 -1q-11 -1 -33.5 -2t-34.5 -2q-10 0 -31.5 -1t-31.5 -1
q-10 -1 -32 -2t-32 -2q-16 0 -22 -15q-13 -27 -40 -80t-40 -79q-6 -13 -19.5 -39t-19.5 -39q-5 -9 -14.5 -28t-14.5 -28q-61 -124 -69 -139q-5 -10 -12 -21t-15.5 -24.5t-13.5 -21.5q-3 -4 -9.5 -12.5t-9.5 -12.5l-20 -33q-4 -5 -11.5 -16.5t-11.5 -16.5q-33 -44 -82 -96
q-4 -3 -11 -9t-11 -9t-11.5 -9.5t-11.5 -9.5q-60 -51 -127 -88q-67 -33 -116 -47q-88 -22 -168 -14q-64 6 -125 37q-61 30 -111 80q-50 53 -71 120q-28 85 -13 166q24 163 160 258q51 34 121 54q80 21 160 12q80 -10 137 -53q76 -58 76 -154q0 -33 -11 -86q-7 -20 -26 -33
q-8 -4 -15 -2q-9 3 -14 8q-11 9 -8 29q2 7 6 21.5t6 21.5l2 8q9 76 -41 129q-26 26 -63 39q-74 27 -152 15q-125 -17 -213 -119q-38 -46 -57 -109q-15 -50 -15 -98q3 -118 84 -199q38 -38 97 -57q48 -14 80 -19q23 -3 45 0q68 9 123 35q79 37 139 97q84 81 149 176
q48 73 92 159q38 71 64 127q21 49 45 99q4 8 11.5 23.5t11.5 23.5q4 7 11 22.5t11 22.5q4 12 8 20zM1729 1845l-5 -4q-203 -394 -452 -887l-2 -2v-4v-2h20q22 0 68 4l164 8q5 0 8 3q4 2 8 6q12 16 14 24q0 2 1 4.5t1 3.5q3 12 10.5 36t10.5 36l20 70q3 13 10.5 35.5
t10.5 35.5l20 70l21 74q2 9 9.5 33t10.5 38q4 13 11.5 38.5t11.5 39.5l20 78q5 19 13.5 51t11.5 43l12 62q9 38 6 76q0 33 -34 30z" />
    <glyph glyph-name="B" unicode="B" horiz-adv-x="1937" 
d="M1454 1681h-2q-2 2 -6 2q-84 6 -168 0q-103 -9 -193 -38q-78 -25 -167 -70q-74 -40 -136 -84l-73 -61q-62 -57 -117 -138q-50 -79 -86 -174q-26 -80 -23 -166q3 -58 35 -114q36 -46 84 -62q62 -20 131 -14q45 0 86 14q77 26 137 86q62 58 99 135q31 58 51 136
q13 49 16 86q3 24 6 51q6 -3 9 -6q26 -29 26 -74q-3 -63 -20 -115q-14 -42 -47 -98q-47 -75 -88 -121q-67 -70 -154 -108q-72 -32 -162 -29q-58 7 -100 22q-50 23 -94 64q-44 47 -70 98q-17 41 -22 78q-10 63 -5 111q5 34 19 86q10 33 37 102q45 113 121 197q48 53 127 102
q93 57 198 92q78 27 121 33q56 12 90 16q136 22 264 13l45 -4q7 -1 25 -2.5t25 -2.5h8q1 0 6 5q6 6 18 14q4 2 8 6q30 21 68 27q4 2 14 2q6 -3 15 -6q-2 -3 -5.5 -9.5t-5.5 -9.5l-16 -33q6 -1 16 -4t13 -4l14 -4q92 -18 180 -63q99 -53 148 -150q18 -37 28 -92
q11 -58 5 -125q-15 -133 -111 -229q-44 -44 -104 -91q-2 -1 -5.5 -4t-5.5 -4q-4 -3 -11 -9t-11 -9l-2 -2q-2 -2 -2 -4q25 -15 30 -17q13 -5 31 -16q80 -51 125 -139q32 -62 45 -146q4 -32 8 -88q4 -65 -4 -117v-2q-11 -70 -43 -145q-36 -81 -88 -135q-63 -75 -158 -123
q-3 -2 -10 -5t-10 -5q-45 -19 -66 -25q-70 -26 -151 -10q-62 11 -107 63q-44 53 -61 115q-20 67 -14 127q6 64 34 125q36 74 88 123l7 6q13 10 18 20q11 11 18 11q13 0 21 -2q9 -3 12 -9q0 -7 -6 -16q-3 -7 -10 -10l-4 -4q-66 -56 -94 -125q-19 -47 -23 -74q-9 -55 -4 -100
q6 -96 70 -166q30 -25 36 -29q22 -14 54 -10q70 9 123 45q44 34 84 86q48 66 77 135q22 53 31 86q15 46 18 94q5 58 5 72q0 5 1 17t1 18q0 46 -13 106q-9 54 -37 109q-41 66 -108 94q-51 19 -86 21q-23 3 -43 26v2q2 4 5.5 10.5t4.5 8.5q6 6 10 6q8 4 17 4q2 2 6 2
q76 12 135 68q55 55 82 125q27 58 37 106q18 65 12 133q-10 81 -41 139q-37 70 -102 109q-48 31 -103 43q-2 0 -10 4l-16 4q-9 3 -15 -8q-32 -68 -67 -164q-31 -89 -49 -153l-17 -58q-3 -10 -8 -29.5t-8 -29.5q-2 -9 -37 -133q0 -2 -1 -6.5t-1 -6.5l-18 -69
q-32 -119 -35 -133q-27 -93 -29 -103q-17 -57 -22 -80l-25 -82q-2 -8 -7 -25.5t-7 -25.5q-2 -9 -7.5 -26.5t-7.5 -26.5q-7 -21 -10 -39l-12 -41q-7 -21 -23 -57q-1 -3 -6.5 -14.5t-7.5 -18.5q-10 -28 -21 -49q-27 -64 -75 -135q-16 -24 -41 -49l-21 -25q-56 -65 -127 -113
q-61 -43 -137 -65q-74 -20 -137 -17q-60 6 -121 31q-56 21 -102 64q-53 44 -80 108q-28 61 -31 123q-9 144 80 262q56 65 129 105q67 33 133 41q60 6 113 -5q85 -15 135 -86q23 -41 28 -77q12 -40 3 -80q-2 -11 -15 -33q-8 -11 -26 -4q-3 1 -13 6q-4 8 -4 14v27q5 32 -4 68
q-15 65 -78 96q-35 15 -71 18q-43 3 -86 -6q-48 -9 -91 -33q-71 -38 -116 -100q-34 -49 -49 -104q-8 -32 -11 -74v-2q0 -68 27 -129q21 -53 61 -90q45 -42 95 -56q70 -21 143 -12q66 10 113 41q102 64 166 166q37 54 83 149q23 51 39 95q5 16 15.5 49t15.5 49
q4 12 11.5 35.5t11.5 34.5q9 32 20 86l16 61l13 45q11 50 20 80q3 11 29 109l8 34l12 49q0 1 1 4t1 5q0 1 1.5 3t1.5 3t1 3t1 3q0 6 2 8q0 4 2 6q0 4 2 6q0 7 2 9q0 4 2 6v6q2 4 2 8q2 2 2 6q2 2 2 8q2 2 2 7q2 2 2 6q0 1 1 4t1 4t1 3t1 3q2 9 7 26.5t7 26.5q6 28 29 107
q13 34 17 51q18 56 32 92q3 7 35 74l8 16q33 65 74 127v2q2 0 2 2v2z" />
    <glyph glyph-name="C" unicode="C" horiz-adv-x="1546" 
d="M602 905q-9 4 -31 8q-8 2 -24.5 7.5t-24.5 7.5q-11 4 -33.5 12t-33.5 12q-13 3 -70 23q-88 37 -149 92q-61 54 -84 129q-22 67 -19 133q6 103 66 180q73 100 188 164q74 45 145 64q85 23 154 26h4q36 4 55 4h7q50 -4 75 -8q53 -10 88 -47q12 -15 9 -31q-1 0 -2 1t-2 1h-2
l-3 3q-47 19 -88 30q-34 6 -100 10q-33 0 -68 -6q-48 -6 -98 -18q-55 -15 -108 -39q-72 -37 -129 -80q-66 -55 -111 -133q-24 -49 -29 -92q-4 -32 -4 -53q0 -78 41 -140q35 -51 92 -90q61 -41 140 -67q77 -25 133 -35q8 0 24 -4q16 43 17 45l8 22q1 4 4 11.5t4 11.5
q50 120 70 162q55 115 141 225q33 43 107 121q108 111 235 198q94 66 197 109q51 21 92 31q56 15 110 18q43 6 95 -8q48 -12 77 -49q39 -47 54 -107q8 -36 4 -84q-3 -62 -25 -127q-21 -78 -61 -147q-6 -14 -27 -39q-87 -130 -217 -232q-79 -66 -190 -126q-66 -39 -125 -60
q-81 -24 -144 -37q-94 -20 -196 -20q-28 -3 -52 0h-26l-2 -2q0 -4 -2 -4v-4q-14 -80 -19 -146q-4 -106 -4 -162q0 -65 10 -147q12 -92 48 -170q27 -67 88 -131q56 -53 123 -64q47 -10 88 -4q44 6 88 27q89 44 161 110q90 87 154 185q7 10 45 71.5t59 92.5l9 8q1 1 3 4t3 4
q10 7 18 2q5 -3 8 -8q2 -4 2 -12q0 -9 -4 -17q-62 -114 -141 -219q-53 -70 -100 -117q-72 -72 -158 -123q-45 -23 -84 -34q-92 -27 -184 -15q-43 7 -113 33q-55 24 -104 61q-60 52 -101 132q-32 65 -49 127q-9 33 -20 96q-6 47 -9 96v29q-3 31 0 61q0 18 3 33q0 50 6 100
q1 5 2.5 14.5t2.5 17.5t1 15l8 50q0 12 4 28zM780 965q11 0 15 -2h12q61 0 133 10q72 11 125 26q34 8 125 39q111 46 196 103q107 68 183 155q85 94 133 205q9 21 18 45q3 10 17 43q18 51 20 86q6 68 -14 127q0 1 -1 2t-1 2q-4 4 -4 6q-5 5 -6 5q-25 13 -64 16
q-59 3 -106 -10q-57 -17 -117 -49q-98 -54 -184 -123q-99 -83 -179 -160l-14 -14q-25 -23 -55 -60q-42 -51 -80 -110q-39 -61 -78 -140q-42 -88 -68 -174q-4 -16 -6 -28z" />
    <glyph glyph-name="D" unicode="D" horiz-adv-x="1925" 
d="M1184 1657h-39q-42 0 -62 -4q-12 -3 -24 0h-12q-71 -3 -127 -17l-41 -8q-7 -2 -20.5 -5t-20.5 -5q-71 -20 -140 -51q-84 -40 -153 -86q-130 -90 -211 -207q-55 -78 -82 -150q-24 -62 -31 -108q-10 -62 -4 -117q6 -76 66 -127q27 -24 61 -33q58 -15 117 -12q125 9 217 92
q49 47 94 121q35 59 55 121q2 9 9 35t10 41q0 1 1 4.5t1 5.5q1 7 3 21.5t3 21.5q0 11 4 39v2q2 2 2 6q14 -9 17 -14q5 -7 8 -17q8 -16 8 -41q0 -89 -37 -164q-37 -84 -98 -157q-65 -77 -160 -125q-56 -24 -104 -29q-62 -9 -123 4q-79 18 -135 74q-49 46 -74 100
q-13 26 -23 64q-8 47 -8 108q3 39 16 88q10 36 27 82q46 135 141 240q32 35 93 78q72 50 174 92q82 32 159 49l123 25q7 1 20.5 3t20.5 3q16 2 45 6t45 6q112 13 211 10h17h8q4 0 6 2q3 3 6 9l8 8q30 40 78 31q18 -3 31 -13q-2 -4 -6 -13t-6 -13t-6.5 -13.5t-6.5 -13.5
q8 -4 13 -4q7 -2 21.5 -5t21.5 -5q15 -2 47 -11q80 -23 139 -53q96 -47 162 -108q72 -66 123 -154q37 -61 65 -152l19 -86q18 -101 12 -202v-6q-4 -78 -8 -115q-9 -59 -21 -117q-11 -54 -20 -86q-31 -110 -78 -199q-37 -77 -84 -147q-49 -70 -111 -135q-68 -73 -153 -129
q-46 -28 -107 -53q-57 -21 -102 -31q-61 -12 -127 -12q-9 0 -27.5 1t-27.5 1q-10 0 -29.5 1t-28.5 1q-72 7 -129 20q-4 1 -11 2t-11 2q-26 4 -41 8q-33 8 -51 15q-8 2 -26 6t-26 6q-6 2 -41 12q-19 6 -45 -4l-4 -2q-1 -1 -3 -2t-3 -2q-6 0 -8 2h-4h-2l-4 -2
q-55 -39 -113 -59q-1 0 -3 -1t-3 -1q-31 -10 -55 -13q-52 -4 -89 4q-39 6 -75 31q-28 25 -31 60q-3 37 16 59q11 17 35 27q27 13 68 20q55 9 110 0q2 0 8 -1t9 -1q5 0 14 -1t14 -1l29 -4q20 -3 31 10q2 2 6 2q1 0 3 -1t3 -1t2 -1t2 -1q9 14 35 49q23 34 84 144q39 80 57 145
q21 66 33 109q21 71 39 141q27 96 35 133q21 75 33 127l16 61q3 10 8 30.5t8 29.5q4 14 17 63l16 62l12 37q10 25 13 34l30 86q35 97 88 207q12 28 35 66l13 24q3 9 6 21zM739 25l4 -2h5l61 -13q40 -10 90 -20q34 -10 62 -13q42 -10 106 -20q97 -12 193 12q42 10 94 37
q80 43 151 121q91 99 150 225q48 101 74 207q15 57 18 70q0 2 1 6t1 6q9 36 20 98q0 5 3 11q4 29 8 79q1 6 2 19t2 20q0 6 1 18.5t1 18.5q0 43 -4 129q-2 48 -17 131q-9 55 -24 109q-26 89 -70 156q-38 62 -82 100q-65 56 -145 80q-28 11 -62 18q-30 7 -69 14q-12 3 -15 -6
q0 -1 -1 -2t-1 -2v-2l-2 -2q-3 -8 -16.5 -39t-20.5 -49q-1 -3 -3 -8t-3 -8q-21 -53 -28 -76q-17 -52 -33 -115q-4 -13 -11.5 -40.5t-11.5 -41.5l-16 -57q-2 -9 -7 -28.5t-7 -28.5t-7.5 -29t-7.5 -29l-37 -135q-20 -82 -32 -123q-12 -53 -33 -127q-15 -62 -33 -123
q-2 -9 -7 -26.5t-7 -26.5q-6 -25 -29 -96l-8 -25q-7 -19 -21.5 -55t-21.5 -55q-24 -53 -51 -105q-4 -6 -60 -94q-4 -5 -24 -35q-11 -15 -19 -28zM340 -2q0 -33 37 -45l55 -6q3 -3 10 0h7q40 8 81 37q1 1 4.5 3t4.5 3l8 8q4 4 4 10q0 4 -4 8q-1 0 -2 1t-2 1q-16 11 -17 11
q-16 8 -34 8q-4 2 -11 2h-10q-18 -3 -41 4h-10q-34 -4 -49 -8q-31 -3 -31 -37z" />
    <glyph glyph-name="E" unicode="E" horiz-adv-x="1562" 
d="M936 178q-29 26 -29 58q-3 46 6 92q29 118 105 215q46 64 110 110q68 50 148 68q50 12 100 6q36 -3 74 -12q84 -24 131 -101q31 -50 39 -96q13 -60 10 -133q0 -53 -12 -106q-17 -71 -53 -144q-52 -96 -109 -158q-66 -72 -151 -129q-32 -26 -68 -43q-84 -49 -184 -73
q-64 -15 -74 -17q-98 -16 -184 -16q-71 3 -138 12q-90 15 -174 56q-90 46 -159 127q-70 82 -107 186q-4 12 -4 22l-8 45l-8 37q-3 31 0 66q2 6 2 18q3 21 6 45q9 56 28 119q20 56 52 115q48 78 96 131q77 77 160 131q72 47 125 72q1 1 3 2t3 2q2 2 4 2q8 5 10 12q2 5 -4 14
q-5 10 -23 37q-45 65 -51 152q-3 47 10 102q30 120 107 215q73 88 168 133q70 37 149 52q59 15 119 12q99 -3 156 -78q51 -65 41 -156q-12 -107 -96 -170q-54 -45 -125 -45q-52 3 -76 43q-23 45 6 82q5 8 14 11q11 0 19 -5q4 -4 6 -8q0 -6 -2 -10q-3 -20 8 -45
q12 -30 45 -23q56 16 84 60q37 43 47 106q9 62 -18 115q-18 40 -56 55q-61 31 -122 17q-64 -14 -127 -58q-120 -85 -179 -219q-33 -76 -36 -164q0 -63 22 -127l6 -12l4 -12q6 -11 17 -19q9 -3 22 0q12 1 45 11q56 21 113 30q55 7 102 -4q29 -4 45 -20q18 -18 21 -45
q3 -29 -19 -54q-15 -15 -45 -30q-66 -32 -147 -29q-65 0 -129 25q-32 11 -68 8q-19 -3 -34 -12q-102 -51 -177 -129q-77 -80 -120 -181q-31 -70 -43 -143q-14 -82 -5 -172q12 -117 74 -223q72 -119 195 -179q70 -34 145 -43q60 -11 135 -4q91 10 166 35q103 37 197 103
q104 72 172 170l12 20q35 51 80 133q24 53 37 96q21 68 12 140q-6 107 -80 178q-34 40 -86 49q-50 7 -86 2q-13 0 -37 -4q-110 -15 -190 -98q-41 -41 -84 -115q-39 -67 -61 -152q-10 -39 -15 -67q-4 -44 -8 -68v-2zM1004 952q-33 0 -54 -8q-4 -1 -13 -4t-13 -4t-12.5 -3
t-12.5 -3q-25 -6 -43 -27q-9 -9 2 -14l2 -2h2q29 -13 56 -19q28 -9 61 -2q7 2 21.5 6.5t21.5 6.5q2 1 7 2t7 2q15 10 17 12q15 15 6 37q-6 20 -27 20h-28z" />
    <glyph glyph-name="F" unicode="F" horiz-adv-x="1640" 
d="M903 1165q35 -47 23 -100q-19 -109 -72 -197q-41 -67 -109 -125q-72 -59 -155 -96q-49 -20 -107 -29q-44 -8 -106 -4q-81 6 -154 54q-54 41 -78 90q-26 54 -32 114q-9 80 2 150q18 108 67 207q50 100 133 186q74 80 166 139q81 54 172 93q60 28 152 57l12 4q99 21 109 23
q47 8 141 16q71 5 164 2q53 0 106 -6q6 -1 17.5 -2t17.5 -2q13 0 41 -4q7 -1 21.5 -2t21.5 -2t21.5 -2.5t21.5 -2.5t24 -4t27 -4l49 -8q9 0 11 2q4 0 8 4q29 25 55 33q12 4 19 4q8 0 20 -4q-4 -14 -10 -27q-8 -16 -10 -24l18 -6q2 -2 4 -2q4 0 4 -2q6 -2 17 -2q21 0 45 -7
l12 -4q16 -4 29 -4q53 -8 84 -10q47 -6 96 -12q70 -4 108 -4q41 0 123 4q67 6 125 26q40 15 76 35l18 6q3 2 11.5 5t11.5 5q50 22 94 72l4 4q2 4 4 6q-6 -28 -22 -47q-40 -62 -113 -106q-65 -43 -135 -60q-52 -14 -113 -24h-6q-41 -6 -78 -12h-14q-9 -3 -16 -3q-9 -1 -28 -2
t-28 -2q-8 -1 -23.5 -2t-23.5 -2q-27 0 -41 -2h-37q-26 0 -38 2h-39q-49 0 -76 2q-22 0 -76 4q-7 0 -22 5q-10 3 -13 -7l-16 -45q-3 -8 -9.5 -23.5t-9.5 -23.5q-11 -37 -14 -45q-3 -10 -9 -30.5t-9 -30.5q-1 -5 -8 -31t-11 -41l-37 -135q-2 -6 -5 -20.5t-5 -20.5
q-2 -7 -5 -21.5t-5 -21.5q-2 -8 -7 -25.5t-7 -25.5q-2 -9 -7.5 -27t-7.5 -27q-4 -16 -4 -26q-6 -18 15 -25q6 -2 22 -6q70 0 125 8q39 8 82 35q6 6 12 8q6 6 12 9q16 9 29 -7q13 -13 8 -28q-5 -10 -8 -13q-1 -1 -2 -3t-2 -3q-49 -43 -106 -51q-56 -7 -101 -4h-106
q-4 -7 -8 -25q-2 -8 -7.5 -24.5t-7.5 -24.5t-7 -24.5t-7 -24.5q-4 -15 -12.5 -46t-12.5 -46l-20 -70q-24 -83 -29 -106q-24 -85 -59 -166q-2 -4 -6.5 -13.5t-6.5 -13.5q-20 -45 -24 -53q-2 -4 -6 -11t-6 -11q-7 -15 -45 -74q-16 -26 -64 -78q-72 -82 -158 -131
q-49 -28 -114 -47q-52 -15 -105 -15t-112 19q-69 24 -115 59q-71 53 -107 140q-28 78 -22 170q2 35 16 81q23 80 84 144q60 63 152 100q55 19 88 21q36 4 55 4q61 0 125 -31q63 -34 90 -104q19 -58 10 -117q0 -5 -4 -17q-2 -3 -6 -8t-6 -8q-8 -4 -12 -4q-11 0 -15 2
q-9 5 -10 6q-4 4 -4 8v17q6 46 -6 90q-21 72 -92 96q-63 19 -123 8q-95 -12 -170 -75q-76 -63 -105 -156q-16 -61 -10 -123q10 -70 41 -123q55 -93 150 -119q61 -16 116 -10q52 3 111 33q104 58 172 158q59 82 104 180q30 65 46 117q3 10 9 30.5t9 30.5q4 16 13.5 45
t13.5 45l12 45q3 20 10 45q3 20 16 68q21 76 23 86l16 57q3 7 0 10q0 4 -10 4q-71 20 -149 11q-59 -6 -117 -21q-11 -3 -21 4q-7 10 -4 21q0 6 2 8q1 2 9 6l36 12q85 28 168 19l56 -6q21 0 39 6q11 3 14 16l20 78l19 76l31 110q11 37 53 172q14 48 33 101l32 74q2 2 2 8
q0 1 1 3t1 3q-15 4 -49 8q-5 1 -35 6q-13 4 -43 8q-79 10 -92 11q-67 9 -133 12q-41 2 -119 2q-74 -4 -112 -10q-30 -2 -74 -13q-6 -1 -18.5 -3t-18.5 -3q-50 -9 -129 -35q-102 -32 -184 -81q-61 -40 -115 -91q-65 -62 -115 -133q-40 -57 -69 -129q-30 -74 -39 -118
q-13 -69 -8 -130q6 -70 53 -129q40 -43 98 -61q86 -24 176 -12q105 15 193 84q110 87 168 209q31 63 41 116q6 27 14 74q0 4 2 6v4z" />
    <glyph glyph-name="G" unicode="G" horiz-adv-x="1718" 
d="M627 924q-36 -83 -21 -170q4 -24 4 -35l4 -37q20 -171 181 -250q66 -29 133 -29q55 -5 147 3q79 12 156 36q37 13 115 47q27 11 40 48q25 74 62 159q5 13 15.5 40t15.5 40q9 25 27.5 71.5t21.5 53.5q4 8 8 12t10 7q44 24 90 24q9 0 17 -4q17 -7 20 -12q4 -11 -2 -25
l-98 -262q-5 -14 -16.5 -43.5t-16.5 -44.5q-5 -14 -16.5 -44t-16.5 -44l-80 -205l-18 -49q0 -2 -1 -5t-1 -5t-1 -5.5t-1 -5.5q28 -7 70 -14q51 -12 88 -49q0 -1 1 -2t1 -2q1 0 2 -1t2 -1v-4v-4v-9q0 -4 -2 -6q-3 -6 -8 -6q-4 -4 -11 0l-67 25q-33 10 -58 10q-10 0 -22 4
q-3 0 -8.5 1t-8.5 1l-12 -24q-23 -38 -35 -66q-64 -146 -180 -262q-104 -101 -242 -164q-85 -37 -190 -63q-99 -22 -172 -29q-71 -3 -139 12q-68 12 -103 72q-21 43 -12 92q41 164 170 264q91 73 197 123q109 50 219 76q63 15 133 24q120 13 221 13q10 0 18 4q9 4 11 14
q8 28 22 62q1 3 19 51q2 6 7 18.5t7 18.5t7 18.5t7 18.5q0 2 1 5t1 5t1 5t1 5q-8 -3 -29.5 -11t-31.5 -12l-45 -16q-88 -26 -127 -33q-44 -9 -86 -12q-7 -1 -21.5 -3t-21.5 -3h-47l-33 4q-44 4 -68 8q-177 27 -299 158q-53 62 -81 147q-36 108 -23 234q1 6 3 19.5t3 19.5
l4 37v14q-4 2 -13 6t-13 6q-42 22 -68 31q-96 44 -164 98q-88 73 -117 174q-6 32 -10 92q0 66 27 127q36 79 96 131q101 90 225 130q107 37 238 34q63 0 135 -16q49 -8 90 -43q2 -2 6.5 -7t6.5 -7q1 -4 10 -17q5 -8 0 -22l-31 18q-61 34 -145 47q-61 9 -123 6
q-99 -6 -195 -41q-81 -28 -160 -88q-82 -62 -118 -168q-19 -58 -13 -116q18 -122 121 -199q70 -54 172 -96q5 -1 13.5 -4.5t9.5 -3.5q6 -2 17.5 -6.5t17.5 -6.5q2 -2 10 -2q1 0 3.5 -1t4.5 -1q4 12 10 21l4 8q72 181 207 325q134 152 316 259q92 60 155 94q108 57 207 82
q82 26 178 26q60 0 115 -14q65 -22 94 -78q39 -70 29 -156q-5 -56 -31 -118q-40 -101 -98 -176q-60 -74 -139 -138q-124 -101 -289 -176q-67 -33 -162 -57q-68 -12 -96 -16h-6q-126 -10 -154 -11q-83 0 -166 15q-6 2 -18 2zM655 997q30 -3 99 -8q20 -2 61 -2q23 0 59 4
q107 6 220 37q129 38 225 90q116 61 209 154q124 130 182 295q18 68 6 139q-3 17 -16 23q-38 21 -80 24q-54 5 -119 -8q-115 -29 -223 -92q-101 -53 -221 -144l-25 -18q-67 -45 -119 -100q-155 -158 -247 -361q0 -2 -4 -9t-5 -13q0 -7 -2 -11zM1231 147q-18 3 -35 3
q-6 0 -19 -1.5t-20 -1.5q-6 0 -19.5 -1t-19.5 -1q-90 -9 -190 -34q-96 -25 -183 -62q-106 -39 -188 -98q-103 -69 -172 -180q-20 -34 -23 -68q-6 -102 103 -117q88 -9 182 19q96 29 184 80q173 106 283 270q22 31 70 108l33 54l6 12q4 12 8 18z" />
    <glyph glyph-name="H" unicode="H" horiz-adv-x="2021" 
d="M936 690q-13 0 -45 -14q-42 -18 -72 -35q-48 -26 -100 -78q-10 12 -31 33q1 1 2 3t2 3t2 3t2 3q67 67 148 107q56 29 98 41l12 6q4 8 4 12q3 12 9 27l6 24l16 62l12 45q2 7 5.5 20.5t5.5 20.5t5 20.5t5 20.5q2 9 7 26.5t7 26.5q2 8 7.5 25.5t7.5 25.5q9 42 20 78l37 129
q5 17 35 105q4 9 11 27.5t11 27.5q5 9 13 28.5t10 24.5q52 96 69 125q2 3 6.5 9t6.5 9v2l2 3q-1 0 -3 1t-3 1h-4q-77 6 -154 0q-16 -1 -82 -11q-61 -9 -115 -26l-57 -21q-6 -2 -18.5 -7t-18.5 -7q-76 -30 -149 -78q-91 -54 -164 -127q-65 -68 -115 -151q-43 -71 -63 -142
q-26 -79 -23 -153q0 -65 35 -121q33 -48 90 -66q67 -18 137 -12q140 12 232 121q60 65 102 168q32 81 43 155q0 3 1 9.5t1 9.5q0 13 4 37v4q2 2 2 4l13 -12q18 -24 18 -52q3 -84 -31 -159q-44 -106 -121 -189q-63 -69 -153 -110q-50 -21 -105 -27q-46 -3 -82 2q-42 7 -71 16
q-41 16 -86 54q-51 48 -78 100q-23 51 -31 98q-7 47 -2 80v2q4 45 10 68q5 31 19 65q46 145 141 263q47 53 105 92q76 51 176 92q75 28 129 43q44 11 121 22q73 15 151 15l51 2h52q50 4 77 8q5 1 17 2t18 2q34 4 49 8l31 13q25 11 59 8l-4 -4q-4 -4 -6 -4q0 -1 -1 -3.5
t-1 -3.5l-12 -18l-21 -33q-32 -65 -61 -151q-5 -17 -15 -48.5t-18.5 -58t-15.5 -49.5q-3 -9 -8.5 -27.5t-8.5 -27.5t-8 -28t-8 -28l-41 -155q-15 -61 -33 -123q-17 -74 -32 -127q-4 -17 -23 -76q0 -8 -2 -14q2 0 6.5 1t5.5 1h13q8 0 10 2q18 1 52 4t50 4q28 4 39 4
q24 4 68 8h6q66 4 102 4h125l86 -6h6q2 -2 4 -2h9l4 2l4 8q2 3 2 5q12 44 47 151q5 17 35 105q5 16 12 34t15.5 39.5t13.5 34.5q2 5 6 15.5t6 15.5q18 48 45 110l21 54q9 23 59 141q9 22 59 129q3 7 9.5 20.5t9.5 20.5q7 13 16 18q40 22 74 25q30 3 49 -10l10 -10
q0 -7 -2 -13q-2 -4 -5 -13t-5 -13q-6 -17 -29 -76q-7 -23 -28 -76q-12 -38 -27 -72q-18 -45 -27 -73q-24 -62 -34 -93q-5 -14 -15.5 -40t-15.5 -39l-8 -21q-4 -12 -4 -16q0 -1 -1 -4t-1 -4q-1 -2 -2.5 -7.5t-2.5 -7.5l-4 -16q-3 -9 -9 -29t-9 -29q-13 -33 -21 -59
q-45 -137 -53 -164q0 -1 -1 -3t-1 -3q-4 -12 -4 -18q-2 -8 2 -21h6q2 -2 6 -2q48 4 74 10q32 11 82 37q4 4 16 8q9 0 11 -2q5 0 8 -6q7 -10 0 -20q-4 -4 -8 -6q-3 -6 -9 -9q-46 -39 -96 -53q-2 0 -5 -1t-5 -1q-48 -12 -92 -18q-16 -3 -19 -17q-1 -5 -4 -18t-4 -21
q-6 -24 -12 -51q-1 -6 -3 -18.5t-3 -18.5q-10 -34 -13 -65q-9 -47 -12 -94l-4 -50l-6 -51v-43q-2 -14 -2 -43q0 -6 1 -19.5t1 -19.5q0 -23 4 -77q9 -69 33 -136q21 -57 61 -102q41 -33 80 -49q52 -18 70 -21q12 0 18 -2q2 -2 4 -2v-8q-4 -4 -4 -6l-4 -4q-11 -11 -39 -23
q-35 -9 -69 -6q-40 3 -74 14q-100 35 -160 121q-35 53 -59 131q-19 76 -25 142q-6 59 -6 120q0 74 2 113q4 48 8 72q1 5 2 15.5t2 15.5q1 7 3 20t3 20t3.5 20.5t3.5 20.5q4 22 8 35q1 5 3 16.5t3 16.5l12 55v11q-4 4 -10 4q-2 0 -4 2q-4 2 -12 2q-40 0 -60 -2h-80
q-71 0 -215 -4q-58 0 -114 -9h-7q-6 0 -26 -4q-16 -8 -37 -8h-6q-1 0 -2 -1t-2 -1q-10 0 -13 -10l-2 -8q-2 -7 -6 -21.5t-6 -21.5q-3 -10 -8 -30t-8 -30t-8.5 -29.5t-8.5 -29.5l-43 -154q-9 -31 -39 -102q-1 -3 -3 -9.5t-3 -9.5q-26 -68 -65 -135q-18 -34 -60 -84
q-2 -2 -6 -7t-6 -7q-38 -45 -74 -78q-71 -68 -164 -106q-58 -23 -108 -31q-13 0 -45 -4q-91 0 -166 37q-61 27 -107 73q-47 50 -71 111q-24 73 -21 129q0 70 25 143q39 96 125 160q42 33 96 55q37 14 82 23q46 8 98 2q87 -6 150 -72q27 -35 39 -77q8 -39 8 -87
q0 -24 -16 -43q-8 -8 -13 -8q-10 0 -14 2q-17 7 -17 21q-3 6 0 12v8q6 41 -6 78q-18 66 -82 94q-53 23 -104 17q-60 -3 -129 -33q-85 -45 -135 -121q-36 -50 -45 -117q-7 -50 -2 -86q3 -47 24 -94q25 -61 76 -100q41 -35 96 -47q44 -13 84 -13q35 0 82 13q43 15 96 49
q58 40 101 92q46 59 78 113q1 2 3 5t3 5q40 69 71 149q23 62 29 84q3 10 9.5 31t9.5 31q3 9 18 59q11 44 16 70q1 2 2 7t2 7q2 8 6.5 23.5t6.5 23.5l8 35v4z" />
    <glyph glyph-name="I" unicode="I" 
d="M983 1044q8 -31 -2 -69q-34 -91 -107 -158q-74 -71 -172 -108q-86 -38 -180 -29q-89 6 -166 70q-65 59 -86 141q-15 56 -12 113q3 52 18 102q11 37 37 94q39 85 109 158q85 87 201 135q84 33 155 49q79 19 152 25q52 6 108 6q66 0 148 -10q12 -2 86 -17q7 -1 21.5 -4
t21.5 -4q95 -22 180 -55q14 -8 29 4q2 1 5 3t5 3q15 13 43 23q21 4 35 2h12q-1 -2 -2 -5t-2 -4q0 -6 -4 -10q-30 -38 -53 -92q-3 -8 -41 -92q-27 -70 -35 -96q-35 -96 -53 -172q-3 -10 -8.5 -30t-8.5 -30t-8 -29.5t-8 -29.5q-5 -18 -14.5 -53t-14.5 -52l-4 -20
q-21 -75 -33 -127q-33 -117 -41 -148q-3 -9 -8 -27.5t-8 -27.5l-16 -57q-33 -114 -37 -127q-2 -8 -7.5 -25.5t-7.5 -25.5q-2 -9 -7 -27t-7 -27q-9 -30 -14 -41q-2 -4 -5.5 -12t-5.5 -12q-7 -14 -10 -29l-7 -18q-8 -19 -13 -29q-4 -8 -4 -10q-41 -83 -78 -135
q-31 -42 -74 -88q-35 -41 -90 -82q-78 -59 -166 -82q-67 -20 -129 -17q-56 3 -123 29q-52 20 -102 63q-69 60 -96 146q-22 80 -13 158q6 76 43 143q42 69 105 115q66 51 143 69q80 24 160 6q115 -21 155 -129q16 -49 13 -94v-6q0 -17 -2 -23q-2 -3 -5.5 -9t-5.5 -9
q0 -1 -1 -2t-1 -2l-2 -2q-2 -2 -4 -2q-8 -4 -14 -4q-12 4 -16 8q-5 3 -9 10q0 1 -0.5 4t-0.5 5.5t1 5.5q6 40 -2 77q-9 48 -49 82q-37 34 -86 37q-49 6 -102 -4q-43 -8 -92 -35q-82 -42 -127 -116q-31 -54 -39 -99q-13 -55 -4 -108q7 -60 32 -107q34 -64 99 -102
q43 -25 86 -31q4 0 11.5 -1t10.5 -1q32 -4 43 -4q64 0 119 27q87 43 141 108q39 45 78 107q44 68 82 159q27 65 35 90q3 10 9 32t9 32q16 47 27 86q9 38 18 78l13 49q2 7 12 47l20 78q8 35 15 59q2 10 7.5 28.5t6.5 24.5q3 12 9.5 35.5t9.5 36.5t9 36.5t9 35.5q5 14 14 49
l41 147q34 121 90 236q9 18 54 96q4 6 4 12q0 3 -11 7q-66 39 -135 59q-49 17 -88 27l-18 6q-62 18 -125 24q-85 14 -187 4q-135 -15 -247 -92q-126 -84 -207 -221q-45 -77 -70 -166q-23 -69 -10 -147q21 -104 115 -144q71 -26 147 -20q69 9 129 43q100 56 174 152
q42 54 72 118q0 2 2 4q0 2 2 4h2z" />
    <glyph glyph-name="J" unicode="J" horiz-adv-x="1120" 
d="M834 1419h-5q-36 4 -55 4q-56 3 -125 -4l-24 -4q-40 -5 -52 -8q-71 -13 -131 -35q-31 -10 -104 -41q-137 -61 -248 -166q-90 -84 -153 -198q-41 -74 -58 -146q-14 -55 -14 -112q0 -49 20 -107q26 -56 86 -84q41 -15 82 -18q53 -6 109 4q63 11 125 51q82 60 131 145
q42 71 67 154q20 77 23 137v6q2 4 2 11q3 -2 14 -13q1 -2 4 -6t4 -6q3 -2 3 -4q6 -13 10 -43v-2q0 -76 -31 -146q-43 -104 -119 -186q-59 -68 -145 -110q-78 -38 -162 -35q-83 0 -156 45q-58 38 -100 102q-36 56 -45 123q-7 39 -4 92q5 49 27 121q2 4 5 13.5t5 13.5l16 45
q53 125 133 211q39 39 72 61q2 2 6 5t6 5q86 61 199 103q77 29 135 41l45 8l37 8q63 11 141 14q5 0 14.5 1t14.5 1h27q72 3 143 -6q15 0 43 -4h8q4 2 8 6q9 9 21 15q1 1 4 3t4 3q4 2 13.5 7t13.5 7q8 4 24 8q3 1 8 2t7 2q13 3 26 -4q-3 -5 -9 -16t-9 -16q-19 -26 -31 -52
q-29 -59 -45 -100q-3 -9 -14 -39.5t-17 -48.5q-2 -6 -6 -19.5t-6 -19.5l-23 -72l-8 -28q-17 -57 -22 -80q-2 -9 -23 -80q-3 -12 -9 -37.5t-9 -38.5q-11 -34 -21 -76l-16 -61q-3 -10 -9.5 -30.5t-9.5 -30.5q-10 -41 -30 -119q-22 -73 -45 -160q-2 -8 -7.5 -25.5t-7.5 -25.5
q-2 -9 -7 -26.5t-7 -26.5q-4 -15 -13.5 -45t-13.5 -46q-3 -10 -9 -30.5t-9 -30.5q0 -1 -23 -72l-6 -18q0 -2 -2 -4q0 -8 -6 -17v-10q4 -4 8 -4q4 -1 11.5 -2t11.5 -2q26 -4 41 -8q49 -12 86 -49q1 -1 6 -11q6 -12 -2 -20q-7 -7 -19 -4q-38 17 -69 24q-32 16 -66 13
q-6 0 -10 2h-10q-9 3 -12 -6l-50 -93q-60 -125 -149 -225q-90 -96 -205 -158q-68 -38 -139 -61q-82 -29 -142 -39q-75 -16 -112 -20q-42 -5 -94 -2q-43 3 -84 12q-59 14 -90 65q-9 14 -17 41q-6 60 17 113q21 55 55 104q52 69 121 121q79 60 182 107q77 38 170 63
q61 18 123 27q77 15 155 18q43 2 129 2h5q1 0 3 1t3 1q7 13 10 27q24 65 51 148q21 53 31 96q3 7 8 33q1 3 2 9t2 9q3 12 9.5 35.5t9.5 36.5q5 14 14 49q5 22 35 135q6 25 41 158q4 15 41 151l16 58q10 41 33 114q37 123 88 219q11 23 53 95q1 2 4 7t4 7t4.5 7t4.5 7z
M342 -39l-4 2h-2q-12 2 -37 2q-87 0 -170 -18l-20 -4q-23 -3 -43 -9q-43 -12 -125 -36q-83 -27 -146 -58q-112 -50 -201 -133q-61 -55 -104 -131q-25 -46 -14 -96q10 -34 32 -53q33 -23 72 -23q25 -2 70 -2q4 0 11 1t11 1q15 0 43 4q47 10 115 39q74 28 150 78
q88 59 159 135q62 70 117 154q5 9 23.5 38t27.5 46q3 6 10.5 17t10.5 17l4 9q3 10 10 20z" />
    <glyph glyph-name="K" unicode="K" horiz-adv-x="1818" 
d="M1360 1573q-62 8 -146 4q-160 -12 -309 -74q-116 -50 -200 -112q-137 -96 -222 -236q-48 -79 -71 -158q-22 -73 -19 -141q0 -52 27 -111q36 -64 112 -83q68 -16 132 -7q118 15 202 99q80 83 125 198q39 104 45 207q14 -3 17 -10q7 -7 10 -16l2 -5q12 -34 6 -71
q-6 -55 -31 -117q-44 -103 -118 -186q-76 -82 -174 -121q-82 -31 -168 -19q-180 30 -250 201q-19 43 -19 86q-3 65 6 127q19 78 48 146q39 83 79 141q64 87 154 147q96 62 213 101q66 23 139 39q114 24 230 24h6q90 -4 139 -4q13 0 37 4l37 6q20 5 41 19q30 21 63 18h4l4 -2
h2v-2h3q0 -4 -5 -14q-2 -5 -7 -14.5t-7 -14.5q-33 -61 -57 -113q-5 -13 -14.5 -36t-14.5 -35q-7 -25 -14 -41q-44 -122 -80 -260l-49 -185q-51 -190 -70 -256q-15 -60 -53 -188q-2 -7 -6 -21.5t-6 -21.5q-10 -36 -11 -41q-15 -57 -26 -92q-3 -7 -8.5 -21.5t-8.5 -21.5
t-8 -21.5t-8 -21.5q-29 -74 -74 -150q-17 -33 -53 -78q-2 -2 -5 -6t-5 -6q-56 -70 -142 -133q-88 -63 -180 -82q-61 -13 -110 -8q-138 12 -242 113q-56 59 -78 141q-22 92 -4 176q34 157 174 244q55 36 125 51q70 18 143 6q145 -24 172 -176q2 -18 2 -59q-3 -21 -12 -35
q-9 -13 -14 -13q-9 -3 -21 0q-15 6 -12 29q6 40 -4 86q-21 71 -88 98q-68 25 -135 11q-145 -21 -228 -148q-40 -61 -49 -135q-6 -58 8 -111q30 -141 170 -194q82 -28 162 -10q75 19 131 61q76 62 129 141q71 106 117 224q44 119 74 241q15 56 22 90q3 12 9.5 36.5t9.5 37.5
q15 61 26 98q4 15 11 41t8 31q16 70 39 152q4 13 11 39.5t11 40.5q30 113 53 182q48 145 136 284q1 1 6 11q1 1 2 3t2 3zM2429 -76q3 -48 -21 -100q-52 -120 -178 -160q-70 -18 -147 -12q-59 0 -117 18q-105 29 -192 101q-97 82 -170 196q-82 127 -138 256q-42 89 -86 197
l-24 57q-18 41 -33 84q-12 34 -35 57q-12 12 -14 21q-7 11 -4 25q0 8 6 14q3 7 10 10q55 24 119 57q94 50 219 144q161 126 266 231q23 22 48 47t56 56.5t48 48.5l76 76q107 107 239 206q95 71 205 105q86 25 164 8q55 -6 96 -47q11 -11 23 -35q7 -17 -9 -29q-14 -11 -30 -2
q-77 41 -160 11q-129 -51 -238 -121q-146 -90 -286 -221q-134 -116 -185 -164q-13 -11 -34.5 -31t-28.5 -27q-126 -115 -285 -223q-72 -48 -164 -88q-23 -10 -26 -16q-3 -10 6 -31q11 -29 20 -45l13 -25q9 -18 26.5 -54t26.5 -54q8 -18 25.5 -54.5t25.5 -54.5
q84 -185 207 -354q71 -101 176 -180q74 -53 160 -80q107 -27 201 22q66 39 90 111q2 12 10 31q6 11 16 18q9 3 27 0z" />
    <glyph glyph-name="L" unicode="L" horiz-adv-x="1380" 
d="M823 72q5 11 16.5 33.5t16.5 33.5q116 219 191 463q-9 -3 -34 -12.5t-38 -14.5q-71 -28 -141 -34q-89 -9 -175 6q-140 21 -262 94q-104 64 -147 182q-28 85 -10 172q12 57 51 109q64 91 170 129q63 23 139 29q43 2 105 -5l20 -2q54 -3 119 -26q62 -21 112 -62
q35 -24 35 -69q-6 2 -14 6q-94 65 -197 94q-99 26 -188 23q-156 -9 -254 -125q-34 -37 -55 -86q-44 -95 22 -179q45 -54 111 -92q91 -51 188 -65q131 -21 256 -4q73 8 160 41q40 16 63 24q14 5 17 19q19 73 39 133l55 184l45 135l33 103q65 178 158 338q72 125 172 215
q79 69 163 94q56 18 109 -6q62 -35 74 -105q9 -58 6 -114q-3 -66 -27 -148q-26 -93 -74 -180q-61 -113 -151 -238q-150 -199 -340 -358q-10 -8 -29.5 -25.5t-29.5 -25.5l-66 -58q-12 -12 -16 -18q-1 -4 -4.5 -12.5t-4.5 -12.5l-2 -6q-39 -136 -92 -260q-52 -130 -133 -266
q-20 -31 -33 -47q-10 -11 -32 -47q-1 -1 -2.5 -3t-2.5 -3q-5 -5 -8 -13q3 -3 13 -8q25 -13 75 -45q22 -18 31 -23q36 -21 57 -38q84 -54 136 -84q68 -37 178 -82q83 -33 157 -41q51 -7 91 -4h22q60 0 109 14q83 12 147 55q51 38 70 88q4 15 12 23q12 18 33 8q24 -9 18 -33
q-14 -50 -51 -96q-54 -60 -133 -88q-116 -36 -227 -39q-89 -3 -164 8q-77 11 -166 41q-142 51 -248 115q-103 65 -172 121q-4 4 -16 12q-22 19 -50 4q-8 -5 -75 -53q-85 -75 -191 -105q-82 -22 -157 -14q-11 0 -15 2q-25 0 -43 6q-88 26 -153 107q-33 44 -33 98
q-6 58 10 119q26 81 109 133q70 40 149 25q88 -14 176 -56q91 -38 170 -86q3 -2 8.5 -5t8.5 -5q7 -5 20 -8q2 -1 5 -2t5 -2zM1247 797l4 -4q3 3 9 6q1 1 3 2t3 2q104 86 215 207q105 116 198 254q123 167 185 364q26 85 20 164q-2 28 -10 66q-9 34 -43 40q-42 6 -82 -12
q-56 -26 -98 -80q-56 -67 -103 -159q-56 -109 -110 -250q-32 -97 -37 -115q-24 -70 -70 -217l-31 -98q-16 -57 -53 -170zM352 127h-12q-10 3 -23 0q-41 -6 -67 -35q-27 -27 -27 -67q0 -35 13 -76q35 -102 139 -129q102 -21 200 16q103 40 181 127q20 17 -6 27q-26 13 -50 22
q-122 58 -227 94q-58 21 -121 21z" />
    <glyph glyph-name="M" unicode="M" horiz-adv-x="2400" 
d="M1688 1446q-69 18 -134 27q-40 4 -112 8q-64 0 -129 -6q-42 -5 -109 -19q-13 -3 -104 -29q-177 -55 -318 -178q-93 -84 -157 -194q-36 -69 -50 -121q-13 -49 -10 -109q6 -103 97 -149q56 -29 122 -35q32 -4 52 -4q79 3 145 37q95 50 156 125q54 62 94 147q26 51 37 98
q1 3 3 9.5t3 9.5l4 16q0 2 2 4q0 2 2 2q18 -21 18 -45q3 -42 -10 -77q-21 -69 -65 -129q-69 -89 -140 -144q-76 -58 -167 -82q-62 -18 -130 -12q-109 9 -198 88q-45 49 -68 98q-36 77 -30 164q3 65 26 121q60 144 166 262q69 75 164 123q76 39 156 57q46 13 86 21
q79 13 139 16q31 0 45 2h43q30 0 92 -4q5 -1 15.5 -2t15.5 -2q42 -4 61 -8q24 -2 62 -10q15 -5 39 -9q7 -2 20 -5t20 -5t20.5 -5t20.5 -5q9 -4 31 -8h4h4h2q49 21 70 28q10 2 25 7q12 0 18 -2q5 0 23 -7l4 -8q0 -1 1 -4t1 -4q4 -15 -2 -29q-14 -29 -35 -39q-53 -24 -53 -84
q-2 -46 2 -137q0 -23 2 -35v-249q-2 -20 -2 -62v-74q-2 -27 -2 -77q-4 -126 -4 -195v-25q-3 -12 -3 -24v-6q0 -1 1.5 -4.5t1.5 -5.5l6 6q1 1 2 3t2 3l166 221q92 124 104 139q8 10 23.5 31t23.5 31q109 144 156 213q10 14 29.5 42.5t29.5 43.5t30 43t30 43q45 64 92 155
q16 32 28 62l3 2v2q4 3 11 10t11 10q8 13 33 29q18 12 39 6q12 -4 16 -8q5 -5 8 -14l8 -17l3 -2v-2q0 -6 -3 -12q3 -12 -4 -23q-8 -10 -16 -34l-33 -91q-6 -16 -17.5 -46t-17.5 -46q-18 -47 -36 -96q-2 -7 -8 -19.5t-7 -15.5q-15 -37 -22 -61q-27 -70 -52 -144l-12 -36
l-16 -54q-2 -7 -6 -21.5t-6 -21.5q-4 -13 -37 -127q-14 -55 -21 -88q-1 -5 -3 -16.5t-3 -16.5q-5 -14 -8 -34q-2 -13 -9 -55.5t-10 -65.5q-11 -60 -8 -133q0 -43 4 -129q6 -86 39 -158q42 -91 133 -117q13 -5 54 -14h4q0 -2 4 -2q0 -2 2 -2v-8q-1 -1 -3 -3.5t-3 -3.5
q-24 -24 -56 -24q-141 -12 -233 100q-47 63 -68 135q-24 92 -24 189q-3 68 4 153q3 42 12 86q3 39 12 76q3 17 10 47t9 41q9 41 14 54q8 36 35 127q2 5 5 15t5 15q11 38 21 62q13 40 26 73l25 74q6 13 10 27l-2 2l-4 -4q-4 -4 -4 -6q-18 -23 -115 -152l-37 -49
q-91 -122 -151 -199q-78 -105 -139 -194q-44 -63 -82 -150q-23 -55 -31 -100q-1 -8 -3 -23.5t-3 -23.5t-3 -23.5t-3 -23.5q-6 -74 -37 -144q-20 -49 -56 -98q-23 -29 -55 -49q-49 -30 -90 14q-11 19 -18 47q-11 39 2 86q6 16 19.5 47.5t15.5 36.5q22 49 65 115q27 46 39 102
t16 138q2 30 6.5 84.5t6.5 78.5q0 12 1 35t1 33q0 13 1 36t1 34q4 90 8 135q0 48 2 73q1 10 2 30t2 30q0 10 1 29.5t1 29.5l12 123q0 8 5 43q0 11 4 27v22q-8 -4 -9 -6q-4 -4 -4 -8q-37 -61 -94 -180l-110 -234l-25 -53q-7 -15 -21.5 -45t-21.5 -45q-40 -86 -72 -148
q-11 -23 -23 -48.5t-26.5 -57t-23.5 -49.5l-19 -37q-24 -52 -57 -113q-6 -13 -29 -49q0 -1 -8 -13.5t-12 -19.5q-29 -50 -72 -100q-27 -34 -64 -74l-16 -16q-4 -2 -12 -10l-21 -17q-44 -38 -98 -71q-70 -45 -143 -66q-79 -21 -162 -18q-91 6 -166 49q-60 37 -100 80
q-44 51 -64 106q-29 81 -20 156q15 142 110 244q45 45 103 73q46 22 88 33q26 6 73 10h2q46 6 99 -4q111 -15 172 -106q15 -22 22 -58q9 -37 6 -73q-5 -34 -8 -45q0 -1 -1 -4.5t-1 -4.5q-6 -22 -24 -37q0 -2 -2 -2h-2q-9 -3 -15 0q-7 0 -14 7q-11 9 -8 22l6 25q16 49 4 94
q-12 63 -70 94q-48 32 -119 35q-23 0 -73 -4q-42 -5 -86 -25q-66 -28 -121 -86q-43 -49 -64 -110q-22 -67 -16 -134q6 -97 70 -167q50 -59 127 -80q45 -13 63 -15h19q18 -3 36 0q42 3 95 23q83 35 149 92q103 96 180 213q51 79 99 176q45 92 53 111q3 8 10 23.5t10 23.5
q4 9 54 112q4 9 12 28t12 28q5 12 15.5 32.5t15.5 32.5q12 30 29 64q30 63 36 76l35 73q3 7 10.5 21.5t10.5 21.5q3 8 41 86q6 11 17.5 32.5t17.5 33.5q6 10 17 31.5t17 31.5q55 92 111 156q1 2 59 68q1 1 2 3t2 3t2.5 3t2.5 3zM1616 92l-2 -2h-2l-2 -2l-6 -6
q-50 -66 -64 -139q-4 -12 -2 -21l-2 -14q0 -6 4 -10t8 -4q9 -6 19 4q2 2 2 4l6 6q28 47 33 88q4 13 8 47v49z" />
    <glyph glyph-name="N" unicode="N" horiz-adv-x="1955" 
d="M1772 1290q-6 -6 -9 -12q-47 -80 -92 -176q-2 -3 -5 -10.5t-5 -10.5l-57 -123l-21 -40q-6 -13 -17.5 -38.5t-17.5 -37.5q-6 -13 -17.5 -38t-17.5 -38q-3 -7 -10 -21.5t-10 -21.5q-24 -49 -31 -64q-6 -14 -43 -90q-28 -53 -45 -92q-4 -7 -11 -21.5t-11 -21.5l-62 -127
q-15 -34 -43 -74q-4 -6 -11 -17t-11 -17q-21 -37 -62 -88q-6 -9 -14 -17q-14 -20 -53 -59q-37 -37 -82 -68q-52 -43 -109 -69q-49 -24 -102 -39q-77 -20 -144 -17q-60 3 -124 29q-89 40 -144 104q-43 48 -65 117q-22 73 -13 141q12 124 97 218q55 62 122 90q41 19 93 32
q71 13 133 5q71 -6 129 -46q65 -46 82 -118q15 -65 -6 -127q-3 -11 -17 -25q-1 -1 -3 -4t-3 -4q-2 -2 -12 -2q-1 0 -8 2t-11 4q-14 10 -8 27q7 25 10 45q15 73 -30 127q-26 37 -74 49q-64 25 -141 16q-147 -18 -236 -139q-31 -41 -47 -102q-12 -43 -12 -91q3 -141 121 -227
q32 -22 65 -31q5 -1 14.5 -3t14.5 -3q6 -3 26 -8q53 -9 115 4q26 8 59 21q10 7 23 10q90 48 154 117q71 71 135 168q50 77 98 178q30 58 49 106l25 53q15 29 40 84.5t29 63.5q8 17 25 52t25 52q1 3 20 47q16 33 78 164l24 49q8 21 35 72q66 132 156 244q8 8 23.5 25.5
t23.5 25.5q2 3 7 8t7 8q1 1 3 3.5t3 3.5q3 4 5 6q-16 4 -23 4q-9 4 -28.5 7.5t-22.5 4.5l-68 12h-6q-58 5 -70 5q-52 3 -104 0q-58 -3 -117 -15l-55 -12q-74 -18 -141 -45q-33 -13 -121 -58q-108 -63 -197 -161q-55 -58 -88 -123q-33 -62 -47 -115q-15 -59 -12 -117
q6 -86 78 -133q45 -26 96 -35q48 -10 82 -10q63 0 127 23q101 46 164 121q63 69 104 155q24 53 37 96q4 22 8 33v4q2 0 2 4q2 0 2 2q18 -21 21 -47q0 -38 -13 -82q-2 -2 -2 -4q-37 -98 -106 -170q-58 -64 -131 -110q-57 -35 -103 -47q-64 -22 -125 -19q-122 0 -215 84
q-39 42 -67 96q-33 70 -33 150q3 77 33 147q58 127 143 226q83 95 199 147q77 31 110 41q57 15 70 17l37 8q92 13 164 16q83 3 166 -6q72 -5 155 -25q35 -9 72 -18q7 -2 21.5 -6t21.5 -6h10q6 0 10 2h3q44 24 88 30q8 3 16 0q6 0 14 -4q2 -2 4 -2q1 0 5 -4q0 -1 1 -3t1 -3
t1 -2t1 -2q6 -16 0 -29q-8 -25 -37 -41q-51 -28 -51 -84q0 -29 2 -41v-88q2 -94 2 -278v-60q-2 -20 -2 -61q0 -32 -5 -197q0 -42 -4 -120v-7q0 -4 4 -12l25 37q5 9 15.5 26.5t15.5 26.5q27 42 61 107q49 91 53 98q4 8 13.5 24.5t13.5 24.5q24 56 51 111l45 98q37 83 43 96
q51 109 111 205q57 94 129 166q53 56 135 96q73 31 146 19q32 -6 61 -31q10 -13 10 -23q-3 -12 -14 -20q-1 0 -3 -1t-3 -1q-2 0 -4 -2q-9 0 -13 2q-87 12 -151 -49q-79 -65 -156 -162q-99 -123 -172 -260q-22 -39 -82 -152q-7 -13 -20.5 -37.5t-20.5 -37.5l-123 -228
q-62 -109 -137 -209q-8 -8 -8 -20q-6 -36 -21 -70l-8 -20q-19 -56 -22 -105q-3 -54 -19 -114q-21 -95 -80 -172q-23 -34 -55 -50q-59 -27 -90 27q-27 53 -12 113q29 94 90 184q30 46 47 111q8 41 16 127q5 64 7 79q1 14 2 40.5t2 39.5q1 11 2 34t2 34q0 10 1 31.5t1 33.5
l6 138q0 29 2 45q1 14 3 43.5t3 44.5q0 30 4 88q0 4 1 12t1 12t1 12.5t1 12.5q1 16 11 104q0 7 2 9v26h-2zM1700 158l-6 -6q-58 -74 -70 -160v-12q4 -15 16 -17h7q1 1 4 2t4 2l2 2q2 2 2 4l2 4q19 26 25 54q12 47 14 67q3 18 0 37v23z" />
    <glyph glyph-name="O" unicode="O" horiz-adv-x="1628" 
d="M387 477q-4 2 -13.5 6t-13.5 6l-26 13q-54 23 -105 65q-29 25 -41 47q-27 38 -51 78q-27 46 -39 103q-16 72 -16 137q3 73 14 127q8 29 10 41q1 5 11 41q18 55 53 127q52 95 129 188q59 70 133 135q74 67 133 111q67 51 164 104q65 36 152 70q72 24 123 37q98 25 188 22
q105 -3 192 -39q148 -62 232 -194q38 -60 65 -141q18 -61 25 -97q15 -70 18 -141q6 -71 0 -141q0 -4 -1 -11.5t-1 -11.5t-1 -12t-1 -12l-16 -99q-10 -57 -35 -137q-28 -92 -78 -194q-60 -129 -149 -271q-92 -140 -199 -256q-91 -98 -184 -162q-72 -52 -164 -77
q-88 -23 -164 -15q-33 2 -86 17q-6 0 -12 6q-1 0 -2 1t-2 1q-100 74 -166 180q-33 56 -45 102q-18 55 -27 115q-7 65 -4 117v14zM391 520q3 23 6 47q8 42 21 92q15 61 28 95q0 4 5 14q25 79 59 152q1 2 3 7t3 7q45 92 111 211q71 115 159 239q50 70 103 117q131 117 239 193
q57 43 134 65q18 6 32 6q18 0 21 -14q3 -13 -10 -22q-3 -1 -15 -7q-2 0 -4.5 -1t-3.5 -1q-25 -6 -76 -26q-70 -38 -125 -92q-92 -90 -188 -224q-92 -134 -158 -272q-42 -86 -84 -191q-35 -93 -55 -159q-23 -87 -37 -164q0 -3 -1 -8.5t-1 -8.5l-4 -16v-4q-4 -28 -4 -43
q0 -26 26 -29h17q8 1 24.5 3t24.5 3q7 0 47 5q55 13 103 30q97 37 182 92q85 56 153 129q65 67 117 158q52 85 76 162q9 27 18 57q0 2 1 5.5t1 5.5t1 4.5t1 3.5q6 37 9 63q3 51 -11 111q-3 11 2 16q8 8 15 8q21 3 30 -20q17 -49 17 -86q-3 -58 -19 -125q-14 -61 -47 -133
q-49 -103 -110 -182q-85 -113 -201 -197q-80 -58 -162 -94q-64 -27 -96 -35q-70 -19 -129 -25h-35q-12 -2 -35 -2q-25 -3 -28 -28v-13q0 -45 2 -65q3 -85 20 -156q13 -41 37 -92q31 -60 86 -90q79 -42 160 -27q48 10 106 37q85 43 160 109q92 83 168 192q35 48 102 160
q45 79 78 158l43 104q28 75 51 164q2 7 6.5 21.5t6.5 21.5q2 16 10 43l8 41q2 9 6 27.5t6 27.5l13 80q0 6 2 10l8 74q4 54 4 80q6 99 -16 205q-6 42 -33 112q-49 123 -160 193q-109 65 -233 65q-40 0 -80 -6q-51 -8 -78 -14q-98 -24 -164 -59q-95 -48 -172 -105
q-86 -62 -160 -139q-30 -30 -96 -113q-60 -81 -108 -178q-35 -65 -58 -133q-25 -65 -37 -131q-10 -55 -10 -103q-3 -106 27 -211l2 -6q7 -28 28 -69q32 -51 86 -90q2 -2 9 -6t8 -5z" />
    <glyph glyph-name="P" unicode="P" horiz-adv-x="1634" 
d="M1432 1886q-14 -25 -19 -39q-6 -8 -6 -18q5 -5 18 -8q154 -43 275 -158q76 -79 110 -186q26 -85 23 -162q0 -81 -6 -160q-5 -63 -29 -139q-14 -56 -51 -135q-47 -94 -127 -174q-66 -66 -154 -93q-65 -19 -125 -16q-71 0 -129 43q-21 16 -34 45q-18 44 22 68q1 1 3 2t3 2
t3 2t3 2l7 -14q1 -3 3 -9.5t3 -9.5q11 -38 49 -65q36 -25 74 -25q69 0 125 47q82 64 124 162q51 105 74 211q23 94 23 172v29q2 32 -2 90q-3 105 -43 198q-60 133 -183 199l-41 20q-8 2 -22.5 9.5t-18.5 9.5q-4 -8 -6 -10q-4 -4 -4 -7q-15 -33 -22 -55q-28 -63 -35 -82
q-43 -114 -80 -252q-2 -8 -10 -40.5t-13 -49.5q-1 -4 -24 -92l-25 -90q-15 -61 -26 -98q-7 -26 -20.5 -73.5t-18.5 -66.5q-6 -22 -18 -62.5t-13 -45.5l-9 -33l-9 -33q-7 -25 -21.5 -74t-21.5 -73q-7 -26 -15 -41q-2 -5 -6 -15.5t-6 -15.5q-22 -58 -55 -121
q-48 -91 -117 -166q-70 -79 -160 -131q-67 -35 -121 -47q-55 -13 -102 -10q-85 0 -162 41q-95 47 -147 137q-27 56 -35 105q-16 89 8 170q34 123 135 198q78 59 162 76q80 20 164 -2q103 -29 139 -137q10 -55 10 -94q0 -11 -4 -19q-3 -9 -10 -16q0 -1 -1 -2t-1 -2
q-2 -5 -12 -8q-13 0 -17 2q-16 6 -16 22q0 19 2 27v24q0 77 -66 125q-30 24 -71 27q-109 12 -199 -39q-91 -49 -141 -145q-36 -77 -27 -168q6 -90 64 -160q63 -78 168 -90q3 0 8 -1t8 -1q14 -2 41 -2q97 6 174 63q100 72 162 184q60 95 102 213q8 28 27 84q3 11 10 33.5
t10 34.5q1 5 10 40.5t13 53.5q4 14 14 58l56 202l4 21l28 110q13 51 47 168q5 18 9 27q16 67 43 145q46 140 127 265q2 2 10 14l4 8h-6q-32 4 -51 4q-43 0 -121 -4q-98 -9 -197 -39q-140 -47 -262 -129q-159 -103 -248 -258q-40 -70 -67 -149q-31 -97 -13 -195
q17 -104 123 -139q79 -19 152 -8q146 21 233 143q72 97 107 215q15 57 22 137v4q2 2 2 4q1 0 2 -1t2 -1q2 0 4 -2q3 0 3 -2q22 -25 22 -59q3 -85 -31 -158q-45 -105 -116 -182q-77 -86 -189 -127q-98 -32 -207 -4q-83 23 -145 100q-55 64 -70 150q-11 66 2 143q20 96 66 190
q49 107 121 179q107 96 225 145q89 39 176 59q93 24 166 29q19 0 59 4q58 4 84 4q69 0 121 -8h27q6 -2 20 -2q4 0 6 2q7 0 9 2q3 2 8 5t8 5q6 4 18.5 12.5t18.5 12.5q15 9 33 12q23 0 39 -2z" />
    <glyph glyph-name="Q" unicode="Q" horiz-adv-x="1746" 
d="M1163 -78q44 -34 54 -43l45 -37q55 -44 65 -51q60 -42 133 -61q121 -27 215 49q63 54 84 127l4 12q1 2 3 7t3 7q6 21 21 17q4 -2 8 -6q2 -2 2 -9q0 -2 -1 -4.5t-1 -3.5q-6 -32 -18 -61q-43 -101 -119 -168q-82 -69 -182 -90q-61 -11 -129 14q-83 39 -140 96
q-62 62 -110 121l-17 21h-2h-2q0 2 -2 2q-1 0 -3 -1t-3 -1l-8 -4q-63 -38 -129 -56q-101 -25 -197 -10q-51 9 -88 43q-102 83 -160 201q-35 78 -47 160q-9 61 -6 120v25q-3 2 -10 5t-10 5q-47 21 -58 27q-62 30 -100 71q-80 80 -115 193q-21 79 -18 158q0 75 18 145
q21 92 62 172q73 143 188 258q131 138 279 236q110 72 229 118q89 38 182 56q90 21 181 12q175 -12 305 -127q86 -79 131 -182q35 -76 51 -176q22 -112 16 -246q-4 -53 -20 -158q-20 -112 -53 -194q-36 -97 -97 -217q-63 -124 -153 -256q-119 -170 -268 -301q-5 -5 -5 -7z
M438 383q1 5 3 15.5t3 15.5q10 53 11 57q17 82 49 174q71 193 168 352q87 147 194 291q2 2 6.5 7.5t6.5 7.5q24 32 39 47q110 104 245 200q61 46 142 72q20 4 34 4q10 0 15 -8q5 -5 2 -14q-4 -8 -6 -9q-2 -5 -9 -8q-2 0 -9.5 -3t-12.5 -3q-4 -1 -11.5 -4t-11.5 -4
q-98 -34 -172 -111q-119 -113 -213 -258q-81 -121 -149 -268q-62 -130 -103 -252q-33 -98 -55 -207q-1 -5 -2 -15.5t-2 -15.5q-4 -19 -8 -61q-6 -39 33 -39q6 -3 12 0q29 0 43 2q4 1 11 2t11 2q46 7 78 17q128 39 228 106q144 90 247 244q54 76 95 176q30 65 36 135
q12 63 -4 133q-2 6 -2 19q0 18 19 18q22 3 31 -22q11 -27 14 -68q0 -107 -37 -205q-42 -118 -121 -227q-86 -121 -205 -211q-109 -83 -239 -129q-87 -29 -166 -35h-27q-10 -2 -28 -2q-39 0 -39 -37q0 -103 22 -213q4 -15 29 -88q1 -1 5 -9t7 -11l4 -9q6 6 6 9q11 25 31 45
q58 61 141 73q94 15 177 -24q58 -30 106 -72q2 -2 5.5 -4.5t4.5 -3.5q4 -4 8 0q5 0 11 6q16 16 20 19q64 59 139 155q137 186 226 402q51 123 88 276q22 102 28 139q1 4 2.5 11.5t2.5 11.5q12 78 14 117q21 167 -19 329q-14 65 -51 127q-116 186 -334 201q-77 9 -159 -10
q-51 -10 -121 -35q-83 -30 -160 -80q-123 -74 -213 -164q-116 -113 -199 -252q-72 -126 -116 -272q-24 -86 -27 -174q-3 -89 27 -193q35 -116 133 -178q8 -4 10 -4q1 -1 4 -3t4 -3zM668 -94q4 -3 12 -9.5t12 -9.5q5 -6 23 -20q59 -42 135 -39q63 3 129 35l70 35l-33 32
q-62 62 -142 82q-60 12 -112 -10q-59 -30 -94 -96z" />
    <glyph glyph-name="R" unicode="R" horiz-adv-x="1912" 
d="M1386 1692q-87 0 -126 -2q-24 0 -78 -4q-75 -8 -164 -35q-207 -62 -379 -217q-123 -116 -186 -267q-44 -106 -35 -221q3 -79 63 -133q37 -29 76 -37q62 -15 125 -6q113 12 195 88q91 88 135 203q39 99 45 196v11l6 6l4 -4q7 -4 12 -15q13 -23 13 -43q6 -72 -27 -149
q-44 -115 -131 -205q-90 -96 -211 -125q-58 -12 -115 -6q-197 27 -262 217q-30 99 -6 203q27 110 78 205q77 151 225 237q101 63 229 103q72 20 170 34q134 20 281 11q20 0 70 -4h16l12 6q2 1 5.5 3t5.5 3q23 20 55 33q20 7 53 4q-15 -35 -18 -41q-7 -13 -4 -19q0 -4 14 -8
q154 -42 264 -143q75 -72 113 -168q32 -95 35 -184q2 -57 -5 -150q-13 -101 -41 -190q-39 -112 -104 -203q-63 -88 -152 -139q-72 -37 -159 -43h-8q-1 0 -4.5 -1t-4.5 -1q1 -2 2 -5.5t2 -5.5q1 -4 4.5 -11l4.5 -9l41 -86q9 -19 27.5 -56l27.5 -55q83 -179 209 -342
q93 -119 227 -196q76 -43 162 -43q83 3 147 47q48 39 66 98l12 31q9 18 31 18q6 0 10 -4q2 -2 2 -10q-21 -180 -186 -244q-74 -21 -154 -18q-213 12 -364 166q-81 85 -138 176q-72 117 -139 264q-3 7 -8.5 20.5t-7.5 18.5q-18 43 -58 129q-7 14 -43 90l-45 90q-16 36 -10 68
q4 12 8 16q20 20 35 -6q9 -30 31 -55q54 -57 135 -39q104 35 162 123q51 74 76 145q35 89 53 182q22 127 14 238q-3 81 -20 147q-53 190 -223 277q-30 18 -70 24q-9 -18 -10 -22q-11 -19 -27 -60q-37 -87 -78 -221l-49 -178q-30 -108 -57 -219q-42 -143 -58 -205
q-2 -7 -6 -21.5t-6 -21.5q-9 -28 -20 -74q-5 -17 -14.5 -49t-10.5 -35q-23 -83 -45 -151q-13 -36 -21 -49q-2 -5 -6 -15.5t-6 -15.5q-34 -89 -90 -170q-27 -42 -53 -68q-3 -3 -9.5 -10t-9.5 -10q-74 -83 -165 -131q-66 -35 -138 -47q-47 -6 -92 -6q-158 15 -262 137
q-46 57 -61 133q-15 65 -5 137q21 159 154 254q76 52 164 70q80 17 164 -11q108 -35 131 -141q12 -46 6 -88q-3 -17 -16 -37q-3 -6 -11 -6q-10 0 -16 2h-4q-12 6 -12 21v18q9 56 -17 109q-42 68 -123 77q-113 9 -196 -39q-90 -53 -135 -139q-42 -81 -33 -174
q12 -118 102 -196q53 -45 127 -54q55 -7 94 -2q68 14 131 56q98 67 160 170q54 86 96 184q25 67 37 110q1 2 2 7.5t2 7.5q30 95 43 151q13 47 21 86q32 118 41 156q12 40 16 63l17 58q32 116 41 155q20 78 32 115q12 44 27 84l16 49q28 95 76 172q7 13 29 49q2 4 7 12.5
t7 12.5q5 5 16 27z" />
    <glyph glyph-name="S" unicode="S" horiz-adv-x="1818" 
d="M991 -598q172 81 281 246q-2 0 -4.5 -1t-3.5 -1q-9 0 -11 -2q-81 -34 -182 -47q-76 -11 -162 -5q-68 2 -161 27q-63 17 -152 53q-70 31 -121 66q-6 4 -17.5 12t-17.5 12q-27 16 -73 56q-96 87 -142 205q-27 71 -39 141q-13 89 -4 170q9 70 37 141q58 132 166 223
q94 75 205 109q103 32 225 16q204 -21 340 -178q59 -68 84 -162q24 -107 4 -209v-4q-2 -2 -2 -4q-10 -32 10 -57q56 -82 60 -88q37 -60 49 -133q12 -64 12 -131q0 -20 -4 -52v-10q9 3 12 6q115 109 166 267q31 107 19 215q-12 98 -54 180q-69 147 -172 280q-83 112 -129 242
q-40 109 -34 244q6 100 53 190q38 72 94 125q87 77 193 107q93 27 190 8q72 -14 145 -64q90 -69 99 -176q10 -88 -31 -151q-44 -71 -111 -99q-61 -27 -125 -18q-55 3 -84 45q-40 60 13 104q9 9 18 9q17 3 23 -6t0 -23q0 -2 -2 -4q-9 -18 -9 -39q0 -33 33 -39q46 -6 88 16
q93 44 117 140q33 104 -51 182q-93 84 -221 66l-56 -13q-41 -11 -75 -41q-59 -49 -95 -98q-47 -66 -63 -133q-18 -73 -12 -146q6 -93 47 -176q2 -4 5 -11t5 -11t5 -11.5t5 -11.5q15 -30 53 -73q7 -7 19 -23q64 -85 131 -197q2 -4 7 -12t7 -12q32 -53 39 -66q28 -60 47 -135
q27 -108 21 -215q-12 -186 -123 -330q-83 -102 -170 -170q-27 -22 -64 -41q-7 -3 -10 -10q-4 -2 -8 -10q0 -1 -1 -2t-1 -2q-54 -115 -147 -193q-43 -38 -105 -63q-33 -13 -65 -2q-1 1 -3.5 2t-3.5 2t-3 2t-3 2zM1217 162q-1 -2 -4.5 -5t-4.5 -5q-6 -6 -12 -15
q-29 -51 -72 -94q-77 -77 -184 -98q-57 -11 -129 -4q-82 6 -149 55q-78 60 -87 156q-3 83 58 147q79 82 186 88q155 15 285 -57q16 -13 37 -19q15 -6 18 11v6q0 1 1 2t1 2q15 134 -51 256q-84 146 -246 176q-45 9 -82 12q-5 0 -13.5 1t-12.5 1q-149 12 -269 -80
q-182 -142 -206 -368q-10 -91 8 -174q15 -80 53 -148q43 -85 113 -149q65 -56 153 -103q144 -75 312 -75q120 -3 231 26l129 37q21 7 29 18q8 16 8 31q9 78 -4 164q-18 96 -68 176l-4 6q-1 2 -4 6.5t-4 6.5q-7 7 -16 10zM840 -6q53 0 100 20q141 56 190 195q15 38 -18 55
q-132 88 -289 76q-70 -6 -118 -41q-95 -62 -74 -172q9 -51 53 -86q71 -47 156 -47z" />
    <glyph glyph-name="T" unicode="T" horiz-adv-x="1574" 
d="M1585 1456q-9 1 -24.5 4t-18.5 4q-25 5 -29 6q-132 19 -167 23q-39 4 -121 8q-13 0 -17 2h-18q-94 3 -203 -10q-119 -17 -209 -47l-20 -8q-81 -23 -164 -70q-98 -61 -178 -147q-99 -108 -152 -244q-37 -90 -37 -189q0 -90 56 -161q40 -40 75 -52q90 -36 197 -20
q182 30 295 182q75 93 104 207q18 75 23 103q6 -3 10 -11q21 -43 12 -92q-27 -157 -133 -272q-62 -64 -141 -111q-62 -40 -147 -59q-68 -14 -150 -4q-72 10 -127 45q-76 52 -104 143q-22 73 -19 143q3 77 29 164q43 136 129 248q65 85 158 156q112 84 243 139q102 45 203 68
q60 12 86 16q5 1 15.5 2t15.5 2q92 10 166 10q111 3 209 -8q24 -4 38 -4q3 0 9.5 -1t9.5 -1q10 -1 31.5 -3t31.5 -3q16 -3 64 -8q6 0 26 -4q5 -1 15.5 -2.5t15.5 -2.5q9 -2 23 5q22 16 49 30q20 8 45 2q-2 -6 -6 -14q-10 -23 -17 -35q16 -10 37 -14q2 0 6.5 -1t6.5 -1
q30 -4 43 -8q58 -10 69 -11q80 -8 115 -10q18 -2 56 -6l57 -6q106 -6 192 10q92 17 158 53q15 9 30 15l21 8q44 19 82 63q2 2 4 2l8 9q-5 -21 -16 -39q-47 -67 -123 -115q-73 -44 -164 -66q-64 -12 -102 -16l-54 -8q-176 -19 -342 -10h-34q-24 0 -74 4q-6 0 -14 4
q-2 0 -6.5 1t-6.5 1l-6 -6l-4 -8l-31 -95l-33 -94q-15 -56 -38 -156q-4 -18 -13.5 -51.5t-13.5 -50.5l-29 -102q0 -2 -1 -6.5t-1 -6.5q-3 -11 -6 -22.5t-6.5 -25t-5.5 -21.5q-12 -49 -27 -99q-3 -12 -9 -34l-9 -33q-2 -8 -7.5 -25.5t-7.5 -25.5l-55 -197l-12 -41
q-5 -21 -15 -47q-11 -41 -30 -88q-16 -41 -56 -123q-49 -93 -116 -166q-68 -80 -160 -133q-56 -30 -117 -45q-52 -14 -110 -14q-47 0 -88 14q-43 12 -84 33q-105 54 -150 159q-26 51 -26 111q-7 74 10 133q34 128 139 207q75 58 172 76q69 14 145 -2q117 -26 152 -148
q10 -49 4 -92v-2q0 -4 -4 -16q-1 -3 -4 -8.5t-4 -8.5l-2 -2q-6 -6 -15 -6q-4 0 -16 4q-14 3 -14 19q0 8 2 12v10q9 65 -25 117q-34 51 -94 63q-198 34 -326 -127q-85 -111 -59 -249q27 -157 178 -213q139 -47 266 36q102 68 168 179q51 74 97 182q22 51 36 104l5 13l49 180
q5 19 15 55.5t15 54.5l29 111q4 14 11.5 41.5t11.5 42.5q3 15 10 42t10 42q0 2 1 6t1 6q1 2 2 6.5t2 6.5q0 2 1 5t1 5q1 2 2 6t2 6q0 2 1 6t1 6t1 6.5t1 6.5q1 2 2.5 6t2.5 6q0 2 1 5.5t1 4.5q1 2 2 6t2 6q0 9 2 13q0 2 1 6t1 6q1 2 2 5t2 5q0 2 1 6.5t1 6.5q16 58 59 194
q29 107 70 193q5 7 8 20z" />
    <glyph glyph-name="U" unicode="U" horiz-adv-x="1759" 
d="M653 1427q40 -10 54 -41q21 -48 26 -69q24 -83 12 -170q-6 -83 -36 -156q-50 -124 -164 -190q-91 -51 -203 -29q-115 27 -174 135q-43 74 -53 168v6q-9 49 -9 103q0 44 7 102q0 2 1 6.5t1 7.5q3 14 9 42.5t9 43.5q17 80 64 160q69 106 135 180q74 80 168 140
q66 43 141 61q74 14 96 17h19q4 -2 14 -2q168 -3 287 -125q48 -51 71 -134q22 -94 5 -180q-8 -46 -21 -100q-4 -9 -8 -31q-2 -9 -17 -74q-12 -61 -34 -149l-56 -215q-11 -48 -47 -191l-18 -69q-26 -87 -37 -139q-20 -93 -23 -111l-8 -45q-18 -92 -12 -189q0 -33 14 -77
q15 -42 49 -56q30 -11 68 9l16 12q4 1 17 10q94 72 143 164q84 136 86 139q16 25 44.5 73t39.5 66q29 49 94 172q8 15 23.5 43t23.5 43l33 58q5 9 15.5 27.5t15.5 27.5q47 89 92 205q38 101 88 268q2 9 7.5 28t7.5 28t7 27.5t7 27.5q18 69 86 69q43 0 80 -24q-7 -29 -15 -47
l-43 -123q-19 -54 -28 -88q-5 -15 -15.5 -44.5t-15.5 -45.5l-43 -135q-4 -17 -14 -48t-13 -43q-5 -15 -14 -45.5t-14 -46.5q-2 -8 -7.5 -25.5t-7.5 -25.5q-2 -9 -7 -26.5t-7 -26.5q-3 -11 -9 -34.5t-9 -35.5t-9.5 -35t-9.5 -34q-4 -18 -11 -52.5t-11 -50.5
q-3 -15 -9.5 -43.5t-9.5 -42.5q-23 -117 -4 -248q9 -72 43 -139q40 -67 115 -88q29 -8 41 -10q2 -1 7 -2t7 -2q3 -10 0 -13q-3 -5 -8 -8q-26 -20 -66 -20q-60 0 -116 26q-69 37 -111 113q-28 52 -41 115q-21 94 -18 192q0 81 16 172q2 11 6 33.5t6 34.5q1 6 3 18.5t3 18.5
q3 9 0 22l-6 -12q-9 -13 -16 -29q-62 -121 -139 -250q-74 -126 -189 -247q-56 -61 -135 -105q-99 -44 -186 19q-45 33 -66 83q-47 109 -35 236q7 41 21 102l8 33q3 25 12 53q1 4 3 13.5t3 13.5q6 31 35 148l33 135q4 19 16 64t17 69q3 15 10 42.5t10 41.5l17 69q0 1 1 3.5
t1 3.5q0 4 2 6v6q2 2 2 6q0 1 1 3t1 3q0 6 2 8q0 2 1 5.5t1 5.5q45 185 53 223q7 34 10 59q2 9 5.5 27.5t5.5 27.5q12 62 6 121q-3 77 -37 146q-21 40 -59 63q-85 49 -181 25q-119 -34 -209 -121q-135 -117 -219 -287q-38 -69 -57 -153q-23 -91 -20 -191q0 -120 61 -227
q27 -49 63 -70q56 -33 121 -18q95 24 166 92q59 62 80 145q24 83 18 170q-3 82 -26 152q-18 48 -19 51q0 1 -1 3.5t-1 4.5q0 1 -1 4t-1 4z" />
    <glyph glyph-name="V" unicode="V" horiz-adv-x="1665" 
d="M592 1415q40 -11 59 -47q34 -64 37 -133q4 -79 -4 -133q-15 -128 -96 -232q-56 -71 -148 -102q-68 -24 -139 -12q-41 9 -78 24q-79 39 -121 125q-18 37 -30 78q-15 54 -21 113q-5 54 -2 118q3 59 14 109q17 97 66 193q3 6 23 36q27 41 65 93q83 110 203 192q72 53 153 74
q48 13 91 16q64 3 110 -4q41 -7 107 -33q59 -29 102 -69q43 -43 64 -84q37 -73 34 -158q0 -24 -4 -82q-1 -6 -3 -17.5t-3 -17.5q-4 -13 -8 -35l-19 -86q-2 -8 -6 -25.5t-6 -25.5q-2 -7 -7.5 -29l-8.5 -34q-8 -39 -21 -86q-8 -39 -28 -113q-2 -7 -5.5 -21.5t-5.5 -21.5
t-5 -21.5t-5 -21.5q-17 -61 -22 -86q-30 -118 -35 -141q-18 -65 -33 -129l-37 -142q-4 -17 -8 -59q-8 -59 -10 -84q0 -4 -1 -13.5t-1 -13.5q-7 -69 -4 -124q4 -55 16 -91q3 -15 20 -18q36 -3 66 10q55 27 115 74q68 55 143 133q111 114 188 211q108 133 189 274
q71 123 115 226q33 74 49 137l6 24q15 51 22 82q10 65 13 111t0 92q-3 66 -35 135q-17 38 -64 41q-37 0 -67 15q-15 8 -21 16q-7 10 -4 18q3 10 13 13q12 4 16 4q1 0 4 1t4 1q33 0 76 -17q95 -39 145 -118q35 -54 47 -113q11 -61 11 -98q-3 -68 -17 -125q-36 -134 -92 -252
q-77 -172 -180 -324q-81 -120 -182 -237q-111 -127 -217 -217q-82 -73 -185 -129q-63 -41 -145 -60q-56 -13 -101 -2q-48 12 -73 60q-4 8 -8 28q-14 67 -11 146q0 32 4 94q1 15 11 98q4 20 4 33l18 111q3 14 12 52t13 60q8 34 41 166q3 14 9 39t9 39q5 16 14 55l25 99
q9 39 14 55q2 9 6.5 27.5t6.5 27.5q9 32 20 86q6 24 12 51l13 49l18 93l8 45q1 6 3 18.5t3 18.5q9 61 0 122q-3 14 -18 82q-9 40 -33 70q-18 26 -51 43q-41 24 -90 27q-71 3 -133 -23q-89 -40 -166 -113q-92 -80 -160 -186q-50 -74 -80 -154q-33 -80 -41 -153q-4 -28 -4 -43
l-6 -45q-3 -55 6 -111q12 -108 78 -192q39 -45 90 -56q43 -10 82 2q85 22 146 80q43 40 67 90q29 62 37 121q11 68 4 156q-8 68 -37 143l-4 13q-2 4 -5 12t-5 12z" />
    <glyph glyph-name="W" unicode="W" horiz-adv-x="2131" 
d="M623 1024q47 -15 61 -57q20 -46 29 -101q4 -62 4 -94q-3 -61 -27 -147q-23 -86 -88 -160q-53 -59 -127 -86q-64 -22 -127 -19q-36 2 -82 23q-42 17 -69 41q-45 42 -68 92q-21 39 -31 72q-9 29 -12 61q-12 73 -12 144v2q3 65 12 129q20 91 51 163q22 52 51 91q19 23 31 43
q13 19 23 32q97 127 219 205q71 45 139 64q52 13 94 16q16 3 35 0h19q17 0 49 -4h4q6 -1 17.5 -4t17.5 -4q6 -2 17 -5t17 -5q3 -1 12 -4.5t15 -4.5q4 -2 12.5 -5t12.5 -5q58 -23 100 -80q39 -47 59 -119q22 -62 25 -116v-6q8 -47 8 -109q0 -25 -2 -37q2 -32 -6 -94
q-1 -6 -2 -17.5t-2 -17.5q-4 -48 -8 -70q-1 -9 -4.5 -25t-4.5 -22q-2 -8 -5 -24.5t-5 -24.5q0 -1 -1 -4t-1 -4q-2 -8 -6 -24.5t-6 -24.5q-6 -27 -29 -107q-10 -44 -20 -71q-10 -35 -41 -125l-13 -33q-8 -25 -34 -92v-12l16 20l14 21q10 14 31 39.5t31 39.5q2 3 59 80
q48 65 70 92q13 17 37.5 50.5t29.5 40.5q116 155 142 192q52 71 90 150q30 66 41 106q11 49 14 111q6 50 21 96q11 42 34 90q21 49 58 86q23 27 53 37q49 15 76 -25q17 -22 20 -55q6 -49 -12 -92q-2 -4 -5 -11.5t-5 -11.5q-7 -18 -35 -77q-9 -18 -29 -50q-3 -4 -8 -13
t-8 -13q-27 -47 -39 -99q-12 -63 -18 -122q-5 -61 -7 -78q-1 -12 -2 -36t-2 -36q-4 -86 -6 -127q-2 -47 -6 -137q0 -33 -2 -49q-4 -108 -8 -162q-4 -74 -8 -111l-5 -49q0 -1 -6 -53q-3 -15 0 -33l6 6q49 87 82 156q6 12 17.5 36.5t17.5 37.5q6 12 17.5 36t17.5 37
q7 13 70 148l15 33t15 34q18 35 31 66q49 97 72 145q4 8 11 23.5t11 23.5q34 67 78 160l41 82q15 26 27 43q7 10 26 43q20 36 64 92q41 52 69 82q15 15 33 27q3 3 9.5 8t9.5 8q45 40 114 82q61 37 131 55q62 18 125 21q20 0 52 -4q3 0 10 -1t10 -1q18 -2 45 -10q2 0 2 -2
q4 0 4 -3l2 -2q0 -2 -4 -6l-4 -4q-2 -2 -4 -2q-2 -2 -6 -2q-57 -8 -119 -37q-15 -6 -33 -12q-31 -8 -65 -25l-13 -4q-103 -51 -178 -139q-56 -59 -110 -139q-36 -49 -70 -119q-2 -4 -6 -11.5t-6 -11.5q-8 -17 -24.5 -49.5t-24.5 -48.5q-5 -11 -15.5 -33.5t-15.5 -33.5
l-12 -29q-4 -8 -11.5 -24.5t-11.5 -24.5t-11 -24.5t-11 -24.5l-56 -117q-28 -57 -35 -76l-36 -78q-32 -68 -35 -74l-25 -53l-22 -45q-60 -122 -90 -172q-62 -110 -154 -205q-63 -69 -156 -104q-16 -4 -24 -4q-5 0 -13 4q-5 3 -8 8t-8 19q0 14 4 20q11 26 39 43q39 18 49 64
q4 41 2 59v20q-4 54 -4 76v279q0 86 2 129q0 66 4 188v6q0 47 2 70v84h-2q-1 0 -2 -1t-2 -1l-4 -4q-103 -138 -123 -164q-91 -123 -186 -246q-96 -126 -160 -221q-9 -13 -26.5 -38t-26.5 -38q-30 -41 -55 -78q-65 -90 -109 -180q-19 -43 -51 -65q-25 -14 -43 -17
q-30 -3 -39 27q-8 43 10 88q3 8 9.5 24.5t9.5 24.5q3 7 18 47q15 44 53 139l25 66q4 12 15.5 42.5t17.5 47.5q17 49 22 68l19 53q1 4 3 11t3 11q20 62 28 93l17 53q2 9 7 26.5t7 26.5q7 37 14 59l13 58q7 27 14 67q7 36 10 64q0 2 1 6.5t1 7.5q0 2 1 6.5t1 6.5q11 88 9 143
q0 65 -2 98q-3 70 -25 141q-15 50 -45 93q-22 28 -53 47q-20 12 -66 28q-37 8 -80 2q-96 -15 -174 -77q-68 -49 -121 -105q-49 -51 -108 -139q-49 -72 -86 -166q-2 -6 -6 -16.5t-6.5 -19t-4.5 -15.5q-1 -2 -2 -7t-2 -7q-17 -52 -20 -113q-7 -69 -4 -127q5 -44 18 -96
q20 -77 74 -140q52 -58 133 -49q160 24 240 166q31 61 39 113q8 47 8 108q3 55 -15 127q-13 62 -34 107v4l-2 2v2h2v2zM1624 1210l2 2q53 66 70 136l6 43q0 15 -14 18q-7 4 -11 0q-5 0 -8 -6q-4 -4 -6 -8q-20 -34 -33 -76q-8 -41 -8 -96q0 -9 2 -13z" />
    <glyph glyph-name="X" unicode="X" horiz-adv-x="2013" 
d="M995 1423q39 6 66 -18q45 -36 72 -92q28 -61 41 -135v-2q7 -44 4 -101q-9 -143 -119 -244q-55 -49 -129 -73q-78 -23 -166 -8q-67 15 -121 63q-72 63 -113 156q-31 69 -45 139q-6 24 -6 51l-4 33q-6 76 10 156v4q8 33 15 51l8 20q30 87 59 140q79 158 221 270
q59 44 127 70q87 33 193 36q120 0 201 -84q77 -71 116 -180q28 -80 41 -178q18 -127 9 -254q-3 -39 -9 -80l-4 -45q0 -6 -1 -17.5t-1 -17.5t-1 -18t-1 -18q4 0 8 4t4 6l5 4q19 29 26 37q54 83 131 184q38 49 80 92q135 138 291 252q84 61 186 109q107 51 221 39
q159 -18 240 -158q8 -13 16 -47q3 -6 3 -15q-3 -17 -13 -20q-12 -6 -26 2q-17 17 -25 27q-6 12 -14 36q-1 2 -2 5.5t-2 5.5q-4 13 -9 20q-16 29 -49 35q-65 10 -116 2q-153 -21 -289 -104q-210 -128 -367 -293q-165 -172 -289 -359q-6 -12 -6 -22q-2 -2 -2 -8
q-1 -17 -3 -48.5t-3 -48.5l-3 -48l-3 -48q-1 -13 -3 -38t-3 -38l-12 -159q-5 -128 -5 -150q0 -14 -1 -39t-1 -37q0 -88 23 -164q1 -4 4 -13t4 -13l8 -29q8 -38 41 -67q40 -37 94 -23q58 19 101 59q134 107 229 252q14 22 43.5 65t44.5 64q13 21 86 129q14 21 53 76l19 -6
q0 -6 -2 -10q-3 -31 -19 -64q-89 -162 -196 -301q-90 -124 -211 -227q-69 -59 -156 -84q-25 -9 -57 -12q-95 -3 -154 65q-57 60 -63 146q-14 127 -19 206q-4 56 -8 164q0 33 -2 49t-2 50q-3 3 0 10q7 31 -4 55q-6 0 -8 -2q-1 -1 -2 -3t-2 -3q0 -1 -1 -2t-1 -2
q-93 -134 -205 -252q-163 -169 -377 -303q-117 -71 -240 -107q-78 -19 -147 -22q-42 0 -72 18q-91 43 -141 133q-9 17 -12 37q-1 3 -3 8.5t-3 8.5q0 17 12 26q9 5 14 2q6 0 12 -6q25 -16 35 -45q4 -7 8 -29q15 -49 70 -55q80 -9 162 10q174 47 317 148q163 116 293 246
q89 82 182 190q87 99 142 207q12 22 16 59q0 2 1 8t1 9q14 151 17 192q7 62 4 115q0 127 -2 188q-7 67 -15 125q0 2 -1 7.5t-1 7.5q0 3 -1 8t-1 8q-3 14 -18 86q-15 89 -70 162q-60 75 -149 84q-55 7 -99 -4q-80 -21 -147 -76q-82 -76 -131 -158q-62 -90 -101 -207
q-38 -104 -38 -225q0 -134 63 -260q41 -77 125 -133q91 -52 186 -2q92 50 148 139q33 58 39 129q3 116 -49 217q-34 70 -91 127q-2 2 -2 4l-2 2v4z" />
    <glyph glyph-name="Y" unicode="Y" horiz-adv-x="1624" 
d="M1200 109q84 227 119 317q5 15 16.5 42.5t16.5 41.5q38 94 55 145q18 46 35 111q2 6 5 17.5t5 17.5l18 61q0 2 1.5 6t1.5 6q0 1 1 5t1 6q-11 0 -13 -2q-4 -4 -4 -9q-33 -52 -45 -73q-81 -150 -207 -305q-78 -93 -168 -158q-47 -32 -98 -49q-67 -15 -131 12
q-80 41 -107 125q-33 96 -12 203q12 59 29 114q2 9 7 29t7 29l31 117q9 33 55 194l31 117q7 25 29 100q4 16 13 48.5t13 49.5q2 6 5 19.5t5 19.5q12 46 21 93q1 4 3 13t3 13q11 49 16 86q12 112 -32 207q-23 42 -68 64q-62 33 -135 24q-107 -12 -201 -78
q-151 -105 -248 -256q-58 -93 -81 -190q-20 -87 -17 -158q3 -113 70 -207q64 -85 172 -67q135 21 215 133q32 46 45 108q18 78 6 156q-5 63 -39 139q-1 1 -2 4.5t-2 5.5l-6 13q46 -9 61 -43q25 -46 31 -92q15 -86 -6 -168q-26 -150 -156 -238q-64 -40 -141 -49
q-97 -9 -188 39q-62 42 -89 94q-45 74 -51 164q-6 30 -6 61q-2 17 2 49q3 66 21 130q22 92 71 161q110 158 265 260q102 64 213 84q105 16 198 -8q112 -23 191 -106q59 -62 71 -152q9 -86 -16 -174q-7 -31 -43 -170q-2 -6 -5 -18.5t-5 -18.5q-13 -52 -47 -168
q-4 -16 -13.5 -47.5t-13.5 -46.5q-22 -81 -23 -84l-24 -86q-38 -123 -53 -182q-25 -87 -35 -154q-13 -81 -4 -155q0 -47 30 -82q40 -40 91 -19q65 36 118 86q43 43 74 94q9 14 27.5 41t27.5 41q65 91 111 164q51 78 145 234q35 53 64 104q60 102 94 195q30 76 82 223
q15 48 22 78q4 12 5 14q12 39 49 51q59 18 116 -18q-11 -46 -20 -74q-9 -31 -47 -143l-45 -140q-8 -23 -23.5 -70t-23.5 -71l-21 -61q-8 -30 -35 -107l-32 -98q-23 -66 -35 -100q-4 -14 -13.5 -40t-13.5 -40q-4 -13 -13 -40t-13 -40q-62 -175 -82 -227q-3 -9 -54 -148
l-57 -139l-6 -13q-3 -9 0 -12q0 -6 10 -6q43 -3 86 -25q20 -12 45 -34q6 -6 6 -13q0 -8 -2 -12q-4 -8 -10 -8q-8 0 -12 2t-14.5 5t-14.5 5q-5 2 -15.5 5t-15.5 5q-53 17 -94 17q-11 0 -14 -8q-17 -34 -49 -97q-62 -133 -172 -243q-107 -107 -254 -170q-95 -41 -195 -62
q-120 -27 -237 -24q-51 3 -95 20q-91 43 -82 143q9 69 43 123q67 120 187 195q125 83 256 127q94 32 209 51q62 9 123 12q6 0 19.5 1t19.5 1q31 2 94 2h6q6 3 10 3zM1165 53h-20q-79 0 -158 -12q-76 -11 -162 -37q-125 -35 -233 -92q-101 -49 -180 -125q-58 -55 -99 -129
q-26 -48 -8 -100q18 -48 66 -62q82 -12 164 0q93 18 182 66q158 81 270 213q95 114 176 264q0 6 2 14z" />
    <glyph glyph-name="Z" unicode="Z" horiz-adv-x="1605" 
d="M928 1120q12 -60 -17 -108q-80 -136 -217 -209q-52 -25 -110 -41q-80 -23 -144 -23q-72 0 -149 23q-70 24 -131 76q-83 74 -86 184q0 123 61 227q105 188 291 289q103 59 217 86q177 44 352 35q74 -3 156 -19q167 -30 319 -100q14 -6 43 -19.5t43 -19.5q12 -7 29 -14
q16 -6 27 2q65 51 153 88q68 30 127 35q4 0 12.5 1t12.5 1q32 4 49 4q59 0 113 -31q63 -39 75 -108q9 -68 -30 -125q-62 -74 -152 -80q-95 -6 -192 22q-42 13 -140 43q-6 2 -16 2q-7 0 -14 -10q-9 -13 -28 -36t-28 -35q-18 -22 -48.5 -62t-37.5 -49l-139 -188
q-14 -19 -40 -56t-40 -55v-2h-2v-2q-6 -9 -6 -15q6 -6 12 -8q27 -9 56 -6q30 3 57 6q53 6 96 43l6 6q24 18 37 2q19 -19 4 -40q-9 -12 -22 -25q-42 -31 -90 -37q-55 -6 -111 -6q-29 0 -43 2q-3 0 -8 1t-8 1q-25 0 -39 2q-200 -299 -479 -536q17 -10 26 -17q6 -3 17.5 -9
t17.5 -9q110 -65 188 -117q7 -5 21.5 -14.5t21.5 -14.5q9 -6 29 -19.5t29 -19.5q152 -105 266 -170q107 -64 260 -120q105 -34 187 -50q108 -18 215 -18q40 0 77 16q12 4 52 19q15 4 21.5 -1t4.5 -20q-6 -36 -24 -63q-67 -98 -185 -98q-79 -3 -174 14q-112 20 -194 53
q-235 87 -459 244l-197 135q-102 74 -153 109q-44 33 -94 63l-37 25q-11 11 -27 2q-118 -79 -244 -115q-48 -12 -100 -18q-40 -6 -82 -9h-6q-56 0 -117 23q-99 49 -96 158q9 61 57 100q56 47 129 63q82 14 170 2q4 0 13 -1t14 -1l24 -4q117 -17 230 -65q6 -2 14 -2q8 4 12 8
l2 2q74 78 97 106q111 129 237 310q2 2 5.5 6t5.5 6q1 2 4 6t4 6q2 2 5 6.5t5 6.5q1 1 2 4t2 4l6 6q2 4 6 8q1 1 2 3t2 3q1 2 7 8q6 12 8 15h-2q-2 2 -6 2h-7q-64 0 -135 -19q-4 -2 -12 -2q-14 -3 -20 9q-6 16 4 24q7 7 16 10q85 37 178 25q22 -3 33 14q29 43 139 197
q85 116 205 246q24 29 39 41l14 14q1 2 4 5t4 5l9 8l-25 13q-18 11 -31 16q-125 65 -270 104q-44 13 -66 17q-6 1 -17 4t-17 4q-145 23 -265 23q-130 -3 -262 -58q-97 -42 -178 -102q-119 -88 -190 -221q-36 -68 -39 -133q0 -109 86 -177q56 -40 114 -57q62 -23 138 -20
q90 0 166 36q102 45 184 127q61 56 106 144l9 16q1 0 2 1t2 1zM526 211l-6 6l-4 2q-114 66 -231 92q-64 16 -123 4q-51 -10 -82 -41q-44 -44 -35 -112q10 -57 53 -82q30 -18 70 -21q52 -5 121 15q77 21 145 65q48 31 92 72zM1718 1444q2 0 4.5 -1t3.5 -1q2 -2 9 -2q3 0 8 -1
t8 -1l30 -6t36.5 -7t31.5 -6q60 -10 113 -4q44 7 70 35q29 37 2 78q-16 21 -49 28q-74 16 -134 -16q-56 -25 -120 -82q-5 -5 -5 -6z" />
    <glyph glyph-name="bracketleft" unicode="[" horiz-adv-x="606" 
d="M539 1286l409 25q-1 -2 -2 -6t-2 -5q-3 -9 -4 -10q0 -4 -4 -4q-4 -2 -12 -2q-2 -2 -9 -2l-235 -22q-253 -710 -438 -1475l227 -25h4l12 -2q3 -3 0 -10q-1 -2 -2 -6.5t-2 -7.5l-399 12q208 774 457 1540z" />
    <glyph glyph-name="backslash" unicode="\" horiz-adv-x="716" 
d="M678 -182q-224 749 -490 1513q48 0 64 2q49 3 70 -2q24 -10 32 -45q198 -735 482 -1524q-52 0 -70 -2q-43 -6 -59 4q-16 8 -29 54z" />
    <glyph glyph-name="bracketright" unicode="]" horiz-adv-x="495" 
d="M37 -242l-410 -24q1 2 2 5.5t2 4.5q3 9 4 10q0 4 5 4q4 2 12 2q2 2 8 2l236 23q253 713 438 1475l-228 24h-4l-12 2q-3 3 0 10q1 2 2 7t2 8l400 -13q-208 -774 -457 -1540z" />
    <glyph glyph-name="asciicircum" unicode="^" horiz-adv-x="903" 
d="M743 1141q-221 -161 -469 -191v6q0 11 2 13q1 2 13 10q277 113 495 375q41 -106 107 -209q67 -105 172 -172q-2 -2 -5.5 -4.5t-4.5 -3.5q-1 -2 -6 -7q-5 -4 -9 0q-5 0 -14 3q-76 23 -154 75q-85 54 -127 105z" />
    <glyph glyph-name="grave" unicode="`" horiz-adv-x="344" 
d="M551 1376q-11 -104 -2 -231q12 -125 69 -217q-16 0 -22 -2q-19 0 -27 2q-9 3 -24 18q-58 64 -84 141q-24 72 -41 160q-6 42 20 62q26 23 64 41q35 18 47 26z" />
    <glyph glyph-name="a" unicode="a" horiz-adv-x="671" 
d="M178 141q-2 -3 -7 -10t-7 -10q-2 -4 -7 -11.5t-7 -11.5q-26 -38 -76 -69q-39 -22 -80 -19q-92 12 -141 101q-22 50 -27 88q-4 50 -2 77q2 28 14 82q8 20 15 50q14 46 47 110q36 70 69 113q64 87 154 147q52 29 90 41q58 16 109 10q75 -6 104 -71q9 -18 12 -37
q6 -21 -16 -27h-8q-10 -3 -19 0q-15 0 -39 4q-6 3 -10 11l-2 2l-2 4q0 1 -1 2t-1 2q-3 13 -14 18q-27 13 -54 8q-66 -15 -114 -63q-46 -41 -90 -113q-37 -60 -66 -131q-19 -55 -27 -84q-9 -25 -16 -67q-12 -55 -12 -113q0 -40 16 -72q24 -46 78 -30q47 17 70 47q38 35 67 82
q6 8 10 24l13 35q2 10 10 35l12 41l21 61q4 8 4 15q11 24 18 57q5 17 14.5 49t10.5 35q0 4 2 6l4 4q22 19 49 31q18 9 41 6q36 -3 45 -43q4 -33 -4 -53q-23 -72 -47 -123l-16 -37q-39 -95 -46 -119q-9 -26 -12 -59q0 -22 8 -35q6 -15 23 -18q16 -6 31 0q23 11 39 34l4 5
q34 53 55 96q40 73 70 149l20 54q5 15 16.5 42.5t16.5 41.5v2l4 6q4 0 8 -2q6 -1 25 -11q6 -3 6 -6q3 -3 0 -10q-10 -20 -21 -53q-19 -47 -28 -78q-9 -19 -11 -27q-32 -82 -67 -153q-28 -63 -70 -117q-30 -40 -71 -63q-43 -24 -89 -21q-58 3 -83 66q-9 21 -9 45q-2 8 -6 28z
" />
    <glyph glyph-name="b" unicode="b" horiz-adv-x="598" 
d="M141 768q29 19 39 25q41 27 86 36q44 15 88 -6q37 -15 56 -51q17 -32 26 -74q11 -55 8 -114q-3 -52 -18 -99q-30 -109 -88 -202q-23 -42 -66 -99q-2 -2 -2 -4l-6 -6q19 3 31 12q1 0 3 1t3 1q65 38 107 97q58 79 86 170l30 80q3 9 13 6l8 -4q2 -1 6 -3.5t6 -3.5
q4 -2 10 -8q0 -6 -2 -12l-18 -55l-21 -45q-6 -15 -26 -60q-46 -90 -109 -153q-55 -55 -131 -76q-16 -4 -29 -4q-8 0 -10 -2q-2 0 -6 -4q-66 -60 -145 -84q-35 -12 -70 -15q-60 0 -98 47q-24 30 -39 70q-28 73 -25 150q2 21 15 77q15 63 47 142q2 7 7.5 19.5t6.5 14.5
q13 37 47 115q15 37 39 86q9 18 29 64q2 6 7 17t7 17q2 5 7 16.5t7 16.5t7.5 16.5t7.5 16.5q8 23 26.5 65t22.5 52q25 63 61 133q55 111 101 190q57 93 77 119q35 50 86 62q98 18 136 -68q13 -39 4 -88l-19 -68q-26 -72 -63 -129q-80 -126 -211 -235q-43 -38 -90 -72
q-4 -4 -13.5 -11t-13.5 -11q-3 -2 -14 -13q-8 -12 -10 -18q-4 -14 -9 -25l-4 -12h2zM115 176q1 1 2 3t2 3q2 2 2 4q41 46 88 121q48 80 72 139q16 39 34 107q16 74 13 139q-3 42 -23 70q-21 30 -57 18q-16 -4 -27 -12q-42 -25 -71 -61q-61 -67 -109 -164q-4 -8 -9 -17.5
t-11 -21.5t-9 -19q-3 -6 -9 -19.5t-9 -19.5q-20 -36 -17 -79q0 -4 5 -39q9 -54 49 -97q36 -36 84 -55zM199 918h2q2 0 4 2q2 0 2 2q28 24 43 39q102 91 172 202q50 75 72 152q9 27 20 78q3 8 0 18q0 7 -6 16q-3 5 -10 9q-6 3 -13 0q-9 -6 -16 -13q-22 -19 -43 -51
q-33 -47 -76 -127q-30 -54 -90 -184q-17 -34 -35 -76q-3 -7 -9 -21.5t-9 -21.5zM-57 313q-4 -12 -6 -16l-13 -55q-14 -56 4 -113q3 -8 17 -31q8 -11 26 -18q20 -4 33 4q48 25 70 53h2v4q2 0 2 2q-109 53 -135 170z" />
    <glyph glyph-name="c" unicode="c" horiz-adv-x="544" 
d="M432 475q7 -6 18.5 -15t14.5 -11q1 -1 3 -3.5t3 -3.5q0 -6 -2 -8q-32 -74 -82 -153q-43 -69 -88 -119q-63 -72 -147 -115q-44 -23 -89 -31l-40 -8q-85 -3 -146 55q-46 43 -61 109q-16 64 -11 117q10 59 23 106q30 105 92 197q48 78 121 141q72 62 156 88q59 14 125 8
q73 -9 100 -79q16 -40 8 -80q-7 -24 -24 -41q-24 -17 -50 -17q-3 0 -8 1t-8 1t-8 1t-8 1q-26 6 -23 33q3 20 16 43l11 21q2 4 2 10q0 5 -6 8q-20 20 -48 17q-23 -2 -67 -21q-52 -28 -88 -86q-47 -67 -84 -152q-33 -81 -49 -149q-18 -68 -21 -135q-3 -42 13 -88q9 -27 32 -41
q25 -11 60 -4q56 12 100 47q71 47 127 112q17 19 35 52l6 10q45 72 72 135q10 25 14 33q0 5 6 14z" />
    <glyph glyph-name="d" unicode="d" horiz-adv-x="675" 
d="M168 127q-9 -15 -18 -27q-30 -37 -54 -59q-79 -82 -190 -14q-73 49 -88 139q-21 97 10 194q57 213 211 361q86 83 199 104q35 5 79 2q57 -3 91 -55q6 15 20 57q16 42 45.5 126t44.5 126q71 201 88 250q11 33 27 64l8 20q13 28 39 43q49 30 104 21q14 0 17 -6q4 -4 -2 -17
q-72 -191 -162 -436q-75 -198 -121 -328q-21 -55 -62 -164.5t-61 -165.5q-5 -15 -15.5 -44t-15.5 -44t-15 -44t-15 -44q-6 -16 -10 -53q0 -14 6 -20q7 -7 24 -4q28 8 47 34l21 35q29 47 47 84q36 76 86 199q4 12 13.5 32.5t13.5 32.5q6 17 20 11l16 -9q12 -6 9 -18
q-4 -12 -13.5 -35.5t-13.5 -34.5q-54 -159 -135 -309q-31 -54 -76 -96q-57 -48 -131 -39q-61 9 -76 67q-4 13 -8 43zM-63 193q0 -38 2 -54q3 -23 16 -49q17 -32 55 -29q18 5 23 7q11 3 22 10q71 44 107 115q103 219 168 364q16 43 16 82q0 30 -8 49q-8 21 -31 41
q-16 13 -39 10q-41 -9 -75 -28q-60 -41 -101 -97q-134 -189 -155 -421z" />
    <glyph glyph-name="e" unicode="e" horiz-adv-x="552" 
d="M432 473q22 -13 29 -20q2 -2 7 -5.5t7 -5.5q-15 -40 -49 -102q-37 -68 -80 -123q-58 -79 -141 -141q-35 -25 -66 -37l-16 -8q-42 -22 -74 -29q-71 -16 -131 18q-80 47 -104 134q-19 64 -13 122q4 48 27 125q22 64 51 121q56 113 156 203q70 57 141 82q58 19 113 16
q37 -4 53 -10q45 -19 51 -65q6 -40 0 -80q-12 -68 -59 -121q-47 -58 -125 -96q-58 -26 -107 -37q-51 -11 -86 -13q-9 0 -12 -8q-5 -20 -8 -26q-12 -47 -21 -93q-10 -65 -4 -122q6 -29 19 -54q21 -30 57 -30q41 0 72 16q83 45 151 113q40 37 68 88q23 34 72 131q2 4 5 11
t5 11q1 4 4 11.5t4 11.5q0 1 1 3t1 3t1 3t1 3zM344 709v10q-3 43 -45 43q-34 0 -59 -14q-44 -20 -80 -62q-85 -102 -129 -213q-3 -7 0 -10q4 -4 8 -4h4q20 4 31 4q48 6 88 24q112 50 164 154q18 30 18 68z" />
    <glyph glyph-name="f" unicode="f" horiz-adv-x="376" 
d="M-319 483l-62 -159l-6 -19l-4 -14q-1 -3 -3 -8.5t-3 -8.5t-3 -8t-3 -8h2l-5 -16q3 -5 9 -13q14 -21 18 -26q1 -1 2 -3t2 -3q1 -2 6 -17q25 -48 33 -96q0 -2 2 -4v-4l2 -2q0 -1 1 -2t1 -2q17 6 29 18q1 1 3 2t3 2q46 33 96 94q54 66 93 148q40 76 65 164l6 12l4 12
q33 -19 43 -26q-7 -23 -16 -45l-16 -37q-18 -46 -39 -90q-51 -118 -121 -215q-36 -53 -92 -91q-16 -13 -43 -20h-2q-2 -2 -5 -2v-51q2 -21 -2 -62q-3 -48 -12 -102q-3 -33 -12 -68q-9 -48 -35 -123q-7 -20 -35 -88q-41 -92 -110 -164q-25 -29 -72 -53q-49 -24 -102 -18
q-24 0 -43 8q-36 16 -48 49q-6 13 -10 43q0 59 12 121q14 66 37 143q6 16 17.5 48.5t17.5 48.5t17.5 48t17.5 48q5 10 12 30t10 27q4 9 11.5 28t11.5 28q14 35 27 61l24 61q4 8 4 11q0 2 -4 10q-27 56 -18 115q12 66 69 86q1 0 3.5 1t3.5 1q6 0 8 2l49 135q5 15 15.5 44
t15.5 44t15 44t15 44l25 70q4 11 12.5 33t12.5 34q7 20 21.5 59t21.5 58q2 7 7 20.5t7 20.5q18 53 51 139q37 109 64 176q2 7 55 150q6 16 29 63q14 25 43 41q46 22 94 17h4q1 0 3 -1t3 -1q10 -3 10 -7q0 -8 -2 -14q-32 -82 -35 -92q-6 -16 -18.5 -46.5t-18.5 -45.5
t-17 -45.5t-17 -46.5q-6 -15 -17.5 -46t-17.5 -47q-15 -35 -27 -69l-16 -45q-6 -16 -17.5 -44.5t-15.5 -39.5l-33 -86q-4 -12 -13 -35.5t-13 -36.5q-4 -12 -13.5 -36t-13.5 -36q-30 -75 -65 -174zM-369 -14v4l-2 2v2q-20 4 -30 4q-5 1 -16.5 3t-16.5 3q-22 4 -60 27
q-6 -18 -19 -53.5t-19 -53.5q-4 -10 -12.5 -31.5t-12.5 -31.5q-1 -3 -3 -9.5t-3 -9.5q-17 -43 -23 -65q-15 -45 -18 -53q-3 -9 -9.5 -28t-9.5 -28q-10 -30 -16 -57l-4 -12q-1 -3 -3 -9.5t-3 -9.5q-22 -81 -23 -84l-8 -45q0 -3 -6 -45q-3 -26 4 -57q9 -34 43 -25l12 6
q48 33 76 74q71 93 107 197q21 62 28 86q16 60 27 110q1 7 4 21.5t4 21.5q0 1 6 43q6 53 6 103zM-395 41q6 -2 22 -2q0 82 -49 143h-2l-2 -2l-20 -45q-3 -8 -10.5 -23.5t-10.5 -23.5q-3 -11 2 -16q28 -28 70 -31z" />
    <glyph glyph-name="g" unicode="g" horiz-adv-x="698" 
d="M29 133l-6 -6q-1 -2 -7 -8q-43 -50 -77 -70q-49 -32 -103 -20q-66 18 -106 75q-29 45 -35 101q-4 36 -4 53q3 54 18 104q18 54 35 93q42 91 113 178q58 71 127 117q61 41 118 57q58 18 119 12q90 -6 117 -96l6 -25q3 -18 -18 -24q-12 -3 -27 0q-26 4 -37 8q-14 3 -14 16
q-4 16 -12 21q-7 7 -21 14q-27 9 -53 0q-1 0 -4 -1t-4 -1q-58 -16 -99 -51q-72 -64 -129 -156q-47 -75 -78 -164q-21 -52 -30 -108q-8 -33 -8 -76q0 -33 16 -65q21 -30 57 -27q43 9 76 35q41 33 82 84q8 12 12 20l2 4q2 4 5.5 12.5t5.5 12.5q12 35 34 88q17 40 19 45
q15 33 22 55q11 21 21 49q12 36 20 54q0 4 2 6l4 4q49 36 107 33q21 0 35 -17q5 -5 2 -14q-6 -18 -18.5 -55t-18.5 -56q-2 -5 -5 -14t-5 -14l-74 -215q-8 -19 -10 -31l-6 -18q19 6 32 14l9 4q32 20 75 63q53 59 88 117q39 63 62 115l14 29q0 1 1 2t1 2t1 2t1 2q0 2 2 4
q0 2 2 2q20 -3 31 -14q11 -7 4 -17l-14 -28q-2 -5 -7.5 -15.5t-7.5 -15.5q-2 -4 -5 -11.5t-5 -11.5q-17 -40 -20 -45q-54 -99 -119 -170q-71 -77 -156 -119l-2 -2q-3 -2 -4 -4q-1 -1 -2 -3t-2 -3q-5 -14 -15.5 -40.5t-15.5 -39.5q-2 -6 -6 -17.5t-6 -17.5q-54 -141 -84 -206
q-53 -116 -106 -195q-42 -59 -109 -137q-26 -34 -51 -51q-46 -31 -84 -43q-77 -21 -115 53q-25 57 -16 117q13 89 47 153q56 121 156 221q66 69 129 121q35 28 63 45q41 24 53 68l9 20l6 21l2 4v6zM-8 -25l-4 -2q-1 -1 -3 -2t-3 -2q-105 -91 -191 -196q-52 -68 -88 -138
q-29 -59 -45 -100q-3 -7 -11.5 -31.5t-13.5 -38.5q-11 -46 2 -96q5 -19 19 -26q15 -6 31 4q52 28 82 75l24 41q51 86 82 152q30 64 49 121q2 6 7.5 18.5t7.5 18.5q7 25 14 41l12 41l37 110v6q-2 0 -4 2q-1 0 -2 1t-2 1z" />
    <glyph glyph-name="h" unicode="h" horiz-adv-x="632" 
d="M-41 549l12 20q3 9 11 21q54 98 122 174q33 42 82 67q42 23 78 21q33 -3 53 -33q27 -41 27 -90q0 -57 -14 -106q-19 -63 -49 -142q-17 -33 -25 -61q-2 -5 -6 -15.5t-6 -15.5t-10 -24.5t-13 -28.5q-4 -9 -11 -27.5t-11 -27.5q0 -1 -1 -3.5t-1 -3.5q-23 -47 -29 -106
q-4 -19 2 -33q6 -17 23 -24q14 -7 38 0q23 12 37 39q36 50 51 81q3 3 7 11q44 90 84 190l20 49q3 8 9.5 24.5t9.5 24.5q5 10 6 11h10h2l2 -2q15 -5 23 -13q2 -6 -5 -26q-2 -5 -6 -15.5t-6 -15.5q-19 -56 -45 -119q-40 -105 -80 -182q-29 -57 -65 -98q-38 -47 -90 -64
q-52 -19 -101 2q-23 12 -37 39q-21 47 -26 70q-9 46 -4 88q7 38 12 65q6 29 33 107q3 8 10 23.5t10 23.5l33 78q15 37 39 86l37 86q6 14 10 47v8q0 4 -2 8q-6 19 -21 19q-23 3 -45 -15q-33 -25 -61 -65q-44 -61 -92 -156l-80 -153q-5 -11 -15.5 -33t-15.5 -33
q-5 -12 -15.5 -32.5t-15.5 -32.5l-67 -148q-30 -57 -35 -70q-3 -9 -14 -12q-32 -14 -68 -14q-24 0 -37 16q-10 13 -4 39q17 52 53 150q17 50 45 118q11 30 33 84.5t29 71.5q3 7 8 21.5t8 21.5t8.5 21.5t8.5 21.5q6 15 17 44t17 44q5 15 16.5 44t16.5 44q7 21 47 123
q2 7 7.5 20.5t7.5 20.5t7 20.5t7 20.5q3 8 9 23.5t9 23.5q15 46 43 111q11 29 60 139q52 117 117 225q29 53 79 76q46 19 86 4q44 -15 64 -57q19 -43 10 -94q-9 -46 -14 -62q-13 -52 -43 -113q-61 -116 -162 -225q-57 -60 -143 -135q-8 -4 -11 -10q-28 -74 -40 -111
q-32 -78 -46 -117q-7 -18 -10 -32q-2 -6 -6 -17.5t-6 -17.5h4zM74 926h2v-2v0q1 1 3 2t3 2l4 4q3 4 10 11t10 11l21 21q102 102 170 235q45 86 61 185q4 28 2 45q-3 14 -14 20q-10 3 -22 -6q-21 -21 -29 -33q-35 -50 -62 -106q-44 -87 -98 -217q-28 -73 -35 -94
q-14 -39 -26 -78z" />
    <glyph glyph-name="i" unicode="i" horiz-adv-x="264" 
d="M-344 117q0 38 10 65q17 56 58 137l24 50q36 70 47 94q25 48 80 164q26 53 41 112q14 41 14 90q0 5 2 7h7q21 4 38 -2q23 -6 41 -21q31 -28 25 -68q-3 -42 -23 -98q-32 -92 -65 -151q-1 -2 -3 -7.5t-3 -7.5l-86 -172q-17 -35 -29 -76q-8 -31 -10 -49q-7 -26 4 -45
q6 -13 20 -18q12 -3 27 0q21 6 33 24q31 40 49 74q34 57 76 158l28 72q2 4 5.5 12t5.5 12v4q2 0 2 4q4 8 4 11q3 6 8 19t8 19q3 9 6 15t9 6q21 -3 34 -14q5 -5 2 -15q-1 -2 -6.5 -17.5t-7.5 -23.5q-7 -18 -21.5 -54.5t-21.5 -55.5q-21 -55 -45 -111q-35 -82 -72 -137
q-39 -56 -77 -84q-33 -23 -70 -29q-37 -5 -76 4q-45 7 -70 39q-22 39 -22 64zM86 1104q33 0 53 -23q21 -21 21 -51q0 -28 -23 -51t-51 -23t-51 23t-23 51q0 30 21 51q20 23 53 23z" />
    <glyph glyph-name="j" unicode="j" horiz-adv-x="288" 
d="M-240 541q1 0 4.5 -1t4.5 -1q9 -2 22 -11q8 -4 8 -8q0 -8 -2 -12l-16 -49q-1 -3 -19 -51q-23 -55 -45 -97q-38 -72 -77 -121q-58 -74 -138 -120q-5 -2 -8 -9q-4 -4 -4 -10q-4 -17 -14 -47t-13 -43q-4 -15 -13 -46t-13 -46q-3 -10 -9.5 -29.5t-9.5 -29.5l-18 -60
q-39 -112 -78 -186q-60 -117 -135 -217q-29 -36 -76 -62q-26 -17 -51 -22q-69 -9 -102 47q-24 46 -27 100q0 76 25 146q27 87 77 168q52 79 103 135q44 49 90 96q51 51 100 86q5 3 8 8q4 4 4 10q6 30 35 142q35 112 41 135q26 81 29 92q4 12 12.5 38t12.5 38q2 6 6 17.5
t6 17.5q12 37 26 88q3 11 19 58t24 73q14 42 17 57q1 1 2 3q1 3 2 3q4 4 8 4q23 3 55 -10q29 -13 41 -37q9 -21 9 -43q0 -52 -25 -104q-17 -44 -20 -51l-21 -54q-16 -40 -27 -77l-24 -78q-4 -13 -12.5 -39.5t-12.5 -40.5q-8 -23 -26 -84q-1 -4 -3.5 -12.5t-3.5 -12.5
q0 -2 -1 -5.5t-1 -4.5l-4 -12q15 3 27 12q2 2 4 2q49 37 80 78q48 56 86 137q4 8 10 21t10.5 24t8.5 21q15 40 18 47q2 4 6 16q0 1 3.5 9.5t4.5 13.5zM-1001 -600q0 -41 10 -70q14 -36 51 -18q14 7 25 18q1 1 4 3t4 3q29 29 39 54q23 47 26 51q4 8 12.5 25.5t12.5 25.5
q41 88 63 162q38 140 47 178q2 7 6.5 21.5t6.5 21.5q0 2 1 5t1 5q1 2 2 7.5t2 7.5q2 9 6 27.5t6 27.5q3 8 -6 8h-4q0 -2 -4 -2q0 -2 -2 -2l-21 -20q-62 -64 -145 -177q-46 -69 -74 -131q-35 -72 -59 -172q0 -2 -2 -4q-8 -24 -8 -55zM-240 1018q0 -31 -20 -51
q-20 -23 -53 -23q-34 0 -54 23t-20 51q0 33 20 53q21 21 54 21q32 0 53 -21q20 -20 20 -53z" />
    <glyph glyph-name="k" unicode="k" horiz-adv-x="638" 
d="M18 713q10 10 11 12l8 8q43 52 98 86q56 39 133 39q26 0 66 -4q54 -9 82 -53q16 -22 20 -58q6 -97 -51 -172q-57 -72 -131 -125q-63 -45 -148 -86q-4 -2 -10 -8v-10q4 -60 8 -92q3 -60 29 -127q10 -24 29 -35q32 -19 63 2q36 26 58 68l12 24q47 81 70 135q26 58 84 203v2
q2 2 2 6q3 7 8 13q6 0 12 -2l2 -2h2q18 -7 21 -13q2 -7 -4 -22q-3 -8 -9.5 -24.5t-9.5 -24.5q-6 -18 -29 -76q-58 -144 -69 -168q-38 -81 -86 -137q-25 -37 -62 -60q-39 -22 -77 -14q-29 8 -62 33q-14 11 -20 22q-25 50 -41 107q-14 92 -15 123v32q0 9 -4 13q-2 2 -10 2h-6
q-13 0 -17 4t-4 14q-3 52 37 76l17 8q2 1 7 3t7 3q106 55 176 115q49 37 78 88q24 37 12 76q-7 25 -20 35q-13 13 -39 16t-51 -6h-5q-2 -2 -4 -2q-51 -15 -77 -55q-38 -45 -82 -121q-24 -43 -95 -178q-30 -62 -57 -123l-29 -62q-8 -17 -25.5 -51.5t-25.5 -52.5
q-5 -12 -15 -34t-11 -24q-2 -3 -5.5 -10t-5.5 -10t-5 -10.5t-5 -10.5q-4 -8 -6 -10t-10 -6q-24 -9 -51 -12q-21 -3 -39 6q-14 7 -19 20q-3 12 0 25q39 120 74 207q7 21 14 35q15 45 49 127q15 42 39 98l37 98l37 94l8 25q24 59 45 117q2 7 7.5 20.5t7.5 20.5q2 6 7 19.5
t7 19.5q4 12 29 75l16 45q2 6 7 17.5t7 17.5q17 41 29 70q50 115 70 156q44 86 80 147q22 45 61 74q50 33 108 18q44 -11 66 -57q18 -37 12 -80q-12 -116 -73 -217q-59 -107 -152 -203q-69 -72 -135 -127q-14 -14 -17 -20q-17 -46 -45 -119v-6zM78 924q6 4 14 12l10 10
q13 10 23 23q80 87 131 164q63 93 92 196q15 53 17 90q0 13 -3 25q-9 26 -34 12q-1 0 -2 -1t-2 -1l-5 -4q-2 -2 -5 -6t-5 -6q-12 -14 -26 -39q-39 -59 -70 -129q-18 -37 -78 -183q-33 -81 -55 -151q0 -6 -2 -12z" />
    <glyph glyph-name="l" unicode="l" horiz-adv-x="358" 
d="M283 541q12 0 16 -2q20 -7 23 -17q0 -10 -5 -20q-58 -162 -116 -289q-42 -89 -90 -145q-31 -45 -84 -60q-49 -15 -99 6q-58 28 -84 84q-14 31 -14 60v2q-3 89 16 162q6 23 58 196q3 9 9 27.5t9 27.5q46 148 82 238q16 36 23 57q2 4 5 12.5t5 12.5q40 107 74 178
q68 158 122 270q41 84 80 138q34 48 95 61q38 6 69 -10q36 -19 47 -53q17 -51 11 -109q-14 -92 -58 -188q-17 -35 -53 -97q-121 -193 -281 -370l-12 -13q-12 -16 -20 -22q-28 -22 -37 -57q-72 -207 -76 -218l-21 -57q-27 -83 -24 -172q3 -38 16 -63q12 -20 35 -27
q22 -5 45 8q33 21 57 64q75 132 113 231q3 8 16.5 39t20.5 49q19 49 27 66zM125 778l4 -4q4 4 6 8q0 2 4 6q134 162 248 351q1 1 2 3t2 3q52 82 80 176q15 49 12 98q0 25 -22 31q-15 4 -23 2q-10 0 -20 -10q-21 -24 -39 -51q-43 -66 -82 -160q-37 -86 -57 -137l-13 -39
q-10 -32 -22 -60q-46 -102 -80 -204v-13z" />
    <glyph glyph-name="m" unicode="m" horiz-adv-x="987" 
d="M-98 823q2 0 4 2q4 2 12 2q36 0 72 -22q36 -26 30 -72q-2 -25 -10 -71q-1 -4 -3 -11.5t-3 -11.5q-4 -25 -20 -70v-6l8 12q1 1 6 11q40 75 86 135q43 58 98 98q32 25 70 31q62 15 90 -45q21 -43 18 -90q-3 -44 -16 -99q-7 -19 -10 -34v-4l8 12l6 12q50 85 98 143
q37 46 86 80q40 25 76 27q49 3 72 -39q31 -54 22 -117q-4 -16 -4 -26l-6 -29q-11 -42 -20 -68l-13 -36q-5 -10 -14 -37q-6 -20 -29 -72q-3 -7 -8 -21.5t-8 -21.5q-15 -40 -18 -47l-21 -49q-26 -62 -33 -92q-4 -33 -2 -50q3 -27 23 -34q21 -9 39 0q20 9 33 28l4 4
q32 46 55 91q37 70 76 167q4 9 11 27t11 27l21 53l4 12q1 2 3 7.5t3 7.5v2l2 2h4q17 0 33 -13q5 -5 2 -12q-18 -52 -39 -102l-25 -68q-20 -54 -55 -129q-21 -49 -51 -96q-25 -40 -68 -80q-38 -33 -82 -39q-32 -6 -65 2q-32 13 -47 43q-20 35 -29 80q-7 29 -4 72q3 24 21 104
q9 34 45 125q38 81 53 119q4 8 11 25.5t11 25.5t11.5 25.5t11.5 25.5q0 1 1 3.5t1 4.5q15 27 18 60v12q0 32 -32 29q-20 -3 -39 -19q-36 -33 -56 -61q-43 -60 -69 -111q-41 -72 -66 -127l-16 -32l-60 -123q-27 -55 -51 -111q-2 -4 -15.5 -30.5t-19.5 -41.5q-2 -4 -5 -11
t-5 -11l-8 -17q-3 -9 -13 -25.5t-12 -21.5q0 -2 -2 -2q0 -2 -2 -2l-2 -2q-15 -7 -28 -10q-21 -9 -45 -6q-23 0 -39 22q-6 18 0 35q11 33 14 39l12 39l17 41l6 12q2 5 5 14.5t5 14.5l16 41q2 6 7 16q1 3 4 9.5t4 9.5q4 12 6 16q1 3 3 9.5t3 9.5q3 8 8 16l6 18q4 11 9 19l6 18
q3 8 8 23.5t8 23.5l16 45q4 10 12.5 32t12.5 32q7 22 23 63q17 49 32 88q4 20 4 33q0 21 -24 27q-26 0 -41 -15q-33 -23 -55 -55q-38 -48 -82 -127q-40 -71 -86 -168q-4 -7 -11.5 -22.5t-11.5 -22.5q-3 -7 -10 -22.5t-10 -22.5q-19 -38 -23 -45q0 -1 -1 -3t-1 -3
q-7 -16 -20.5 -45t-18.5 -39l-41 -86l-16 -33q-3 -6 -8.5 -17.5t-8.5 -17.5l-4 -4q-4 -4 -6 -4q-32 -14 -71 -14q-16 0 -29 10q-19 19 -10 43q7 25 14 41l12 41l17 41l24 66q3 7 8.5 21.5t8.5 21.5q1 3 6.5 17.5t7.5 22.5l29 70q4 12 13 34.5t13 33.5q1 3 19 51q5 10 14 37
q3 7 9 21.5t9 21.5q3 10 17 43q5 14 14 49q2 8 6 21.5t6.5 24t4.5 19.5q8 33 8 70v8z" />
    <glyph glyph-name="n" unicode="n" horiz-adv-x="628" 
d="M459 541q22 0 37 -15q4 -4 4 -6q0 -4 -2 -6q-3 -9 -10.5 -27.5t-10.5 -27.5t-10 -28t-10 -28l-21 -49q-11 -31 -47 -114q-29 -69 -67 -127q-25 -43 -72 -78q-37 -25 -74 -31q-29 -3 -53 2q-39 9 -55 45q-22 43 -27 72q-10 49 -2 88v2q4 37 10 55q2 8 6 24.5t6 24.5l7 21
q7 24 22 61q1 2 6 17q6 15 15 30l24 60q3 7 9.5 20.5t9.5 20.5q30 62 41 100l24 68q0 2 1 5.5t1 4.5v12q0 19 -22 19q-16 3 -37 -11q-29 -16 -47 -43q-45 -54 -74 -108q-32 -52 -96 -178q-27 -60 -66 -137q-4 -9 -12 -28t-12 -28q-15 -30 -27 -57q-3 -6 -9 -19.5t-9 -19.5
t-9.5 -19.5t-9.5 -19.5l-16 -33q-3 -6 -9.5 -17.5t-9.5 -17.5q0 -2 -4 -6q0 -1 -3 -2q-2 -1 -3 -2q-15 -5 -53 -14q-19 -3 -37 6q-12 6 -18 18t-3 27q3 10 9 23q1 4 3 11t3 11q2 5 6 15.5t6 15.5q3 11 10 29q4 10 12.5 31.5t12.5 31.5q11 36 22 64l21 53q3 8 10 25.5
t10 25.5q4 9 11.5 28.5t11.5 28.5t11 29t11 29q15 42 39 98q17 46 35 111l6 24l4 25v6q4 33 9 57q2 2 4 2q2 2 6 2q51 3 82 -28q30 -27 24 -70q0 -2 -1 -7t-1 -7q0 -3 -1 -8.5t-1 -8.5q-11 -59 -30 -119v-2q-3 -3 -3 -6v-6q7 14 13 23q47 83 88 133q42 56 84 90q32 29 69 37
q28 11 66 -2q26 -16 37 -41q21 -43 18 -88q-4 -20 -4 -31q-2 -21 -14 -68q-2 -6 -6 -19.5t-6 -19.5q-11 -25 -15 -40q-7 -23 -28 -76q-3 -8 -9.5 -24.5t-9.5 -24.5l-20 -50q-38 -89 -41 -98q-13 -39 -17 -57l-4 -12q-6 -22 -2 -50q6 -22 25 -28q19 -10 35 0q24 12 36 30
q45 67 52 82q37 67 79 176l50 123l4 9q0 1 1 3t1 3z" />
    <glyph glyph-name="o" unicode="o" horiz-adv-x="618" 
d="M305 176q21 0 39 12q46 23 88 76q38 44 62 94q29 60 38 86q5 18 15 41q5 15 6 17q1 1 2 3t2 3l6 18q1 2 6 17q5 0 17 -4q1 0 4 -1t4 -1q6 -6 12 -9q5 -5 2 -12l-12 -33l-16 -49q-42 -96 -78 -151q-28 -46 -70 -88q-44 -41 -90 -62q-28 -12 -45 -14q-2 0 -7 -1t-7 -1
q-3 0 -8.5 -1t-8.5 -1q-4 0 -6 -2q-2 0 -4 -2q-41 -37 -78 -58q-40 -19 -74 -30q-14 -4 -41 -13h-43q-33 3 -63 29q-20 14 -33 37q-26 44 -37 86q-4 9 -8 35q0 3 -1 9.5t-1 10.5q-1 3 -2 9.5t-2 9.5q0 37 2 53q0 16 2 26l6 50q6 30 15 57q5 22 22 70q8 20 12 32
q30 68 80 127q6 8 23 25q6 6 16 6h15q4 -2 12 -2h6q2 0 6 4q22 25 47 47l31 31q4 4 16 12q39 27 72 43q35 17 76 23q71 6 112 -56q18 -27 27 -57q9 -35 12 -68q4 -49 2 -73q-4 -34 -8 -49q-8 -40 -12 -58q-7 -17 -10 -33l-13 -32l-24 -58q-18 -41 -49 -90q-21 -37 -62 -88z
M178 215q0 1 1 2t1 2l2 2q18 21 33 45q3 4 10.5 13.5t10.5 13.5q4 5 24 35q30 51 43 82q29 61 43 116q11 36 16 66q0 4 1.5 11.5t1.5 10.5q4 28 4 43q0 22 -4 62q-7 30 -23 49q-21 27 -53 18q-21 -7 -35 -18q-44 -28 -80 -74q-38 -44 -63 -90q-9 -9 -9 -22q0 -3 -1 -9t-1 -8
q-1 -3 -2 -9t-2 -9q0 -3 -1 -9.5t-1 -9.5l-4 -20v-2q-4 -48 -2 -70q0 -21 4 -53q3 -28 12 -55q11 -38 35 -72q18 -25 39 -41zM8 391l-4 -4l-12 -33q-9 -21 -15 -45q-10 -30 -20 -73q0 -3 -1 -10t-1 -11q0 -3 -1 -9t-1 -9q0 -15 4 -43q4 -25 14 -43q10 -27 37 -33q14 -7 27 0
q13 5 31 16q28 18 53 47q7 13 22 27q-121 78 -133 223z" />
    <glyph glyph-name="p" unicode="p" horiz-adv-x="616" 
d="M-403 848q57 12 98 -29q43 -37 31 -98q4 4 6 4l75 76q28 31 66 43q23 8 53 4q96 -15 144 -103q41 -81 32 -167q-3 -73 -24 -140q-45 -154 -144 -274q-59 -75 -143 -123q-53 -31 -125 -41h-16q-14 -2 -43 2q-61 15 -88 68q0 1 -1 2t-1 2t-1 2t-1 2q0 2 -2 4q0 4 -2 6
l-3 -4h-2v-2l-20 -53q-4 -9 -11.5 -28t-11.5 -28q-6 -16 -19 -47.5t-19 -48.5q-7 -17 -20.5 -48.5t-20.5 -47.5q-2 -6 -7.5 -18.5t-7.5 -18.5q-6 -20 -28 -74q-29 -73 -84 -202q-1 -2 -3.5 -6.5t-3.5 -6.5q-7 -10 -10 -20q-18 -34 -55 -49q-45 -19 -92 -13l-4 2h-4
q-8 4 -11 7q0 8 2 12l17 41l12 30l25 54q10 28 22 51q5 11 27 63l24 62q17 33 27 63l20 45q6 15 17.5 42t17.5 42q6 14 17.5 41t17.5 41q29 67 51 125q6 15 19.5 44.5t19.5 43.5q20 50 27 64q3 8 28.5 73t40.5 99q18 49 25 82l8 28q17 73 27 127q9 34 12 66q2 4 2 10
q0 2 1 5t1 5q3 15 8 60l4 24q0 3 1.5 11t1.5 12zM-27 649q0 39 -12 88q-21 66 -92 39q-31 -11 -57 -43q-46 -46 -66 -90q-15 -40 -18 -47q-1 -2 -3.5 -6t-3.5 -6q-6 -14 -17 -42.5t-17 -43.5q-6 -14 -17.5 -42.5t-17.5 -43.5q-18 -45 -23 -60l-24 -61q-1 -2 -2 -5t-2 -5
q-10 -17 -13 -35q-9 -40 0 -84q10 -44 43 -64q5 -6 13 -8q4 -2 12 -2q39 6 74 27q59 38 94 90q73 102 106 215q23 77 23 78l4 16q16 69 16 135z" />
    <glyph glyph-name="q" unicode="q" horiz-adv-x="806" 
d="M174 115l-4 -4q-10 -15 -12 -17q-24 -35 -68 -65q-59 -36 -125 -11q-80 38 -110 117q-23 69 -17 131q0 59 23 123q19 62 51 127q71 143 182 232q66 51 148 73q59 13 112 4q55 -12 82 -65q9 -18 15 -39q6 -23 -19 -29q-37 -4 -63 4q-11 5 -11 6q-4 4 -4 9q-3 15 -18 24
q-20 10 -41 10q-41 -7 -66 -22q-60 -34 -102 -90q-63 -78 -100 -172q-27 -61 -47 -139q-19 -78 -19 -152q0 -35 16 -72q10 -18 31 -28q22 -6 43 0q35 12 62 36l24 25q6 8 21 23q4 4 4 8q2 2 2 10q-3 49 16 86q20 36 62 45q9 3 14 8q4 2 8 13q37 86 51 147q19 59 23 76
q3 12 12 18q3 2 8.5 5t8.5 5q2 2 7 5.5t7 5.5q2 0 2 2q2 1 7 2t7 2h15q9 -3 18 0h10q9 2 21 -2q3 -2 12 -15q13 -27 8 -51q-10 -53 -28 -90q-2 -5 -5.5 -14t-5.5 -14q-15 -38 -30 -72q-5 -13 -15.5 -37t-15.5 -37t4 -29q26 -44 37 -86q6 -17 14 -55q14 7 19 12
q59 43 112 105q54 71 101 166q38 77 57 147q4 7 8 21l43 -25q-9 -31 -14 -43q-19 -42 -23 -55q-4 -9 -12 -28t-12 -28q-50 -118 -131 -235q-43 -54 -84 -82q-26 -19 -54 -25v-24q3 -56 -4 -121q-3 -60 -18 -119q-8 -27 -10 -41q-1 -9 -11 -43q-26 -85 -61 -157
q-27 -59 -68 -109q-41 -55 -106 -90q-57 -28 -117 -16q-32 7 -49 22q-22 20 -29 53q-8 47 2 105l13 67q2 6 7 24t7 28q2 8 7 24.5t7 24.5q3 9 29 86q10 31 53 143q5 12 15.5 38t15.5 38q5 13 15.5 38.5t15.5 37.5l6 12q7 21 14 35q12 21 -6 39zM276 55l-20 -57
q-4 -9 -11.5 -28.5t-11.5 -28.5q-3 -8 -9 -26t-9 -26q-18 -45 -27 -73q-37 -109 -53 -164q-17 -55 -33 -121q-9 -27 -12 -61q-4 -46 -4 -68q0 -16 6 -31q6 -21 31 -18q17 4 27 12q30 19 59 55q74 93 115 207q14 35 22 68l4 12q22 78 29 109q6 38 12 78q8 52 8 116q0 4 -2 6
v2q-5 1 -15 3.5t-15 3.5q-11 0 -31 4q-36 7 -60 26zM391 63q4 18 -2 43q-3 29 -16 58q-12 28 -29 41q0 -2 -2 -4q0 -1 -1 -2t-1 -2q-15 -37 -39 -86q-3 -10 2 -15q20 -20 41 -26q24 -7 47 -7z" />
    <glyph glyph-name="r" unicode="r" horiz-adv-x="512" 
d="M68 672q-8 -16 -15 -37q-8 -23 -10 -37l-20 -61q-1 -6 -4.5 -15t-4.5 -12q-14 -45 -43 -107l-4 -4q-17 7 -41 21q2 2 2 8q2 2 2 6l13 33q2 5 6 15.5t6 15.5q2 9 22 71l7 19q4 20 8 30q1 4 6 29q8 35 10 55q3 16 8 64v16q-2 2 -2 9q-3 37 2 67q12 55 52 98q35 38 82 52
q21 9 47 6q6 0 10 -2q6 0 10 -2q20 -9 14 -33q-5 -13 -16 -31q-24 -38 -31 -51q-17 -31 -22 -59q-10 -40 -4 -78q10 -59 47 -99q11 -8 49 -32q26 -13 47 -31q31 -31 25 -72q-12 -54 -35 -102q-1 -4 -4 -11.5t-4 -11.5l-21 -49q-4 -8 -26 -63q-19 -52 -27 -78q-11 -36 -8 -62
q0 -2 2 -4l6 -18q6 -11 20 -14q11 -5 25 -2q22 6 37 24q28 36 49 76q31 53 76 156l28 69q4 11 13.5 34t13.5 34q1 3 3 8t3 8t3 8.5t3 8.5l2 2v2q0 1 1 2t1 2q20 -3 35 -15l6 -6q0 -6 -2 -8l-6 -18q-2 -3 -5 -11.5t-5 -11.5l-16 -45q-2 -4 -5.5 -13.5t-5.5 -13.5
q-33 -91 -67 -163q-22 -55 -51 -103q-27 -53 -84 -100q-57 -45 -125 -33q-47 6 -68 53q-9 23 -12 54q-4 46 -4 67q3 48 14 84q10 29 27 68q3 12 10 26q2 6 6 17.5t6 17.5q3 16 10 33q2 6 5.5 18.5t5.5 18.5t5 18.5t5 18.5q0 1 1 4t1 4q3 11 8 45v2q0 1 1 2t1 2v4q4 7 0 14
q0 7 -6 13q-7 10 -29 28q-2 2 -7 5.5t-7 5.5q-36 22 -61 47z" />
    <glyph glyph-name="s" unicode="s" horiz-adv-x="483" 
d="M82 733q-74 -224 -100 -297l-13 6q-4 4 -14 19q-6 6 -8 10v6q0 4 2 6q8 28 22 62q7 23 47 135q3 9 9.5 26.5t9.5 26.5q6 25 16 51l6 19q14 43 27 76q35 78 107 112q36 19 69 19q13 3 29 -4q24 -9 14 -35q-2 -4 -6 -12.5t-6 -12.5q-1 -1 -3 -4t-3 -4q-2 -3 -6.5 -9
t-6.5 -9q-10 -16 -30 -52q-23 -50 -17 -98q0 -10 2 -14v-17q7 -49 17 -86l8 -37q4 -20 6 -28q13 -41 21 -74q11 -34 16 -55q12 -44 16 -72q12 -43 15 -90q3 -18 6 -39q1 2 3 5t3 5q0 3 4 11q6 12 18 40q1 3 11.5 25.5t15.5 34.5q4 11 13.5 32.5t13.5 32.5q4 10 13 32t13 32
q3 12 9 24l2 3q0 4 2 4v4q15 0 30 -11q9 -4 9 -8q0 -8 -2 -12q0 -1 -1.5 -3.5t-1.5 -4.5q-2 -5 -6 -15.5t-6 -15.5q-14 -45 -26 -74l-62 -147q-8 -25 -24 -53q-2 -4 -6.5 -13.5t-6.5 -13.5q-39 -69 -84 -109q-27 -21 -57 -36q-31 -17 -57 -25h-4q-20 -4 -31 -4q-45 -3 -78 4
q-62 17 -100 74q-27 46 -27 102q1 3 6 23q10 13 21 2q5 -5 8 -13q2 -4 2 -12q3 -27 12 -51q21 -40 64 -55q34 -10 65 -2q38 9 55 41q16 24 23 59q4 46 4 68q0 46 -6 92q-4 19 -8 53l-4 29q-1 4 -3 13t-3 13q-1 5 -3.5 15.5t-3.5 15.5q-4 13 -8 39q-1 5 -4 18t-4 21l-12 49
q-6 18 -9 39q-4 9 -8 31q-1 5 -3 14t-3 14t-3 14.5t-3 14.5v4q-2 0 -2 4q-2 0 -2 2z" />
    <glyph glyph-name="t" unicode="t" horiz-adv-x="337" 
d="M84 1085h-162q6 15 12 27q18 33 29 57q3 6 6 9q2 2 11 2h143q1 4 4 11t4 11q6 15 21 60l14 38q7 21 47 123q15 43 59 58q41 17 76 14q7 0 19 -4q6 0 6 -4q3 -3 0 -8q-2 -4 -5.5 -13.5t-5.5 -13.5q-13 -41 -47 -133l-15 -39l-15 -39l-21 -53q-2 -2 -2 -4v-4h166
q-6 -15 -12 -27q-2 -3 -5 -10t-5 -10q-3 -6 -9.5 -18.5t-9.5 -18.5t-6 -9q-2 -2 -10 -2h-133h-11q-4 0 -4 -4l-4 -8q-32 -83 -35 -92q-6 -16 -18.5 -46.5t-18.5 -45.5q-8 -25 -24 -70.5t-19 -54.5q-41 -116 -53 -156q-40 -122 -47 -147q-18 -65 -33 -129q-18 -79 -20 -137
q-6 -40 6 -80q0 -5 4 -13q1 -3 10 -12q12 -8 21 -8q4 0 20 4q32 11 54 39q21 27 38 65q5 14 17 29q4 12 10 21q3 6 8 17t8 17q8 17 25 52.5t25 52.5q38 93 47 119q2 6 7 18.5t7 18.5v2l6 6q4 0 8 -2q15 -4 23 -9l8 -8q0 -6 -2 -10q-17 -44 -20 -51q-1 -5 -17 -47l-16 -45
q-3 -7 -9.5 -22.5t-9.5 -22.5q-3 -8 -10.5 -26.5t-11.5 -27.5q-3 -5 -25 -55q-10 -26 -51 -96q-30 -45 -61 -76q-30 -30 -74 -39q-63 -15 -115 25q-26 20 -39 57q-18 56 -18 115q0 5 1 15t1 15q0 22 4 62q6 68 23 125l24 90q2 6 6 17.5t7 21t6 18.5t9 28t9 28
q5 14 15.5 43.5t15.5 44.5q1 3 3 8t3 8l61 166q14 39 27 70l8 20q3 7 8 21.5t8 21.5q1 4 7 18.5t8 22.5l2 6z" />
    <glyph glyph-name="u" unicode="u" horiz-adv-x="675" 
d="M188 143l-8 -12q-6 -11 -16 -25q-24 -38 -62 -65q-54 -42 -118 -27q-59 14 -101 66q-27 37 -39 82q-13 46 -10 104q3 67 23 125l16 49q6 18 18 58q22 63 23 67q9 28 16 58l4 12q16 61 17 67q8 39 10 64v78q17 4 27 2h8q33 -7 55 -23q30 -23 35 -57q5 -30 2 -66l-4 -28
q-1 -5 -3 -14.5t-3 -14.5q-1 -2 -2 -7t-2 -7q-2 -12 -9 -35.5t-8 -28.5q-6 -25 -16 -51l-16 -49l-5.5 -16.5t-6 -19t-5.5 -15.5l-8 -25q-16 -41 -23 -63q-4 -15 -8 -41q-1 -6 -3 -19.5t-3 -19.5t-3 -19.5t-3 -19.5q-3 -38 6 -78q7 -27 25 -45q24 -21 59 -12q37 12 62 37
q56 50 92 124q38 77 51 127q3 9 9 29t9 29l19 57q3 10 8 30t8 30q4 12 4 16l6 18q0 5 4 17l9 26l12 37q5 15 14 53l13 56q6 27 6 55q0 6 2 8q0 2 6 2q60 9 98 -39q12 -12 15 -30v-9q-5 -16 -14 -43.5t-11 -33.5q-15 -56 -33 -111l-4 -12q-7 -30 -16 -58q-3 -11 -14 -45.5
t-17 -54.5q-8 -23 -10 -37l-13 -39q-7 -14 -10 -26l-12 -29q-3 -9 -18 -59q-5 -38 -3 -52q3 -23 23 -30q22 -7 35 -2q16 8 22 14q14 14 17 20q30 40 55 89q30 56 66 141l14 35q3 10 10.5 26.5t9.5 22.5q10 24 11 31l18 45v2h2v2q22 0 37 -15q4 -4 4 -6q0 -4 -2 -6
q-13 -37 -33 -86l-24 -68l-56 -129q-20 -50 -51 -98q-32 -57 -78 -94q-31 -24 -69 -33q-31 -6 -62 0q-41 9 -59 47q-10 21 -14 53z" />
    <glyph glyph-name="v" unicode="v" horiz-adv-x="559" 
d="M203 160q-2 -4 -8 -10l-9 -13q-30 -40 -71 -88q-15 -15 -43 -29q-23 -13 -47 -16q-48 -6 -74 33q-14 24 -14 49q-1 8 -2.5 23.5t-2.5 23.5l-4 45v27q-2 57 -2 174q0 63 2 96l4 45q0 7 1 21.5t1 21.5l5 41q1 6 2 19.5t2 19.5q2 18 2 55q0 49 -2 74v10q-2 2 -2 9v28
q0 4 4 8q0 2 6 2q25 0 35 -2q35 -10 55 -28q23 -23 29 -51q5 -33 -2 -76q-10 -71 -11 -90q0 -22 -4 -68q-4 -58 -4 -90q-2 -10 -2 -35q-5 -65 -2 -147q0 -20 4 -52q0 -4 1 -12t1 -12t2 -6q0 -2 2 -4q3 -6 6 -6q4 -4 11 0q13 8 26 24q23 30 41 64q5 5 2 14q-13 39 -20 90
q-5 49 -2 111q4 42 8 67q2 4 2 10q6 39 21 80q23 80 77 152q21 27 56 51q34 21 71 18q55 0 84 -45q14 -22 17 -49q8 -46 -2 -100q-10 -51 -39 -123q-7 -18 -52 -106l-36 -60l-17 -24q-21 -38 -45 -72q-10 -19 -28 -45v-2l-3 -2q13 -10 29 -10q30 -3 57 6l13 6q51 39 84 86
q39 53 63 115q13 30 21 53q2 4 5 13t5 13l8 21q2 5 6 15.5t6 15.5l5 4q16 0 32 -13l6 -6q0 -6 -2 -8l-8 -20q-1 -4 -4 -11.5t-4 -11.5q-2 -8 -29 -74q-41 -100 -110 -178q-43 -46 -92 -74q-10 -5 -11 -6l-12 -6q-32 -11 -63 4q-11 7 -29 21h-2q0 2 -2 2h-2zM180 303h2
q4 4 6 8q9 16 27 41l12 25q47 81 70 135q37 94 41 104q23 74 27 115q3 18 -3 33q-3 17 -18 20q-16 3 -27 -2q-28 -8 -47 -37q-20 -25 -41 -65q-24 -56 -36 -113q-10 -44 -11 -55q-3 -17 -8 -63v-7q-2 -20 -2 -59q0 -36 6 -66q0 -4 2 -6v-8z" />
    <glyph glyph-name="w" unicode="w" horiz-adv-x="890" 
d="M256 827q19 5 39 2q2 -2 6 -2q33 -6 57 -30q11 -11 19 -27l8 -29v-4q0 -26 -4 -80q-4 -21 -8 -59q0 -5 -1 -15.5t-1 -15.5q0 -6 -1 -16.5t-1 -15.5q-3 -61 -9 -123q0 -31 -2 -47v-37q-3 -34 0 -72q0 -35 7 -86q0 -1 1 -4t1 -4q0 -2 1 -4.5t1 -3.5q7 -10 16 -7q5 5 6 5
l6 6q17 15 41 51q0 1 3.5 6t4.5 8l9 13q2 2 2 8v6q-15 38 -21 78q-8 58 -2 127q0 3 1 10t1 10q0 15 4 43q9 44 21 84q15 44 33 84q27 55 67 98q37 37 78 45q51 12 92 -16q22 -16 35 -49q8 -27 8 -57q0 -22 -4 -54q-5 -40 -27 -102q-13 -39 -43 -100q-54 -103 -129 -211
q-3 -4 -18 -29q0 -4 -2 -4q0 -4 -2 -4q14 -11 24 -13q36 -6 66 9l20 12q1 1 3.5 3t3.5 3q43 38 79 92q39 56 64 127q1 3 3 10.5t3 10.5t4.5 12t5.5 14q2 4 5.5 13.5t5.5 13.5t5 13.5t5 13.5q0 1 1 2t1 2l2 2q16 -3 33 -13q10 -7 4 -16q-21 -65 -41 -111q-16 -41 -45 -88
q-37 -69 -107 -133l-32 -24l-13 -8q-2 -1 -5 -3.5t-5 -3.5t-5 -3t-5 -3q-44 -21 -84 2q-19 14 -27 19q-14 -17 -22 -31l-4 -4q-36 -48 -66 -76q-11 -14 -31 -24q-29 -18 -53 -21q-54 -9 -82 39q0 1 -1 4t-1 4q-4 8 -4 14l-4 37q-1 6 -3 19.5t-3 19.5q-2 25 -2 70
q-2 12 -2 41v2v2q-2 0 -2 2l-7 -6q-69 -106 -81 -121q-4 -5 -12.5 -15.5t-12.5 -15.5l-16 -20q-1 -2 -9 -10q-5 -5 -8 -11q-16 -19 -45 -37q-22 -11 -53 -18q-52 -9 -76 35q-9 14 -12 35q-4 30 -8 94v6q-4 114 -4 168v109q4 68 8 100l4 41q1 6 2 19.5t2 19.5q4 82 2 121
q0 18 -2 26t-2 27v12q2 4 2 14q6 0 10 2h8q39 -3 74 -24q37 -27 37 -72v-45q-1 -4 -2 -13t-2 -13l-4 -29v-2q-2 -2 -2 -4q-1 -33 -11 -162q-4 -102 -4 -150q-2 -20 -2 -61q0 -22 4 -76q0 -6 2 -10q0 -6 2 -10q7 -20 25 -8q17 12 31 32q16 22 41 64l41 61l49 86q12 20 33 62
l2 4v6l4 45q0 7 1 21.5t1 21.5l6 74q0 5 1 14t1 14q0 4 1 13.5t1 13.5v14q3 15 0 31q0 22 -4 68q0 20 2 30zM496 303l2 -2v2h2v2l55 92q24 44 51 103q6 12 21 47q3 13 10 28q29 67 41 146q2 14 2 39q-3 29 -33 26q-15 0 -26 -8q-33 -20 -54 -55q-37 -60 -55 -129
q-12 -56 -16 -80q-4 -28 -4 -45q0 -4 -1.5 -11.5t-1.5 -11.5q-6 -58 0 -114q1 -5 7 -29z" />
    <glyph glyph-name="x" unicode="x" horiz-adv-x="710" 
d="M575 543q18 -3 31 -13l8 -8q0 -6 -2 -10l-6 -18l-8 -21q-10 -30 -12 -35q-8 -16 -15 -37l-55 -135q-21 -50 -45 -96q-30 -64 -86 -111q-43 -37 -92 -45q-45 -10 -82 -2q-30 5 -35 6q-53 15 -84 60q-22 27 -35 65q-12 41 -18 80q0 3 -1 10t-1 11q0 3 -1 9t-1 9q0 1 -1 2
t-1 2l-4 8q-1 0 -2 -1t-2 -1l-54 -53q-18 -16 -51 -49q-16 -14 -47 -45l-49 -45q-21 -21 -31 -29q-12 -10 -33 -31h-2l-2 -2q-17 -10 -28 -6q-13 3 -19 21q-7 23 10 37q14 12 41 39q6 6 19.5 18t19.5 18q58 54 86 82l86 80l49 49q7 7 7 9q2 2 2 10q0 65 2 98l4 66
q1 10 2 31.5t2 31.5q3 46 0 94q0 20 -8 39l-6 6l-5 4q-12 12 -24 3q-6 -6 -16 -21q-16 -29 -25 -59l-12 -41q-8 -19 -15 -43l-8 -29l-8 -25q-19 -60 -49 -127q-2 0 -2 -2q-2 0 -2 -2l-37 19l-2 2v4v4q2 5 12 35q23 65 33 96q1 4 3 11.5t3 11.5q9 24 12 49q1 4 3 11t3 11
q6 16 29 70q15 36 43 68q25 28 59 36q29 10 62 7q21 -2 51 -21q30 -18 43 -51q15 -42 21 -82q6 -61 6 -127v-4v-4q0 -1 1 -2t1 -2q2 0 4 2q2 0 4 2l55 55q50 47 105 109q2 2 21.5 23.5t29.5 33.5q8 9 25.5 27.5t25.5 27.5q8 8 12 10q13 7 23 0q11 -6 14 -20q0 -15 -8 -23
l-20 -24q-11 -15 -41 -49q-75 -86 -129 -140q-42 -45 -74 -75q-8 -8 -24.5 -25.5t-24.5 -25.5q-8 -5 -8 -19q-10 -114 -7 -213q0 -37 19 -80q27 -52 84 -43q34 5 65 33q27 21 52 49q9 9 12 21q1 2 3 5t3 5q35 64 57 110q1 3 4.5 9.5t4.5 9.5q4 12 6 16q3 5 8 19q1 3 3 8t3 8
q3 5 8 19q1 3 3 8t3 8l21 49l24 61v5q2 0 2 4q2 0 2 2z" />
    <glyph glyph-name="y" unicode="y" horiz-adv-x="684" 
d="M-25 61q-20 -16 -28 -22q-39 -25 -80 -25q-72 3 -123 60q-30 38 -43 76q-19 66 -14 126q2 10 2 31q9 63 30 125l9 25q17 48 32 96q13 37 21 68l6 18q14 58 16 70q11 49 11 84v59q2 0 4 2h2q47 3 86 -25q34 -24 37 -67q0 -40 -6 -80q-4 -23 -23 -96q-9 -35 -35 -111
l-16 -49q-3 -8 -9.5 -24.5t-9.5 -24.5q-17 -56 -22 -82q0 -7 -4 -19q-6 -30 -6 -63q-3 -35 2 -66v-2q5 -20 8 -26q3 -14 14 -25q16 -22 43 -22t49 16q49 28 74 66q44 56 68 118q26 58 47 121l12 37q3 13 10 35q5 21 15 47q2 8 6 23.5t6 23.5q7 33 14 53q4 14 8 23
q1 4 3.5 11t3.5 11q11 36 16 62q4 11 8 37l4 20q0 4 1 11.5t1 11.5t1 11t1 11v2q2 2 2 6q2 2 9 2q56 6 94 -32q2 -3 12 -23q7 -11 4 -20q0 -7 -4 -23q-8 -27 -18 -65l-13 -45l-8 -33l-6 -27l-8 -28q-29 -100 -31 -109q-15 -47 -22 -76l-25 -78q-3 -8 -8 -23.5t-8 -23.5
t-8.5 -23.5t-8.5 -23.5q-4 -12 -8 -20l4 2h4l2 2q43 18 84 59q68 65 111 141q33 56 43 78q3 6 9 18.5t9 18.5l19 37q23 -3 35 -18q6 -6 2 -13q-10 -18 -21 -43l-12 -24q-6 -15 -12 -27q-2 -4 -6.5 -13.5t-6.5 -13.5t-6 -13t-6 -13q-51 -89 -115 -158q-55 -58 -133 -104
l-8 -4q-2 -1 -5 -2t-5 -2q-10 -3 -13 -13l-24 -67l-33 -86q-20 -53 -35 -88q-33 -82 -59 -131q-41 -90 -107 -181q-39 -53 -106 -131q-31 -31 -64 -47q-15 -9 -49 -20q-57 -19 -98 22q-16 16 -27 45q-13 43 -10 84q0 46 14 84q17 61 54 127q55 99 127 174q72 78 155 146
q38 24 49 32q29 16 43 41v4zM-37 -23h-2q-2 0 -2 -2l-49 -43l-29 -28q-9 -9 -27.5 -28t-27.5 -28q-64 -68 -117 -147q-39 -60 -67 -129q-19 -45 -25 -66l-12 -32q0 -1 -1 -4.5t-1 -4.5q-4 -12 -4 -16q-5 -39 4 -82q6 -20 20 -26q18 -4 31 4q30 20 35 24q26 19 39 39
q6 10 17 30t17 30q6 9 17.5 28.5t17.5 28.5q47 82 70 147q19 45 39 103q3 10 10 29.5t10 29.5l21 57l4 12t4 15l8 25q1 3 3 8t3 8q0 6 4 14q-2 2 -6 2q-2 2 -4 2z" />
    <glyph glyph-name="z" unicode="z" horiz-adv-x="630" 
d="M461 506q20 0 37 -17q2 -2 2 -8q0 -4 -2 -8q-21 -42 -25 -51q-18 -35 -31 -66q-49 -98 -127 -182q-41 -48 -88 -80q-11 -6 -8 -18q8 -38 10 -62q3 -32 -4 -73l-12 -56l-16 -45q-1 -5 -11 -30l-49 -111q-54 -122 -143 -238q-56 -68 -80 -96q-38 -44 -90 -65
q-19 -8 -43 -15q-63 -12 -98 47q-33 60 -21 133q3 30 12 60q13 53 43 110q43 83 86 140q42 55 80 96q105 114 217 207q25 20 29 24q3 6 8 11q-3 11 -10 22q-6 9 -18 12q-20 5 -25 5q-54 0 -98 -35q-43 -34 -66 -60l-37 -37q-16 -16 -39 -6q-9 3 -28 19q-18 16 -33 45
q-2 2 -2 8q0 4 4 8q3 4 9 12.5t9 12.5q11 20 29 41q3 4 8 11t8 11q88 119 148 221q2 3 5 9.5t5 9.5t5 9t5 9q10 17 13 37q1 3 3 9.5t3 9.5q4 20 6 32q1 5 3 15.5t3 15.5q0 10 -2 14q-1 2 -3 6.5t-3 6.5q0 1 -1 2t-1 2q-12 17 -41 35q-40 31 -57 43l-2 2h-3q-5 -10 -14 -37
l-37 -117q-14 -45 -47 -113v-2q0 -1 -1 -2t-1 -2l-20 13q-12 4 -21 10q9 28 14 39l31 92q17 56 27 100q7 30 14 76q4 20 4 31v20q-2 6 -2 21q-2 4 -2 16q3 108 86 176q43 34 96 37q21 3 33 -4q18 -12 12 -29q-3 -15 -12 -30q-4 -7 -12 -21.5t-12 -21.5q-4 -5 -17 -27
q-26 -53 -20 -109q3 -39 20 -75q19 -34 58 -58l28 -16q5 -3 14.5 -9.5t14.5 -9.5q44 -27 35 -81q-7 -28 -19 -52q-59 -130 -131 -235q-14 -24 -35 -53l-2 -2q0 -1 -1 -2.5t-1 -2.5q-1 -6 2 -9t9 -1q3 0 9 1t9 1q24 4 35 4q44 6 82 -18l24 -18q54 31 88 63q59 59 115 149
q32 57 55 109q10 17 15 29q2 2 2 4zM125 16q-4 -4 -12 -8q-72 -58 -119 -110q-60 -66 -109 -136q-59 -80 -102 -168q-28 -66 -29 -67q-6 -14 -20 -62q-19 -60 -2 -114q3 -11 16 -21q12 -6 29 2q3 1 18 11q1 0 2 1t2 1q27 18 49 43l17 28q3 4 8 13.5t8 13.5q3 5 9.5 16.5
t9.5 16.5q34 54 49 86q41 86 49 102q3 7 9 21.5t9 21.5q4 8 11.5 25.5t11.5 25.5q3 8 10 26t10 26q38 84 62 172q0 4 2 6q2 8 2 28z" />
    <glyph glyph-name="braceleft" unicode="{" horiz-adv-x="520" 
d="M158 696q93 43 131 129q39 91 53 189q19 103 51 180q39 86 121 125q84 43 256 16l-8 -8l-8 -8q-2 -2 -6 -2h-9h-16q-75 0 -113 -35t-55 -90q-20 -62 -31 -123q-15 -121 -73 -227q-59 -112 -228 -158q125 -57 152 -135q26 -74 -2 -172q-27 -91 -74 -187q-68 -131 -80 -233
q-12 -108 125 -160q13 -3 18 -8q8 -8 9 -10q6 -6 8 -10q-218 38 -279 116q-62 80 -32 183q27 92 90 208q69 123 90 224q21 106 -88 166q-13 10 -13 16q0 7 11 14z" />
    <glyph glyph-name="bar" unicode="|" horiz-adv-x="475" 
d="M406 1333h98v-1573h-98v1573z" />
    <glyph glyph-name="braceright" unicode="}" horiz-adv-x="751" 
d="M612 504q-93 -43 -131 -129q-39 -91 -53 -189q-19 -103 -51 -180q-39 -86 -121 -125q-84 -43 -256 -16l8 8l8 8q2 2 7 2h8h16q75 0 113 35t55 90q20 62 31 123q15 121 73 227q59 112 228 158q-125 57 -152 135q-26 74 2 172q27 91 74 187q68 131 80 233q12 108 -125 160
q-13 3 -18 8q-8 8 -9 10q-5 5 -8 11q217 -38 279 -117q61 -79 32 -182q-28 -94 -90 -209q-69 -123 -90 -224q-21 -105 88 -165q13 -10 13 -17t-11 -14z" />
    <glyph glyph-name="asciitilde" unicode="~" horiz-adv-x="993" 
d="M1251 1012q-26 -59 -80 -113q-48 -54 -122 -51q-59 8 -123 41q-62 30 -125 39q-36 3 -64 -19q-28 -19 -43 -49q-4 -4 -10 -6h-16q-9 0 -17 4q-4 2 -4 6q35 64 80 107q50 50 121 47q68 -9 129 -39q54 -25 119 -35q83 -3 112 72q4 4 9 4q8 3 16 0q3 0 7.5 -1t6.5 -1
q4 -2 4 -6z" />
    <glyph glyph-name="exclamdown" unicode="&#xa1;" horiz-adv-x="530" 
d="M322 -39q-18 -58 -50 -72q-36 -15 -82 -12q-29 -3 -71 -6q54 170 100 299q14 39 62.5 175t74.5 210q5 14 60 162q16 39 20 45q7 12 23 16q8 2 37 2h53q-9 -38 -37 -135q-13 -47 -45 -166t-51 -186q-80 -285 -94 -332zM537 836q-42 0 -62 26q-23 23 -20 66q3 39 32 65
q27 27 66 27q37 0 61 -27t21 -65q-3 -39 -33 -66q-26 -26 -65 -26z" />
    <glyph glyph-name="cent" unicode="&#xa2;" horiz-adv-x="772" 
d="M752 338q6 9 16 12q14 3 27 0h14q-43 -107 -141 -162t-226 -55q-37 0 -67 6q-4 -14 -19.5 -67t-23.5 -82q-10 -29 -25 -35q-26 -4 -53 -2q-12 2 -47 2q41 120 72 215q-146 85 -146 266q3 182 115 342q111 164 289 191q7 29 41 137q9 34 22 41t45 4q14 -2 53 -2l-22 -62
q-8 -25 -24.5 -68t-20.5 -54q86 -18 110 -111q4 -20 4 -35q-3 -51 -34 -96q-29 -39 -86 -18q-31 15 -31 53q0 31 22 67q30 47 15 62q-18 15 -53 12q-42 -7 -64 -22q-105 -67 -170 -228q-64 -157 -39 -299q24 -138 193 -147q75 3 143 35q70 34 111 100z" />
    <glyph glyph-name="sterling" unicode="&#xa3;" horiz-adv-x="811" 
d="M440 381q119 -18 211 -88q85 -63 150 -131q4 -4 12 -12.5t12 -12.5q-81 -60 -118 -51q-37 6 -105 80l-33 33q-86 96 -163 118q-78 -159 -240 -174q-101 -6 -113 43q-15 50 47 109q66 62 195 86q44 104 76 211h-205q3 3 8.5 9.5t7.5 8.5q6 10 19 23q8 8 28 8h156
q4 14 15.5 56.5t17.5 66.5q8 31 26 93.5t25 88.5q11 34 31 51h-127l6 19q1 4 2 8.5t1.5 6.5t0.5 3l8 8h19h231q-12 -50 -27 -90l-4 -12q-32 -112 -51 -192q-27 -102 -29 -107h203q-3 -4 -8.5 -10.5t-7.5 -9.5q-9 -15 -21 -23q-9 -6 -34 -6h-146q-23 -85 -76 -211zM125 197
q45 6 80 41q38 38 59 79q-37 3 -76 -16q-38 -14 -65 -41q-28 -25 -31 -45q0 -18 33 -18z" />
    <glyph glyph-name="section" unicode="&#xa7;" horiz-adv-x="2269" 
d="M1978 1309q126 35 215 -4q110 -49 166 -144q56 -96 41 -176t-110 -80q-64 3 -78 39q-15 35 -4 70q9 23 35 35q23 8 53 -5q27 -9 39 -51q19 81 -17 154q-37 76 -116 100q-63 18 -142 -22q-83 -41 -178 -158q-103 -137 -170 -307q-70 -177 -123 -346q-2 -6 -35 -109
q-52 -156 -104 -272q-64 -134 -143 -232q-91 -117 -234 -182q-128 -61 -313 -61q-101 0 -189 16q-119 -35 -204 -2q-113 46 -172 141q-57 97 -45 181q12 83 110 83q66 -6 80 -40q16 -37 2 -66q-9 -27 -35 -37q-24 -11 -53 2q-27 12 -39 55q-19 -84 21 -159q41 -80 122 -101
q60 -15 138 27q77 41 168 154q103 134 170 301q37 93 90 249q4 10 11 32t11 32q2 6 5 17t5 16q76 244 174 442q62 118 144 209q78 89 199 147q131 64 321 64q98 0 184 -12zM1878 1253l35 25h-64q-165 0 -280 -86q-152 -116 -244 -322q-94 -212 -158 -413q-3 -7 -6 -16
t-6.5 -20.5t-5.5 -17.5q-52 -158 -137 -358q-76 -175 -191 -299q-73 -76 -145 -119l-37 -20q21 0 31 -2t30 -2q177 0 293 96q99 75 176 207q109 194 189 440q2 7 7 21.5t7 21.5q65 202 154 416q77 191 205 328q71 80 147 120z" />
    <glyph glyph-name="dieresis" unicode="&#xa8;" horiz-adv-x="473" 
d="M233 1163q-34 0 -59 25q-22 25 -22 57q0 35 22 60q24 24 59 24q36 0 60 -24t24 -60q0 -33 -24 -57q-25 -25 -60 -25zM471 1163q-37 0 -59 25q-25 25 -25 57q0 35 25 60q21 24 59 24q33 0 57 -24q25 -25 25 -60q0 -32 -25 -57t-57 -25z" />
    <glyph glyph-name="copyright" unicode="&#xa9;" horiz-adv-x="1763" 
d="M1620 324q0 1 5 23t9 34q2 7 6.5 21.5t6.5 21.5h22l-22 -168q-65 -38 -136 -53q-80 -17 -137 -17q-217 0 -336 113q-120 111 -120 305q0 116 53 225q52 107 155 175q104 67 254 67q80 0 142 -12q55 -13 104 -33h2l2 -2l37 -158h-27l-26 74q-4 8 -6 10q-2 4 -9 11
q-30 30 -86 53q-55 24 -133 24q-101 0 -174 -61q-72 -63 -108 -158q-39 -95 -39 -207q0 -101 31 -192q36 -90 102 -139q73 -54 186 -54q69 0 121 19q42 12 88 45q21 15 33 33zM1339 1327q197 0 351 -92t243 -246q88 -155 88 -346q-15 -292 -219 -487q-206 -197 -491 -197
q-275 0 -473 195q-199 193 -199 464q0 195 96 357q103 165 256 256q162 96 348 96zM1309 -6q197 0 340 88q144 86 227 233q82 143 88 328q0 178 -80 326q-75 144 -217 235q-140 88 -321 88q-186 0 -332 -90q-146 -91 -230 -237q-86 -148 -92 -324q0 -278 174 -461
q174 -186 443 -186z" />
    <glyph glyph-name="guillemotleft" unicode="&#xab;" horiz-adv-x="987" 
d="M535 569q38 -48 75 -147q32 -86 39 -166v-14q-1 -1 -2 -4.5t-2 -4.5q-4 -4 -8 -6q-4 -4 -8 -6q-43 118 -129 207q-95 95 -181 150q307 159 476 397l8 8q4 4 6 4h8q2 -2 10 -2q-88 -239 -292 -416zM831 569q40 -51 76 -147q32 -86 39 -166v-14q-1 -1 -2 -4.5t-2 -4.5
q-4 -4 -8 -6q-4 -4 -8 -6q-43 118 -129 207q-95 95 -181 150q307 159 476 397l8 8q4 4 6 4h8q2 -2 10 -2q-88 -238 -293 -416z" />
    <glyph glyph-name="logicalnot" unicode="&#xac;" horiz-adv-x="1705" 
 />
    <glyph glyph-name="registered" unicode="&#xae;" horiz-adv-x="1099" 
d="M946 420q17 -33 33 -41q15 -6 37 -6v-19h-90q-32 11 -45 41l-117 183q-9 18 -21 26q-8 5 -32 2q-9 0 -9 -14v-197q0 -5 5 -10q4 -4 8 -4q15 -6 26 -6q6 -2 31 -2h4v-19h-201v23l39 6q6 3 9 6q4 8 4 12v437q0 12 -13 12q-16 4 -20 6h-19v27l199 2q65 0 109 -33
q45 -33 45 -94q0 -50 -31 -86q-29 -34 -74 -49v-2v-9q1 -1 2 -4t2 -4zM717 637q59 0 96 29q35 27 35 90q0 91 -117 100h-14q-12 0 -12 -6q-3 -3 -3 -19v-188v-4q0 -2 5 -2h10zM750 1040q187 0 319 -129q131 -131 131 -319q0 -181 -129 -313q-132 -132 -315 -132
q-185 0 -320 132q-133 133 -133 311q0 188 131 319t316 131zM750 186q173 0 286 119t113 287q0 169 -113 291q-115 121 -280 121q-168 0 -283 -121q-117 -120 -117 -281q0 -172 115 -293q114 -123 279 -123z" />
    <glyph glyph-name="degree" unicode="&#xb0;" horiz-adv-x="391" 
d="M485 1192q72 0 119 -47q43 -46 43 -113q0 -63 -47 -110q-45 -45 -115 -45q-74 0 -116 45q-41 47 -41 110q0 68 45 113q47 47 112 47zM485 911q55 0 88 39q35 41 35 82q0 49 -35 84t-88 35q-46 0 -84 -35q-34 -37 -34 -86q0 -44 30 -82q30 -37 88 -37z" />
    <glyph glyph-name="plusminus" unicode="&#xb1;" horiz-adv-x="948" 
d="M106 0q3 7 8 21.5t7 19.5q6 31 16 41q13 10 47 10h598l-7.5 -25t-6.5 -20q-9 -30 -18 -39q-8 -8 -52 -8h-592zM604 618h363q-16 -36 -19 -45q-4 -16 -14 -30q-8 -12 -23 -15q-10 -2 -49 -2h-282l-99 -372q-31 23 -39 28q-9 6 -26 23q-8 12 -6 26q0 21 8 48l67 247h-362
q11 22 18 43q8 28 23 39q13 10 57 10h289l100 373q23 -19 37 -28q28 -21 33 -33q6 -16 -6 -58z" />
    <glyph glyph-name="periodcentered" unicode="&#xb7;" horiz-adv-x="348" 
d="M260 479q42 0 62 -26q23 -23 20 -66q-3 -38 -33 -65q-27 -27 -65 -27q-41 0 -62 27q-23 23 -20 65q3 39 33 66q26 26 65 26z" />
    <glyph glyph-name="cedilla" unicode="&#xb8;" horiz-adv-x="1705" 
d="M1391 -4q0 -71 -33 -115q-36 -51 -82 -78q-51 -31 -92 -45q-13 -6 -19 0q-6 3 -2 11q3 8 17 12q60 19 102 63q44 47 53 115q-26 -20 -57 -20q-34 0 -55 24t-15 60q6 39 35 59q27 24 64 24q45 0 63 -34q21 -38 21 -76z" />
    <glyph glyph-name="guillemotright" unicode="&#xbb;" horiz-adv-x="978" 
d="M893 643q-39 50 -76 148q-33 86 -39 165v15l4 8q3 3 9 6q4 4 8 6q45 -121 131 -207q81 -84 178 -149q-305 -158 -475 -397q-2 -2 -3.5 -4t-2.5 -3.5t-2 -1.5q-4 -4 -7 -4h-8q-2 2 -10 2q88 238 293 416zM596 643q-39 50 -76 148q-33 86 -39 165v15l4 8q3 3 9 6q4 4 8 6
q45 -121 131 -207q81 -84 178 -149q-305 -158 -475 -397q-2 -2 -3.5 -4t-2.5 -3.5t-2 -1.5q-4 -4 -6 -4h-9q-2 2 -10 2q88 238 293 416z" />
    <glyph glyph-name="questiondown" unicode="&#xbf;" horiz-adv-x="747" 
d="M436 -121q-130 6 -205 78q-76 70 -61 172q18 77 92 158q74 79 162 153q123 105 182 191t-57 147q76 34 153 4q74 -30 74 -120q-9 -80 -71 -154q-74 -81 -144 -143q-89 -78 -160 -164q-63 -84 -45 -178q9 -34 37 -56q26 -20 76 -20q92 0 137 57q44 56 41 121q-3 66 -55 96
q75 62 135 33q60 -26 66 -104q-3 -122 -111 -195q-109 -76 -246 -76zM682 842q-41 0 -61 26q-24 27 -21 68q3 38 33 65q27 27 65 27t62 -27q23 -26 20 -65t-32 -68q-26 -26 -66 -26z" />
    <glyph glyph-name="Agrave" unicode="&#xc0;" horiz-adv-x="1923" 
d="M1106 866q-4 0 -12 1t-11 1q-4 0 -12 1t-12 1q-66 0 -146 17q-83 19 -151 55q-77 46 -113 119q-43 85 -37 180q3 77 43 141q59 97 144 156q36 27 51 37l20 12q11 8 29 8h4q4 0 6 -2q2 0 2 -4v-6q0 -4 -4 -8q-15 -19 -24 -27q-11 -10 -47 -32q-83 -58 -131 -138
q-32 -58 -39 -104q-10 -43 -4 -78q0 -24 8 -43q14 -55 55 -102q35 -41 90 -66q58 -25 119 -37q86 -15 176 -12q8 0 12 2t13 2q7 0 14 10q7 13 21.5 37t21.5 37q29 48 106 182l37 62q60 103 101 168q14 22 38.5 63.5t32.5 54.5q12 20 35.5 59t34.5 58q26 44 39 62l37 61
q2 3 5 8t5 8q17 24 25 45q10 17 24 25q11 8 29 12q24 6 45 6q101 -9 110 -106q3 -56 -6 -111l-12 -79l-12 -54l-8 -41l-7 -28q-1 -5 -3 -15.5t-3 -15.5q-2 -7 -5 -22.5t-5 -22.5t-5 -22.5t-5 -22.5q-5 -25 -6 -29q-1 -5 -3.5 -15.5t-3.5 -15.5q-9 -32 -20 -86q-1 -5 -3 -14
t-3 -14t-3 -14.5t-3 -14.5q-2 -7 -5.5 -21.5t-5.5 -21.5t-5 -21.5t-5 -21.5q-9 -43 -18 -90v-12q8 2 20 2l74 16q9 2 26 5t25 5l49 9l62 12q25 0 39 -2q0 -4 -1 -12t-1 -11q0 -4 -1 -11t-1 -11q-4 -12 -11 -17q-7 -7 -16 -10q-27 -8 -43 -10q-59 -8 -86 -10
q-5 -1 -20.5 -3.5t-24.5 -3.5q-29 -2 -96 -10h-2q-2 -2 -4 -2q-7 0 -9 -2t-2 -8q-1 -5 -3 -14.5t-3 -14.5t-3 -14t-3 -14q-1 -6 -3 -19.5t-3 -19.5q-3 -9 -8 -39q0 -2 -1 -6.5t-1 -6.5q-3 -16 -10 -43t-9 -38l-18 -99q-14 -70 -15 -94q0 -35 -2 -53q-2 -16 -2 -49
q0 -37 4 -111q0 -15 4 -39q12 -91 50 -172q24 -53 65 -94q36 -33 82 -51q42 -14 70 -19q6 0 10 -2q2 -2 8 -2v-10q0 -2 -4 -6q-20 -20 -51 -27q-44 -10 -80 -2q-29 5 -74 19q-91 34 -143 116q-33 59 -49 109q-18 52 -27 108q-9 70 -12 144t4 170q0 5 1 14t1 14t1 14.5
t1 14.5q2 17 12 94q2 10 6.5 39t6.5 45q1 4 3 12.5t3 12.5l4 24q4 22 8 35q1 5 3 16.5t3 16.5q4 9 8 35v4h-10q-90 -4 -133 -6q-86 -4 -127 -6q-19 0 -22 -15q-14 -26 -40.5 -79t-39.5 -80q-6 -13 -19.5 -39t-19.5 -39q-66 -132 -101 -195q-12 -24 -47 -78q-2 -2 -10 -14
q-6 -11 -45 -66q-44 -58 -82 -96q-30 -26 -45 -37q-64 -54 -125 -88q-66 -32 -117 -47q-89 -23 -168 -14q-63 6 -127 37q-61 30 -108 80q-50 53 -74 120q-24 83 -12 166q24 161 162 258q53 36 118 54q80 21 160 12q82 -10 139 -53q73 -58 76 -154q0 -42 -12 -86
q-7 -21 -25 -33q-11 -4 -14 -2q-9 3 -14 8q-15 9 -8 29q1 2 2 7t2 7q4 11 8 37q12 72 -39 129q-26 26 -66 39q-73 27 -149 15q-129 -18 -213 -119q-42 -52 -57 -109q-15 -49 -15 -98q0 -114 82 -199q42 -39 98 -57q1 0 3.5 -1t3.5 -1q47 -15 73 -17q21 -3 43 0q68 9 123 35
q79 37 139 97q78 73 152 176q39 56 82 141q2 3 5 9t5 9q5 10 15.5 32t15.5 32t15.5 31.5t15.5 31.5q24 49 45 99q4 8 12 23.5t12 23.5q8 19 23 45q4 12 8 20zM1755 1843v-2h-2v-2q-156 -302 -455 -887v-2q-2 -2 -2 -4v-2h2h19q21 0 67 4l86 4l78 4q6 0 8 2q1 0 2.5 1l3 2
t3.5 2l2 2q7 7 10 16q1 2 2 7t2 7v2q33 112 41 142q35 118 41 141q1 4 4 13.5t4 13.5q16 54 33 118q3 11 17 57.5t20 71.5q1 4 4 13.5t4 13.5l4 21q15 46 19 73q4 15 8 41l4 21q8 36 8 75q0 34 -37 31zM2060 2085q-38 -3 -102 24q-70 31 -121 66q-63 44 -84 76q19 0 27 2
q32 3 47 -4q92 -62 149 -105q15 -10 43.5 -30.5t40.5 -28.5z" />
    <glyph glyph-name="Aacute" unicode="&#xc1;" horiz-adv-x="1933" 
d="M1143 868q-4 0 -12 1t-11 1q-4 0 -11 1t-11 1q-66 0 -146 17q-83 19 -151 55q-77 46 -113 119q-43 85 -37 180q3 77 43 141q58 96 142 156q19 14 49 33l24 16q11 8 27 8h8l6 -6v-6q0 -4 -4 -8l-12 -12q-6 -9 -12 -15l-29 -20q-3 -2 -9.5 -6t-9.5 -6q-83 -58 -131 -138
q-31 -56 -41 -104q-7 -45 -4 -78q1 -9 11 -43q11 -54 53 -102q38 -41 90 -66q65 -27 121 -37q86 -15 176 -12q8 0 12 2t13 2q7 0 14 10l53 95q19 31 53 89t43 72q11 19 33.5 57t34.5 58q11 19 33.5 57t34.5 58q6 10 19 31.5t19 31.5q17 28 52 85.5t53 86.5q26 44 39 62
l37 61l8 12q5 8 26 50q8 14 25 24q11 8 29 12q24 7 45 7q101 -9 110 -107q3 -56 -6 -111q-6 -36 -6 -38l-8 -41q-3 -19 -10 -51.5t-9 -43.5q-4 -20 -6 -28q-1 -5 -3 -15.5t-3 -15.5q-10 -40 -20 -90q-1 -3 -2.5 -9.5t-2.5 -11t-1 -8.5q-1 -5 -4.5 -15.5t-4.5 -15.5l-18 -86
q0 -2 -3 -12t-3 -16l-8 -29l-19 -86q-9 -43 -18 -90v-12q8 2 20 2l74 16l98 19l62 12q29 0 41 -2q0 -4 -1 -12t-1 -11q0 -4 -1 -11t-1 -11q-4 -12 -11 -17q-7 -7 -16 -10q-27 -8 -43 -10q-59 -8 -86 -10q-4 0 -11.5 -1t-11.5 -1q-4 -1 -11 -2t-11 -2l-86 -9q-4 -2 -10 -2h-2
q-2 -2 -7 -2q-6 0 -6 -2q-4 -4 -4 -8q-3 -24 -10 -57q-1 -6 -4 -19.5t-4 -19.5t-4 -19.5t-4 -19.5q-1 -8 -4.5 -23.5t-4.5 -23.5q-2 -8 -5 -23.5t-5 -23.5q-1 -5 -3 -16.5t-3 -16.5q-9 -36 -12 -66q-1 -3 -2 -9t-2 -9q-11 -46 -11 -76q0 -35 -2 -53q-2 -16 -2 -49
q0 -55 2 -82q0 -5 1 -14.5t1 -14.5q0 -15 4 -39q12 -91 50 -172q27 -58 65 -94q31 -31 82 -51q42 -14 70 -19q6 0 10 -2q2 -2 8 -2v-10l-6 -6q-18 -21 -49 -27q-45 -10 -80 -2q-29 5 -74 19q-95 36 -143 116q-33 50 -51 109q-17 61 -25 108q-12 70 -12 144q-4 98 4 170
q0 5 1 14t1 14t1 14.5t1 14.5q2 17 12 94q2 10 6.5 39t6.5 45q2 18 10 49q4 22 8 35q1 5 3 16.5t3 16.5l4 20q1 3 2 9.5t2 9.5h-12q-43 -2 -133 -6q-41 -2 -127 -6q-17 0 -23 -15q-84 -172 -118 -237q-5 -9 -14.5 -28t-14.5 -28q-53 -109 -70 -139q-12 -24 -47 -78
q-2 -2 -10 -14q-6 -10 -45 -66q-44 -58 -82 -96q-4 -3 -11.5 -9t-11.5 -9t-11 -9.5t-11 -9.5q-64 -54 -125 -88q-66 -32 -117 -47q-89 -23 -170 -14q-64 6 -125 37q-59 29 -110 80q-52 55 -72 120q-27 83 -12 166q24 163 160 258q52 35 120 54q80 21 160 12q80 -10 137 -53
q75 -57 78 -154q0 -42 -12 -86q-7 -21 -25 -33q-9 -5 -14 -2q-8 3 -16 8q-13 10 -7 29q0 1 3 11t4 16l6 24q9 76 -41 129q-23 26 -64 39q-74 27 -149 15q-128 -18 -215 -119q-41 -50 -56 -109q-17 -55 -14 -98q0 -114 82 -199q42 -39 98 -57q43 -14 78 -19q22 -3 45 0
q68 9 123 35q80 37 139 97q78 73 152 176q39 56 82 141q2 3 5 9t5 9q5 10 15.5 32t15.5 32t15 31.5t15 31.5q32 66 46 99q4 8 11 23.5t11 23.5q4 7 11.5 22.5t11.5 22.5q5 7 8 20zM1794 1845l-4 -4l-299 -586q-25 -50 -76.5 -150.5t-77.5 -150.5v-2q-2 -2 -2 -4v-2h21
q21 0 67 4l164 8q5 0 8 3q1 0 9 4l2 2q6 8 10 24l4 8q33 112 41 142q3 13 10 35.5t10 35.5l21 70q1 4 4 13.5t4 13.5q16 53 33 118q4 13 11 38.5t11 39.5l21 78q16 53 24 94q6 22 9 41l4 21q9 38 6 76q0 33 -35 30zM2054 2238l-29 -20q-47 -35 -127 -82q-62 -36 -143 -45
q4 3 12.5 9t12.5 9l45 33q47 35 141 101q19 16 39 16q14 0 49 -21z" />
    <glyph glyph-name="Acircumflex" unicode="&#xc2;" horiz-adv-x="1902" 
d="M1090 868q-4 0 -12 1t-11 1q-4 0 -11.5 1t-11.5 1q-65 0 -145 17q-83 19 -151 55q-77 46 -113 119q-43 85 -37 180q3 77 43 141q59 97 141 156q19 14 49 33l25 16q11 8 27 8h10q4 -4 4 -6v-6q0 -4 -4 -8l-12 -12q-4 -6 -13 -15l-28 -20q-3 -2 -9.5 -6t-9.5 -6
q-83 -58 -131 -138q-31 -56 -41 -104q-7 -45 -4 -78q2 -16 10 -43q11 -52 54 -102q39 -42 92 -66q60 -26 119 -37q86 -15 176 -12q8 0 12 2t12 2t15 10l53 95q19 31 53 89t43 72q11 19 34 57t34 58q11 19 33.5 57t33.5 58q6 10 19.5 31.5t19.5 31.5q17 28 52 85.5t53 86.5
q26 44 39 62l36 61l9 12q5 8 26 50q8 14 25 24q12 9 28 12q24 7 46 7q101 -9 110 -107q3 -56 -6 -111q-7 -48 -14 -79q-1 -8 -13 -66q-1 -5 -3 -14.5t-3 -14.5q-4 -20 -6 -28q-1 -5 -3 -15.5t-3 -15.5q-14 -55 -21 -90q-8 -40 -14 -60l-18 -86q-1 -5 -3 -14t-3 -14
t-3.5 -14.5t-3.5 -14.5q-9 -32 -20 -86l-9 -40.5t-10 -49.5v-12q8 2 21 2l74 16l98 19q40 8 63 12q25 0 39 -2q0 -4 -1 -12t-1 -11q0 -4 -1 -11t-1 -11q-4 -13 -10 -17q-7 -7 -16 -10q-27 -8 -43 -10q-59 -8 -86 -10q-21 -3 -45 -6q-13 -1 -97 -11h-2q-2 -2 -6 -2
q-6 0 -6 -2q-4 -4 -4 -8q-3 -24 -10 -57q-1 -6 -4.5 -19.5t-4.5 -19.5t-4 -19.5t-4 -19.5q-1 -8 -4 -23.5t-4 -23.5q-2 -8 -5 -23.5t-5 -23.5q-1 -5 -3 -16.5t-3 -16.5q-11 -42 -13 -66q-1 -3 -2 -9t-2 -9q-10 -42 -10 -76q0 -35 -2 -53q-2 -16 -2 -49q0 -37 4 -111
q0 -15 4 -39q12 -94 49 -172q26 -57 66 -94q31 -31 82 -51q42 -15 69 -19q7 0 11 -2q2 -2 8 -2v-8q0 -1 -1 -3t-1 -3l-2 -2q-20 -20 -51 -27q-44 -10 -80 -2q-29 5 -74 19q-95 36 -143 116q-35 53 -52 109q-15 52 -24 108q-12 70 -12 144q-4 98 4 170q0 5 1 14t1 14t1 14.5
t1 14.5q2 17 12 94q6 41 12 84q1 10 11 49q4 22 8 35q1 5 3 16.5t3 16.5l4 20q1 3 2 9.5t2 9.5h-12q-43 -2 -133 -6q-10 0 -31 -1t-31 -1q-11 -1 -32 -2t-31 -2q-7 0 -15 -4q-6 -3 -10 -11q-71 -146 -119 -237q-5 -9 -14 -28t-14 -28q-53 -109 -70 -139q-12 -24 -47 -78
q-2 -2 -10 -14q-6 -10 -45 -66q-44 -58 -82 -96q-4 -3 -11.5 -9t-11.5 -9t-11 -9.5t-11 -9.5q-64 -54 -125 -88q-66 -32 -117 -47q-89 -23 -170 -14q-65 6 -125 37q-59 29 -110 80q-52 55 -72 120q-27 83 -12 166q24 163 159 258q56 36 121 54q80 21 160 12q79 -9 137 -53
q75 -57 78 -154q0 -42 -12 -86q-7 -21 -25 -33q-11 -4 -14 -2q-10 3 -15 8q-15 9 -8 29q1 2 2 7t2 7q4 11 8 37q12 73 -41 129q-23 26 -63 39q-73 27 -149 15q-129 -18 -216 -119q-36 -48 -55 -109q-17 -55 -14 -98q0 -114 82 -199q42 -39 98 -57q43 -14 78 -19q24 -3 45 0
q68 9 123 35q79 37 139 97q78 73 152 176q39 56 82 141q2 3 5 9t5 9q5 10 15.5 32t15.5 32t15 31.5t15 31.5q24 49 45 99q28 54 45 92q6 10 9 20zM1741 1845l-4 -4l-299 -586q-26 -50 -77.5 -150.5t-76.5 -150.5v-2q-2 -2 -2 -4v-2h21q21 0 67 4l164 8q5 0 8 3l8 4l2 2
q11 14 15 32q33 112 41 142q35 118 41 141q1 4 4 13.5t4 13.5q16 53 33 118l12 46q22 67 31 110q16 53 24 94q4 15 8 41l4 21q10 41 7 76q0 33 -35 30zM2015 2040l-45 41q-56 52 -88 80l-49 -25q-111 -66 -238 -90q1 1 4.5 3t4.5 3q6 6 18 14l74 50q113 74 186 125
q44 30 62 -19q19 -47 55 -113q3 -5 8 -15t8 -15q1 -2 3 -7.5t3 -7.5l4 -16l-4 -4q-1 -1 -3 -2t-3 -2z" />
    <glyph glyph-name="Atilde" unicode="&#xc3;" horiz-adv-x="1902" 
d="M1073 879q-4 0 -11.5 1t-10.5 1q-4 0 -12.5 1t-12.5 1q-65 0 -143 16q-85 19 -152 55q-76 45 -115 119q-39 83 -36 180q6 79 43 142q56 92 143 155q31 22 43 29l29 20q1 0 2 1.5t2 1.5q12 6 24 6h8q2 -1 7 -6v-7q0 -4 -4 -8l-13 -12q-4 -6 -12 -14q-19 -14 -49 -33
q-78 -56 -129 -137q-28 -47 -41 -105q-7 -45 -4 -78q2 -16 10 -43q11 -54 53 -102q38 -41 90 -66q59 -24 119 -36q94 -16 176 -13q9 0 13 2t12 2q10 0 14 11q16 25 46 77t46 78q20 35 60 101l33 57t34 57q11 19 33.5 57t34.5 58q15 23 40.5 66t31.5 53q11 19 34 58t35 58
q40 61 78 123l8 13q13 20 27 49q10 17 22 24q13 10 31 13q21 6 45 6q102 -9 111 -107q2 -46 -8 -110q-1 -4 -2.5 -13.5t-2.5 -13.5q-4 -34 -8 -53q-3 -17 -18 -94q-9 -30 -15 -60q-10 -50 -20 -90q-5 -25 -6 -29l-6 -30q-8 -40 -21 -86q-1 -5 -3 -14.5t-3 -14.5t-3 -14.5
t-3 -14.5l-18 -86q-10 -35 -13 -61q-1 -5 -3 -14.5t-3 -14.5v-12q2 0 5 1t5 1h11l73 16l99 19l61 12q27 0 41 -2q0 -4 -1 -11.5t-1 -10.5q0 -4 -1 -11.5t-1 -11.5q-6 -20 -27 -27q-27 -8 -43 -10q-59 -8 -86 -10q-4 0 -11 -1t-11 -1q-4 -1 -11.5 -2t-11.5 -2l-86 -8
q-4 -2 -10 -2h-4q-3 -3 -4 -3q-6 0 -6 -2q-4 -4 -4 -8q-9 -42 -11 -57q-1 -6 -4 -19.5t-4 -19.5t-4 -19.5t-4 -19.5q-1 -8 -4 -23.5t-4 -23.5q-2 -8 -5.5 -23.5t-5.5 -23.5t-5 -24.5t-5 -24.5t-5 -24.5t-5 -24.5q-1 -5 -2 -15.5t-2 -15.5q-8 -27 -8 -64q0 -6 -1 -17.5
t-1 -16.5q-4 -50 -4 -68q0 -24 4 -74q0 -6 1 -18.5t1 -18.5q0 -15 4 -39q13 -100 47 -172q29 -56 67 -94q31 -31 82 -51q35 -12 68 -18q8 0 12 -2q3 -3 8 -3v-10l-6 -6q-21 -21 -49 -27q-45 -10 -80 -2q-32 5 -73 19q-94 35 -146 117q-34 60 -49 108q-17 59 -25 109
q-12 71 -12 143q-4 98 4 170q0 5 1 14.5t1 14.5t1 14t1 14q2 18 6.5 50t6.5 45q6 40 12 84q2 18 10 49q7 40 14 67v4q4 21 9 35h-13q-12 0 -33.5 -1t-31.5 -1q-11 -1 -33.5 -2t-34.5 -2q-10 0 -31.5 -1t-31.5 -1q-10 -1 -32 -2t-32 -2q-16 0 -22 -14q-14 -27 -40.5 -80.5
t-39.5 -79.5q-6 -13 -19.5 -39t-19.5 -39q-5 -9 -14.5 -27.5t-14.5 -27.5q-65 -133 -69 -140q-9 -18 -35 -57q-22 -33 -23 -35q-4 -5 -11 -16.5t-11 -16.5t-11.5 -16t-11.5 -16q-37 -49 -82 -97q-4 -3 -11 -9t-11 -9t-11.5 -9t-11.5 -9q-65 -55 -127 -88q-72 -35 -116 -48
q-88 -22 -168 -14q-64 6 -125 37q-61 30 -111 80q-51 54 -72 121q-27 83 -12 166q24 163 160 258q48 33 121 53q80 21 159 12q81 -10 138 -53q75 -57 75 -154q0 -38 -10 -86q-6 -19 -26 -32q-10 -5 -15 -3q-2 1 -14 9q-12 9 -6 28q3 12 6 27q1 4 3 12.5t3 12.5q9 76 -41 129
q-22 25 -63 38q-74 27 -152 15q-125 -17 -213 -119q-38 -46 -57 -109q-13 -54 -13 -98q0 -113 82 -198q39 -39 97 -58q43 -13 79 -18q23 -3 46 0q66 9 122 35q83 39 140 96q79 73 149 176q38 57 94 160q5 10 15.5 31.5t15.5 31.5t15.5 32t15.5 32q4 8 11 24.5t11 24.5
t11.5 24.5t11.5 24.5t11 23.5t11 23.5q4 7 11.5 22.5t11.5 22.5t8 21zM1724 1855l-4 -4l-303 -594q-24 -49 -74 -146t-75 -146l-2 -2v-5v-2h20q10 0 68 5l164 8q6 0 8 2q4 2 8 6q12 16 14 24q0 2 1 5t1 4q3 12 10.5 35t10.5 36l20 70q3 12 10.5 35.5t10.5 36.5l20 69l21 74
q2 9 9.5 33.5t10.5 38.5q4 14 11.5 39.5t11.5 38.5l20 77q5 19 13.5 52t11.5 43q0 2 1 5t1 5q0 1 1 4t1 4q0 2 1 5.5t1 4.5q0 6 2 10q0 7 2 11v2v4l2 2v4q9 38 6 76q0 33 -35 30zM2093 2265q-12 -99 -90 -139q-79 -38 -158 8q-70 46 -119 43q-48 -3 -114 -57
q-2 -2 -6.5 -5.5t-6.5 -5.5t-6.5 -5.5t-7.5 -6.5q1 3 2 9t2 8q0 8 4 16q41 84 115 108q76 25 143 -22q73 -49 129 -37q59 15 103 68q4 4 6 8q1 2 2 5t2 5z" />
    <glyph glyph-name="Adieresis" unicode="&#xc4;" horiz-adv-x="1902" 
d="M1077 868q-4 0 -11.5 1t-10.5 1q-4 0 -12.5 1t-12.5 1q-60 0 -143 17q-85 19 -152 55q-74 44 -114 119q-40 85 -37 180q6 77 43 141q57 94 143 156q31 22 43 29l29 20q1 0 2 1t2 1q12 6 24 6h9l6 -6v-6q0 -4 -4 -8l-13 -12q-6 -9 -12 -15q-11 -8 -49 -32
q-77 -56 -129 -138q-29 -47 -41 -104q-7 -45 -4 -78q2 -16 10 -43q11 -54 53 -102q38 -41 90 -66q64 -26 119 -37q89 -15 176 -12q9 0 13 2t12 2q11 0 14 10q15 26 46 78t46 78q10 17 60 100q11 20 33.5 58t33.5 57t33.5 57t34.5 58q1 2 72 118l69 117q40 61 78 123l8 12
q10 16 27 50q10 17 22 24q12 9 31 12q25 7 45 7q102 -9 111 -107q2 -46 -8 -111q-1 -4 -2 -13t-2 -13q-3 -25 -9 -53q-6 -33 -18 -95q-7 -22 -14 -59q-7 -34 -21 -90q-5 -25 -6 -29q-1 -5 -3 -15.5t-3 -15.5q-8 -40 -21 -86q-1 -5 -3 -14t-3 -14t-3 -14.5t-3 -14.5l-18 -86
q-10 -35 -13 -61q-1 -5 -3 -14.5t-3 -14.5v-12q2 0 5 1t5 1h11l73 16l99 19l61 12q27 0 41 -2q0 -4 -1 -12t-1 -11q0 -4 -1 -11t-1 -11q-6 -20 -27 -27q-27 -8 -43 -10q-59 -8 -86 -10q-4 0 -11 -1t-11 -1q-4 -1 -11.5 -2t-11.5 -2l-86 -9q-4 -2 -10 -2h-4q-2 -2 -4 -2
q-6 0 -6 -2q-4 -4 -4 -8q-9 -42 -11 -57q-1 -6 -4 -19.5t-4 -19.5t-4 -19.5t-4 -19.5q-1 -8 -4 -23.5t-4 -23.5q-2 -8 -5 -23.5t-5 -23.5t-5.5 -25t-5.5 -25t-5 -24.5t-5 -24.5q-1 -5 -2 -15t-2 -15q-8 -27 -8 -64q0 -6 -1 -18t-1 -17q-4 -50 -4 -67q0 -24 4 -74
q0 -6 1 -18.5t1 -18.5q0 -15 4 -39q13 -100 47 -172q28 -54 68 -94q32 -32 81 -51q41 -14 68 -19q8 0 12 -2q2 -2 9 -2v-10q-1 -1 -3.5 -3t-3.5 -3q-21 -21 -49 -27q-45 -10 -80 -2q-32 5 -73 19q-95 36 -146 116q-34 59 -49 109q-15 52 -24 108q-13 76 -13 144q-4 98 4 170
q0 5 1 14t1 14t1 14.5t1 14.5q2 18 6.5 49.5t6.5 44.5q6 41 12 84q2 18 10 49q5 32 15 68v4q4 26 8 35h-13q-12 0 -33.5 -1t-31.5 -1q-11 -1 -33.5 -2t-34.5 -2q-10 0 -31.5 -1t-31.5 -1q-10 -1 -32 -2t-32 -2q-16 0 -22 -15q-13 -27 -40 -80t-40 -79q-6 -13 -19.5 -39
t-19.5 -39q-5 -9 -14.5 -28t-14.5 -28q-61 -124 -69 -139q-9 -18 -35 -57q-22 -33 -23 -35q-4 -5 -11 -16.5t-11 -16.5t-11.5 -16.5t-11.5 -16.5q-33 -44 -82 -96q-4 -3 -11 -9t-11 -9t-11.5 -9.5t-11.5 -9.5q-65 -55 -127 -88q-67 -33 -116 -47q-88 -22 -168 -14
q-64 6 -125 37q-61 30 -111 80q-50 53 -71 120q-28 85 -13 166q24 163 160 258q51 34 121 54q80 21 160 12q80 -10 137 -53q76 -58 76 -154q0 -33 -11 -86q-7 -20 -26 -33q-8 -4 -15 -2q-8 4 -14 8q-13 9 -6 29q3 12 6 27l6 24q9 76 -41 129q-23 26 -63 39q-74 27 -152 15
q-125 -17 -213 -119q-38 -46 -57 -109q-12 -50 -12 -98q0 -115 81 -199q38 -38 97 -57q48 -14 80 -19q23 -3 45 0q68 9 123 35q79 37 139 97q79 73 149 176q47 71 95 159q5 10 15 32t15 32t15.5 31.5t15.5 31.5q4 8 11 25t11 25t11.5 24.5t11.5 24.5t11.5 23.5t11.5 23.5
q4 7 11 22.5t11 22.5q5 7 8 20zM1729 1845l-5 -4l-303 -594q-24 -49 -74 -146.5t-75 -146.5l-2 -2v-4v-2h20q22 0 68 4l164 8q5 0 8 3q4 2 8 6q12 16 14 24q0 2 1 4.5t1 3.5q3 12 10.5 36t10.5 36l20 70q3 13 10.5 35.5t10.5 35.5l20 70l21 74q2 9 9.5 33t10.5 38
q4 13 11.5 38.5t11.5 39.5l20 78q5 19 13.5 51t11.5 43l12 62q9 38 6 76q0 33 -34 30zM1653 2118q-52 0 -43 55q10 32 41 57q33 26 65 29q25 0 37 -12q13 -16 10 -39q-10 -40 -41 -64q-33 -26 -69 -26zM1939 2118q-23 0 -36 16q-10 17 -2 41q20 66 92 84q33 6 49 -14
q13 -20 4 -50q-10 -30 -43 -55q-27 -22 -64 -22z" />
    <glyph glyph-name="Aring" unicode="&#xc5;" horiz-adv-x="1902" 
d="M1079 868q-4 0 -11.5 1t-10.5 1q-4 0 -12.5 1t-12.5 1q-62 0 -139 17h-6q-82 19 -152 55q-71 42 -112 119q-43 85 -37 180q6 77 43 141q57 94 143 156q36 27 51 37l21 12q11 8 28 8h9l6 -6q0 -4 -2 -6q0 -6 -2 -8l-9 -8q-3 -3 -9 -9.5t-9 -9.5q-11 -10 -47 -32
q-78 -54 -131 -138q-32 -58 -39 -104q-10 -43 -4 -78l4 -20q1 -4 2 -11.5t2 -11.5q14 -55 55 -102q35 -41 90 -66q58 -25 119 -37q86 -15 176 -12q9 0 13 2t12 2q6 0 8 2l6 6v2q7 13 21.5 37.5t21.5 36.5q48 78 107 182l37 62q70 120 100 168q1 2 72 118l69 117
q38 61 78 123q7 13 17 27q3 5 18 35q10 16 23 24q12 9 30 12q24 7 43 7q105 -9 111 -107q3 -56 -6 -111l-13 -79l-12 -54l-8 -41q-4 -20 -6 -28q-1 -5 -3 -15.5t-3 -15.5q-2 -7 -5.5 -22.5t-5.5 -22.5t-5 -22.5t-5 -22.5q-5 -25 -6 -29q-1 -5 -3 -15.5t-3 -15.5
q-2 -7 -5 -21.5t-5 -21.5t-5.5 -21.5t-5.5 -21.5q-1 -5 -3 -14t-3 -14t-3 -14.5t-3 -14.5q-2 -7 -5 -21.5t-5 -21.5t-5 -21.5t-5 -21.5l-9 -40.5t-10 -49.5v-12q8 2 21 2l41 8q14 5 34 8l99 19l61 12q25 0 39 -2q0 -17 -4 -45q-3 -20 -27 -27q-27 -8 -41 -10q-57 -8 -88 -10
l-43 -6q-20 -1 -96 -11q-4 0 -6 -2h-2q-6 0 -8 -2t-2 -8q-1 -5 -3 -14.5t-3 -14.5t-3.5 -14t-3.5 -14q-1 -6 -3 -19.5t-3 -19.5q-3 -9 -8 -39q-1 -8 -4 -23.5t-4 -23.5q-2 -8 -5 -23.5t-5 -23.5q-12 -50 -21 -99q-5 -30 -6 -35q-4 -21 -8 -59q0 -35 -2 -53q-2 -16 -2 -49
q0 -37 4 -111q0 -3 1 -9t1 -9q0 -4 1 -11t1 -10q12 -94 49 -172q24 -52 66 -94q37 -34 81 -51q42 -14 70 -19q6 0 10 -2q2 -2 9 -2v-10q0 -1 -5 -6q-20 -20 -51 -27q-45 -10 -80 -2q-27 4 -73 19q-93 36 -144 116q-34 59 -49 109q-18 52 -24 108q-12 70 -15 144t4 170l4 28
q0 5 1 14.5t1 14.5q1 16 11 94q6 41 12 84q1 4 3 12.5t3 12.5l4 24q10 36 15 68q4 9 8 35v4h-10q-112 -5 -134 -6q-86 -4 -127 -6q-19 0 -22 -15q-14 -27 -40.5 -80l-39.5 -79q-6 -13 -19.5 -39t-19.5 -39q-87 -174 -98 -195q-8 -14 -24.5 -39.5t-20.5 -32.5q-5 -5 -15 -20
q-6 -10 -45 -66q-44 -58 -82 -96q-13 -13 -45 -37q-64 -54 -125 -88q-67 -33 -116 -47q-89 -23 -168 -14q-63 6 -127 37q-62 30 -109 80q-49 52 -73 120q-25 85 -13 166q24 161 162 258q51 34 121 54q77 21 158 12q82 -10 139 -53q76 -58 76 -154q0 -39 -13 -86
q-7 -22 -24 -33q-8 -4 -15 -2q-9 3 -14 8q-11 9 -8 29q1 2 2 7t2 7q4 11 8 37q12 75 -39 129q-27 27 -65 39q-73 27 -150 15q-129 -18 -213 -119q-38 -46 -57 -109q-14 -46 -14 -98q0 -115 81 -199q41 -38 99 -57q1 0 3 -1t3 -1q47 -15 74 -17q21 -3 45 0q66 10 121 35
q83 39 141 97q84 81 149 176q39 56 82 141q2 3 5.5 9t5.5 9q36 67 61 127l25 50q7 20 22 49q17 38 45 92q4 12 8 20zM1729 1845v-2h-3v-2q-7 -14 -454 -887v-2q0 -1 -1 -2t-1 -2v-2h2h18q20 0 70 4l82 4q13 1 40 2t40 2q12 0 18 9q12 16 14 24q0 2 1 4.5t1 3.5q8 31 41 142
q6 23 41 141l21 74q12 46 18 71q3 11 17 57.5t20 71.5q1 4 4 13.5t4 13.5q5 19 13.5 51t11.5 43q1 5 3 15.5t3 15.5q0 11 4 31q8 36 8 76q0 33 -36 30zM1831 1980q-49 0 -72 29t-8 78q47 130 180 164q52 18 92 -25q33 -44 9 -96q-28 -67 -82 -109q-59 -41 -119 -41z
M1839 2009q50 6 98 51q50 45 60 97q3 66 -62 51q-104 -30 -141 -133q-9 -27 4 -47q13 -19 41 -19z" />
    <glyph glyph-name="AE" unicode="&#xc6;" horiz-adv-x="2918" 
d="M2841 610q13 -60 10 -133q0 -53 -12 -106q-16 -67 -54 -144q-52 -96 -108 -157q-64 -70 -152 -129q-34 -27 -67 -43q-87 -50 -185 -74q-67 -16 -73 -17q-98 -16 -185 -16q-69 3 -137 12q-90 15 -174 56q-88 45 -152 118q-83 114 -98 263q-15 151 0 286l2 2v11q5 39 8 53
q0 11 4 31l9 49q1 6 4 17.5t4 17.5l8 32q1 2 2 7t2 8q0 2 1 6t1 6l2 12h-12q-12 0 -34 -1t-32 -1q-11 -1 -33 -2t-34 -2q-10 0 -32 -1t-32 -1q-10 -1 -31.5 -2t-31.5 -2q-17 0 -23 -14q-13 -27 -39.5 -80.5t-40.5 -79.5q-6 -14 -19.5 -39.5t-19.5 -38.5q-5 -9 -14 -27.5
t-14 -27.5q-57 -118 -70 -140q-5 -10 -12 -21t-15.5 -24.5t-13.5 -21.5q-3 -4 -9 -12.5t-9 -12.5l-21 -32q-4 -5 -11 -16.5t-11 -16.5q-33 -44 -82 -96q-4 -3 -11.5 -9.5t-11.5 -9.5t-11 -9t-11 -9q-60 -51 -127 -88q-66 -32 -117 -47q-91 -23 -168 -15q-64 6 -125 37
q-59 29 -110 80q-51 54 -72 121q-27 83 -12 166q24 163 159 258q48 33 121 53q80 21 160 12q80 -10 137 -53q76 -58 76 -154q0 -38 -10 -86q-6 -18 -27 -32q-8 -4 -14 -2q-11 3 -15 8q-11 8 -8 28q2 7 6.5 21.5t6.5 21.5l2 9q9 76 -41 129q-26 26 -64 39q-72 26 -151 14
q-125 -17 -213 -119q-40 -49 -58 -108q-14 -46 -14 -99q3 -117 84 -198q40 -40 96 -58q41 -12 80 -18q22 -3 45 0q68 9 123 35q81 38 139 96q87 84 150 176q46 70 92 160q30 56 63 127q18 42 45 98q4 8 11.5 23.5t11.5 23.5q4 7 11 22.5t11 22.5q3 9 9 21q-4 0 -12 1t-11 1
q-4 0 -12 1t-12 1q-69 0 -144 16q-83 19 -151 55q-76 45 -115 119q-40 85 -37 180q6 79 43 142q56 92 143 155q28 21 52 37l20 13q11 8 29 8h8l6 -6q0 -5 -2 -7q0 -6 -2 -8l-8 -8q-3 -3 -9.5 -9t-9.5 -9q-16 -13 -47 -33q-78 -56 -129 -137q-33 -54 -41 -105q-8 -34 -4 -78
l4 -20q1 -4 2 -11.5t2 -11.5q14 -53 56 -102q35 -41 90 -66q59 -24 119 -36q93 -16 176 -13q8 0 12 2t12 2q11 0 15 11q15 25 45.5 77t46.5 78q37 64 59 101q11 20 33.5 57.5t34.5 56.5q12 20 34 58l33 57q15 23 40.5 66t31.5 53q11 19 34.5 58t35.5 59q6 10 19.5 30.5
t19.5 30.5t19.5 30.5t19.5 30.5l8 13q8 12 26 49q10 16 23 24q13 10 31 13q21 6 45 6q101 -9 110 -107q2 -46 -8 -110q-1 -4 -2 -13.5t-2 -13.5q-4 -34 -8 -53q-8 -43 -21 -94q-5 -25 -6 -29q-1 -5 -3 -15.5t-3 -15.5q-10 -50 -20 -90q-1 -4 -2 -9t-2.5 -10.5t-2.5 -8.5
q-1 -5 -3 -15.5t-3 -15.5q-11 -54 -20 -86q-1 -5 -3 -14.5t-3 -14.5t-3.5 -14.5t-3.5 -14.5l-18 -86q-9 -30 -12 -61q-1 -5 -3 -14.5t-3 -14.5v-12q4 0 6 2h2q35 28 63 45q72 47 125 72q1 1 3 2t3 2q2 2 4 2q9 6 11 12q3 5 -4 15q-3 6 -23 36q-45 65 -51 152q-3 47 10 102
q30 120 107 215q74 90 168 134q67 35 149 51q59 15 119 12q98 -3 155 -78q50 -65 41 -155q-12 -107 -96 -170q-54 -45 -125 -45q-52 3 -76 43q-23 44 7 81q5 8 14 11q12 0 18 -4q5 -5 7 -9q0 -4 -3 -10q-2 -19 9 -45q11 -29 45 -22q56 16 84 59q37 43 47 106q9 61 -19 115
q-18 40 -55 55q-61 31 -123 17q-64 -14 -127 -58q-118 -84 -178 -219q-34 -78 -37 -163q0 -60 23 -127q1 -2 3 -6.5t3 -6.5l4 -12q5 -11 16 -18q10 -3 23 0q18 2 45 10q56 21 113 30q55 7 102 -4q29 -4 45 -20q17 -17 20 -45q3 -29 -18 -53q-17 -17 -45 -31
q-66 -32 -147 -29q-65 0 -129 25q-32 11 -68 8q-21 -3 -35 -12q-100 -50 -176 -129q-79 -82 -121 -181q-31 -70 -43 -143q-14 -79 -4 -172q12 -117 74 -223q71 -118 194 -178q69 -34 146 -43q60 -11 135 -4q95 10 166 34q101 36 196 103q104 72 172 170l13 20q35 51 80 133
q20 44 36 97q22 70 13 139q-6 107 -80 178q-34 40 -86 49q-50 7 -86 2q-13 0 -37 -4q-110 -15 -190 -98q-41 -41 -84 -115q-41 -71 -62 -151q-7 -25 -14 -68q-4 -44 -8 -68v-2l-2 -2q-29 26 -29 58q-3 46 6 92q30 120 104 215q45 62 111 110q68 50 148 68q50 12 100 6
q36 -3 74 -12q85 -24 131 -100q31 -50 39 -97zM2077 995q-9 -9 2 -14l2 -2h2q26 -12 55 -18q31 -9 62 -3q7 2 21.5 6.5t21.5 6.5q2 1 7 2t7 2q12 8 16 12q15 15 6 37q-6 20 -26 20h-29q-32 0 -53 -8q-4 -1 -13.5 -4t-13.5 -4l-24 -6q-25 -6 -43 -27zM1530 885q3 12 10 35
t10 36l21 70q3 12 10 36t10 36l21 69l20 74q3 10 10.5 34t10.5 38q4 13 11 39t11 39l21 77q8 33 24 95l13 61q9 38 6 76q0 34 -35 31l-4 -5q-279 -541 -453 -886l-2 -2v-4v-3h21q10 0 67 5l164 8q6 0 8 2q4 2 8 6q13 18 15 25q0 2 1 4.5t1 3.5z" />
    <glyph glyph-name="Ccedilla" unicode="&#xc7;" horiz-adv-x="1546" 
d="M1821 1761q8 -36 4 -84q0 -60 -23 -127q-22 -70 -63 -147q-7 -17 -19 -29q-1 -2 -3 -5t-3 -5q-90 -129 -219 -231q-80 -66 -188 -127q-72 -41 -127 -60q-81 -24 -144 -37q-94 -20 -196 -20q-28 -3 -52 0h-26l-2 -2q0 -4 -2 -4v-4q-14 -80 -19 -146q-4 -106 -4 -162
q0 -65 10 -147q12 -92 48 -170q27 -67 88 -131q56 -53 123 -64q47 -10 88 -4q44 6 88 27q93 46 161 111q92 89 154 184q7 10 45 71.5t59 92.5l9 8q1 1 3 4t3 4q10 7 18 2q8 -4 10 -8q3 -6 3 -12q-3 -9 -7 -17q-62 -114 -141 -219q-53 -70 -100 -117q-72 -72 -158 -123
q-45 -23 -84 -34q-89 -27 -184 -15v0h-2v2q-27 -25 -90 -92h41q32 3 61 0q93 -12 127 -76q31 -69 -14 -149q-52 -78 -140 -102q-137 -44 -268 4q-76 23 -115 100q-4 11 -8 33l-6 24q8 4 12 4q1 -1 4 -3.5t5 -4.5q4 -4 6 -8q57 -85 155 -106q103 -22 187 30q66 40 75 117
q3 55 -26 84q-32 29 -84 23q-33 -5 -82 -19l-21 -4l-8 8q47 49 144 146q-26 7 -64 22q-53 22 -106 62q-61 52 -101 131q-32 65 -49 127q-9 33 -20 96q-6 47 -9 96v29q-3 30 0 61q0 18 3 33q0 50 6 100q9 44 12 86q2 2 2 11q0 10 2 16q2 4 2 12l-39 13q-12 2 -41 10
q-11 4 -33.5 12t-33.5 12q-13 3 -70 23q-88 37 -149 92q-61 54 -84 129q-22 67 -19 133q6 103 66 180q73 100 188 164q74 45 145 64q85 23 154 26q40 4 59 4h7q50 -4 75 -8q53 -10 88 -47q12 -15 9 -31q-1 0 -2 1.5t-2 1.5h-2l-3 2q-47 19 -88 30q-42 8 -98 11q-30 0 -70 -7
q-48 -6 -98 -18q-55 -15 -108 -39q-74 -38 -127 -80q-70 -55 -111 -133q-25 -46 -31 -92q-4 -32 -4 -53q0 -78 41 -140q35 -51 92 -90q61 -41 140 -67q77 -25 133 -35q8 0 24 -4q16 43 17 45l8 22q1 3 12.5 30t16.5 42q10 23 28.5 66t20.5 47q55 115 141 225q47 58 107 121
q108 111 235 198q94 66 197 109q56 22 92 31q56 15 110 18q43 6 95 -8q48 -12 77 -49q43 -52 54 -107zM1757 1677q6 68 -14 127q0 4 -4 8q-2 4 -8 7q-25 13 -64 16q-57 3 -106 -10q-57 -17 -117 -49q-98 -54 -184 -123q-99 -83 -179 -160q-28 -25 -69 -74q-42 -51 -80 -110
q-39 -61 -78 -140q-42 -88 -68 -174q-4 -16 -6 -28q11 0 15 -2h12q61 0 133 10q72 11 125 26q34 8 125 39q111 46 196 103q107 68 183 155q85 94 133 205q9 21 18 45q3 10 17 43q18 51 20 86z" />
    <glyph glyph-name="Egrave" unicode="&#xc8;" horiz-adv-x="1562" 
d="M1395 1788q-38 -3 -103 24q-70 31 -121 66q-63 44 -84 76q19 0 27 2q33 3 47 -4q101 -68 150 -105q15 -10 43.5 -30.5t40.5 -28.5zM920 172q-29 26 -29 57q-3 47 6 93q30 120 104 215q45 62 111 110q68 50 148 68q50 12 100 6q36 -3 74 -12q84 -24 131 -101
q31 -50 39 -96q13 -60 10 -133q0 -54 -12 -107q-16 -65 -54 -143q-54 -99 -108 -158q-64 -70 -152 -129q-34 -27 -67 -43q-84 -48 -185 -73q-67 -16 -73 -17q-98 -16 -185 -16q-69 3 -137 12q-93 15 -174 55q-92 47 -160 127q-67 79 -106 187q-4 12 -4 22l-9 45l-8 37
q-3 31 0 66q2 6 2 18q3 21 6 45q8 50 29 119q22 61 51 115q46 74 97 131q79 79 159 131q66 44 125 71q1 1 3 2.5t3 2.5q2 2 4 2q9 6 11 12q2 5 -4 14q-5 10 -23 37q-45 65 -51 152q-3 47 10 102q30 120 107 215q73 88 168 133q67 35 149 51q62 16 119 13q98 -3 155 -78
q51 -65 41 -156q-12 -107 -96 -170q-54 -45 -125 -45q-52 3 -76 43q-23 45 7 82q5 7 14 10q12 0 18 -4q6 -6 7 -8q0 -4 -3 -10q-2 -19 9 -45q12 -30 45 -23q56 16 84 60q37 43 47 106q9 61 -19 115q-18 40 -55 55q-61 31 -123 17q-64 -14 -127 -58q-118 -84 -178 -219
q-34 -78 -37 -164q0 -60 23 -127l6 -12l4 -12q6 -13 16 -19q10 -3 23 0q18 2 45 10q61 23 113 31q55 7 102 -4q29 -4 45 -20q17 -17 20 -45q3 -30 -18 -54q-15 -15 -45 -30q-66 -32 -147 -29q-68 0 -129 24q-34 12 -68 9q-18 -3 -35 -13q-100 -50 -176 -129
q-79 -83 -121 -180q-31 -70 -43 -143q-14 -79 -4 -172q12 -117 74 -223q72 -119 194 -179q69 -34 146 -43q60 -11 135 -4q91 10 166 35q104 37 196 102q104 72 172 170l13 21q35 51 80 133q21 47 36 96q22 70 13 140q-6 107 -80 178q-34 40 -86 49q-50 7 -86 2q-13 0 -37 -4
q-110 -15 -190 -98q-41 -41 -84 -115q-40 -70 -62 -152q-7 -27 -14 -67q-4 -44 -8 -68v-2zM987 946q-32 0 -53 -8q-4 -1 -13.5 -4t-13.5 -4l-24 -6q-25 -6 -43 -27q-9 -9 2 -14l2 -2h2q31 -14 55 -19q29 -9 62 -2q7 2 21.5 6t21.5 6q2 1 7 2.5t7 2.5q12 8 16 12q15 15 6 37
q-6 20 -26 20h-29z" />
    <glyph glyph-name="Eacute" unicode="&#xc9;" horiz-adv-x="1562" 
d="M1423 1954q-2 -2 -7 -5t-7 -5q-52 -43 -133 -91q-66 -40 -150 -49q43 34 70 51l33 25q53 40 108 78q20 14 37 14q19 0 49 -18zM934 184q-28 25 -31 58q-3 46 6 92q29 118 105 215q47 65 112 110q68 52 146 70q50 9 100 6q40 -3 74 -14q84 -24 131 -98q30 -52 41 -99
q11 -60 8 -133q0 -51 -12 -104q-18 -75 -53 -144q-42 -83 -109 -159q-64 -70 -149 -129q-3 -2 -9.5 -6.5t-9.5 -6.5q-24 -15 -51 -30q-88 -48 -184 -74q-7 -1 -19 -4l-16 -4l-37 -9q-88 -17 -186 -14q-67 0 -138 12q-87 11 -174 54q-96 52 -160 127q-66 77 -106 186
q0 2 -2 4q-2 6 -2 19q-9 38 -12 71q-2 4 -2 10q-5 31 -2 70q2 4 2 14q1 4 2 11.5t2 11.5q0 4 1 11t1 11q8 53 28 119q23 67 54 117q41 71 96 129q64 70 160 133q68 47 125 70l4 4q1 0 2 1t2 1q17 11 8 29l-12 18l-13 16q-45 73 -51 154q-3 47 10 100q30 122 109 215
q69 88 166 136q67 33 149 49q59 15 121 12q96 -3 154 -76q50 -68 41 -157q-12 -106 -94 -170q-54 -45 -127 -45q-49 3 -76 43q-23 44 6 83q6 6 14 9q7 0 19 -4q3 -3 6 -9v-8q-3 -26 6 -47q16 -28 45 -22q56 18 84 59q38 46 47 108q9 59 -18 115q-18 38 -54 55
q-63 29 -125 15q-70 -16 -124 -58q-118 -81 -181 -219q-34 -75 -34 -164q-3 -59 20 -126l12 -25q9 -25 39 -18q22 3 43 12q62 20 113 28q47 8 102 -2q31 -8 45 -22q18 -18 21 -45q3 -29 -19 -51q-16 -18 -45 -33q-72 -32 -145 -29q-63 3 -131 25q-2 0 -5 1t-5 1
q-27 12 -58 6h-2q-8 -2 -33 -10q-96 -51 -176 -131q-79 -82 -121 -181q-32 -72 -43 -143q-14 -79 -4 -172q12 -118 74 -221q71 -121 195 -180q70 -34 145 -43q56 -7 137 -4q85 9 164 36q109 39 197 101q102 70 172 172q49 69 92 153q25 55 37 95q21 70 12 141
q-6 104 -80 178q-32 35 -86 47q-48 7 -86 4q-3 0 -9 -1t-9 -1t-9.5 -1t-9.5 -1q-109 -18 -188 -100q-44 -44 -86 -113q-41 -75 -62 -153q-9 -35 -12 -68q-4 -24 -8 -68v-2h-2v-2zM999 958q-30 0 -51 -8q-7 -3 -33 -8q-3 -1 -9 -2t-9 -2q-27 -6 -45 -27l-4 -8q0 -1 2 -4t4 -4
h4l2 -2q26 -13 53 -19q36 -7 62 -2q29 6 57 19q12 4 17 12q15 15 8 35q-6 20 -29 20h-29z" />
    <glyph glyph-name="Ecircumflex" unicode="&#xca;" horiz-adv-x="1562" 
d="M1370 1733q-38 33 -70 65q-4 4 -26.5 24.5t-36.5 32.5l-53 -28q-108 -65 -234 -88q1 1 4 3t4 3q4 4 19 14q11 7 58 38.5t73 49.5q22 15 65 43.5t64 42.5q43 34 61 -18q16 -39 56 -113q3 -5 8 -15t8 -15q7 -18 10 -29q-3 -7 -10 -10zM934 164q-28 25 -31 57q-3 46 6 92
q29 118 105 215q48 67 112 111q68 52 146 70q50 9 100 6q36 -3 74 -15q84 -24 131 -98q31 -53 41 -98q11 -60 8 -133q0 -53 -12 -105q-17 -73 -53 -143q-43 -85 -109 -160q-64 -70 -149 -129q-44 -30 -70 -43q-88 -48 -184 -74q-7 -1 -19 -4l-16 -4l-37 -8q-88 -17 -186 -14
q-60 0 -138 10q-93 15 -174 55q-96 52 -160 127q-65 77 -106 187q0 2 -2 4q-2 6 -2 18q-9 38 -12 72q-2 4 -2 10q-5 31 -2 70q2 4 2 14q1 4 2 11t2 11q0 4 1 11.5t1 11.5q8 53 28 119q23 67 54 117q41 71 96 129q64 70 160 133l8 4q50 35 117 65l4 4q1 0 2 1t2 1q17 11 8 29
q-2 3 -6 9.5t-6 9.5l-13 16q-45 73 -51 154q-3 47 10 100q30 122 109 215q68 86 166 135q67 33 149 49q62 16 121 13q96 -3 154 -76q50 -68 41 -158q-12 -106 -94 -170q-54 -45 -127 -45q-49 3 -76 43q-23 45 6 84q5 5 14 8q7 0 19 -4q4 -4 6 -8v-10q-3 -23 6 -45
q16 -29 45 -23q56 18 84 59q38 46 47 109q9 59 -18 115q-15 37 -56 55q-58 28 -123 14q-72 -16 -124 -57q-118 -81 -181 -219q-34 -75 -34 -164q-3 -60 20 -127l12 -25q9 -25 39 -18q22 3 43 12q68 22 113 29q47 8 102 -2q29 -7 45 -23q18 -18 21 -45q3 -29 -19 -51
q-16 -18 -45 -33q-72 -31 -145 -28q-66 3 -131 24q-2 0 -5 1t-5 1q-27 12 -58 6q-13 -3 -35 -10q-96 -51 -176 -131q-79 -83 -121 -180q-32 -72 -43 -143q-14 -79 -4 -172q12 -119 74 -222q71 -121 195 -180q70 -34 145 -43q72 -10 137 -4q81 9 164 37q112 40 197 100
q102 70 172 172q47 66 92 154q26 57 37 94q21 67 12 141q-6 105 -80 179q-32 35 -86 47q-48 7 -86 4q-3 0 -9 -1t-9 -1t-9.5 -1t-9.5 -1q-108 -17 -188 -101q-45 -45 -86 -112q-41 -74 -62 -154q-9 -36 -12 -67q-4 -24 -8 -68v-2h-2v-2zM999 938q-30 0 -51 -8q-7 -3 -33 -8
q-3 -1 -9 -2t-9 -2q-27 -6 -45 -27q-4 -4 -4 -8q0 -6 6 -9h4l2 -2q22 -11 53 -18q36 -7 62 -2q33 7 57 18q11 4 17 13q15 15 8 35q-6 20 -29 20h-29z" />
    <glyph glyph-name="Edieresis" unicode="&#xcb;" horiz-adv-x="1562" 
d="M1044 1827q-52 0 -43 57q10 33 41 58t66 28q50 0 47 -51q-10 -40 -41 -64q-36 -28 -70 -28zM1331 1827q-53 6 -39 59q21 67 92 82q35 6 50 -12q13 -20 4 -51q-11 -32 -45 -56q-31 -22 -62 -22zM940 180q-29 23 -29 60q-3 43 7 90q31 123 104 217q45 62 111 110
q68 50 147 68q50 12 100 6q36 -3 74 -12q84 -24 131 -101q32 -55 39 -96q13 -60 10 -133q0 -53 -12 -106q-17 -71 -53 -144q-51 -93 -109 -157q-66 -71 -151 -132q-33 -23 -68 -40q-87 -51 -184 -74q-2 0 -5 -1t-5 -1q-2 -1 -6 -2t-5 -2q-8 0 -10 -2q-6 0 -14 -4
q-3 0 -8 -1.5t-7 -1.5q-2 -1 -7 -2t-7 -2q-85 -14 -184 -14q-69 3 -137 12q-91 15 -175 56q-93 47 -159 125q-70 85 -107 186q-4 16 -4 24l-8 41q-1 6 -4 19.5t-4 19.5q-3 34 0 70q2 4 2 16q1 6 3 18.5t3 18.5v6q7 47 29 119q21 62 51 117q49 80 96 129q66 69 160 133
q72 47 125 72q1 0 3 1t3 1q2 2 4 2q18 12 6 29q-9 17 -22 34q-46 70 -52 154q-3 44 11 100q27 119 106 217q69 83 168 133q69 37 150 52q61 12 118 12q96 -3 156 -78q51 -65 41 -156q-12 -106 -96 -172q-52 -43 -125 -43q-49 0 -76 41q-24 46 6 84q5 8 14 11q13 0 19 -4
q3 -3 6 -9q0 -6 -2 -10q-3 -22 8 -47q13 -30 45 -20q56 16 84 59q38 43 47 106q9 60 -18 115q-18 37 -55 55q-57 29 -123 17q-64 -14 -127 -58q-119 -85 -178 -221q-34 -75 -37 -162q0 -66 22 -127l6 -12q0 -6 4 -14q13 -26 39 -19q10 2 26.5 7t18.5 6q56 21 113 30
q55 7 102 -4q25 -3 45 -20q18 -18 21 -45q3 -29 -18 -53q-16 -16 -46 -31q-73 -31 -147 -31q-64 3 -129 25q-31 13 -68 10q-2 -1 -5.5 -2t-4.5 -2q-13 -3 -24 -8q-102 -51 -177 -129q-77 -80 -120 -181q-32 -75 -43 -143q-14 -79 -4 -172q12 -122 73 -223q72 -120 195 -180
q75 -32 145 -43q68 -9 135 -3q79 6 166 35q103 37 197 103q104 72 172 170q49 69 92 153q23 52 37 94q21 71 12 142q-6 104 -80 178q-35 38 -86 47q-46 10 -86 4q-3 0 -9 -1t-9 -1t-9.5 -1t-9.5 -1q-110 -15 -190 -98q-39 -42 -84 -115q-39 -68 -61 -154q-9 -29 -15 -65
q-4 -44 -8 -68v-2v-2q-2 0 -2 -2zM1008 956q-9 0 -13 -2q-20 0 -41 -6q-17 -7 -51 -14q-25 -6 -43 -27q-4 -4 -4 -8q0 -3 6 -6l4 -4q21 -9 56 -17q25 -8 61 -4q11 2 33 11l24 8q8 4 9 6q4 2 8 6q16 16 6 35q-6 22 -27 22h-28z" />
    <glyph glyph-name="Igrave" unicode="&#xcc;" 
d="M1444 1874q-38 -3 -103 24q-67 30 -120 66q-63 44 -84 76q18 0 26 2q33 3 47 -4q125 -85 201 -140zM967 1026q8 -30 -2 -68q-28 -84 -107 -157q-74 -71 -172 -111q-79 -34 -180 -28q-92 9 -166 71q-65 59 -86 141q-15 55 -12 113q3 50 18 103q14 42 37 94q40 85 109 157
q94 91 200 134q70 31 156 51q73 18 151 24q50 4 72 4q6 0 18.5 1t18.5 1q74 0 147 -12q65 -9 129 -24q91 -21 181 -56q13 -5 28 4q22 19 54 29q26 7 47 2q-4 -11 -9 -16q-36 -53 -53 -92q-3 -7 -9 -22.5t-9 -22.5q-12 -24 -21 -48q-25 -59 -37 -96q-36 -102 -53 -172
q-3 -10 -8 -29.5t-8 -29.5t-8.5 -30t-8.5 -30q-3 -12 -9 -35t-9 -36q-1 -5 -6.5 -24.5t-7.5 -29.5q-3 -10 -8.5 -31.5t-8.5 -31.5t-8 -32t-8 -32l-41 -147q-6 -23 -18 -63q-2 -8 -7.5 -25t-7.5 -25q-3 -10 -9 -31.5t-9 -31.5t-9.5 -32t-9.5 -32q-7 -30 -28 -104
q-7 -26 -15 -41q-2 -4 -5 -12.5t-5 -12.5q-7 -15 -10 -28q-15 -35 -21 -47q-30 -77 -80 -148q-45 -56 -75 -88q-37 -40 -90 -80q-76 -57 -166 -84q-68 -17 -129 -14q-57 3 -121 29q-59 21 -105 61q-70 63 -96 147q-21 77 -12 156q6 78 43 144q40 70 104 116q62 48 146 70
q77 21 157 6q116 -21 156 -129q14 -43 14 -94l-2 -2v-4q0 -19 -4 -25q-2 -8 -10 -20l-6 -7q-4 -2 -14 -2t-17 7q-11 8 -8 24q6 43 -2 80q-9 48 -49 82q-39 31 -86 37q-50 6 -103 -4q-51 -12 -92 -35q-81 -44 -127 -117q-32 -54 -39 -98q-11 -49 -4 -109q6 -56 33 -106
q36 -67 98 -103q41 -24 86 -30q4 0 12 -1t11 -1q32 -4 43 -4q60 -3 119 26q84 41 141 107q50 60 78 108q56 87 82 158q26 67 34 92q3 10 9.5 32t9.5 32q16 47 27 86q12 50 18 77q24 95 25 97q3 11 9 33.5t9 33.5q3 20 16 68q20 71 33 125q18 62 33 123l41 147q36 125 90 236
q11 23 39 69q2 6 7.5 16t6.5 11q4 6 4 12q0 3 -10 6q-72 39 -135 60q-37 11 -45 14q-10 3 -31 9t-31 9q-67 20 -125 25q-97 13 -186 4q-133 -15 -248 -92q-124 -82 -207 -223q-43 -71 -69 -166q-23 -67 -10 -146q21 -103 114 -143q72 -29 148 -20q69 9 129 43
q101 54 174 151q41 52 72 119q0 2 2 4q0 1 1 2t1 2v0h2v-2z" />
    <glyph glyph-name="Iacute" unicode="&#xcd;" 
d="M1450 2042q-2 -2 -14 -10q-61 -47 -133 -90q-68 -41 -152 -50l49 37q3 2 10.5 7.5t10.5 7.5q23 18 141 100q19 16 39 16q19 0 49 -18zM987 1042q9 -34 0 -69q-33 -88 -106 -158q-74 -68 -172 -110q-90 -35 -181 -29q-96 9 -168 72q-65 59 -86 141q-15 56 -12 112
q2 42 21 103q10 40 34 94q46 90 111 158q84 84 201 135q79 32 153 49q83 20 152 25q56 6 108 6q66 0 148 -10l43 -9q11 -2 41 -7.5t45 -8.5q95 -22 180 -55q16 -9 29 4q2 1 5 3t5 3q13 11 43 22q24 5 35 3h14q-2 -2 -2 -7q-2 -6 -8 -12q-37 -54 -51 -92q-38 -83 -41 -92
q-20 -46 -27 -68q-2 -4 -5 -14t-5 -14q-34 -95 -53 -173q-3 -10 -8.5 -29.5t-8.5 -29.5t-8 -29.5t-8 -29.5l-16 -62q-13 -49 -17 -63q-12 -52 -33 -127q-8 -31 -41 -148q-4 -12 -6 -20q-15 -57 -26 -92q-5 -20 -6 -23q-26 -91 -29 -104l-31 -105q-6 -25 -16 -51q-1 -2 -3 -7
t-3 -7q-1 -3 -3.5 -8.5t-3.5 -8.5q-17 -44 -26 -59q-30 -77 -80 -145q-27 -36 -76 -89q-29 -34 -88 -81q-81 -59 -166 -82q-71 -20 -129 -17q-59 3 -123 29q-58 24 -104 61q-69 63 -96 148q-22 80 -13 158q6 73 45 143q38 68 103 115q67 51 145 69q80 21 160 6
q113 -21 154 -129q17 -44 14 -94v-6q0 -15 -2 -21q-1 -2 -4.5 -8t-5.5 -8l-5 -8l-4 -4q-12 -4 -16 -4q-15 5 -16 6q0 1 -3.5 5.5t-3.5 6.5q-2 2 -2 12q6 40 0 80q-12 48 -49 82q-39 31 -88 37q-46 6 -102 -4q-43 -8 -92 -35q-77 -39 -127 -117q-27 -47 -39 -98
q-9 -58 -4 -108q6 -53 32 -107q38 -64 99 -102q43 -26 88 -31q3 0 9.5 -1t10.5 -1q28 -4 43 -4q60 -3 119 26q84 41 141 107q34 39 78 109q50 77 84 159q2 5 12 35q11 24 21 55q24 74 45 150q9 23 12 53q1 4 3 12.5t3 12.5l13 49q2 7 12 47q29 109 35 137q19 65 33 125
q15 51 32 121l41 147q45 143 90 236q9 18 54 96l4 8q0 4 -2 6q-2 3 -6 5q-56 31 -138 59q-60 21 -106 33q-62 18 -125 24q-85 14 -186 4q-133 -15 -248 -92q-126 -84 -207 -221q-45 -77 -70 -166q-22 -76 -10 -147q21 -103 117 -144q69 -29 145 -20q72 9 129 43
q103 58 176 151q40 55 70 119q0 1 1 2t1 2t1 2t1 2h2z" />
    <glyph glyph-name="Icircumflex" unicode="&#xce;" 
d="M1300 1858q-19 18 -133 122l-49 -24q-112 -67 -237 -90q1 1 4 3t4 3q6 6 18 14l74 49q113 74 186 125q44 31 62 -18q19 -47 55 -113q3 -5 8 -15.5t8 -15.5l7 -14l4 -16zM983 1059q8 -30 -2 -68q-34 -90 -107 -157q-74 -71 -172 -111q-81 -35 -180 -29q-92 9 -168 72
q-63 57 -84 141q-15 55 -12 113q3 49 18 102q12 41 37 92q40 88 109 160q81 81 201 133q75 34 155 52q73 18 152 24q70 4 108 4q69 3 148 -10q54 -7 129 -25q97 -22 178 -55q16 -5 29 4l6 4q22 19 49 25q23 8 45 2h2q-3 -5 -8 -19q-30 -35 -53 -90l-21 -45q-10 -19 -20 -47
q-2 -7 -37 -96q-29 -83 -51 -172q-20 -69 -33 -119q-20 -71 -33 -125q-15 -53 -27 -102l-6 -25q-1 -3 -3 -10t-3 -10t-2 -8t-2 -7t-2 -7t-2 -7t-2 -7t-2 -7t-2 -7.5t-2 -7.5t-2 -6.5t-2 -7.5q-1 -2 -2 -6t-2 -6t-2 -5.5t-1.5 -5.5t-1.5 -4t-2 -7t-2 -7t-2 -7t-2 -7
q-10 -39 -30 -113q-3 -10 -9.5 -31.5t-9.5 -31.5t-9 -32t-9 -32q-2 -8 -7.5 -25.5t-7.5 -25.5q-2 -9 -7 -26.5t-7 -26.5l-25 -66q-2 -6 -7 -18.5t-7 -18.5q-2 -5 -7.5 -18.5t-8.5 -20.5q-32 -72 -82 -147q-25 -36 -55 -66q-3 -4 -9.5 -11t-9.5 -11q-37 -40 -90 -80
q-76 -57 -166 -84q-72 -17 -129 -14q-62 3 -123 28q-54 21 -102 62q-68 60 -96 147q-23 84 -15 156q9 79 45 143q41 70 105 117q64 49 143 70q80 21 160 6q111 -21 155 -129q16 -49 13 -94v-7q0 -27 -17 -47l-4 -4q-4 -2 -16 -2q-8 0 -17 6q-9 9 -6 25q6 43 -2 78
q-8 49 -49 84q-35 28 -86 34q-47 8 -102 -2q-53 -13 -94 -34q-80 -45 -125 -117q-30 -47 -39 -98q-12 -55 -6 -109q9 -61 34 -106q35 -65 97 -103q46 -26 88 -31q4 0 11.5 -1t10.5 -1q28 -4 43 -4q58 -3 119 27q83 42 141 106q36 43 78 109q47 74 82 158q20 52 33 92
q24 73 45 147q8 29 10 41q3 18 10 39q2 7 11 42t14 54q6 29 35 136q3 13 9 35.5t9 35.5q2 7 7.5 25t7.5 28q20 82 32 123q8 32 41 148q35 122 90 235q14 29 27 49q8 14 25 48q6 9 6 12q0 2 -11 6q-67 36 -135 59l-106 33q-65 17 -119 25h-6q-103 13 -187 2
q-139 -15 -247 -90q-123 -82 -207 -224q-49 -81 -72 -165q-21 -69 -8 -146q21 -103 115 -143q71 -30 147 -21q70 9 127 43q103 55 176 152q42 54 70 117l2 2q0 4 2 4v4h2v-2h2z" />
    <glyph glyph-name="Idieresis" unicode="&#xcf;" 
d="M952 1911q-50 0 -41 55q8 29 41 59q34 27 64 27q24 0 39 -12q11 -14 8 -37q-10 -40 -41 -64q-36 -28 -70 -28zM1239 1911q-24 0 -37 16q-11 18 -2 41q25 69 92 84q34 6 49 -12q13 -23 5 -51q-11 -31 -43 -56q-27 -22 -64 -22zM983 1034q9 -34 0 -69q-33 -88 -106 -158
q-76 -70 -172 -111q-88 -34 -181 -28q-97 9 -168 71q-65 59 -86 142q-15 56 -12 112q2 42 21 103q10 40 34 94q46 90 111 158q84 84 201 135q79 32 153 49q77 18 152 24q65 7 108 7q58 0 148 -11l43 -8q11 -2 41 -7.5t45 -8.5q95 -22 180 -55q16 -9 29 4q2 1 5 3t5 3
q13 11 43 22q21 4 35 2h14q-2 -2 -2 -6q-2 -6 -8 -12q-37 -54 -51 -92q-38 -83 -41 -92q-20 -46 -27 -68q-2 -4 -5 -14.5t-5 -14.5q-35 -96 -53 -172q-3 -10 -8.5 -29.5t-8.5 -29.5t-8 -29.5t-8 -29.5l-17 -62q-2 -7 -7.5 -29l-8.5 -34q-12 -52 -33 -127q-8 -31 -41 -148
q-4 -12 -6 -20q-15 -57 -26 -92q-2 -8 -7 -23q-21 -74 -28 -104l-31 -105q-6 -25 -16 -51q-1 -2 -3 -7t-3 -7q-1 -3 -3.5 -8.5t-3.5 -8.5q-17 -44 -26 -59q-31 -79 -80 -146q-23 -31 -76 -88q-32 -37 -88 -82q-81 -59 -166 -82q-68 -19 -129 -16q-59 3 -123 29
q-58 24 -104 61q-69 63 -96 148q-22 79 -13 157q6 74 45 144q37 66 103 114q69 53 145 70q80 21 160 6q112 -21 153 -129q18 -46 15 -94v-6q0 -15 -2 -21q-10 -15 -11 -16l-4 -8l-4 -4q-12 -4 -16 -4q-15 5 -16 6q0 1 -3.5 5.5t-3.5 6.5q-2 2 -2 12q6 40 0 80q-12 48 -49 82
q-39 31 -88 37q-46 6 -102 -4q-43 -8 -92 -35q-77 -39 -127 -117q-27 -47 -39 -98q-9 -58 -4 -109q6 -51 32 -106q38 -64 99 -102q43 -26 88 -31q3 0 9.5 -1t10.5 -1q28 -4 43 -4q60 -3 119 26q84 41 141 107q36 41 78 108q48 75 84 160q2 5 12 35q11 24 21 55q24 74 45 150
q9 23 12 53q1 4 3 12.5t3 12.5l13 49q2 7 12 47q29 109 35 137q19 65 33 125q15 51 32 121l41 147q45 143 90 236q9 18 54 96l4 8q0 4 -2 6t-6 4q-61 34 -138 60q-60 21 -106 33q-62 18 -125 24q-85 14 -187 4q-132 -15 -247 -92q-126 -84 -207 -221q-45 -77 -70 -166
q-22 -76 -10 -147q21 -103 117 -144q69 -29 145 -20q72 9 129 43q103 58 176 151q40 55 70 119q0 1 1 2t1 2t1 2t1 2h2z" />
    <glyph glyph-name="Eth" unicode="&#xd0;" horiz-adv-x="1925" 
d="M1970 1124q18 -101 12 -202v-7q-4 -76 -8 -114q-12 -78 -20 -117t-21 -86q-31 -110 -78 -199q-40 -82 -83 -147q-50 -70 -111 -135q-66 -72 -154 -129q-54 -33 -106 -54q-48 -17 -103 -30q-67 -13 -127 -13q-9 0 -27.5 1.5t-27.5 1.5q-10 0 -29 1t-28 1q-72 7 -129 20
q-4 1 -11.5 2t-11.5 2q-26 4 -41 8q-33 8 -51 15q-8 2 -25.5 6t-25.5 6q-6 2 -41 12q-19 6 -45 -4l-4 -2q-1 -1 -3 -2t-3 -2q-7 0 -9 2h-4h-2l-4 -2q-56 -40 -112 -59q-1 0 -3.5 -1t-3.5 -1q-31 -10 -55 -13q-51 -4 -88 4q-40 6 -76 31q-27 24 -30 59q-3 38 16 60
q10 15 35 26q30 15 67 21q55 9 111 0q2 0 7.5 -1t8.5 -1q5 0 14.5 -1t14.5 -1l29 -4q19 -3 30 10q2 2 7 2q1 0 3 -1t3 -1t2 -1t2 -1q9 14 35 49q26 38 84 143q39 79 57 146q23 71 33 108q19 64 39 142q22 78 34 133q21 74 33 127q2 6 5 18.5t5 18.5t5.5 18.5t5.5 18.5h-82
q0 -5 -2 -5q0 -4 -2 -4q-36 -81 -99 -157q-66 -78 -159 -125q-56 -24 -105 -29q-62 -9 -123 4q-79 18 -135 74q-49 46 -74 100q-11 22 -22 64q-8 47 -8 108q3 39 16 88q10 36 27 82q47 135 141 240q34 37 92 78q72 50 174 92q81 32 160 49l123 25q7 1 20.5 3t20.5 3
q16 2 45.5 6t44.5 6q112 13 211 10h16h8q5 0 7 2q3 3 6 9l8 8q29 39 78 30q18 -3 30 -12q-2 -4 -6 -13t-6 -13t-6 -13.5t-6 -13.5q8 -4 12 -4q7 -2 21.5 -5t21.5 -5q15 -2 47 -11q82 -24 140 -53q93 -46 161 -108q72 -66 123 -154q39 -64 66 -152zM571 -6q4 4 4 10q0 4 -4 8
q-1 0 -2 1t-2 1q-2 1 -5 4t-5.5 4.5t-5.5 2.5q-16 8 -35 8q-4 2 -10 2h-10q-18 -3 -41 4h-11q-34 -4 -49 -8q-30 -3 -30 -37q0 -33 36 -45l56 -6q3 -3 10 0h6q42 8 82 37q1 1 4 3t4 3zM909 1202q9 -18 9 -41q0 -29 -3 -53h78q14 42 19 70l12 36q2 5 12 35l31 86
q35 97 88 207q12 28 35 66l12 24q3 9 6 21h-39q-41 0 -61 -4q-12 -3 -25 0h-12q-71 -3 -127 -17l-41 -8q-7 -2 -20.5 -5t-20.5 -5q-68 -19 -139 -51q-88 -41 -154 -86q-130 -90 -211 -207q-55 -78 -82 -150q-22 -58 -30 -108q-10 -62 -4 -117q6 -77 65 -127q27 -24 62 -33
q58 -15 116 -12q125 9 217 92q52 49 95 121q26 43 37 70h-129l38 102h123q1 5 6 35q1 7 3.5 21.5t3.5 21.5q0 11 4 39v2q2 2 2 6q12 -8 16 -14q5 -7 8 -17zM1804 825q1 6 2 19t2 20q0 6 1 18.5t1 18.5q0 43 -4 129q-3 56 -16 131q-8 45 -25 109q-26 90 -69 155
q-40 64 -82 101q-64 55 -146 80q-29 12 -61 18q-28 7 -70 14q-11 3 -14 -6q0 -1 -1 -2t-1 -2v-2l-2 -2q-3 -8 -16.5 -39t-20.5 -49q-1 -3 -3 -8t-3 -8q-25 -63 -29 -76q-17 -52 -33 -115q-4 -13 -11 -40.5t-11 -41.5l-16 -57q-8 -37 -21 -82h246l-39 -102h-234l-18 -66
q-15 -62 -33 -123q-12 -53 -33 -127q-20 -82 -32 -123q-2 -9 -7.5 -26.5t-7.5 -26.5q-9 -37 -28 -96l-8 -25q-7 -18 -21.5 -54.5t-21.5 -55.5q-16 -35 -52 -105q-9 -17 -59 -94q-10 -12 -25 -35q-3 -4 -18 -29l4 -2h4l62 -12q40 -10 90 -20q34 -10 61 -13q40 -9 107 -20
q96 -12 192 12q42 10 94 37q82 44 152 121q89 97 149 225q48 101 74 207q2 8 9 32t10 38q0 2 1 6t1 6q9 36 20 98q0 6 2 10q4 28 8 80z" />
    <glyph glyph-name="Ntilde" unicode="&#xd1;" horiz-adv-x="1955" 
d="M2400 2228q-12 -99 -90 -139q-79 -38 -158 8q-70 46 -118 43q-49 -3 -115 -57q-2 -2 -6 -5t-6 -5t-7 -6t-8 -7q1 3 2 9t2 8q0 6 5 16q42 85 114 109q75 26 144 -23q70 -49 129 -37q58 16 102 68q2 2 6 10zM1743 1264q-3 -3 -8 -13q-52 -90 -93 -176q-2 -3 -5 -10t-5 -10
l-57 -123l-21 -41q-6 -12 -17 -37.5t-17 -38.5q-6 -12 -17.5 -37.5t-17.5 -38.5q-3 -7 -10.5 -21.5t-10.5 -21.5q-20 -40 -30 -63q-6 -14 -43 -90q-28 -53 -45 -92q-4 -7 -11.5 -21.5t-11.5 -21.5l-61 -127q-15 -34 -43 -74q-4 -6 -11.5 -17.5t-11.5 -17.5q-24 -41 -61 -88
q-2 -3 -15 -16q-16 -23 -53 -60q-34 -34 -82 -67q-57 -46 -108 -70q-48 -23 -103 -39q-74 -19 -143 -16q-64 3 -125 28q-87 40 -144 105q-43 48 -65 117q-21 70 -12 141q16 128 96 217q55 61 123 90q48 22 92 33q68 13 133 4q73 -6 129 -45q64 -43 82 -119q15 -65 -6 -127
q-3 -11 -16 -24q-1 -1 -3.5 -4.5t-3.5 -4.5q-2 -2 -12 -2l-7 2q-7 2 -11 4q-14 11 -9 27q9 32 11 45q15 72 -31 127q-26 37 -74 49q-66 26 -141 17q-146 -18 -236 -140q-31 -41 -47 -102q-12 -44 -12 -90q6 -143 121 -227q32 -22 65 -31q5 -1 14.5 -3t14.5 -3q9 -4 27 -9
q50 -8 114 5q40 12 60 20q11 7 22 10q90 48 154 117q71 71 135 168q50 77 98 178q6 13 19.5 39.5t19.5 40.5q6 16 19.5 44t17.5 36q9 19 26.5 58.5t26.5 58.5q2 5 7.5 15t7.5 15l28 62q7 14 43 90q8 19 25 54.5t25 53.5q6 10 26 56l25 49q8 21 35 72q66 132 155 243l62 68
l6 6q2 4 4 6q-16 4 -23 4q-2 1 -51 13q-1 0 -4 1t-4 1q-10 2 -29.5 5t-29.5 5h-7q-46 4 -69 4q-52 3 -105 0q-64 -3 -116 -14l-56 -13q-73 -18 -141 -45q-41 -16 -121 -57q-104 -61 -196 -162q-55 -58 -88 -123q-36 -66 -48 -114q-15 -59 -12 -117q6 -86 78 -133
q45 -26 96 -35q45 -10 84 -10q61 0 125 22q101 46 164 121q62 68 104 156q24 53 37 96q4 22 8 33v4q2 0 2 4q3 0 3 2q17 -20 20 -47q0 -41 -12 -82q-2 -2 -2 -4q-37 -97 -107 -170q-60 -66 -131 -111q-58 -35 -102 -47q-61 -21 -125 -18q-122 0 -215 84q-42 45 -68 96
q-33 70 -33 149q3 78 33 148q56 123 144 225q85 97 198 148l21 8q43 18 90 33q49 13 69 16l37 8q92 13 164 16q83 3 166 -6q79 -6 156 -24q13 -3 37 -9.5t36 -9.5l41 -12h11q6 0 10 2h2q46 26 88 31q8 3 16 0q7 0 15 -4q2 -2 4 -2l4 -4q0 -1 1 -3.5t1 -3.5t1 -2t1 -2
q6 -16 0 -28q-8 -25 -37 -41q-51 -28 -51 -84q0 -29 2 -41v-88q2 -94 2 -279v-59q-2 -20 -2 -62q0 -64 -4 -196q0 -43 -4 -121v-6q0 -5 4 -13l24 37q5 9 15.5 27t15.5 27q34 52 62 106q49 90 53 98t13 25t13 25q12 28 52 110l45 98q30 68 43 97q53 112 110 204
q57 94 129 166q55 58 135 97q71 30 146 18q32 -6 61 -31q11 -15 11 -22q-3 -12 -15 -21q-1 0 -3 -1t-3 -1q-2 0 -4 -2q-8 0 -12 2q-88 12 -152 -49q-79 -65 -156 -162q-99 -123 -172 -260q-15 -27 -81 -151q-7 -13 -20.5 -38.5t-20.5 -37.5l-123 -227q-59 -104 -138 -209
q-8 -8 -8 -21q-7 -38 -20 -69l-8 -21q-20 -60 -23 -104q-3 -60 -18 -115q-21 -95 -80 -172q-22 -31 -56 -49q-59 -27 -90 26q-27 53 -12 113q37 107 90 184q30 46 47 111q10 51 17 127q6 79 6 80q1 13 2 40t2 40q4 62 4 88q0 8 1 23t1 22l6 137q0 29 2 45q1 15 3 44.5
t3 43.5q0 15 5 88q0 4 1 12.5t1 12.5t1 12t1 12q2 35 10 105q0 6 2 8v27h-2zM1671 131l-6 -6q-58 -74 -70 -160v-12q3 -13 17 -16h6q1 1 4 2t4 2l2 2q2 2 2 4l2 4q20 26 25 53q12 46 14 68q3 18 0 37v22z" />
    <glyph glyph-name="Ograve" unicode="&#xd2;" horiz-adv-x="1628" 
d="M1556 2085q-38 -3 -102 24q-70 31 -121 66q-63 44 -84 76q19 0 27 2q32 3 47 -4q101 -68 150 -105q15 -10 42.5 -30t40.5 -29zM358 475q-4 2 -13 6t-13 6t-13.5 6.5t-13.5 6.5q-56 24 -106 65q-29 29 -39 47q-27 38 -51 78q-25 42 -41 103q-17 79 -15 137q0 66 15 127
q0 2 1 6t1 6q3 12 18 70q25 78 53 127q49 96 129 188q59 70 133 135q65 59 132 111q74 55 165 104q65 36 152 70q72 24 123 37q95 25 188 22q103 -3 193 -39q147 -62 231 -194q40 -63 66 -141q16 -52 24 -97q16 -76 19 -141q6 -75 -2 -141q0 -15 -4 -47q-6 -49 -15 -99
q-10 -57 -35 -137q-46 -132 -77 -195q-59 -127 -152 -270q-86 -136 -197 -256q-88 -94 -186 -162q-68 -52 -162 -77q-90 -23 -164 -15q-33 2 -86 17q-6 0 -8 2q-4 2 -8 6q-103 74 -166 180q-32 54 -47 102q-17 63 -25 115q-7 65 -4 117v14zM362 518q0 3 1.5 7.5t1.5 6.5
q0 13 4 33l18 92q3 9 8 28t8 28l17 53q22 70 59 149l8 17q45 99 111 211q66 110 160 239q42 62 100 117q136 118 242 193q57 43 133 65q18 6 33 6q6 0 14 -4q2 -2 6 -10q3 -13 -10 -23l-25 -8q-20 -5 -73 -26q-68 -36 -125 -93q-107 -104 -189 -223q-85 -124 -159 -272
q-17 -34 -84 -191q-30 -79 -54 -159q-23 -87 -37 -164q0 -2 -1 -5t-1 -5q-4 -16 -4 -23v-4q-4 -28 -4 -43q0 -26 27 -29h16q8 1 24.5 3t24.5 3q7 0 47 5q55 13 103 30q104 41 182 92q85 57 154 129q62 65 116 158q52 85 76 162q15 42 19 67q9 39 12 72q3 55 -10 111
q-3 11 2 16q8 8 14 8q22 3 31 -20q16 -46 16 -86q-3 -63 -18 -125q-15 -57 -47 -133q-48 -103 -113 -182q-87 -116 -199 -197q-83 -60 -163 -94q-57 -26 -95 -35q-70 -19 -129 -25h-35q-12 -2 -36 -2q-24 -3 -27 -28q-2 -4 -2 -13q2 -20 2 -65q3 -70 23 -156q12 -48 36 -92
q31 -60 86 -90q76 -42 160 -27q49 11 107 37q83 42 159 109q92 83 168 192q48 67 101 160q41 72 80 158q37 94 41 104q27 63 53 164q9 32 20 86q12 47 21 96q9 41 12 80l4 29q4 17 8 55q4 54 4 80q3 111 -16 205q-11 54 -33 112q-49 123 -160 193q-109 65 -233 65
q-39 0 -82 -6q-2 0 -5 -1t-5 -1q-10 -1 -21.5 -3t-25 -5t-21.5 -4q-92 -24 -164 -60q-100 -53 -170 -104q-83 -57 -161 -139q-33 -35 -95 -113q-60 -81 -108 -178q-39 -73 -57 -133q-25 -65 -37 -131q-10 -57 -13 -103q-3 -113 29 -211l2 -6q6 -25 29 -69q32 -51 86 -90
q12 -9 28 -17z" />
    <glyph glyph-name="Oacute" unicode="&#xd3;" horiz-adv-x="1628" 
d="M1446 2238l-21 -14q-59 -45 -129 -86q-69 -38 -147 -47q4 3 12.5 9t12.5 9l45 33q47 35 141 101q19 16 37 16q14 0 49 -21zM399 477q-4 2 -13 6t-13 6t-13.5 6.5t-13.5 6.5q-52 23 -104 65q-29 25 -41 47q-27 38 -51 78q-27 46 -39 103q-17 76 -17 137q0 66 15 127
q0 2 1 6t1 6q3 13 18 70q18 55 53 127q52 95 129 188q59 70 133 135q69 63 134 111q70 53 163 104q65 36 152 70q72 24 123 37q95 25 188 22q106 -3 193 -39q147 -62 231 -194q40 -63 66 -141q16 -53 24 -97q16 -76 19 -141q6 -71 0 -141q0 -4 -1 -11.5t-1 -11.5t-1 -12
t-1 -12l-17 -99q-10 -57 -35 -137q-30 -98 -77 -194q-61 -131 -152 -271q-86 -136 -197 -256q-91 -98 -184 -162q-72 -52 -164 -77q-88 -23 -164 -15q-33 2 -86 17q-6 0 -12 6q-1 0 -2 1t-2 1q-103 74 -166 180q-33 56 -45 102q-22 69 -27 115q-7 65 -4 117v14zM403 520
q0 3 1.5 8t1.5 7q0 12 4 32q11 58 20 92q3 11 9.5 34.5t9.5 35.5q2 6 6 19.5t6 19.5q23 73 59 150l8 16q45 99 111 211q66 110 160 239q52 72 102 117q127 114 240 193q57 43 133 65q18 6 33 6q17 0 20 -14q3 -13 -10 -22l-14 -7q-2 0 -5 -1t-4 -1q-23 -5 -75 -26
q-71 -38 -125 -92q-95 -93 -189 -224q-89 -129 -160 -272q-17 -36 -83 -191q-30 -79 -54 -159q-23 -87 -37 -164q0 -3 -1 -8.5t-1 -8.5l-4 -16v-4q-4 -28 -4 -43q0 -26 27 -29h16q8 1 24.5 3t24.5 3q7 0 47 5q55 13 103 30q104 41 182 92q85 57 154 129q62 65 116 158
q52 85 76 162q14 41 19 68q9 40 12 71q3 55 -10 111q-3 11 2 16q8 8 14 8q22 3 31 -20q16 -46 16 -86q-3 -63 -18 -125q-14 -61 -47 -133q-47 -100 -111 -182q-85 -113 -201 -197q-81 -59 -164 -94q-58 -26 -94 -35q-70 -19 -129 -25h-35q-12 -2 -34 -2q-26 -3 -29 -28v-78
q3 -75 22 -156q13 -41 37 -92q31 -60 86 -90q79 -42 160 -27q49 11 107 37q83 42 159 109q92 83 168 192q48 67 101 160q41 72 80 158l43 104q28 75 51 164q2 7 6 21.5t6 21.5q2 16 10 43q2 10 9 43.5t10 52.5q6 29 14 80q0 6 2 10l8 74q4 54 4 80q6 99 -16 205
q-11 54 -33 112q-49 123 -160 193q-109 65 -233 65q-40 0 -80 -6q-51 -8 -78 -14q-98 -24 -164 -59q-95 -48 -172 -105q-82 -59 -159 -139q-35 -35 -97 -113q-60 -81 -108 -178q-39 -73 -57 -133q-25 -65 -37 -131q-11 -61 -11 -103q-5 -98 27 -211l2 -6q6 -25 29 -69
q32 -51 86 -90q1 -1 16 -11z" />
    <glyph glyph-name="Ocircumflex" unicode="&#xd4;" horiz-adv-x="1628" 
d="M1440 2021l-68 62q-32 32 -63 59q-19 -11 -45 -22q-112 -68 -244 -92q2 2 14 10q2 2 6.5 5t6.5 5q73 47 262 174q41 31 59 -18q3 -7 41 -80q7 -15 31 -64l12 -30q-1 -1 -3 -2.5t-3 -2.5t-3 -2t-3 -2zM395 459q-27 12 -51 24q-57 23 -106 66q-23 20 -41 47l-13 18
q-13 17 -39 60q-27 46 -39 102q-16 72 -16 137q4 76 16 127q2 7 5.5 20.5t5.5 20.5l8 41q18 55 53 127q53 98 129 189q59 70 133 135q68 61 133 110q72 55 164 105q65 36 152 70q64 22 125 36q98 26 186 23q105 -3 193 -39q146 -61 231 -195q46 -72 66 -141q14 -45 26 -96
q15 -86 17 -141q6 -71 0 -142q0 -4 -1 -11t-1 -11t-1 -12.5t-1 -12.5q-2 -13 -17 -98q-10 -57 -35 -137q-28 -94 -75 -195q-60 -123 -152 -270q-92 -140 -199 -256q-91 -98 -184 -162q-74 -54 -164 -78q-85 -23 -164 -14q-37 3 -86 16q-4 0 -8 2q-4 4 -8 6q-99 73 -166 181
q-33 56 -45 102q-18 55 -27 115q-7 65 -4 116v15zM399 502q1 11 4 27.5t3 19.5q11 58 20 92q12 43 33 109q24 76 59 151q1 2 3 7t3 7q38 83 113 211q62 104 158 240q52 72 102 117q122 109 240 192q60 45 133 66q18 6 33 6q17 0 20 -14v-13q-3 -7 -10 -10q-2 -1 -5.5 -2
t-4.5 -2l-13 -4q-19 -4 -76 -27q-72 -40 -124 -92q-101 -99 -187 -223q-90 -127 -160 -273q-44 -90 -84 -190q-33 -89 -55 -160q-23 -87 -37 -164q0 -3 -1 -8t-1 -8l-4 -16v-4q-4 -28 -4 -43q0 -26 27 -29h16q32 4 47 4q8 1 24.5 3t24.5 3q44 9 103 31q101 38 184 92
q88 59 152 129q62 65 116 158q50 82 78 162q6 21 12 45l7 22q0 2 1 4.5t1 3.5q4 22 8 64q3 54 -10 110q-3 22 16 25q22 3 31 -21q16 -46 16 -86q0 -62 -18 -124q-14 -63 -47 -134q-44 -100 -111 -182q-83 -111 -201 -196q-83 -61 -162 -95q-59 -25 -96 -34q-66 -19 -129 -25
h-35q-12 -2 -34 -2q-26 -3 -29 -29v-12q0 -46 2 -66q3 -87 22 -155q12 -51 35 -92q32 -62 86 -91q77 -41 160 -26q49 11 107 37q89 44 159 108q98 89 168 193q57 79 103 160q43 75 77 157l43 105q29 76 54 163q2 7 5 22t5 22t5 21.5t5 21.5l8 40q2 9 6.5 28t6.5 28l12 80
q0 6 2 10l8 74q4 54 4 79q6 94 -14 205q-13 61 -35 113q-49 121 -160 192q-111 66 -231 66q-42 0 -82 -6t-78 -15q-98 -24 -164 -59q-98 -51 -172 -104q-79 -57 -159 -140q-46 -46 -95 -112q-56 -76 -110 -178q-34 -64 -58 -134q-20 -58 -36 -131q-11 -61 -11 -102
q-3 -106 27 -211l2 -6q6 -27 29 -70q32 -51 86 -90q2 -2 8 -5.5t8 -4.5z" />
    <glyph glyph-name="Otilde" unicode="&#xd5;" horiz-adv-x="1628" 
d="M1649 2253q-12 -99 -90 -139q-78 -38 -160 8q-70 46 -119 43q-45 -3 -113 -58l-8 -8q-6 -2 -18 -14q0 8 2 10q0 15 4 23q41 84 115 108q78 25 145 -22q70 -49 129 -37q60 16 100 67q6 3 9 13q1 1 2 3t2 3zM387 475q-9 4 -51 25q-61 25 -107 65q-23 20 -41 47l-12 19
q-16 20 -39 59q-27 46 -39 103q-16 72 -16 137q4 76 16 127q2 7 5.5 20.5t5.5 20.5l8 41q18 55 53 127q52 95 129 188q59 70 133 135q74 67 133 111q67 51 164 104q65 36 152 70q73 25 125 37q95 25 186 22q104 -3 192 -39q148 -62 232 -194q44 -69 65 -141q17 -57 27 -97
q13 -78 16 -141q6 -71 0 -141q0 -4 -1 -11.5t-1 -11.5t-1 -12t-1 -12q-4 -33 -16 -99q-10 -57 -35 -137q-27 -87 -76 -195q-64 -131 -151 -270q-92 -140 -199 -256q-91 -98 -184 -162q-72 -52 -164 -77q-88 -23 -164 -15q-33 2 -86 17q-4 0 -8 2q-4 4 -8 6q-100 74 -166 180
q-33 56 -45 102q-18 55 -27 115q-7 65 -4 117v14zM391 518q3 23 6 47q8 42 21 92q12 44 33 109q25 79 59 152q1 2 3 7t3 7q38 83 113 211q64 107 157 239q50 70 103 117q131 117 239 193q57 43 134 65q18 6 32 6q18 0 21 -14v-12q-4 -8 -10 -11q-2 -1 -6 -2t-5 -2l-12 -4
q-25 -6 -76 -26q-72 -40 -125 -93q-98 -96 -186 -223q-92 -129 -160 -272q-42 -86 -84 -191q-35 -93 -55 -159q-23 -87 -37 -164q0 -3 -1 -8.5t-1 -8.5l-4 -16v-4q-4 -28 -4 -43q0 -26 26 -29h17q32 4 47 4q8 1 24.5 3.5t24.5 3.5q51 11 103 30q101 38 184 92q85 57 151 129
q65 67 117 158q50 82 78 162q6 21 12 45l6 22q0 2 1 5t1 4q6 37 9 63q3 51 -11 111q-3 21 17 24q21 3 30 -20q17 -49 17 -86q0 -60 -19 -125q-14 -61 -47 -133q-45 -103 -110 -182q-85 -113 -201 -197q-80 -58 -162 -94q-64 -27 -96 -35q-66 -19 -129 -25h-35q-12 -2 -35 -2
q-25 -3 -28 -28v-13q0 -45 2 -65q3 -88 22 -156q12 -51 35 -92q31 -60 86 -90q79 -42 160 -27q48 10 106 37q88 43 160 109q100 90 168 192q53 73 102 160q45 79 78 158l43 104q23 61 53 164q2 7 5.5 21.5t5.5 21.5t5 21.5t5 21.5l8 41q2 9 6 27.5t6 27.5l13 80q0 6 2 10
l8 74q4 54 4 80q6 94 -14 205q-12 59 -35 112q-49 123 -160 193q-109 65 -231 65q-42 0 -82 -6q-51 -8 -78 -14q-95 -23 -164 -60q-98 -51 -172 -104q-86 -62 -160 -139q-39 -39 -94 -113q-56 -76 -110 -178q-35 -65 -58 -133q-23 -66 -37 -131q-10 -55 -10 -103
q-3 -106 27 -211l2 -6q7 -28 28 -69q32 -51 86 -90q2 -2 9 -6t8 -5z" />
    <glyph glyph-name="Odieresis" unicode="&#xd6;" horiz-adv-x="1628" 
d="M987 2107q-52 0 -43 56q10 32 41 57q33 26 66 29q23 0 36 -13q12 -15 9 -38q-6 -34 -39 -64q-34 -27 -70 -27zM1274 2107q-23 0 -37 17q-10 17 -2 41q20 66 92 84q32 6 49 -15q13 -19 4 -49q-10 -30 -43 -55q-29 -23 -63 -23zM379 467q-9 4 -51 25q-61 25 -107 65
q-23 20 -41 47l-12 19q-16 20 -39 59q-27 46 -39 102q-16 72 -16 138q4 76 16 127q2 7 5 20.5t5 20.5l9 40q18 55 53 127q53 98 129 189q59 70 133 135q74 67 133 111q67 51 164 104q68 37 151 70q73 25 125 37q95 25 187 22q104 -3 192 -39q148 -62 232 -194
q44 -68 65 -142q19 -62 27 -96q13 -78 16 -141q6 -71 0 -142q0 -4 -1 -11t-1 -11t-1 -12.5t-1 -12.5q-4 -30 -16 -98q-10 -57 -35 -137q-27 -87 -76 -195q-64 -131 -151 -270q-92 -140 -199 -256q-91 -98 -184 -162q-74 -54 -164 -78q-85 -23 -164 -14q-37 3 -86 16
q-4 0 -8 2q-6 6 -8 7q-100 74 -166 180q-33 56 -45 102q-18 55 -27 115q-7 65 -4 117v14zM383 510q3 22 6 47q8 42 21 92q17 62 32 109q22 70 60 151q1 2 3 7.5t3 7.5q38 83 113 211q64 107 157 239q50 70 103 117q125 112 239 192q60 45 133 66q18 6 33 6q18 0 21 -14v-12
q-4 -7 -11 -11q-2 -1 -5.5 -2t-4.5 -2l-12 -4q-19 -4 -76 -27q-74 -41 -125 -92q-98 -96 -186 -223q-92 -129 -160 -272q-42 -86 -84 -191q-33 -89 -55 -160q-24 -89 -37 -163q0 -3 -1 -8.5t-1 -8.5l-4 -16v-4q-4 -28 -4 -43q0 -26 26 -29h17q32 4 47 4q8 1 24.5 3t24.5 3
q41 9 102 31q104 39 185 92q85 57 151 129q65 67 117 158q50 82 78 162q6 21 12 45l6 22q0 2 1 4.5t1 3.5q4 22 8 64q3 55 -10 111q-3 21 17 24q21 3 30 -20q17 -49 17 -86q0 -60 -19 -125q-14 -61 -47 -133q-46 -105 -110 -183q-83 -111 -201 -196q-80 -58 -162 -94
q-64 -27 -96 -35q-66 -19 -129 -25h-35q-12 -2 -35 -2q-26 -3 -29 -29v-12q0 -35 3 -65q3 -89 22 -156q12 -51 35 -92q31 -60 86 -90q79 -42 160 -27q48 10 106 37q91 45 160 108q98 89 168 193q53 73 102 160q47 82 78 157l43 105q23 61 53 164q2 7 5.5 21.5t5.5 21.5
t5 21.5t5 21.5l8 41q2 9 6 27.5t6 27.5q0 4 2 6v8q0 4 2 6v7v6q2 2 2 6v6q0 1 1 3t1 3v4q0 1 1 3t1 3v7q0 3 3 6v6q0 6 2 10l8 74q4 54 4 80q6 93 -14 204q-13 61 -35 113q-49 123 -160 193q-109 65 -231 65q-42 0 -82 -6q-51 -8 -78 -14q-95 -23 -164 -60
q-98 -51 -172 -104q-86 -62 -160 -139q-39 -39 -94 -113q-60 -80 -111 -178q-32 -60 -57 -133q-23 -66 -37 -131q-10 -55 -10 -103q-3 -106 27 -211l2 -6q7 -30 28 -70q32 -51 86 -90q2 -2 8.5 -5t8.5 -5z" />
    <glyph glyph-name="multiply" unicode="&#xd7;" horiz-adv-x="1136" 
d="M1423 997l-241 -215l-176 -157q0 -1 1 -3.5t1 -3.5q67 -136 92 -184q85 -162 119 -223h-187l-82 174l-63 133l-193 -166l-162 -141h-81q142 126 217 192q34 30 96.5 87t91.5 83l-98 201l-111 223h164q6 -12 21.5 -41.5t23.5 -46.5q6 -13 45 -88q47 -93 74 -141
q13 10 42 36t46 40q33 31 76 67q20 18 84.5 76t93.5 84l14 14h92z" />
    <glyph glyph-name="Ugrave" unicode="&#xd9;" horiz-adv-x="1759" 
d="M1661 2083q-37 -3 -102 24q-70 31 -121 66q-63 44 -84 76q18 0 26 2q32 3 47 -4q125 -85 201 -140zM645 1423q40 -10 51 -41q23 -44 29 -69q22 -86 10 -170q-7 -86 -35 -156q-50 -125 -163 -190q-91 -51 -203 -29q-118 27 -176 135q-43 78 -52 168v6q-8 44 -8 103
q0 52 6 102q3 27 21 100q19 91 63 160q62 100 136 180q67 76 168 140q67 43 139 61q68 12 96 16h21q4 -2 12 -2q170 -3 289 -125q49 -51 71 -133q20 -85 4 -180q-10 -60 -20 -100q-4 -9 -8 -31l-33 -147q-3 -15 -10 -41t-9 -35l-55 -215l-49 -191q-11 -47 -27 -104
q-10 -35 -26 -105q-15 -69 -17 -81l-16 -74q-16 -97 -10 -189q0 -42 14 -77q15 -42 49 -56q33 -12 66 8q3 2 9 6.5t9 6.5q8 4 17 10q94 72 143 164q84 136 86 139q16 25 44.5 73t39.5 66q29 49 94 172q8 15 23.5 43.5t23.5 42.5l17 29q12 25 47 84q40 76 90 205
q38 102 74 217q3 8 8 25.5t8 25.5q15 56 27 111q18 69 88 69q43 0 80 -24l-9 -29l-6 -18l-43 -123q-47 -138 -59 -178l-43 -136q-4 -17 -14 -47t-13 -43q-5 -16 -14 -46t-14 -46q-2 -8 -7.5 -25.5t-7.5 -25.5q-2 -9 -7 -26.5t-7 -26.5q-6 -24 -15 -51q-16 -58 -22 -89
q-5 -19 -13 -55t-10 -47q-3 -15 -9 -43t-9 -43q-23 -117 -4 -248q6 -72 43 -139q40 -67 115 -88q16 -5 55 -14q3 -7 0 -13l-6 -6l-2 -2q-29 -20 -66 -20q-64 0 -117 26q-71 36 -110 113q-29 59 -43 115q-20 103 -17 192q0 75 17 172l18 105q3 9 0 22l-6 -12q-9 -13 -16 -29
q-56 -110 -140 -250q-77 -131 -188 -248q-56 -59 -135 -104q-100 -44 -186 18q-44 33 -66 84q-50 115 -35 236q2 12 4.5 25.5t6.5 30t6 26.5q2 9 5 27t5 26l18 80l37 147q12 55 53 224l13 45l49 202q43 179 53 224q7 34 10 59q2 9 5.5 27.5t5.5 27.5q11 55 4 121
q-3 70 -35 146q-20 38 -62 63q-82 49 -178 25q-119 -34 -209 -121q-138 -120 -221 -287q-37 -72 -55 -153q-23 -103 -23 -191q0 -115 64 -227q27 -49 63 -70q54 -34 121 -18q97 25 164 92q60 60 82 145q24 83 18 170q-3 85 -28 152q-18 48 -19 51v6q-2 4 -2 10z" />
    <glyph glyph-name="Uacute" unicode="&#xda;" horiz-adv-x="1759" 
d="M1638 2255q-1 -1 -8 -6.5t-12 -7.5q-54 -43 -129 -87q-69 -38 -150 -47q13 9 35 27q6 4 17.5 12.5t17.5 12.5q24 17 141 100q19 16 39 16q16 0 49 -20zM649 1444q39 -9 53 -41q25 -57 29 -70q20 -78 10 -170q-3 -85 -36 -155q-47 -123 -164 -191q-92 -51 -201 -29
q-117 27 -176 136q-44 81 -53 168q-1 9 -2.5 27.5t-2.5 27.5l-4 53q0 50 9 96v7q6 51 18 100q17 80 64 160q60 97 137 180q70 78 168 139q65 44 139 62q2 0 6.5 1t7.5 1q32 7 82 14h21q4 -2 12 -2q171 -3 287 -125q52 -52 71 -133q21 -90 6 -180q-2 -13 -7 -36.5t-7 -33.5
q-5 -18 -14 -61l-17 -74q-3 -12 -9 -36.5t-9 -37.5q-3 -14 -18 -76q-7 -32 -16 -68t-20.5 -79t-17.5 -68l-49 -190q-47 -183 -53 -209q-18 -77 -33 -156q-15 -92 -12 -188q3 -45 14 -78q14 -41 49 -55q32 -11 68 8q4 2 8 6q8 3 25 16q93 71 145 164q12 19 40 67t44 73
t44.5 73t39.5 66q85 148 115 205l28 53q25 45 31 57q5 9 15.5 28t15.5 28q53 94 92 204q51 137 88 269q16 48 29 110q19 70 86 70q40 0 82 -25q-1 -3 -3 -10t-3 -10q-10 -25 -11 -27q-35 -102 -41 -123l-61 -178q-35 -112 -41 -135q-36 -111 -55 -182q-25 -87 -29 -105
q-26 -87 -37 -139q-17 -67 -27 -115q-7 -44 -14 -73q-24 -123 -6 -248q9 -76 45 -140q40 -67 113 -88q17 -5 57 -14q0 -10 -2 -12q-3 -5 -8 -8q-30 -21 -64 -21q-60 0 -116 27q-76 39 -113 112q-28 52 -41 115q-22 98 -16 193q0 72 14 172q9 38 20 104q0 15 -2 23
q-7 -16 -16 -29l-6 -12q-77 -150 -139 -250q-79 -134 -187 -248q-56 -59 -137 -105q-97 -43 -186 19q-41 33 -66 84q-48 111 -33 235q6 52 21 109q1 4 3 13.5t3 13.5l18 79l37 148l33 135q1 4 13 55t18 78l49 203l26 104t29 119q9 37 12 78q1 6 3.5 18.5t3.5 18.5
q15 62 6 121q-3 75 -37 145q-17 39 -60 64q-81 49 -178 24q-122 -35 -211 -121q-136 -118 -219 -286q-34 -66 -57 -154q-24 -106 -21 -190q0 -119 62 -228q26 -48 65 -69q55 -34 119 -19q95 24 166 92q60 60 82 146q24 83 18 170q-3 74 -28 151q-18 48 -19 51q0 1 -1 4t-1 5
q0 1 -1 4t-1 4z" />
    <glyph glyph-name="Ucircumflex" unicode="&#xdb;" horiz-adv-x="1759" 
d="M1618 2040q-34 30 -90 82q-7 6 -21.5 19.5t-21.5 19.5q-26 -15 -45 -23q-112 -68 -244 -92q12 8 18 14q1 1 4.5 3t4.5 3q29 19 262 175q40 30 61 -19q7 -16 21.5 -46.5t21.5 -45.5q8 -12 27 -51q2 -3 8 -21q1 -2 2 -5t2 -5q-1 -1 -3 -2t-3 -2zM633 1427q39 -9 53 -41
q26 -60 29 -69q20 -78 10 -170q-6 -80 -37 -156q-46 -122 -164 -190q-91 -51 -200 -29q-118 27 -177 135q-44 81 -53 168q0 15 -4 43q-4 46 -4 66q0 58 8 102q5 43 19 100q17 83 63 160q69 106 135 180q76 82 170 140q64 43 140 61q74 14 96 17h18q4 -2 15 -2
q170 -3 286 -125q53 -53 72 -134q22 -92 4 -180q-10 -60 -20 -100q-6 -14 -9 -31q-1 -6 -3 -18.5t-3 -18.5l-8 -37q-3 -12 -9 -36.5t-9 -36.5q-3 -15 -10 -41t-9 -35q-47 -188 -53 -215l-49 -191l-56 -208q-16 -74 -22 -111l-8 -45q-19 -96 -13 -189q3 -39 15 -77
q15 -42 49 -56q30 -11 68 9l16 12q2 1 16 10q94 72 146 164q78 132 94 158q17 27 74 120q29 49 94 172q8 15 23.5 43t23.5 43q35 59 47 84l16 29q51 96 93 205q52 139 88 268q2 9 7 28t7 28t7 27.5t7 27.5q18 69 86 69q42 0 82 -24q-1 -3 -3 -10.5t-3 -10.5t-4.5 -12
t-5.5 -14l-43 -123q-12 -39 -59 -178l-43 -135q-4 -17 -14 -48t-13 -43q-5 -15 -14.5 -45.5t-14.5 -46.5q-2 -8 -7 -25.5t-7 -25.5q-2 -9 -7 -26.5t-7 -26.5q-3 -12 -9.5 -35.5t-9.5 -34.5l-18 -69q-15 -69 -17 -80q-8 -35 -24 -109q-21 -126 -4 -248q9 -72 43 -139
q40 -67 114 -88q8 -2 24.5 -6t24.5 -6q1 0 4.5 -1t4.5 -1q0 -11 -2 -13q-2 -5 -9 -8q-26 -20 -65 -20q-62 0 -115 26q-73 37 -112 113q-28 52 -41 115q-22 98 -19 192q0 6 1 17.5t1 17.5q3 70 15 137q9 34 12 70q1 6 3 17.5t3 17.5q3 9 0 22l-6 -12q-12 -15 -17 -29
q-77 -150 -139 -250q-76 -128 -188 -247q-56 -61 -135 -105q-98 -43 -187 19q-43 32 -65 83q-48 111 -33 236q6 58 20 109q1 4 3.5 13t3.5 13q2 6 5 20.5t5 20.5q0 3 1 7.5t1 6.5q1 2 2 6.5t2 6.5q0 2 1 6t1 6q3 12 9 36.5t9 37.5l17 74l12 45q43 177 53 223l49 203
q52 216 54 223q9 30 12 65l8 49q12 62 6 121q-3 79 -36 146q-17 37 -60 63q-85 49 -178 25q-121 -34 -211 -121q-135 -117 -219 -287q-40 -79 -57 -153q-24 -107 -21 -191q0 -120 61 -227q27 -48 66 -70q53 -33 119 -18q95 24 166 92q62 65 82 145q24 83 18 170
q-7 83 -29 152q-9 24 -18 51q0 1 -1 3.5t-1 4.5q0 1 -1 4t-1 4z" />
    <glyph glyph-name="Udieresis" unicode="&#xdc;" horiz-adv-x="1759" 
d="M1167 2118q-50 0 -41 55q10 32 41 57q33 26 64 29q24 0 39 -12q11 -14 8 -39q-10 -40 -41 -64q-33 -26 -70 -26zM1454 2118q-24 0 -37 16q-10 17 -2 41q23 66 92 84q33 6 49 -14q17 -20 5 -50q-10 -30 -43 -55q-28 -22 -64 -22zM641 1427q39 -9 53 -41q23 -54 27 -69
q24 -83 12 -170q-6 -80 -37 -156q-50 -124 -164 -190q-91 -51 -202 -29q-115 27 -174 135q-45 76 -54 168v6q-8 44 -8 103q0 52 6 102q0 2 1 6.5t1 7.5q3 14 9.5 42.5t9.5 43.5q17 83 63 160q69 106 135 180q74 80 168 140q66 42 142 61q74 14 96 17h18q4 -2 15 -2
q167 -3 286 -125q50 -52 72 -134q22 -92 4 -180q-10 -60 -20 -100q-4 -9 -8 -31q-2 -9 -17 -74q-7 -37 -35 -149l-55 -215q-11 -48 -47 -191l-18 -69q-26 -87 -37 -139q-20 -93 -23 -111l-8 -45q-18 -92 -12 -189q0 -33 14 -77q15 -42 49 -56q30 -11 68 9l16 12q4 1 17 10
q94 72 143 164q84 136 86 139q16 25 44.5 73t39.5 66q29 49 94 172q8 15 23.5 43t23.5 43l33 58q5 9 15.5 27.5t15.5 27.5q47 89 92 205q38 101 88 268q2 9 7 28t7 28t7.5 27.5t7.5 27.5q18 69 86 69q41 0 79 -24q-9 -34 -14 -47l-43 -123q-24 -69 -29 -88q-5 -15 -15 -44.5
t-15 -45.5l-43 -135q-4 -17 -14 -48t-13 -43q-5 -15 -14.5 -45.5t-14.5 -46.5q-2 -8 -7 -25.5t-7 -25.5q-2 -9 -7 -26.5t-7 -26.5q-3 -12 -9.5 -35.5t-9.5 -34.5l-18 -69q-5 -19 -12.5 -54.5t-10.5 -48.5q-3 -15 -9 -43.5t-9 -42.5q-23 -117 -4 -248q9 -72 43 -139
q40 -67 115 -88q30 -9 40 -10q2 -1 7.5 -2t7.5 -2q3 -10 0 -13q-3 -5 -8 -8q-26 -20 -66 -20q-61 0 -117 26q-68 36 -110 113q-28 52 -41 115q-22 98 -19 192q0 75 17 172l18 105q3 9 0 22l-6 -12q-9 -13 -16 -29q-56 -110 -140 -250q-76 -128 -188 -247q-56 -61 -135 -105
q-100 -44 -187 19q-43 32 -65 83q-47 109 -35 236q7 41 21 102l8 33q3 25 12 53q1 4 3 13.5t3 13.5q6 31 35 148l33 135q4 19 16 64t17 69l12 49q0 2 1 5t1 5q0 1 1 4t1 4t1 4.5t1 4.5q4 20 8 30q1 5 3 14.5t3 14.5q4 22 8 31q1 3 2.5 8.5t2.5 10.5t2 9q0 1 1 4.5t1 4.5
q45 185 53 223q7 34 10 59q2 9 5 27.5t5 27.5q13 65 7 121q-3 77 -37 146q-21 40 -60 63q-85 49 -180 25q-119 -34 -209 -121q-135 -117 -219 -287q-38 -69 -57 -153q-24 -95 -21 -191q0 -118 62 -227q27 -49 63 -70q56 -33 121 -18q95 24 166 92q59 62 80 145q24 83 18 170
q-3 82 -26 152q-18 48 -19 51q0 1 -1 3.5t-1 4.5q0 1 -1 4t-1 4z" />
    <glyph glyph-name="Yacute" unicode="&#xdd;" horiz-adv-x="1624" 
d="M1729 2251q-3 -2 -10.5 -7.5t-10.5 -7.5q-59 -45 -129 -86q-69 -38 -147 -47q8 5 34 27l33 24q47 35 141 101q19 16 39 16q17 0 50 -20zM1210 121q84 227 119 317q29 74 37 97q6 17 24 62.5t27 70.5q18 49 35 110q2 6 5 17.5t5 17.5l19 61q0 2 1 6t1 5v12q-8 0 -10 -2
q-5 0 -5 -6l-2 -2l-43 -74q-86 -153 -209 -305q-74 -93 -165 -158q-46 -32 -99 -49q-67 -15 -131 12q-79 40 -106 125q-35 101 -15 203q10 47 45 172l31 117q6 23 17 62.5t20 71.5t16 60q18 58 33 117q7 25 29 100q4 16 13 49t13 50l17 65q2 11 7 33t7 33q20 92 23 112
q12 112 -35 207q-20 42 -66 64q-62 33 -135 24q-108 -12 -201 -77q-149 -104 -247 -256q-58 -87 -82 -191q-20 -76 -17 -158q0 -108 70 -206q65 -86 170 -68q135 21 215 133q35 50 47 109q18 77 6 155q-8 61 -39 140q-7 14 -8 18q-2 2 -2 4q45 -9 60 -43q23 -41 32 -92
q15 -86 -6 -168q-27 -151 -158 -238q-64 -40 -141 -49q-95 -9 -186 39q-61 41 -88 94q-45 74 -54 164q-4 40 -4 62q-3 16 0 32v17q6 65 21 129q21 87 74 162q107 160 264 260q104 64 213 84q100 15 198 -9q108 -23 191 -106q57 -63 72 -152q8 -83 -17 -174q-7 -31 -43 -170
q-2 -6 -5 -18.5t-5 -18.5l-74 -262q-12 -44 -24 -84l-25 -86l-25 -82q-25 -87 -28 -100q-25 -104 -33 -154q-12 -77 -6 -155q3 -46 31 -82q43 -40 92 -19q70 41 119 87q35 38 61 77q2 3 5 8.5t5 8.5q137 198 168 245q12 20 36.5 59t37.5 58q35 59 72 117l32 53
q5 8 15.5 25.5t15.5 25.5q51 87 94 195q30 76 82 223q19 58 23 78q1 2 2 7t2 7q9 40 49 52q59 18 117 -19q-10 -29 -11 -37q-2 -14 -10 -37q-9 -31 -47 -143l-45 -139q-8 -23 -23.5 -70.5t-23.5 -71.5q-4 -15 -13.5 -42t-13.5 -42q-5 -15 -14 -41.5t-14 -41.5l-33 -99
q-22 -66 -35 -100q-3 -9 -9 -26.5t-9 -26.5q-14 -51 -37 -107l-80 -227q-4 -12 -13.5 -36.5t-13.5 -37.5q-4 -12 -13 -37t-13 -37l-58 -139l-6 -12q-3 -10 0 -13q0 -6 10 -6q45 -3 86 -24q15 -9 27 -21q3 -2 9 -7t9 -7q7 -7 7 -12q0 -9 -2 -13q-4 -8 -11 -8q-8 0 -12 2h-2
q-5 1 -13.5 4.5t-9.5 3.5q-6 2 -17 6.5t-17 6.5q-50 16 -97 16q-9 0 -12 -8q-3 -6 -10 -19.5t-10 -19.5q-3 -5 -13.5 -26l-15.5 -31q-63 -135 -172 -244q-105 -105 -254 -170q-92 -39 -197 -61q-121 -28 -235 -25q-54 3 -94 20q-91 43 -82 144q10 73 41 123q72 123 188 194
q118 80 254 127q98 32 211 51q73 11 121 13q6 0 19.5 1t19.5 1q33 2 94 2q6 0 10 2h8zM1176 66h-25q-65 -3 -154 -13q-32 -5 -151 -33l-12 -4q-124 -36 -234 -92q-100 -50 -178 -125q-60 -54 -98 -129q-27 -49 -9 -100q18 -48 66 -62q81 -12 162 0q94 17 184 66
q155 79 268 213q99 115 176 264q3 3 3 8q0 1 1 3.5t1 3.5z" />
    <glyph glyph-name="agrave" unicode="&#xe0;" horiz-adv-x="671" 
d="M336 993l-17 4q-9 0 -32 9q-116 66 -162 94q-5 2 -8 12q-1 1 -2 3t-2 3q1 0 2 1t2 1q4 4 8 6q2 2 8 2q13 0 19 -2q9 0 18 -6q8 -6 24.5 -17.5t24.5 -17.5q88 -61 119 -84v-2q-2 -2 -2 -6zM178 145q-8 -13 -31 -45q-29 -42 -75 -69q-39 -22 -78 -19q-92 12 -141 101
q-21 40 -27 88q-5 33 -2 78t14 81q8 30 15 50q11 36 38 96l7 14q32 63 71 113q64 87 154 147q55 30 90 41q55 16 109 10q73 -6 102 -71q5 -10 14 -37q3 -21 -16 -27h-10q-10 -3 -19 0q-18 0 -39 6q-1 0 -4 3q-2 2 -4 2q0 2 -2 4t-2 4q-2 2 -2 6q-3 10 -14 18q-28 14 -54 9
q-63 -14 -114 -62q-48 -48 -92 -115q-37 -64 -64 -131q-23 -62 -29 -84q-13 -50 -16 -67q-13 -60 -10 -113q0 -35 16 -72q24 -46 78 -30q43 16 70 47q34 34 67 82q8 16 10 24q12 37 17 58l4 12q3 8 9 25.5t9 25.5q4 17 17 51l12 37q2 13 10 35q2 7 5 20t5 19l13 45q4 8 8 12
q26 18 47 29h4q18 9 37 6q39 -3 45 -43q6 -27 -4 -53q-14 -50 -47 -129q-5 -8 -14 -31q-39 -95 -46 -119q-12 -27 -12 -59q0 -20 6 -35q9 -15 25 -18q16 -6 31 0q25 14 41 39q30 41 57 96q38 74 68 151q2 3 5 11.5t5 11.5q1 4 4 12.5t4 12.5q2 4 5 11t5 11q2 3 5 11.5
t5 11.5q3 10 17 43q0 4 4 8q4 0 8 -2q6 -1 25 -11q6 -3 6 -6q0 -6 -2 -10q-12 -32 -19 -53q-15 -37 -30 -78q-48 -123 -76 -180q-25 -56 -70 -115q-27 -41 -74 -65q-41 -24 -88 -21q-59 3 -81 66q-8 18 -11 45q0 14 -2 24q-2 2 -2 6z" />
    <glyph glyph-name="aacute" unicode="&#xe1;" horiz-adv-x="671" 
d="M180 143q-15 -24 -30 -45q-29 -41 -76 -69q-39 -22 -78 -19q-96 12 -141 101q-21 40 -27 88q-5 33 -2 77q3 46 14 82q8 30 15 50q17 56 45 110q36 70 69 113q65 89 156 147q47 28 88 41q58 16 111 10q73 -6 102 -71q5 -10 14 -37q3 -21 -16 -27h-10q-10 -3 -19 0
q-18 0 -39 6q-4 0 -6 2q-1 1 -2 3.5t-2 3.5q-2 2 -2 4q-2 2 -2 6q-3 10 -14 18q-28 14 -54 8q-64 -15 -116 -61q-42 -42 -90 -115q-45 -77 -64 -131q-23 -62 -29 -84q-13 -50 -16 -67q-12 -59 -12 -113q3 -38 18 -72q21 -46 76 -30q44 15 72 47q34 34 67 82l6 12l9 25
q6 27 16 57q11 35 27 80q5 10 8 22q2 6 5 18.5t5 18.5q2 5 5 17.5t5 17.5q5 17 14.5 49t10.5 35q4 8 8 12q26 18 47 29q18 9 41 6q36 -3 45 -43q6 -27 -4 -53q-31 -95 -55 -144q-1 -3 -3 -8t-3 -8q-35 -87 -45 -119q-13 -29 -13 -59q0 -20 6 -35q9 -15 25 -18q13 -6 29 0
q25 13 37 30q1 1 3 4.5t3 4.5q40 62 45 73q2 4 6 11.5t6 11.5q38 74 68 151q25 62 34 88q9 15 21 48q0 4 4 8q4 0 8 -2q10 -3 23 -11q6 -3 6 -6q3 -3 0 -10q-4 -8 -4 -14q-2 -4 -17 -39q-6 -18 -28 -78l-21 -53q-16 -44 -55 -127q-32 -66 -70 -115q-31 -42 -73 -65
q-41 -24 -89 -21q-58 3 -83 66q-9 21 -9 45q0 14 -2 24q-2 2 -2 6zM178 141q-2 -3 -7 -10t-7 -10q-2 -4 -7 -11.5t-7 -11.5q-26 -38 -76 -69q-39 -22 -80 -19q-92 12 -141 101q-22 50 -27 88q-4 50 -2 77q2 28 14 82q8 20 15 50q14 46 47 110q36 70 69 113q64 87 154 147
q52 29 90 41q58 16 109 10q75 -6 104 -71q9 -18 12 -37q6 -21 -16 -27h-8q-10 -3 -19 0q-15 0 -39 4q-6 3 -10 11l-2 2l-2 4q0 1 -1 2t-1 2q-3 13 -14 18q-27 13 -54 8q-66 -15 -114 -63q-46 -41 -90 -113q-37 -60 -66 -131q-19 -55 -27 -84q-9 -25 -16 -67
q-12 -55 -12 -113q0 -40 16 -72q24 -46 78 -30q47 17 70 47q38 35 67 82q6 8 10 24l13 35q2 10 10 35l12 41l21 61q4 8 4 15q11 24 18 57q5 17 14.5 49t10.5 35q0 4 2 6l4 4q22 19 49 31q18 9 41 6q36 -3 45 -43q4 -33 -4 -53q-23 -72 -47 -123l-16 -37q-39 -95 -46 -119
q-9 -26 -12 -59q0 -22 8 -35q6 -15 23 -18q16 -6 31 0q23 11 39 34l4 5q34 53 55 96q40 73 70 149l20 54q5 15 16.5 42.5t16.5 41.5v2l4 6q4 0 8 -2q6 -1 25 -11q6 -3 6 -6q3 -3 0 -10q-10 -20 -21 -53q-19 -47 -28 -78q-9 -19 -11 -27q-32 -82 -67 -153q-28 -63 -70 -117
q-30 -40 -71 -63q-43 -24 -89 -21q-58 3 -83 66q-9 21 -9 45q-2 8 -6 28z" />
    <glyph glyph-name="acircumflex" unicode="&#xe2;" horiz-adv-x="671" 
d="M182 145q-15 -24 -30 -45q-29 -41 -76 -69q-39 -22 -78 -19q-92 12 -141 101q-21 40 -27 88q-5 33 -2 78t14 81q8 30 15 50q9 29 39 96q1 2 3 7t3 7q32 63 71 113q64 87 154 147q55 30 90 41q55 16 109 10q73 -6 102 -71q5 -10 14 -37q3 -21 -16 -27h-10q-10 -3 -19 0
q-18 0 -39 6q-1 0 -4 3q-2 2 -4 2q0 2 -2 4t-2 4q-2 2 -2 6q-3 10 -14 18q-28 14 -54 9q-63 -14 -114 -62q-48 -48 -92 -115q-37 -64 -64 -131q-23 -62 -29 -84q-13 -50 -16 -67q-13 -60 -10 -113q0 -35 16 -72q24 -46 78 -30q43 16 70 47q34 34 67 82q10 20 11 24
q9 28 16 58l4 12q3 8 9 25.5t9 25.5q4 17 17 51l12 37q2 13 10 35q2 7 6 21.5t5 17.5l12 45q4 8 8 12q26 18 47 29h4q18 9 37 6q39 -3 45 -43q6 -27 -4 -53q-14 -50 -47 -129q-5 -8 -14 -31q-35 -87 -45 -119q-13 -29 -13 -59q0 -20 6 -35q9 -15 25 -18q16 -6 31 0
q25 14 41 39q30 41 57 96q38 74 68 151l55 136q0 4 4 8q4 0 8 -2q6 -1 25 -11q6 -3 6 -6q0 -6 -2 -10q-12 -32 -19 -53q-15 -37 -30 -78q-48 -123 -76 -180q-25 -56 -70 -115q-28 -42 -73 -65q-41 -24 -88 -21q-60 3 -82 66q-8 18 -11 45q0 14 -2 24q-2 2 -2 6zM473 1042
q-38 12 -61 35q-24 21 -47 51l-5 5q-6 -3 -17 -9.5t-17 -9.5q-94 -54 -193 -84q0 1 -1 2t-1 2l-4 4q1 1 4 3t4 3t4 3.5t4 3.5q79 55 162 108l55 37q29 23 41 -14q48 -93 60 -121z" />
    <glyph glyph-name="atilde" unicode="&#xe3;" horiz-adv-x="671" 
d="M182 145q0 -1 -3.5 -5.5t-4.5 -8.5q-3 -5 -10 -15.5t-10 -15.5q-26 -38 -76 -69q-39 -22 -80 -19q-92 12 -141 101q-22 50 -27 88q-4 50 -2 78q2 27 14 81q7 20 15 50q14 46 47 110q36 70 69 113q64 87 154 147q52 29 90 41q58 16 109 10q75 -6 104 -71q9 -18 12 -37
q6 -21 -16 -27h-8q-10 -3 -19 0q-21 0 -39 6q-3 0 -6 3q-1 1 -2 3t-2 3l-2 2l-2 4q0 1 -1 2t-1 2q-3 13 -14 18q-28 14 -54 9q-63 -14 -114 -62q-47 -44 -90 -115q-37 -60 -66 -131q-11 -30 -26 -84q-16 -62 -17 -67q-12 -56 -12 -113q0 -35 16 -72q24 -46 78 -30
q47 17 70 47q38 35 67 82q8 10 11 24l12 35q2 10 10 35q3 8 8 25.5t8 25.5t8.5 25.5t8.5 25.5q4 8 4 15q11 24 18 57q5 17 14.5 49t10.5 35q0 4 4 8q0 1 1 2t1 2q2 1 5 3t5 3q26 18 39 23q18 9 41 6q36 -3 45 -43q4 -33 -4 -53q-23 -72 -47 -123l-16 -37q-35 -87 -45 -119
q-10 -30 -13 -59q0 -22 8 -35q6 -15 23 -18q16 -6 31 0q22 11 39 35l4 4q34 53 55 96q37 68 70 151q4 11 13 33.5t13 34.5q4 11 13.5 34t13.5 34v2l4 6q4 0 8 -2q6 -1 25 -11q6 -3 6 -6q3 -3 0 -10q-10 -20 -21 -53q-3 -7 -8 -21.5t-8 -21.5q-2 -6 -6 -17.5t-6 -17.5
q-8 -15 -10 -27q-28 -71 -68 -153q-28 -65 -70 -115q-27 -41 -71 -65q-43 -24 -88 -21q-59 3 -84 66q-9 21 -9 45q-3 12 -6 30zM555 1200q0 -2 -1 -6t-1 -6q0 -8 -2 -12q-18 -67 -82 -95q-62 -26 -121 9q-41 33 -86 36q-43 3 -106 -51q-2 0 -6 -4q-1 -1 -11 -6q0 2 1 5.5
t1 4.5v8q28 63 88 91q59 27 125 -17q103 -71 181 23z" />
    </font>
</defs>
</svg>
