<svg width="376" height="295" viewBox="0 0 376 295" fill="none" xmlns="http://www.w3.org/2000/svg">
<g clip-path="url(#clip0)">
<path opacity="0.1" d="M131.895 288.509C168.118 288.509 197.482 282.946 197.482 276.084C197.482 269.222 168.118 263.659 131.895 263.659C95.6714 263.659 66.3067 269.222 66.3067 276.084C66.3067 282.946 95.6714 288.509 131.895 288.509Z" fill="#39A935"/>
<path opacity="0.1" d="M218.458 41.491C194.353 40.6567 171.396 32.8726 149.474 24.3585C127.551 15.8443 105.838 6.41399 82.3102 1.90366C67.1777 -0.997703 49.8701 -1.41112 37.6799 6.69332C25.9441 14.5147 22.1526 27.9787 20.1153 40.4817C18.5808 49.8897 17.6795 59.7931 21.8807 68.6014C24.8007 74.717 29.9777 79.8568 33.5606 85.7154C46.0264 106.096 37.2143 131.228 23.7094 151.128C17.3778 160.462 10.022 169.378 5.13177 179.304C0.241546 189.23 -2.01921 200.641 2.26021 210.794C6.49865 220.85 16.6031 228.389 27.5494 233.696C49.7807 244.478 75.9674 247.562 101.521 249.313C158.07 253.179 214.916 251.506 271.614 249.827C292.597 249.208 313.671 248.579 334.312 245.335C345.775 243.532 357.608 240.672 365.932 233.767C376.495 225.003 379.113 210.165 372.033 199.178C360.159 180.741 327.339 176.164 319.03 156.383C314.464 145.493 319.153 133.366 325.794 123.269C340.036 101.604 363.906 82.598 365.161 57.8377C366.025 40.8318 354.55 23.7998 336.807 15.7512C318.211 7.31531 292.419 8.37678 278.705 22.3398C264.571 36.7014 239.744 42.2322 218.458 41.491Z" fill="#39A935"/>
<path d="M199.304 134.729L187.896 127.038L193.65 118.472L163.519 116.069L152.692 124.442L139.139 116.844L127.835 118.204L127.701 115.224C127.561 112.118 127.249 109.022 126.766 105.95C126.814 105.019 126.848 103.95 126.844 102.788C126.844 97.8903 126.181 91.3985 123.269 87.0707L123.939 81.0445L118.501 74.6198C119.375 72.8803 120.37 71.205 121.481 69.6067C121.667 69.3385 121.853 69.0778 122.055 68.8245C129.112 68.3143 134.681 62.5115 134.681 55.4164C134.681 55.0887 134.681 54.7609 134.643 54.4369C134.643 54.3065 134.617 54.1725 134.602 54.0421C135.291 54.4145 135.988 54.787 136.684 55.1594C136.815 55.3457 136.964 55.5319 137.128 55.7516L137.161 55.7926L137.37 56.0496L137.437 56.1278C137.511 56.2172 137.589 56.3029 137.668 56.3922L137.72 56.4518C137.917 56.6716 138.126 56.895 138.349 57.1148C138.376 57.1364 138.401 57.1601 138.424 57.1856L138.703 57.4463L138.781 57.517C139.02 57.7293 139.273 57.9342 139.526 58.1278L139.608 58.1874L139.928 58.4072L140.033 58.4742C140.156 58.5487 140.282 58.6269 140.405 58.6977L140.45 58.7238C140.595 58.802 140.744 58.8765 140.893 58.9472L140.967 58.977C141.094 59.0316 141.218 59.0838 141.34 59.1334L141.455 59.1744C141.586 59.2191 141.712 59.2601 141.846 59.2973L141.928 59.3197C142.092 59.3606 142.256 59.3942 142.424 59.4202H142.442C142.6 59.4458 142.759 59.4619 142.919 59.4686H143.027C143.17 59.4761 143.313 59.4761 143.455 59.4686H143.549C143.727 59.4584 143.905 59.4372 144.081 59.4053C144.914 59.2958 145.715 59.0087 146.428 58.5636C146.609 58.4422 146.77 58.2926 146.904 58.1204C147.649 57.1446 146.83 56.0757 146.83 56.0757C146.539 55.3829 144.655 54.895 144.655 54.895C144.655 54.895 138.696 52.4071 138.696 50.4256C138.696 48.4442 137.206 38.1647 121.827 35.8145C121.827 35.8145 111.823 35.2522 109.011 40.6079L108.952 41.2337C108.125 41.7514 107.44 42.7905 106.624 43.0959C106.272 43.1716 105.932 43.297 105.615 43.4683V43.3976C105.521 43.4799 105.443 43.5799 105.388 43.6918C105.212 44.0404 105.107 44.42 105.078 44.8091C104.995 45.2844 104.829 45.7418 104.591 46.1611C104.524 46.2803 104.449 46.3948 104.367 46.5038L104.304 46.6043C104.736 46.638 105.17 46.5678 105.57 46.3995C105.507 46.9094 105.382 47.4097 105.198 47.8893C105.434 47.8969 105.668 47.8364 105.872 47.7149C106.075 47.5934 106.239 47.4161 106.345 47.204V47.1742L106.393 47.1071C106.487 46.9347 106.564 46.7539 106.624 46.5671L106.583 46.6118C106.658 46.3697 106.725 46.1239 106.807 45.8855C106.844 45.7512 106.906 45.625 106.989 45.5131C107.089 45.4128 107.21 45.3374 107.344 45.2927C107.478 45.2481 107.62 45.2355 107.76 45.2561L107.607 48.4852H107.674C107.585 48.7201 107.475 48.9469 107.347 49.163C106.818 50.0197 105.857 50.6044 105.503 51.543C105.35 51.9957 105.292 52.4748 105.332 52.9508C105.332 53.2302 105.365 53.5132 105.388 53.7926V53.7702C105.44 54.5151 105.455 55.2228 105.052 55.8224C104.777 56.2321 104.334 56.5412 104.181 57.0068C104.139 57.1365 104.12 57.2727 104.125 57.409C104.155 57.8172 104.24 58.2194 104.378 58.6046C104.38 58.5972 104.38 58.5896 104.378 58.5822C104.471 58.8656 104.493 59.1674 104.442 59.4612C104.274 60.2061 103.369 60.8281 103.414 61.5395C103.411 61.633 103.425 61.7263 103.455 61.8151C103.629 62.1625 103.93 62.4294 104.296 62.56C104.871 62.8865 105.53 63.0319 106.188 62.9771C106.435 62.9325 106.674 62.8509 106.896 62.735C106.635 63.3346 106.367 63.9268 106.095 64.4892C106.054 64.5786 106.01 64.668 105.965 64.7574C105.965 64.7574 103.663 63.2192 102.356 66.3552C101.974 67.0069 101.701 67.7164 101.548 68.4558C101.482 68.7516 101.39 69.0408 101.272 69.3199C100.692 70.3024 99.8231 71.0826 98.7841 71.5545C96.1174 72.7762 85.3462 86.2103 85.1563 89.689C85.063 91.0469 84.8335 92.392 84.471 93.704C83.6231 96.7936 83.4052 100.022 83.8303 103.198C83.9634 104.224 84.184 105.237 84.4896 106.226C85.633 109.701 86.3965 116.185 86.3965 116.185L87.633 127.44C87.5871 128.994 87.6543 130.548 87.8342 132.092C86.5716 133.533 81.5026 139.541 83.4393 141.176C84.9291 142.465 87.5362 142.252 88.9999 141.988C87.7671 145.038 85.8267 150.342 85.5697 153.984C85.1972 159.374 86.2066 166.514 87.8044 169.255C89.4022 171.996 94.7282 179.028 94.7282 179.028C94.7282 179.028 94.4786 188.674 96.3818 192.179C98.285 195.684 99.0523 202.954 99.0523 202.954C99.0523 202.954 100.829 209.092 99.9387 211.349C99.0485 213.606 101.589 215.483 98.9219 216.984C96.2552 218.485 92.8436 252.314 92.8436 252.314C92.8436 252.314 91.4692 274.486 92.8436 275.614C92.9171 275.668 92.9957 275.714 93.0782 275.752V283.201C93.0782 283.201 92.1247 284.765 96.0019 285.082C98.6575 285.294 106.185 285.775 110.65 286.054L114.11 286.27C114.11 286.27 122.304 287.901 125.924 286.27C129.544 284.639 135.962 284.676 135.008 280.367C134.882 279.78 134.713 279.204 134.502 278.642C133.455 275.968 131.679 275.663 128.405 274.918C128.215 274.877 128.032 274.84 127.865 274.81C124.416 274.21 123.284 275.816 121.351 273.726C119.671 271.92 114.323 269.897 112.501 269.257C112.546 269.123 112.602 268.992 112.647 268.855C112.131 268.767 111.651 268.533 111.265 268.18L116.2 268.493L119.138 268.676C119.138 268.676 126.103 270.065 129.194 268.676C132.286 267.287 137.723 267.324 136.911 263.663C136.805 263.164 136.661 262.673 136.483 262.195C135.593 259.923 134.081 259.674 131.299 259.044C131.139 259.011 130.99 258.977 130.841 258.951C127.909 258.441 126.949 259.804 125.306 258.031C123.898 256.519 119.455 254.824 117.857 254.247C117.857 253.42 116.74 252.243 116.036 251.063C115.209 249.685 116.736 244.862 116.736 244.862L117.608 224.85C117.939 224.702 118.291 224.602 118.65 224.552C118.65 224.552 122.591 220.79 121.701 216.783C121.519 215.571 121.425 214.347 121.418 213.122C122.714 211.919 124.498 210.142 125.004 209.047C125.831 207.263 125.004 198.619 125.004 198.619V165.564L131.597 166.231L137.578 166.845L139.399 167.031L145.381 167.635L159.128 169.024L171.516 166.677L176.875 165.664L187.896 163.579V136.614L199.304 134.729ZM108.572 45.3753L107.805 45.2933C108.058 45.3045 108.326 45.3529 108.572 45.3753Z" fill="url(#paint0_linear)"/>
<path d="M172.566 152.238C168.841 157.567 155.452 154.744 155.452 154.744L145.076 145.035L143.679 143.72L146.022 138.744C146.022 138.744 146.766 138.949 148.044 139.314C154.752 141.262 175.709 147.757 172.566 152.238Z" fill="#EFB7B9"/>
<path opacity="0.1" d="M148.036 139.314C147.578 140.908 146.323 143.295 145.076 145.035L143.679 143.72L146.022 138.744C146.022 138.744 146.774 138.949 148.036 139.314Z" fill="black"/>
<path d="M112.449 83.2009C112.449 83.2009 102.885 87.4431 103.354 97.8604C103.692 104.572 104.423 111.258 105.544 117.883C105.544 117.883 103.589 133.559 111.73 137.601C119.872 141.642 127.407 144.964 127.407 144.964C127.407 144.964 140.144 146.334 141.727 146.901C143.31 147.467 148.256 138.811 147.344 137.463C146.431 136.114 134.74 133.288 133.25 131.038C131.761 128.788 128.315 127.399 128.315 127.399C128.315 127.399 124.759 125.246 124.516 123.302C124.274 121.358 125.213 119.909 125.451 119.056C125.69 118.203 126.293 109.969 126.293 109.969C126.293 109.969 130.308 80.6571 112.449 83.2009Z" fill="#DCE6F2"/>
<path opacity="0.1" d="M118.762 117.455C118.762 117.455 105.641 119.652 106.911 124.245C106.911 124.245 111.674 119.287 118.762 117.455Z" fill="black"/>
<path opacity="0.1" d="M118.863 119.313C118.863 119.313 111.648 125.202 113.06 125.503C114.472 125.805 118.863 119.313 118.863 119.313Z" fill="black"/>
<path opacity="0.1" d="M122.33 121.365C122.33 121.365 120.397 125.325 121.585 125.056C122.773 124.788 122.33 121.365 122.33 121.365Z" fill="black"/>
<path opacity="0.1" d="M148.521 139.735L147.724 139.507C147.951 138.763 148.014 138.159 147.828 137.88C146.915 136.532 135.232 133.708 133.746 131.455C132.26 129.202 128.811 127.816 128.811 127.816C128.811 127.816 125.254 125.664 125.012 123.719C124.77 121.775 125.708 120.326 125.947 119.474C126.185 118.621 126.788 110.382 126.788 110.382C126.788 110.382 130.792 81.0742 112.933 83.6181C112.933 83.6181 103.369 87.8639 103.834 98.2813C104.172 104.993 104.905 111.679 106.028 118.304C106.028 118.304 104.073 133.98 112.215 138.021C120.356 142.062 127.891 145.385 127.891 145.385C127.891 145.385 140.625 146.752 142.211 147.321C142.811 147.537 143.895 146.424 144.956 144.893L145.56 145.455L155.936 155.161C155.936 155.161 169.326 157.988 173.05 152.659C176.197 148.174 155.243 141.679 148.521 139.735Z" fill="black"/>
<path d="M106.944 44.1014C106.58 44.1727 106.231 44.3076 105.913 44.4999C105.54 44.8091 105.54 45.3379 105.447 45.7998C105.338 46.4422 105.083 47.0512 104.702 47.5801C105.126 47.6112 105.551 47.5409 105.943 47.3752C105.879 47.885 105.754 48.3852 105.57 48.865C105.802 48.8709 106.031 48.8097 106.229 48.6889C106.427 48.568 106.586 48.3925 106.687 48.1834C106.884 47.7637 107.04 47.3259 107.153 46.8761C107.188 46.7416 107.249 46.6151 107.332 46.5037C107.674 46.0977 108.311 46.2802 108.84 46.3324C109.28 46.3695 109.722 46.2882 110.121 46.097C110.519 45.9058 110.858 45.6115 111.105 45.2448C111.667 44.3919 111.701 42.2094 110.36 41.9785C108.959 41.7475 108.088 43.6768 106.944 44.1014Z" fill="#965D7B"/>
<g opacity="0.1">
<path opacity="0.1" d="M105.875 44.958C105.909 44.7755 105.931 44.5856 105.972 44.4031C105.618 44.7122 105.6 45.2374 105.507 45.7029C105.46 45.9715 105.386 46.2348 105.287 46.4888C105.58 46.0214 105.78 45.5015 105.875 44.958Z" fill="black"/>
<path opacity="0.1" d="M105.995 48.0345C106.18 47.5552 106.305 47.0548 106.367 46.5447C105.994 46.7016 105.59 46.7717 105.186 46.7495C105.069 47.0115 104.925 47.261 104.758 47.4944C105.18 47.5271 105.604 47.4581 105.995 47.2933C105.933 47.8034 105.808 48.3039 105.622 48.7831C105.854 48.7885 106.083 48.7272 106.281 48.6063C106.479 48.4855 106.638 48.3103 106.74 48.1015C106.832 47.9322 106.907 47.7537 106.963 47.5689C106.854 47.7216 106.708 47.8444 106.538 47.9257C106.369 48.0071 106.182 48.0445 105.995 48.0345Z" fill="black"/>
<path opacity="0.1" d="M109.265 45.5018C108.736 45.4497 108.095 45.2672 107.753 45.6732C107.671 45.7855 107.61 45.9117 107.574 46.0456C107.54 46.1425 107.51 46.243 107.484 46.3436C107.838 46.0642 108.412 46.2132 108.892 46.2616C109.332 46.2976 109.774 46.2158 110.172 46.0247C110.57 45.8335 110.91 45.54 111.157 45.1741C111.27 44.9932 111.354 44.796 111.406 44.5894C111.151 44.905 110.823 45.1533 110.449 45.3124C110.076 45.4715 109.669 45.5366 109.265 45.5018Z" fill="black"/>
</g>
<path d="M118.155 74.8618L123.835 81.6925L123.094 88.5865L116.229 77.8414L118.155 74.8618Z" fill="#DCE6F2"/>
<path opacity="0.1" d="M123.831 81.6925L123.135 88.1768L123.09 88.5865L116.896 78.888L116.229 77.8414L116.423 77.5397L118.151 74.8618L118.535 75.3237L123.831 81.6925Z" fill="black"/>
<path d="M126.781 65.614C124.859 66.1652 123.023 68.0572 121.425 70.3552C120.345 71.9408 119.379 73.6011 118.535 75.3237C118.01 76.374 117.548 77.3833 117.164 78.2623L116.896 78.888C116.248 80.4187 115.887 81.443 115.887 81.443C115.887 81.443 101.175 70.3813 103.503 69.6364C104.285 69.3869 105.313 67.7109 106.33 65.5991L106.456 65.3309C107.101 63.9752 107.734 62.4631 108.296 61.0403C109.447 58.1166 110.3 55.5765 110.3 55.5765C110.3 55.5765 132.647 63.938 126.781 65.614Z" fill="#EFB7B9"/>
<path d="M135.582 54.9546C135.582 54.9546 138.978 61.1 143.541 60.262C148.103 59.4239 146.226 56.9621 146.226 56.9621L135.582 54.9546Z" fill="#444053"/>
<path d="M129.001 267.678C125.991 269.052 119.187 267.678 119.187 267.678L116.319 267.499C112.594 267.26 106.36 266.858 104.155 266.679C100.937 266.415 101.726 265.096 101.726 265.096V257.13L117.339 253.174C117.339 253.174 123.511 255.286 125.202 257.13C126.807 258.888 127.746 257.536 130.61 258.042C130.751 258.068 130.9 258.098 131.057 258.135C133.775 258.757 135.25 259.003 136.122 261.257C136.297 261.73 136.438 262.215 136.543 262.709C137.347 266.337 132.006 266.311 129.001 267.678Z" fill="#A36468"/>
<path opacity="0.1" d="M136.122 261.257C135.562 261.606 134.974 261.908 134.364 262.158C132.315 263.093 130.368 264.232 128.297 265.115C126.226 265.998 123.995 266.627 121.753 266.46C120.58 266.374 119.38 266.087 118.259 266.422C117.566 266.69 116.913 267.052 116.319 267.499C112.594 267.26 106.36 266.858 104.155 266.679C100.937 266.415 101.726 265.097 101.726 265.097V264.165C101.842 264.165 101.972 264.132 102.121 264.121C102.892 264.108 103.659 264.223 104.393 264.46C106.01 264.899 107.618 265.331 109.235 265.763C109.368 265.262 109.602 264.792 109.922 264.384C110.242 263.975 110.642 263.636 111.097 263.387C112.02 262.897 113.055 262.66 114.099 262.698C116.606 262.731 118.978 263.92 121.481 264.039C122.181 264.103 122.885 263.985 123.526 263.696C123.868 263.525 124.17 263.275 124.505 263.085C125.042 262.826 125.608 262.634 126.192 262.515C127.834 262.107 129.445 261.587 131.016 260.959C131.463 260.784 131.984 260.467 131.924 259.99C131.846 259.357 130.852 259.283 130.591 258.702C130.545 258.597 130.524 258.483 130.529 258.369C130.534 258.254 130.566 258.143 130.621 258.042C130.762 258.068 130.911 258.098 131.068 258.135C133.775 258.757 135.25 259.003 136.122 261.257Z" fill="black"/>
<path d="M125.82 285.108C122.282 286.724 114.274 285.108 114.274 285.108L110.904 284.911C106.538 284.631 99.1863 284.166 96.5904 283.946C92.8026 283.633 93.7337 282.084 93.7337 282.084V272.694L112.107 268.039C112.107 268.039 119.369 270.523 121.358 272.694C123.246 274.761 124.338 273.171 127.723 273.767C127.891 273.797 128.066 273.834 128.248 273.875C131.448 274.62 133.183 274.899 134.208 277.551C134.415 278.108 134.58 278.679 134.703 279.261C135.627 283.529 129.358 283.495 125.82 285.108Z" fill="#A36468"/>
<path opacity="0.1" d="M134.2 277.551C133.542 277.962 132.851 278.317 132.133 278.613C129.723 279.711 127.429 281.052 124.993 282.091C122.557 283.13 119.932 283.868 117.291 283.674C115.913 283.574 114.501 283.227 113.194 283.629C112.375 283.948 111.604 284.38 110.904 284.911C106.538 284.631 99.1863 284.166 96.5904 283.946C92.8026 283.633 93.7337 282.084 93.7337 282.084V280.989C93.8879 280.964 94.0433 280.946 94.1993 280.937C95.1066 280.92 96.0104 281.055 96.8734 281.335L102.568 282.87C102.727 282.278 103.004 281.724 103.384 281.243C103.764 280.763 104.238 280.364 104.777 280.073C105.862 279.494 107.082 279.214 108.311 279.261C111.261 279.302 114.051 280.698 116.997 280.84C117.817 280.915 118.643 280.777 119.395 280.441C119.801 280.236 120.14 279.942 120.55 279.722C121.18 279.414 121.847 279.189 122.535 279.052C124.456 278.567 126.342 277.955 128.181 277.22C128.706 277.011 129.321 276.639 129.25 276.08C129.157 275.335 127.988 275.246 127.679 274.56C127.626 274.437 127.603 274.303 127.609 274.169C127.616 274.035 127.652 273.904 127.716 273.786C127.883 273.815 128.058 273.853 128.241 273.894C131.44 274.609 133.176 274.899 134.2 277.551Z" fill="black"/>
<path d="M117.812 220.678L116.818 244.079C116.818 244.079 115.328 248.858 116.136 250.225C116.945 251.592 118.308 252.955 117.812 253.763C117.317 254.571 111.358 263.309 109.432 259.957C107.507 256.605 105.607 242.079 105.607 242.079L107.384 224.139L117.812 220.678Z" fill="#444053"/>
<path d="M122.125 162.376L124.889 166.07V198.205C124.889 198.205 125.697 206.771 124.889 208.54C124.081 210.31 119.984 213.848 119.984 213.848L116.539 196.157L117.284 177.441L122.125 162.376Z" fill="#444053"/>
<path opacity="0.1" d="M117.812 220.678L116.818 244.079C116.818 244.079 115.328 248.858 116.136 250.225C116.945 251.592 118.308 252.955 117.812 253.763C117.317 254.571 111.358 263.309 109.432 259.957C107.507 256.605 105.607 242.079 105.607 242.079L107.384 224.139L117.812 220.678Z" fill="black"/>
<path opacity="0.1" d="M122.125 162.376L124.889 166.07V198.205C124.889 198.205 125.697 206.771 124.889 208.54C124.081 210.31 119.984 213.848 119.984 213.848L116.539 196.157L117.284 177.441L122.125 162.376Z" fill="black"/>
<path d="M124.889 148.67V166.052L121.786 179.583C121.786 179.583 120.792 212.235 121.66 216.205C122.528 220.176 118.68 223.904 118.68 223.904C118.68 223.904 116.446 224.154 116.446 225.889C116.446 227.625 112.721 232.593 112.721 232.593L112.844 242.277C112.844 242.277 114.46 260.404 111.976 263.879C109.492 267.354 112.844 267.853 112.844 267.853C109.741 278.032 94.8436 275.674 93.4991 274.557C92.1545 273.439 93.4991 251.465 93.4991 251.465C93.4991 251.465 96.8288 217.945 99.4359 216.455C102.043 214.965 99.5625 213.103 100.43 210.868C101.298 208.634 99.5625 202.552 99.5625 202.552C99.5625 202.552 98.8176 195.348 96.9554 191.874C95.0932 188.399 95.339 178.838 95.339 178.838C95.339 178.838 90.1247 171.884 88.5753 169.154C87.026 166.424 86.0278 159.348 86.4002 154.007C86.6535 150.398 88.5493 145.143 89.7523 142.118C90.3296 140.67 90.7467 139.731 90.7467 139.731L91.1005 139.824L111.444 145.15L124.889 148.67Z" fill="#444053"/>
<path opacity="0.1" d="M126.781 65.6139C124.859 66.1652 123.023 68.0572 121.425 70.3552H121.008C118.666 70.3568 116.365 69.7402 114.338 68.5676C112.31 67.3951 110.629 65.7081 109.462 63.6772C108.975 62.8357 108.582 61.9425 108.293 61.0142C109.443 58.0905 110.296 55.5504 110.296 55.5504C110.296 55.5504 132.647 63.9379 126.781 65.6139Z" fill="black"/>
<path d="M134.323 56.3028C134.326 58.3407 133.862 60.3521 132.965 62.1822C132.069 64.0123 130.764 65.6121 129.152 66.8585C127.539 68.1049 125.663 68.9646 123.666 69.3714C121.669 69.7782 119.605 69.7211 117.634 69.2047C115.662 68.6883 113.836 67.7263 112.295 66.3927C110.754 65.0592 109.54 63.3897 108.746 61.5129C107.951 59.6361 107.599 57.6021 107.715 55.5675C107.83 53.5329 108.412 51.552 109.414 49.7775C109.817 49.0565 110.289 48.3756 110.822 47.744C111.7 46.6976 112.732 45.7909 113.883 45.0549C115.827 43.8195 118.058 43.1096 120.359 42.9944C122.659 42.8793 124.95 43.3628 127.008 44.3978C129.065 45.4328 130.819 46.9839 132.098 48.8995C133.377 50.8151 134.137 53.0297 134.304 55.327C134.312 55.6547 134.323 55.9788 134.323 56.3028Z" fill="#EFB7B9"/>
<path opacity="0.1" d="M123.135 88.1768L123.09 88.5865L116.896 78.9029C116.248 80.4337 115.887 81.4579 115.887 81.4579C115.887 81.4579 101.175 70.3813 103.503 69.6364C104.285 69.3869 105.313 67.7109 106.33 65.5991L106.456 65.3309C107.537 68.5489 113.812 74.981 116.423 77.5584C116.725 77.8563 116.974 78.1021 117.168 78.2809L117.567 78.6533L117.775 78.8619C118.725 79.8415 122.732 84.1618 123.135 88.1768Z" fill="black"/>
<path d="M127.764 121.034L127.086 142.848L126.967 146.733C126.967 146.733 118.937 145.988 111.444 145.169C105.41 144.509 99.7227 143.798 98.8474 143.381C97.7301 142.856 95.3352 142.45 93.4469 142.193C91.9869 141.995 90.8398 141.891 90.8398 141.891C90.8398 141.891 90.4115 142.018 89.7523 142.137C88.3146 142.398 85.7894 142.61 84.3183 141.332C82.4374 139.697 87.3798 133.757 88.6126 132.33L88.8845 132.021L88.4189 127.719L87.2085 116.565C87.2085 116.565 86.4636 110.14 85.3462 106.695C85.0475 105.715 84.832 104.712 84.7019 103.697C84.2867 100.55 84.4994 97.3525 85.3276 94.2886C85.6814 92.9867 85.906 91.6531 85.998 90.3071C86.1842 86.862 96.7058 73.547 99.313 72.3366C100.486 71.7897 101.43 70.8486 101.98 69.6773C102.161 69.309 102.298 68.9201 102.386 68.519C103.503 63.6772 106.33 65.599 106.33 65.599C107.011 69.3868 117.563 79.4131 117.563 79.4131L117.771 79.6216C118.818 80.6943 123.481 85.7298 123.15 90.0278C123.083 91.6275 123.322 93.2252 123.853 94.7355C126 101.493 127.234 108.508 127.522 115.593L127.764 121.034Z" fill="#DCE6F2"/>
<path opacity="0.1" d="M112.814 95.1304C112.814 95.1304 110.207 101.462 108.252 102.486C106.296 103.51 113.745 104.646 112.814 95.1304Z" fill="black"/>
<path opacity="0.1" d="M114.77 106.956C114.77 106.956 108.81 107.7 108.81 108.818C108.81 109.935 114.77 106.956 114.77 106.956Z" fill="black"/>
<path opacity="0.1" d="M121.008 114.218C121.008 114.218 112.349 132.654 109.928 133.213C107.507 133.772 121.008 114.218 121.008 114.218Z" fill="black"/>
<path opacity="0.1" d="M117.399 80.348L110.237 83.4616L101.592 70.4036C101.774 70.0354 101.91 69.6464 101.998 69.2453C103.116 64.4035 105.942 66.3253 105.942 66.3253C106.624 70.1131 117.175 80.1394 117.175 80.1394L117.399 80.348Z" fill="black"/>
<path d="M117.771 79.6031L110.609 82.7168L101.965 69.6588C102.146 69.2905 102.283 68.9015 102.371 68.5005C103.488 63.6586 106.315 65.5805 106.315 65.5805C106.997 69.3683 117.548 79.3945 117.548 79.3945L117.771 79.6031Z" fill="#DCE6F2"/>
<path opacity="0.1" d="M126.967 146.733C126.967 146.733 118.937 145.988 111.444 145.169L124.889 148.688V152.785C124.3 153.318 123.79 153.593 123.459 153.452C121.909 152.8 109.265 150.752 109.265 150.752C109.265 150.752 101.92 147.027 93.9944 142.558C93.802 142.451 93.6156 142.334 93.4358 142.208C92.5116 141.58 91.7153 140.783 91.0893 139.857C89.6256 137.738 88.9105 135.016 88.6014 132.345C88.4276 130.815 88.3629 129.274 88.4077 127.734C88.4461 125.989 88.6054 124.248 88.8845 122.524C88.118 115.847 87.7449 109.132 87.7671 102.412C87.8602 91.9832 97.637 88.2587 97.637 88.2587C115.608 86.6758 110.036 115.727 110.036 115.727C110.036 115.727 108.997 123.92 108.714 124.758C108.43 125.596 107.414 126.993 107.551 128.949C107.689 130.904 111.123 133.243 111.123 133.243C111.123 133.243 114.475 134.815 115.857 137.142C116.863 138.859 123.395 141.187 127.086 142.848L126.967 146.733Z" fill="black"/>
<path opacity="0.1" d="M132.986 48.0345C132.993 48.6479 132.866 49.2555 132.613 49.8148C132.423 50.2711 132.201 50.7141 131.951 51.1407C131.559 51.9253 131.002 52.6164 130.319 53.1668C129.459 53.7813 128.371 53.9526 127.34 54.2022C126.308 54.4517 125.235 54.8502 124.647 55.7292C124.328 56.2943 124.115 56.9127 124.017 57.5542C123.919 58.1952 123.663 58.8017 123.272 59.3196C123.069 59.5725 122.788 59.7506 122.472 59.8262C122.157 59.9017 121.825 59.8702 121.529 59.7367C121.218 59.5268 120.982 59.2227 120.855 58.8689C120.431 57.9118 120.323 56.8503 120.151 55.8186C119.98 54.7869 119.738 53.7255 119.105 52.8949C118.472 52.0643 117.351 51.5168 116.356 51.8409C116.023 51.969 115.72 52.1631 115.464 52.4114C115.208 52.6597 115.005 52.9572 114.866 53.286C114.591 53.9442 114.402 54.6352 114.304 55.3419C113.842 57.8695 113.297 60.3823 112.669 62.8802C112.65 62.9826 112.608 63.0793 112.546 63.1633C112.447 63.2619 112.313 63.3181 112.174 63.3197C111.339 63.4314 110.539 62.8467 109.697 62.91C109.61 62.9158 109.524 62.9295 109.44 62.951C108.079 60.5858 107.478 57.8594 107.718 55.1413C107.959 52.4231 109.029 49.8446 110.784 47.7551L110.851 47.7365C111.411 47.5377 111.92 47.2172 112.341 46.7979C112.879 46.2599 113.377 45.6836 113.831 45.0735L114.129 44.7011C114.985 43.6697 115.96 42.7433 117.034 41.9412C117.327 41.7011 117.663 41.5191 118.025 41.4049C118.334 41.3447 118.651 41.3346 118.963 41.3751C120.25 41.5295 121.546 41.5781 122.84 41.5204C123.742 41.3786 124.651 41.2866 125.563 41.2448C127.921 41.3118 129.932 42.9766 131.422 44.8016C132.222 45.7365 132.937 46.8128 132.986 48.0345Z" fill="black"/>
<path d="M107.674 50.1314C107.157 50.9806 106.222 51.5579 105.872 52.489C105.358 53.841 106.226 55.5244 105.429 56.7312C105.164 57.1371 104.728 57.4388 104.579 57.9044C104.326 58.6902 105.019 59.5282 104.84 60.3364C104.661 61.1446 103.596 61.8262 103.879 62.6158C104.046 62.9602 104.34 63.2269 104.699 63.3607C105.263 63.6844 105.912 63.8286 106.561 63.7741C107.578 63.6065 108.334 62.6084 109.365 62.5339C110.203 62.4743 111.004 63.0553 111.838 62.9473C111.978 62.9424 112.111 62.8853 112.211 62.7871C112.274 62.7041 112.316 62.607 112.334 62.5041C112.959 60.0087 113.506 57.4959 113.972 54.9658C114.068 54.2589 114.255 53.5676 114.531 52.9099C114.67 52.5817 114.874 52.2848 115.13 52.0366C115.386 51.7885 115.689 51.594 116.021 51.4648C117.015 51.1445 118.133 51.6882 118.77 52.5188C119.406 53.3493 119.649 54.4108 119.82 55.4425C119.991 56.4742 120.099 57.5356 120.52 58.4928C120.648 58.8478 120.885 59.153 121.198 59.3644C121.757 59.6884 122.509 59.4314 122.937 58.9472C123.33 58.4291 123.586 57.8208 123.682 57.1781C123.779 56.5377 123.993 55.9205 124.312 55.3568C124.9 54.4779 125.976 54.0793 127.004 53.8298C128.032 53.5803 129.116 53.4052 129.984 52.7907C130.666 52.2408 131.222 51.5512 131.615 50.7683C132.166 49.8074 132.68 48.7645 132.636 47.6584C132.587 46.4516 131.872 45.3753 131.109 44.4367C129.619 42.6117 127.604 40.9469 125.246 40.8835C124.334 40.9217 123.425 41.0137 122.524 41.1592C121.23 41.2174 119.933 41.1675 118.647 41.0102C118.334 40.9728 118.017 40.9841 117.708 41.0437C117.346 41.1542 117.011 41.3366 116.721 41.58C115.646 42.3808 114.67 43.3059 113.812 44.3361C113.259 45.0693 112.66 45.7659 112.017 46.4218C111.596 46.8417 111.087 47.1635 110.527 47.3641C110.155 47.4684 109.782 47.3939 109.429 47.5094C108.33 47.8557 108.185 49.2897 107.674 50.1314Z" fill="#965D7B"/>
<path opacity="0.1" d="M143.541 60.2582C140.561 60.8057 138.092 58.396 136.725 56.6381C136.305 56.1042 135.923 55.5416 135.582 54.9546L145.809 56.8839L146.223 56.9621C146.223 56.9621 148.103 59.424 143.541 60.2582Z" fill="black"/>
<g opacity="0.1">
<path opacity="0.1" d="M104.84 59.2711C104.882 58.784 104.808 58.294 104.624 57.8409C104.624 57.8782 104.591 57.9154 104.579 57.9527C104.419 58.4518 104.635 58.9695 104.773 59.4872C104.803 59.4176 104.825 59.3452 104.84 59.2711Z" fill="black"/>
<path opacity="0.1" d="M105.726 53.1742C105.688 53.6892 105.698 54.2067 105.756 54.7199C105.794 54.2048 105.784 53.6874 105.726 53.1742Z" fill="black"/>
<path opacity="0.1" d="M131.593 49.6918C131.201 50.4765 130.645 51.1675 129.962 51.7179C129.101 52.3325 128.017 52.5038 126.982 52.7533C125.947 53.0029 124.878 53.4014 124.289 54.2804C123.971 54.8457 123.758 55.464 123.66 56.1054C123.563 56.7479 123.307 57.3561 122.915 57.8745C122.487 58.3587 121.734 58.6194 121.176 58.2916C120.863 58.0803 120.626 57.7751 120.498 57.4201C120.077 56.4629 119.965 55.4052 119.798 54.3698C119.63 53.3344 119.38 52.2766 118.747 51.4461C118.114 50.6155 116.993 50.068 115.999 50.392C115.666 50.5207 115.363 50.715 115.107 50.9632C114.851 51.2115 114.648 51.5087 114.509 51.8371C114.233 52.4949 114.045 53.1862 113.95 53.893C113.486 56.4232 112.94 58.936 112.311 61.4314C112.294 61.5343 112.252 61.6314 112.188 61.7144C112.089 61.8126 111.956 61.8697 111.816 61.8746C110.982 61.9826 110.181 61.4016 109.343 61.4612C108.311 61.5356 107.555 62.5338 106.538 62.6977C105.89 62.7558 105.239 62.6114 104.676 62.2843C104.417 62.1729 104.185 62.0079 103.995 61.8001C103.907 61.9249 103.85 62.0678 103.826 62.2181C103.802 62.3685 103.813 62.5222 103.857 62.6679C104.021 63.0146 104.315 63.2824 104.676 63.4128C105.239 63.7399 105.89 63.8844 106.538 63.8262C107.555 63.6623 108.311 62.6642 109.343 62.5897C110.181 62.5301 110.982 63.1111 111.816 63.0031C111.956 62.9982 112.089 62.9411 112.188 62.8429C112.252 62.7599 112.294 62.6628 112.311 62.5599C112.937 60.0769 113.483 57.5641 113.95 55.0215C114.045 54.3147 114.233 53.6234 114.509 52.9656C114.648 52.6372 114.851 52.34 115.107 52.0917C115.363 51.8435 115.666 51.6492 115.999 51.5205C116.993 51.1965 118.11 51.744 118.747 52.5746C119.384 53.4051 119.626 54.4666 119.798 55.4983C119.969 56.53 120.077 57.5914 120.498 58.5486C120.626 58.9036 120.863 59.2088 121.176 59.4201C121.734 59.7442 122.487 59.4872 122.915 59.003C123.307 58.4846 123.563 57.8764 123.66 57.2339C123.758 56.5925 123.971 55.9742 124.289 55.4089C124.878 54.5299 125.954 54.1351 126.982 53.8819C128.01 53.6286 129.094 53.461 129.962 52.8465C130.645 52.2961 131.201 51.605 131.593 50.8203C132.144 49.8632 132.658 48.8203 132.613 47.7141C132.606 47.5719 132.591 47.4302 132.569 47.2896C132.389 48.142 132.059 48.9555 131.593 49.6918Z" fill="black"/>
</g>
<path opacity="0.1" d="M132.628 49.8036C133.583 51.5018 134.15 53.3909 134.286 55.3344C130.967 53.4722 127.846 51.4275 126.271 50.7161C123.526 49.4758 113.261 49.6621 109.403 49.7775C109.806 49.0565 110.278 48.3756 110.81 47.744C111.692 46.6967 112.728 45.79 113.883 45.0549C115.412 44.0842 117.124 43.4357 118.912 43.1489C120.701 42.8621 122.529 42.943 124.286 43.3868C126.042 43.8306 127.689 44.6278 129.127 45.7298C130.564 46.8319 131.762 48.2155 132.647 49.7961L132.628 49.8036Z" fill="black"/>
<path opacity="0.1" d="M144.472 58.6791C142.681 59.2303 139.757 58.1651 136.725 56.6381C136.305 56.1042 135.923 55.5416 135.582 54.9546L145.809 56.8839C146.487 57.3457 146.658 58.0049 144.472 58.6791Z" fill="black"/>
<path d="M121.801 36.8909C121.801 36.8909 112.025 36.3323 109.276 41.6396L108.833 46.3436L108.088 46.2617L107.939 49.461C107.939 49.461 122.881 48.8092 126.282 50.3437C129.682 51.8782 140.249 59.6102 144.483 58.3066C148.718 57.003 144.111 55.7926 144.111 55.7926C144.111 55.7926 138.282 53.3233 138.282 51.3866C138.282 49.4498 136.837 39.2187 121.801 36.8909Z" fill="#444053"/>
<path opacity="0.1" d="M102.944 211.271C102.944 211.271 109.183 217.323 111.883 216.857C111.883 216.857 104.248 216.205 102.944 211.271Z" fill="black"/>
<path opacity="0.1" d="M101.641 214.075C101.641 214.075 102.199 217.189 103.689 216.883C105.179 216.578 101.641 214.075 101.641 214.075Z" fill="black"/>
<path opacity="0.1" d="M111.418 266.113C111.418 266.113 102.561 273.004 104.054 273.19C105.548 273.376 111.418 266.113 111.418 266.113Z" fill="black"/>
<path d="M123.265 129.362L151.943 124.695V151.847L124.695 150.42L123.265 129.362Z" fill="#39A935"/>
<path opacity="0.05" d="M123.265 129.362L151.943 124.695V151.847L124.695 150.42L123.265 129.362Z" fill="black"/>
<path d="M151.943 124.695L186.335 127.269L184.432 150.897L151.943 151.847V124.695Z" fill="#39A935"/>
<path opacity="0.1" d="M151.943 124.695L186.335 127.269L184.432 150.897L151.943 151.847V124.695Z" fill="black"/>
<path d="M162.517 116.408L151.943 124.695L186.335 127.269L191.955 118.788L162.517 116.408Z" fill="#39A935"/>
<path d="M112.881 120.312L138.699 117.168L151.943 124.695L123.265 129.362L112.881 120.312Z" fill="#39A935"/>
<path d="M158.23 131.746V168.867L144.796 167.489L138.952 166.893L137.172 166.707L131.332 166.108L123.265 165.281V129.362L151.94 131.314L158.23 131.746Z" fill="#39A935"/>
<path d="M186.335 127.269V163.471L175.568 165.538L170.331 166.543L158.23 168.867V131.746L186.335 127.269Z" fill="#39A935"/>
<path opacity="0.05" d="M186.335 127.269V163.471L175.568 165.538L170.331 166.543L158.23 168.867V131.746L186.335 127.269Z" fill="black"/>
<path d="M112.881 137.176L123.265 129.362L158.23 131.746L153.083 140.416L112.881 137.176Z" fill="#39A935"/>
<path opacity="0.1" d="M112.881 137.176L123.265 129.362L158.23 131.746L153.083 140.416L112.881 137.176Z" fill="white"/>
<path d="M186.335 127.269L158.23 131.746L167.378 139.939L197.483 134.889L186.335 127.269Z" fill="#39A935"/>
<path opacity="0.1" d="M186.335 127.269L158.23 131.746L167.378 139.939L197.483 134.889L186.335 127.269Z" fill="white"/>
<path opacity="0.1" d="M175.568 165.538L170.331 166.543V158.808L175.236 157.571L175.568 165.538Z" fill="white"/>
<path opacity="0.1" d="M144.796 162.372V167.489L138.953 166.893V162.372H144.796Z" fill="white"/>
<path opacity="0.1" d="M137.172 163.985V166.707L131.332 166.108V163.985H137.172Z" fill="white"/>
<path opacity="0.1" d="M154.714 159.657C150.711 164.778 137.489 161.24 137.489 161.24L127.664 150.99L126.33 149.601L128.937 144.759C128.937 144.759 129.682 145.005 130.926 145.437C137.511 147.738 158.085 155.348 154.714 159.657Z" fill="black"/>
<path d="M154.342 158.912C150.338 164.033 137.116 160.495 137.116 160.495L127.291 150.245L125.958 148.856L128.565 144.014C128.565 144.014 129.31 144.26 130.554 144.692C137.139 146.994 157.713 154.603 154.342 158.912Z" fill="#EFB7B9"/>
<path opacity="0.1" d="M130.539 144.692C129.995 146.256 128.613 148.573 127.276 150.245L125.943 148.856L128.55 144.014C128.55 144.014 129.299 144.26 130.539 144.692Z" fill="black"/>
<path d="M98.0094 86.7689C98.0094 86.7689 88.2327 90.4934 88.1396 100.922C88.1173 107.642 88.4904 114.358 89.2569 121.034C89.2569 121.034 86.4635 136.584 94.378 141.053C102.293 145.522 109.648 149.247 109.648 149.247C109.648 149.247 122.293 151.295 123.846 151.947C125.399 152.599 130.796 144.219 129.958 142.822C129.12 141.425 117.608 137.98 116.241 135.653C114.874 133.325 111.507 131.757 111.507 131.757C111.507 131.757 108.073 129.414 107.935 127.459C107.797 125.503 108.81 124.107 109.097 123.269C109.384 122.431 110.423 114.237 110.423 114.237C110.423 114.237 115.98 85.1674 98.0094 86.7689Z" fill="#DCE6F2"/>
<path opacity="0.1" d="M102.479 121.295C102.479 121.295 89.2569 122.785 90.2811 127.44C90.2811 127.44 95.3054 122.744 102.479 121.295Z" fill="black"/>
<path opacity="0.1" d="M102.479 123.157C102.479 123.157 94.9739 128.651 96.352 129.023C97.73 129.395 102.479 123.157 102.479 123.157Z" fill="black"/>
<path opacity="0.1" d="M105.831 125.392C105.831 125.392 103.689 129.243 104.9 129.042C106.11 128.841 105.831 125.392 105.831 125.392Z" fill="black"/>
<path d="M243.495 41.8593C243.495 41.8593 229.342 41.0064 230.995 50.9358C230.995 50.9358 230.664 52.69 232.254 53.4871C232.254 53.4871 232.28 52.7422 233.707 52.9992C234.215 53.0847 234.731 53.1097 235.245 53.0737C235.941 53.0272 236.603 52.7538 237.13 52.2952C237.13 52.2952 241.111 50.6527 242.66 44.1424C242.66 44.1424 243.808 42.7196 243.778 42.3546L241.387 43.3789C241.387 43.3789 242.202 45.1033 241.558 46.5372C241.558 46.5372 241.483 43.4422 241.022 43.5129C240.929 43.5129 239.781 44.1126 239.781 44.1126C239.781 44.1126 241.186 47.1145 240.124 49.3008C240.124 49.3008 240.526 45.5986 239.342 44.3286L237.658 45.3119C237.658 45.3119 239.301 48.4143 238.187 50.947C238.187 50.947 238.474 47.0624 237.305 45.5502L235.778 46.7383C235.778 46.7383 237.323 49.7998 236.381 51.9004C236.381 51.9004 236.258 47.3789 235.446 47.0363C235.446 47.0363 234.113 48.2132 233.912 48.6974C233.912 48.6974 234.966 50.9321 234.31 52.0904C234.31 52.0904 233.908 49.0773 233.565 49.0624C233.565 49.0624 232.236 51.0587 232.098 52.4144C232.162 51.1505 232.556 49.9255 233.241 48.8613C232.475 49.0063 231.768 49.3727 231.208 49.9153C231.208 49.9153 231.412 48.5037 233.569 48.3808C233.569 48.3808 234.686 46.865 234.962 46.7719C234.962 46.7719 232.817 46.5931 231.517 47.1704C231.517 47.1704 232.66 45.8407 235.357 46.4255L236.847 45.1964C236.847 45.1964 234.023 44.824 232.824 45.2374C232.824 45.2374 234.202 44.0604 237.252 44.9171L238.891 43.9375C238.891 43.9375 236.485 43.4161 235.051 43.6061C235.051 43.6061 236.563 42.7904 239.372 43.6731L240.545 43.1479C240.545 43.1479 238.78 42.8016 238.266 42.7457C237.752 42.6898 237.722 42.5483 237.722 42.5483C238.839 42.3624 239.985 42.4914 241.033 42.9208C241.033 42.9208 243.547 42.0157 243.495 41.8593Z" fill="#39A935"/>
<path opacity="0.1" d="M286.497 91.5214C286.497 91.5214 272.344 90.6685 273.998 100.598C273.998 100.598 273.667 102.352 275.257 103.149C275.257 103.149 275.283 102.404 276.713 102.661C277.221 102.747 277.737 102.772 278.251 102.736C278.94 102.686 279.593 102.414 280.114 101.961C280.114 101.961 284.099 100.315 285.648 93.8045C285.648 93.8045 286.792 92.3855 286.747 92.0205L284.356 93.041C284.356 93.041 285.171 94.7654 284.531 96.1993C284.531 96.1993 284.453 93.1043 283.994 93.175C283.901 93.175 282.751 93.7747 282.751 93.7747C282.751 93.7747 284.158 96.7803 283.097 98.9629C283.097 98.9629 283.499 95.2607 282.311 93.9907L280.646 94.9628C280.646 94.9628 282.289 98.0653 281.175 100.598C281.175 100.598 281.462 96.7133 280.292 95.2012L278.769 96.393C278.769 96.393 280.311 99.4508 279.372 101.551C279.372 101.551 279.25 97.0299 278.438 96.6872C278.438 96.6872 277.104 97.8641 276.899 98.3483C276.899 98.3483 277.957 100.583 277.302 101.741C277.302 101.741 276.899 98.7282 276.557 98.7133C276.557 98.7133 275.227 100.71 275.089 102.065C275.156 100.801 275.551 99.5765 276.236 98.5122C275.469 98.6575 274.761 99.0239 274.199 99.5662C274.199 99.5662 274.408 98.1546 276.564 98.0317C276.564 98.0317 277.663 96.5159 277.957 96.4228C277.957 96.4228 275.812 96.244 274.512 96.8213C274.512 96.8213 275.655 95.4917 278.348 96.095L279.838 94.8659C279.838 94.8659 277.011 94.4935 275.816 94.9069C275.816 94.9069 277.194 93.73 280.244 94.5866L281.883 93.6071C281.883 93.6071 279.473 93.0894 278.039 93.2756C278.039 93.2756 279.555 92.4599 282.363 93.3426L283.536 92.8175C283.536 92.8175 281.771 92.4711 281.253 92.4153C280.736 92.3594 280.709 92.2179 280.709 92.2179C281.828 92.0319 282.975 92.1608 284.024 92.5903C284.024 92.5903 286.542 91.6778 286.497 91.5214Z" fill="#39A935"/>
<path opacity="0.1" d="M200.518 82.7055C200.518 82.7055 203.777 68.8915 193.706 68.8431C193.706 68.8431 192.034 68.2173 190.98 69.6475C190.98 69.6475 191.698 69.8002 191.21 71.1634C191.042 71.6454 190.929 72.1453 190.875 72.6532C190.803 73.3455 190.959 74.0424 191.318 74.6383C191.318 74.6383 192.261 78.847 198.395 81.4839C198.395 81.4839 199.602 82.8545 199.967 82.8694L199.371 80.3405C199.371 80.3405 197.531 80.8507 196.227 79.968C196.227 79.968 199.293 80.4187 199.296 79.968C199.296 79.8749 198.924 78.6421 198.924 78.6421C198.924 78.6421 195.725 79.5136 193.751 78.0946C193.751 78.0946 197.33 79.1226 198.786 78.1728L198.116 76.3404C198.116 76.3404 194.764 77.4317 192.469 75.9009C192.469 75.9009 196.25 76.8469 197.941 75.9531L197.028 74.2473C197.028 74.2473 193.751 75.2454 191.84 73.9605C191.84 73.9605 196.309 74.6085 196.793 73.8711C196.793 73.8711 195.862 72.3552 195.419 72.0722C195.419 72.0722 193.05 72.7351 192.008 71.8897C192.008 71.8897 195.043 72.0051 195.114 71.6848C195.114 71.6848 193.374 70.0349 192.048 69.6624C193.284 69.9438 194.425 70.5419 195.36 71.398C195.346 70.6175 195.105 69.8578 194.667 69.2118C194.667 69.2118 196.023 69.6587 195.784 71.8189C195.784 71.8189 197.088 73.1597 197.129 73.4651C197.129 73.4651 197.669 71.3831 197.322 70.0014C197.322 70.0014 198.44 71.3571 197.386 73.9083L198.339 75.603C198.339 75.603 199.203 72.8841 198.983 71.6327C198.983 71.6327 199.911 73.1895 198.544 76.0499L199.233 77.8339C199.233 77.8339 200.153 75.5471 200.213 74.1094C200.213 74.1094 200.76 75.7408 199.408 78.3591L199.728 79.603C199.728 79.603 200.369 77.9233 200.511 77.4242C200.652 76.9251 200.797 76.9214 200.797 76.9214C200.792 78.0545 200.47 79.1636 199.87 80.1245C199.87 80.1245 200.358 82.7241 200.518 82.7055Z" fill="#39A935"/>
<path opacity="0.1" d="M169.523 87.4133C169.523 87.4133 158.156 78.9103 154.092 88.1209C154.092 88.1209 152.852 89.4059 153.742 90.9441C153.742 90.9441 154.167 90.3444 155.232 91.3389C155.609 91.6899 156.027 91.9949 156.476 92.2476C157.084 92.5864 157.787 92.7171 158.476 92.6201C158.476 92.6201 162.707 93.4357 167.579 88.8509C167.579 88.8509 169.318 88.2923 169.482 87.9645L166.916 87.5138C166.916 87.5138 166.648 89.4021 165.325 90.2476C165.325 90.2476 166.961 87.6181 166.536 87.4282C166.45 87.3872 165.169 87.242 165.169 87.242C165.169 87.242 164.692 90.5269 162.607 91.7672C162.607 91.7672 164.979 88.8956 164.685 87.1824L162.737 87.0781C162.737 87.0781 162.405 90.5754 160.081 92.08C160.081 92.08 162.454 88.9925 162.316 87.0855L160.387 87.242C160.387 87.242 159.996 90.6424 158.055 91.8789C158.055 91.8789 160.435 88.0353 159.947 87.3053C159.947 87.3053 158.186 87.5548 157.75 87.8453C157.75 87.8453 157.411 90.2811 156.219 90.8994C156.219 90.8994 157.541 88.1619 157.273 87.972C157.273 87.972 155.065 88.9068 154.197 89.972C154.947 88.9521 155.951 88.1459 157.109 87.633C156.389 87.3336 155.597 87.2508 154.83 87.3947C154.83 87.3947 155.776 86.3295 157.646 87.4133C157.646 87.4133 159.396 86.754 159.694 86.836C159.694 86.836 157.999 85.5063 156.595 85.2754C156.595 85.2754 158.286 84.7913 160.204 86.7652L162.137 86.5678C162.137 86.5678 159.988 84.7056 158.755 84.3927C158.755 84.3927 160.554 84.1655 162.629 86.5567L164.536 86.6423C164.536 86.6423 162.811 84.8844 161.512 84.2512C161.512 84.2512 163.221 84.4002 165.083 86.6833L166.353 86.8881C166.353 86.8881 165.068 85.6293 164.666 85.3015C164.264 84.9738 164.32 84.8359 164.32 84.8359C165.356 85.2948 166.244 86.0323 166.886 86.9663C166.886 86.9663 169.475 87.566 169.523 87.4133Z" fill="#39A935"/>
<path opacity="0.1" d="M207.367 8.41359C207.367 8.41359 196 -0.0930953 191.937 9.12124C191.937 9.12124 190.697 10.4062 191.587 11.9444C191.587 11.9444 192.011 11.3447 193.076 12.3392C193.456 12.6884 193.874 12.9921 194.324 13.2442C194.932 13.5832 195.635 13.714 196.324 13.6167C196.324 13.6167 200.555 14.4323 205.427 9.84379C205.427 9.84379 207.166 9.28884 207.326 8.95737L204.76 8.51415C204.76 8.51415 204.496 10.4025 203.17 11.2479C203.17 11.2479 204.809 8.61844 204.384 8.42849C204.298 8.38752 203.017 8.24227 203.017 8.24227C203.017 8.24227 202.525 11.5347 200.44 12.7675C200.44 12.7675 202.808 9.89593 202.518 8.18267L200.57 8.07839C200.57 8.07839 200.235 11.5757 197.915 13.0766C197.915 13.0766 200.287 9.98904 200.149 8.08212L198.224 8.23854C198.224 8.23854 197.829 11.6427 195.888 12.8792C195.888 12.8792 198.272 9.03558 197.784 8.30558C197.784 8.30558 196.022 8.55512 195.587 8.84563C195.587 8.84563 195.248 11.2814 194.056 11.8997C194.056 11.8997 195.378 9.16221 195.11 8.96854C195.11 8.96854 192.901 9.9071 192.034 10.9723C192.783 9.95132 193.787 9.14482 194.946 8.63334C194.225 8.33167 193.431 8.24878 192.663 8.39497C192.663 8.39497 193.613 7.32977 195.482 8.41359C195.482 8.41359 197.233 7.75064 197.531 7.8363C197.531 7.8363 195.836 6.50667 194.432 6.27202C194.432 6.27202 196.119 5.79157 198.037 7.76181L199.97 7.56441C199.97 7.56441 197.825 5.70218 196.589 5.3856C196.589 5.3856 198.388 5.16213 200.466 7.55324L202.373 7.63518C202.373 7.63518 200.648 5.87723 199.345 5.24779C199.345 5.24779 201.058 5.39677 202.92 7.67987L204.187 7.88472C204.187 7.88472 202.898 6.64074 202.496 6.32044C202.093 6.00014 202.149 5.85861 202.149 5.85861C203.186 6.31693 204.074 7.05457 204.715 7.989C204.715 7.989 207.304 8.55512 207.367 8.41359Z" fill="#39A935"/>
<path opacity="0.1" d="M250.802 19.1884C250.802 19.1884 246.258 5.73938 237.688 11.0244C237.688 11.0244 235.938 11.3968 235.8 13.1511C235.8 13.1511 236.489 12.8978 236.794 14.3131C236.908 14.8165 237.079 15.3052 237.304 15.7694C237.612 16.394 238.114 16.9023 238.735 17.2182C238.735 17.2182 241.759 20.2909 248.374 19.2741C248.374 19.2741 250.12 19.803 250.441 19.6205L248.578 17.7918C248.578 17.7918 247.29 19.1959 245.718 19.14C245.718 19.14 248.56 17.9035 248.325 17.505C248.277 17.4268 247.305 16.5813 247.305 16.5813C247.305 16.5813 245.048 19.0134 242.627 18.8532C242.627 18.8532 246.206 17.8327 246.936 16.2461L245.394 15.058C245.394 15.058 243.137 17.7471 240.37 17.6651C240.37 17.6651 244.094 16.4696 245.036 14.8159L243.36 13.8513C243.36 13.8513 241.126 16.4323 238.809 16.3504C238.809 16.3504 242.951 14.5366 242.962 13.6576C242.962 13.6576 241.372 12.8643 240.846 12.8568C240.846 12.8568 239.185 14.6707 237.867 14.5068C237.867 14.5068 240.504 12.9984 240.392 12.6892C240.392 12.6892 238.046 12.2088 236.723 12.5961C237.919 12.1798 239.203 12.0835 240.448 12.3168C240.023 11.6609 239.416 11.1432 238.701 10.827C238.701 10.827 240.087 10.4881 241.014 12.4397C241.014 12.4397 242.832 12.8904 243.025 13.125C243.025 13.125 242.385 11.0728 241.36 10.0821C241.36 10.0821 243.025 10.6445 243.48 13.3671L245.185 14.2982C245.185 14.2982 244.482 11.5384 243.632 10.5737C243.632 10.5737 245.245 11.408 245.595 14.5552L247.122 15.7061C247.122 15.7061 246.698 13.2777 245.982 12.0188C245.982 12.0188 247.308 13.1138 247.547 16.0524L248.474 16.9389C248.474 16.9389 248.131 15.1735 247.99 14.6744C247.848 14.1753 247.964 14.1418 247.964 14.1418C248.556 15.108 248.869 16.2191 248.869 17.3523C248.869 17.3523 250.672 19.2853 250.802 19.1884Z" fill="#39A935"/>
<path opacity="0.1" d="M221.148 19.8514C221.148 19.8514 207.032 18.2797 208.198 28.2948C208.198 28.2948 207.777 30.0304 209.315 30.9019C209.315 30.9019 209.378 30.157 210.805 30.4922C211.309 30.6007 211.824 30.6519 212.339 30.6449C213.036 30.6323 213.709 30.3931 214.258 29.9633C214.258 29.9633 218.321 28.522 220.217 22.0973C220.217 22.0973 221.431 20.7378 221.405 20.3691L218.965 21.2704C218.965 21.2704 219.71 23.0321 218.965 24.4325C218.965 24.4325 219.044 21.3375 218.593 21.3859C218.5 21.3859 217.323 21.9222 217.323 21.9222C217.323 21.9222 218.574 24.9949 217.405 27.1365C217.405 27.1365 217.993 23.4567 216.872 22.1308L215.14 23.0247C215.14 23.0247 216.63 26.2091 215.382 28.6821C215.382 28.6821 215.867 24.8161 214.775 23.2481L213.192 24.3655C213.192 24.3655 214.578 27.4977 213.531 29.5499C213.531 29.5499 213.639 25.0284 212.846 24.6448C212.846 24.6448 211.453 25.7621 211.226 26.224C211.226 26.224 212.168 28.4959 211.457 29.6319C211.457 29.6319 211.207 26.6039 210.879 26.5741C210.879 26.5741 209.449 28.4996 209.241 29.8591C209.37 28.5987 209.827 27.3942 210.567 26.3655C209.794 26.4723 209.069 26.8024 208.481 27.3152C208.481 27.3152 208.757 25.9186 210.917 25.9037C210.917 25.9037 212.09 24.4474 212.406 24.3692C212.406 24.3692 210.272 24.0824 208.943 24.5927C208.943 24.5927 210.153 23.3189 212.812 24.0601L214.38 22.9092C214.38 22.9092 211.546 22.3356 210.347 22.7081C210.347 22.7081 211.784 21.5907 214.786 22.615L216.474 21.7174C216.474 21.7174 214.094 21.0768 212.652 21.1922C212.652 21.1922 214.205 20.4473 216.965 21.479L218.165 21.0134C218.165 21.0134 216.418 20.5777 215.904 20.4957C215.39 20.4138 215.371 20.2723 215.371 20.2723C216.497 20.1431 217.637 20.3287 218.664 20.8086C218.664 20.8086 221.174 20.0078 221.148 19.8514Z" fill="#39A935"/>
<path opacity="0.1" d="M344.651 129.414C344.651 129.414 330.543 127.842 331.709 137.846C331.709 137.846 331.288 139.582 332.826 140.453C332.826 140.453 332.889 139.709 334.316 140.04C334.819 140.152 335.334 140.203 335.85 140.193C336.547 140.182 337.221 139.943 337.768 139.511C337.768 139.511 341.832 138.07 343.709 131.649C343.709 131.649 344.923 130.286 344.897 129.921L342.457 130.818C342.457 130.818 343.202 132.584 342.457 133.984C342.457 133.984 342.536 130.885 342.085 130.937C341.992 130.937 340.815 131.47 340.815 131.47C340.815 131.47 342.066 134.543 340.897 136.684C340.897 136.684 341.485 133.008 340.364 131.679L338.632 132.576C338.632 132.576 340.122 135.761 338.878 138.234C338.878 138.234 339.359 134.368 338.267 132.796L336.685 133.913C336.685 133.913 338.07 137.046 337.023 139.094C337.023 139.094 337.131 134.572 336.338 134.193C336.338 134.193 334.949 135.31 334.718 135.772C334.718 135.772 335.664 138.044 334.949 139.18C334.949 139.18 334.699 136.152 334.372 136.122C334.372 136.122 332.941 138.047 332.733 139.407C332.862 138.146 333.319 136.942 334.059 135.913C333.285 136.018 332.56 136.348 331.973 136.863C331.973 136.863 332.249 135.463 334.409 135.448C334.409 135.448 335.586 133.991 335.899 133.917C335.899 133.917 333.765 133.626 332.435 134.137C332.435 134.137 333.645 132.867 336.308 133.608L337.873 132.457C337.873 132.457 335.072 131.928 333.854 132.293C333.854 132.293 335.292 131.176 338.293 132.196L339.981 131.302C339.981 131.302 337.601 130.662 336.159 130.777C336.159 130.777 337.712 130.032 340.472 131.064L341.672 130.595C341.672 130.595 339.925 130.159 339.411 130.081C338.897 130.003 338.878 129.857 338.878 129.857C340.004 129.726 341.144 129.91 342.171 130.39C342.171 130.39 344.688 129.574 344.651 129.414Z" fill="#39A935"/>
<path opacity="0.1" d="M366.219 142.591C366.219 142.591 352.111 141.023 353.277 151.024C353.277 151.024 352.86 152.759 354.394 153.631C354.394 153.631 354.458 152.886 355.884 153.221C356.387 153.33 356.901 153.38 357.415 153.37C358.108 153.356 358.778 153.118 359.325 152.692C359.325 152.692 363.385 151.251 365.262 144.826C365.262 144.826 366.48 143.467 366.45 143.098L364.011 143.995C364.011 143.995 364.756 145.761 364.011 147.161C364.011 147.161 364.089 144.066 363.638 144.115C363.545 144.115 362.368 144.647 362.368 144.647C362.368 144.647 363.62 147.72 362.45 149.861C362.45 149.861 363.039 146.185 361.918 144.86L360.186 145.753C360.186 145.753 361.676 148.938 360.432 151.411C360.432 151.411 360.912 147.545 359.821 145.977L358.238 147.094C358.238 147.094 359.623 150.226 358.581 152.279C358.581 152.279 358.685 147.753 357.892 147.374C357.892 147.374 356.502 148.491 356.271 148.953C356.271 148.953 357.217 151.225 356.502 152.361C356.502 152.361 356.253 149.333 355.925 149.303C355.925 149.303 354.495 151.228 354.29 152.588C354.419 151.328 354.875 150.124 355.612 149.094C354.839 149.201 354.114 149.531 353.527 150.044C353.527 150.044 353.806 148.644 355.966 148.632C355.966 148.632 357.139 147.176 357.456 147.098C357.456 147.098 355.322 146.811 353.992 147.321C353.992 147.321 355.202 146.048 357.865 146.789L359.43 145.638C359.43 145.638 356.629 145.109 355.411 145.474C355.411 145.474 356.849 144.357 359.851 145.381L361.538 144.483C361.538 144.483 359.158 143.843 357.717 143.958C357.717 143.958 359.27 143.213 362.029 144.245L363.229 143.779C363.229 143.779 361.482 143.344 360.972 143.262C360.461 143.18 360.435 143.038 360.435 143.038C361.561 142.909 362.701 143.095 363.728 143.575C363.728 143.575 366.257 142.751 366.219 142.591Z" fill="#39A935"/>
<path opacity="0.1" d="M318.334 31.5983C318.334 31.5983 306.967 23.0954 302.904 32.306C302.904 32.306 301.663 33.5909 302.554 35.1291C302.554 35.1291 302.978 34.5295 304.043 35.5239C304.421 35.8749 304.838 36.18 305.287 36.4327C305.896 36.7712 306.598 36.9019 307.287 36.8052C307.287 36.8052 311.518 37.6208 316.394 33.036C316.394 33.036 318.129 32.4773 318.293 32.1496L315.734 31.6877C315.734 31.6877 315.466 33.576 314.144 34.4215C314.144 34.4215 315.779 31.792 315.354 31.6021C315.269 31.5611 313.991 31.4158 313.991 31.4158C313.991 31.4158 313.511 34.7008 311.425 35.9411C311.425 35.9411 313.798 33.0695 313.503 31.3563L311.556 31.252C311.556 31.252 311.224 34.7492 308.9 36.2539C308.9 36.2539 311.276 33.1663 311.135 31.2594L309.205 31.4158C309.205 31.4158 308.833 34.8163 306.874 36.0528C306.874 36.0528 309.258 32.2092 308.766 31.4792C308.766 31.4792 307.004 31.7287 306.568 32.0192C306.568 32.0192 306.233 34.455 305.041 35.0733C305.041 35.0733 306.36 32.3358 306.092 32.1458C306.092 32.1458 303.883 33.0807 303.015 34.1459C303.766 33.126 304.77 32.3197 305.928 31.8069C305.207 31.5075 304.415 31.4246 303.649 31.5685C303.649 31.5685 304.598 30.5033 306.468 31.5872C306.468 31.5872 308.215 30.9279 308.513 31.0099C308.513 31.0099 306.818 29.6802 305.414 29.4493C305.414 29.4493 307.105 28.9651 309.023 30.9391L310.956 30.7417C310.956 30.7417 308.811 28.8795 307.574 28.5666C307.574 28.5666 309.373 28.3394 311.448 30.7305L313.358 30.8162C313.358 30.8162 311.63 29.0583 310.33 28.4251C310.33 28.4251 312.043 28.5741 313.902 30.8572L315.172 31.062C315.172 31.062 313.887 29.8031 313.485 29.4754C313.083 29.1476 313.142 29.0396 313.142 29.0396C314.177 29.4992 315.064 30.2367 315.705 31.17C315.705 31.17 318.286 31.751 318.334 31.5983Z" fill="#39A935"/>
<path opacity="0.1" d="M327.116 92.985C327.116 92.985 323.198 79.3423 314.386 84.24C314.386 84.24 312.621 84.5119 312.401 86.2773C312.401 86.2773 313.101 86.0575 313.343 87.484C313.433 87.9965 313.583 88.4965 313.79 88.9738C314.066 89.6156 314.545 90.1493 315.153 90.4934C315.153 90.4934 318.036 93.6964 324.688 92.9813C324.688 92.9813 326.409 93.5847 326.736 93.4208L324.975 91.5064C324.975 91.5064 323.623 92.8547 322.059 92.728C322.059 92.728 324.949 91.6107 324.725 91.2122C324.681 91.1303 323.749 90.2401 323.749 90.2401C323.749 90.2401 321.388 92.5716 318.975 92.2997C318.975 92.2997 322.599 91.4431 323.396 89.9012L321.906 88.6423C321.906 88.6423 319.53 91.2271 316.77 91.026C316.77 91.026 320.524 89.9943 321.559 88.3891L319.928 87.3499C319.928 87.3499 317.563 89.8267 315.269 89.6405C315.269 89.6405 319.489 88.0129 319.541 87.1376C319.541 87.1376 317.984 86.2736 317.459 86.2438C317.459 86.2438 315.719 87.9794 314.397 87.7559C314.397 87.7559 317.101 86.3667 317.004 86.0538C317.004 86.0538 314.68 85.4691 313.343 85.7931C314.554 85.434 315.838 85.3968 317.068 85.6851C316.674 85.0112 316.091 84.4674 315.392 84.1208C315.392 84.1208 316.792 83.8415 317.626 85.8341C317.626 85.8341 319.418 86.3629 319.604 86.6088C319.604 86.6088 319.057 84.5268 318.077 83.4951C318.077 83.4951 319.716 84.1283 320.047 86.8695L321.708 87.8788C321.708 87.8788 321.127 85.0855 320.323 84.1022C320.323 84.1022 321.895 85.0072 322.107 88.1656L323.597 89.3835C323.597 89.3835 323.28 86.9402 322.625 85.659C322.625 85.659 323.902 86.8136 324.006 89.7559L324.893 90.687C324.893 90.687 324.632 88.9068 324.52 88.4002C324.409 87.8937 324.52 87.8229 324.52 87.8229C325.072 88.8136 325.336 89.9382 325.284 91.0707C325.284 91.0707 326.982 93.0744 327.116 92.985Z" fill="#39A935"/>
<path opacity="0.1" d="M239.807 123.727C239.807 123.727 232.198 111.742 225.133 118.915C225.133 118.915 223.517 119.66 223.8 121.429C223.8 121.429 224.414 121.019 225.047 122.323C225.275 122.785 225.557 123.217 225.889 123.611C226.333 124.149 226.942 124.526 227.621 124.684C227.621 124.684 231.29 126.949 237.472 124.386C237.472 124.386 239.293 124.483 239.562 124.233L237.327 122.893C237.327 122.893 236.407 124.569 234.869 124.885C234.869 124.885 237.334 123.023 237.003 122.68C236.94 122.613 235.792 122.025 235.792 122.025C235.792 122.025 234.18 124.922 231.789 125.343C231.789 125.343 235.025 123.5 235.36 121.794L233.576 121.008C233.576 121.008 232.023 124.155 229.319 124.732C229.319 124.732 232.634 122.688 233.174 120.855L231.312 120.319C231.312 120.319 229.74 123.362 227.487 123.827C227.487 123.827 231.077 121.079 230.88 120.222C230.88 120.222 229.144 119.831 228.645 119.95C228.645 119.95 227.465 122.107 226.131 122.263C226.131 122.263 228.336 120.17 228.154 119.894C228.154 119.894 225.759 119.988 224.567 120.677C225.63 119.988 226.855 119.59 228.12 119.522C227.554 118.986 226.843 118.627 226.075 118.49C226.075 118.49 227.338 117.831 228.682 119.507C228.682 119.507 230.545 119.507 230.802 119.693C230.802 119.693 229.684 117.831 228.459 117.135C228.459 117.135 230.209 117.284 231.297 119.82L233.178 120.319C233.178 120.319 231.833 117.805 230.787 117.086C230.787 117.086 232.548 117.511 233.64 120.487L235.398 121.231C235.398 121.231 234.407 118.978 233.412 117.924C233.412 117.924 234.962 118.669 235.889 121.466L237.007 122.11C237.007 122.11 236.262 120.475 235.997 120.025C235.733 119.574 235.837 119.47 235.837 119.47C236.643 120.266 237.212 121.27 237.48 122.371C237.48 122.371 239.707 123.854 239.807 123.727Z" fill="#39A935"/>
<path d="M289.816 62.4891C289.816 62.4891 282.579 50.2766 275.29 57.2265C275.29 57.2265 273.652 57.9341 273.883 59.6995C273.883 59.6995 274.504 59.3047 275.1 60.6269C275.314 61.0969 275.582 61.5396 275.901 61.9454C276.329 62.4946 276.926 62.8874 277.6 63.0627C277.6 63.0627 281.194 65.4389 287.454 63.0627C287.454 63.0627 289.272 63.2154 289.548 62.9733L287.361 61.5655C287.361 61.5655 286.393 63.208 284.844 63.4798C284.844 63.4798 287.365 61.6809 287.049 61.342C286.981 61.2712 285.857 60.6455 285.857 60.6455C285.857 60.6455 284.155 63.4947 281.76 63.8411C281.76 63.8411 285.052 62.0981 285.436 60.4072L283.678 59.5803C283.678 59.5803 282.028 62.6828 279.305 63.1782C279.305 63.1782 282.683 61.2377 283.279 59.4239L281.439 58.828C281.439 58.828 279.771 61.8076 277.506 62.2173C277.506 62.2173 281.179 59.5803 281.007 58.72C281.007 58.72 279.287 58.273 278.773 58.3773C278.773 58.3773 277.525 60.4965 276.188 60.612C276.188 60.612 278.456 58.5933 278.285 58.3103C278.285 58.3103 275.886 58.3289 274.676 58.9807C275.76 58.3266 276.997 57.9672 278.262 57.9378C277.712 57.3842 277.012 57.0036 276.248 56.8428C276.248 56.8428 277.532 56.2209 278.855 57.9378C278.855 57.9378 280.717 58.0012 280.966 58.1911C280.966 58.1911 279.912 56.3289 278.706 55.5616C278.706 55.5616 280.449 55.7627 281.458 58.3326L283.32 58.8913C283.32 58.8913 282.058 56.3363 281.03 55.584C281.03 55.584 282.78 56.0644 283.778 59.0701L285.51 59.8783C285.51 59.8783 284.59 57.5952 283.648 56.5263C283.648 56.5263 285.171 57.3196 286.017 60.1427L287.108 60.8206C287.108 60.8206 286.408 59.1632 286.162 58.7051C285.916 58.247 286.021 58.1464 286.021 58.1464C286.801 58.967 287.339 59.9881 287.574 61.0962C287.574 61.0962 289.708 62.612 289.816 62.4891Z" fill="#39A935"/>
<path d="M244.031 88.1694C244.031 88.1694 244.403 73.9791 234.545 75.9792C234.545 75.9792 232.779 75.7073 232.034 77.3237C232.034 77.3237 232.779 77.3237 232.571 78.7576C232.503 79.2689 232.495 79.7865 232.548 80.2996C232.616 80.9955 232.91 81.6499 233.386 82.1618C233.386 82.1618 235.163 86.0874 241.722 87.4207C241.722 87.4207 243.178 88.5195 243.543 88.4599L242.426 86.106C242.426 86.106 240.731 86.9775 239.275 86.3853C239.275 86.3853 242.366 86.2029 242.28 85.7485C242.28 85.6554 241.64 84.5231 241.64 84.5231C241.64 84.5231 238.683 86.0315 236.467 85.0408C236.467 85.0408 240.191 85.3202 241.409 84.0948L240.37 82.4449C240.37 82.4449 237.323 84.1879 234.753 83.16C234.753 83.16 238.645 83.3164 240.12 82.0985L238.88 80.6087C238.88 80.6087 235.874 82.2549 233.744 81.3834C233.744 81.3834 238.258 81.1115 238.586 80.2884C238.586 80.2884 237.364 78.996 236.873 78.7986C236.873 78.7986 234.69 79.9159 233.498 79.3126C233.498 79.3126 236.478 78.8135 236.496 78.482C236.496 78.482 234.459 77.2194 233.085 77.1263C234.352 77.149 235.591 77.5034 236.679 78.1543C236.509 77.393 236.121 76.6978 235.562 76.1542C235.562 76.1542 236.981 76.3144 237.174 78.4634C237.174 78.4634 238.727 79.5137 238.828 79.8042C238.828 79.8042 238.936 77.6552 238.314 76.374C238.314 76.374 239.684 77.4727 239.171 80.1841L240.448 81.6516C240.448 81.6516 240.739 78.8135 240.273 77.6328C240.273 77.6328 241.495 78.9699 240.742 82.0463L241.774 83.6516C241.774 83.6516 242.213 81.227 241.979 79.8005C241.979 79.8005 242.843 81.2903 242.053 84.1246L242.619 85.2792C242.619 85.2792 242.906 83.5026 242.943 82.9849C242.981 82.4672 243.122 82.4337 243.122 82.4337C243.346 83.5447 243.257 84.6962 242.865 85.7596C242.865 85.7596 243.867 88.2178 244.031 88.1694Z" fill="#39A935"/>
<path opacity="0.1" d="M260.329 268.478C265.869 268.478 270.359 267.72 270.359 266.784C270.359 265.848 265.869 265.089 260.329 265.089C254.79 265.089 250.299 265.848 250.299 266.784C250.299 267.72 254.79 268.478 260.329 268.478Z" fill="#39A935"/>
<path opacity="0.1" d="M223.766 294.207C229.305 294.207 233.796 293.448 233.796 292.512C233.796 291.576 229.305 290.818 223.766 290.818C218.227 290.818 213.736 291.576 213.736 292.512C213.736 293.448 218.227 294.207 223.766 294.207Z" fill="#39A935"/>
<path opacity="0.1" d="M34.6897 281.026C40.2291 281.026 44.7197 280.267 44.7197 279.331C44.7197 278.396 40.2291 277.637 34.6897 277.637C29.1503 277.637 24.6597 278.396 24.6597 279.331C24.6597 280.267 29.1503 281.026 34.6897 281.026Z" fill="#39A935"/>
<path opacity="0.1" d="M299.842 292.512C305.381 292.512 309.872 291.754 309.872 290.818C309.872 289.882 305.381 289.123 299.842 289.123C294.303 289.123 289.812 289.882 289.812 290.818C289.812 291.754 294.303 292.512 299.842 292.512Z" fill="#39A935"/>
<path d="M310.285 271.849C318.557 271.849 325.262 270.715 325.262 269.316C325.262 267.918 318.557 266.784 310.285 266.784C302.014 266.784 295.309 267.918 295.309 269.316C295.309 270.715 302.014 271.849 310.285 271.849Z" fill="#39A935"/>
<path d="M316.494 265.171C317.178 264.615 317.675 263.864 317.921 263.018C318.107 262.162 317.742 261.137 316.926 260.824C316.01 260.474 315.03 261.108 314.285 261.748C313.541 262.389 312.695 263.122 311.723 262.988C312.222 262.535 312.595 261.96 312.807 261.32C313.018 260.68 313.061 259.996 312.93 259.335C312.888 259.061 312.772 258.803 312.595 258.59C312.084 258.046 311.164 258.281 310.554 258.709C308.617 260.072 308.077 262.702 308.066 265.07C307.872 264.217 308.036 263.327 308.032 262.463C308.028 261.599 307.786 260.601 307.045 260.147C306.59 259.893 306.076 259.764 305.555 259.774C304.684 259.744 303.712 259.83 303.12 260.467C302.375 261.257 302.572 262.586 303.213 263.447C303.853 264.307 304.833 264.862 305.734 265.465C306.455 265.896 307.071 266.483 307.537 267.182C307.59 267.28 307.633 267.382 307.667 267.488H313.127C314.35 266.872 315.482 266.093 316.494 265.171Z" fill="#39A935"/>
<path d="M27.9559 271.454C27.9559 271.454 33.6729 271.279 35.4048 270.05C37.1367 268.821 44.2057 267.357 44.6341 269.327C45.0624 271.298 53.2301 279.119 46.7719 279.171C40.3137 279.223 31.766 278.166 30.0453 277.115C28.3246 276.065 27.9559 271.454 27.9559 271.454Z" fill="#A8A8A8"/>
<path opacity="0.2" d="M46.8799 278.486C40.4217 278.538 31.874 277.48 30.1533 276.43C28.8423 275.633 28.3209 272.769 28.1458 271.447H27.9559C27.9559 271.447 28.3283 276.061 30.0379 277.108C31.7474 278.154 40.3062 279.216 46.7644 279.164C48.6267 279.164 49.271 278.486 49.2375 277.503C48.9768 278.102 48.2654 278.475 46.8799 278.486Z" fill="black"/>
</g>
<defs>
<linearGradient id="paint0_linear" x1="83.0519" y1="161.426" x2="199.304" y2="161.426" gradientUnits="userSpaceOnUse">
<stop stop-color="#808080" stop-opacity="0.25"/>
<stop offset="0.54" stop-color="#808080" stop-opacity="0.12"/>
<stop offset="1" stop-color="#808080" stop-opacity="0.1"/>
</linearGradient>
<clipPath id="clip0">
<rect width="376" height="294.207" fill="white"/>
</clipPath>
</defs>
</svg>
