<svg width="23" height="24" viewBox="0 0 23 24" fill="none" xmlns="http://www.w3.org/2000/svg">
<g clip-path="url(#clip0)">
<path d="M22.7252 12.4947C22.94 12.1861 22.9307 11.7648 22.7018 11.466C19.2413 7.00339 15.5052 4.74023 11.5917 4.74023C4.95545 4.74023 0.346061 11.226 0.154587 11.5003C-0.0602374 11.8089 -0.0508973 12.2302 0.177938 12.529C3.63381 16.9966 7.36989 19.2597 11.2834 19.2597C17.9197 19.2597 22.529 12.774 22.7252 12.4947ZM11.2834 17.5795C8.02371 17.5795 4.84804 15.6984 1.83115 11.9951C3.01269 10.5304 6.76745 6.42046 11.5917 6.42046C14.8514 6.42046 18.0271 8.30152 21.044 12.0049C19.8624 13.4696 16.1077 17.5795 11.2834 17.5795Z" fill="black" fill-opacity="0.38"/>
<path d="M11.4378 7.73328C9.1962 7.73328 7.37019 9.64864 7.37019 12C7.37019 14.3513 9.1962 16.2667 11.4378 16.2667C13.6795 16.2667 15.5055 14.3513 15.5055 12C15.5055 9.64864 13.6795 7.73328 11.4378 7.73328ZM11.4378 14.5864C10.0788 14.5864 8.97204 13.4255 8.97204 12C8.97204 10.5745 10.0788 9.41351 11.4378 9.41351C12.7968 9.41351 13.9037 10.5745 13.9037 12C13.9037 13.4255 12.7968 14.5864 11.4378 14.5864Z" fill="black" fill-opacity="0.38"/>
</g>
<defs>
<clipPath id="clip0">
<rect width="22.8805" height="24" fill="white"/>
</clipPath>
</defs>
</svg>
